<svg width="393" height="852" viewBox="0 0 393 852" fill="none" xmlns="http://www.w3.org/2000/svg">
<path d="M187.3 211.2C187.3 211.2 188.2 210.8 191.9 211.6C193.1 211.8 195.4 212.4 196.1 212.8C196.8 213.1 196 213.3 196 213.3L187.3 211.2Z" fill="#0099BE"/>
<path d="M196.2 212.8L212.9 228.5C213.2 228.8 213.3 229.2 213.1 229.5L192.2 286.5C192 287.2 191.1 287.3 190.6 286.8L175.6 270.7L196.2 212.8Z" fill="#0099BE"/>
<path d="M191.2 286.3L182.5 284.3L203 226.4L211.7 228.4L191.2 286.3Z" fill="#E9D7C5"/>
<path d="M211.7 228.4L203 226.4L187.3 211.2L196 213.2L211.7 228.4Z" fill="#FBE9D4"/>
<path d="M187.3 211.2L204 226.9C204.3 227.2 204.4 227.6 204.2 227.9L183.3 284.9C183.1 285.6 182.2 285.7 181.7 285.2L166.7 269.1L187.3 211.2Z" fill="#0099BE"/>
<path d="M181.8 235.4L193.9 246L190.1 255.2L178.6 244.4L181.8 235.4Z" fill="#00ABD3"/>
<path d="M188.1 211.4L205 226.9L184 284.6" stroke="white" stroke-width="0.09471" stroke-miterlimit="10"/>
<path d="M188.6 211.5L205.4 227L184.4 284.7" stroke="white" stroke-width="0.09471" stroke-miterlimit="10"/>
<path d="M189 211.6L205.8 227.1L184.8 284.8" stroke="white" stroke-width="0.09471" stroke-miterlimit="10"/>
<path d="M189.5 211.7L206.2 227.1L185.2 284.9" stroke="white" stroke-width="0.09471" stroke-miterlimit="10"/>
<path d="M189.9 211.8L206.6 227.2L185.6 285" stroke="white" stroke-width="0.09471" stroke-miterlimit="10"/>
<path d="M190.4 212L207 227.3L186.1 285.1" stroke="white" stroke-width="0.09471" stroke-miterlimit="10"/>
<path d="M190.9 212.1L207.4 227.4L186.5 285.2" stroke="white" stroke-width="0.09471" stroke-miterlimit="10"/>
<path d="M191.3 212.2L207.8 227.5L186.9 285.3" stroke="white" stroke-width="0.09471" stroke-miterlimit="10"/>
<path d="M191.8 212.3L208.2 227.6L187.3 285.4" stroke="white" stroke-width="0.09471" stroke-miterlimit="10"/>
<path d="M192.3 212.4L208.6 227.7L187.7 285.5" stroke="white" stroke-width="0.09471" stroke-miterlimit="10"/>
<path d="M192.7 212.5L209 227.8L188.2 285.6" stroke="white" stroke-width="0.09471" stroke-miterlimit="10"/>
<path d="M193.2 212.6L209.4 227.9L188.6 285.7" stroke="white" stroke-width="0.09471" stroke-miterlimit="10"/>
<path d="M193.7 212.7L209.8 228L189 285.8" stroke="white" stroke-width="0.09471" stroke-miterlimit="10"/>
<path d="M194.1 212.8L210.2 228.1L189.4 285.9" stroke="white" stroke-width="0.09471" stroke-miterlimit="10"/>
<path d="M194.6 212.9L210.5 228.2L189.8 286" stroke="white" stroke-width="0.09471" stroke-miterlimit="10"/>
<path d="M195.1 213L210.9 228.3L190.2 286.1" stroke="white" stroke-width="0.09471" stroke-miterlimit="10"/>
<path d="M195.5 213.1L211.3 228.3L190.7 286.2" stroke="white" stroke-width="0.09471" stroke-miterlimit="10"/>
<path d="M252.5 707.9C252.5 707.9 253.4 707.5 257.1 708.3C258.3 708.5 260.6 709.1 261.3 709.5C262 709.8 261.2 710 261.2 710L252.5 707.9Z" fill="#0099BE"/>
<path d="M261.4 709.5L278.1 725.2C278.4 725.5 278.5 725.9 278.3 726.2L257.4 783.2C257.2 783.9 256.3 784 255.8 783.5L240.8 767.4L261.4 709.5Z" fill="#0099BE"/>
<path d="M256.4 783L247.7 781L268.2 723.1L276.9 725.1L256.4 783Z" fill="#E9D7C5"/>
<path d="M276.9 725.1L268.2 723.1L252.5 707.9L261.2 709.9L276.9 725.1Z" fill="#FBE9D4"/>
<path d="M252.5 707.9L269.2 723.6C269.5 723.9 269.6 724.3 269.4 724.6L248.5 781.6C248.3 782.3 247.4 782.4 246.9 781.9L231.9 765.8L252.5 707.9Z" fill="#0099BE"/>
<path d="M247 732.1L259.1 742.7L255.3 751.9L243.8 741.1L247 732.1Z" fill="#00ABD3"/>
<path d="M253.3 708.1L270.2 723.6L249.2 781.3" stroke="white" stroke-width="0.09471" stroke-miterlimit="10"/>
<path d="M253.8 708.2L270.6 723.7L249.6 781.4" stroke="white" stroke-width="0.09471" stroke-miterlimit="10"/>
<path d="M254.2 708.3L271 723.8L250 781.5" stroke="white" stroke-width="0.09471" stroke-miterlimit="10"/>
<path d="M254.7 708.4L271.4 723.8L250.4 781.6" stroke="white" stroke-width="0.09471" stroke-miterlimit="10"/>
<path d="M255.1 708.5L271.8 723.9L250.8 781.7" stroke="white" stroke-width="0.09471" stroke-miterlimit="10"/>
<path d="M255.6 708.7L272.2 724L251.3 781.8" stroke="white" stroke-width="0.09471" stroke-miterlimit="10"/>
<path d="M256.1 708.8L272.6 724.1L251.7 781.9" stroke="white" stroke-width="0.09471" stroke-miterlimit="10"/>
<path d="M256.5 708.9L273 724.2L252.1 782" stroke="white" stroke-width="0.09471" stroke-miterlimit="10"/>
<path d="M257 709L273.4 724.3L252.5 782.1" stroke="white" stroke-width="0.09471" stroke-miterlimit="10"/>
<path d="M257.5 709.1L273.8 724.4L252.9 782.2" stroke="white" stroke-width="0.09471" stroke-miterlimit="10"/>
<path d="M257.9 709.2L274.2 724.5L253.4 782.3" stroke="white" stroke-width="0.09471" stroke-miterlimit="10"/>
<path d="M258.4 709.3L274.6 724.6L253.8 782.4" stroke="white" stroke-width="0.09471" stroke-miterlimit="10"/>
<path d="M258.9 709.4L275 724.7L254.2 782.5" stroke="white" stroke-width="0.09471" stroke-miterlimit="10"/>
<path d="M259.3 709.5L275.4 724.8L254.6 782.6" stroke="white" stroke-width="0.09471" stroke-miterlimit="10"/>
<path d="M259.8 709.6L275.7 724.9L255 782.7" stroke="white" stroke-width="0.09471" stroke-miterlimit="10"/>
<path d="M260.3 709.7L276.1 725L255.4 782.8" stroke="white" stroke-width="0.09471" stroke-miterlimit="10"/>
<path d="M260.7 709.8L276.5 725L255.9 782.9" stroke="white" stroke-width="0.09471" stroke-miterlimit="10"/>
<path d="M119.5 408.1C119.5 408.1 120 407.4 122.3 406.9C125.7 406.2 129.2 407.2 129.2 407.2C129.2 407.2 129.6 407.9 129.3 407.9C129.1 407.9 123.2 408.9 120.4 409C119.5 409 119.5 408.1 119.5 408.1Z" fill="#0089AA"/>
<path d="M129.3 407.2L144.1 418.4C144.7 418.8 145 419.5 145 420.3V479.9C145 480.5 144.3 480.9 143.8 480.5L129.3 469.5V407.2Z" fill="#0099BE"/>
<path d="M144.2 479.8L134.9 480.8V420.2L144.2 419.2V479.8Z" fill="#F5E1CD"/>
<path d="M144.2 419.2L134.9 420.2L119.6 408.7L129.2 407.7L144.2 419.2Z" fill="#FBE9D4"/>
<path d="M119.5 408L134.3 419.2C134.9 419.6 135.2 420.3 135.2 421.1V480.7C135.2 481.3 134.5 481.7 134 481.3L119.5 470.3V408Z" fill="#00ABD3"/>
<path d="M300.6 86.8C300.6 86.8 301.1 86.1 303.4 85.6C306.8 84.9 310.3 85.9 310.3 85.9C310.3 85.9 310.7 86.6 310.4 86.6C310.2 86.6 304.3 87.6 301.5 87.7C300.6 87.7 300.6 86.8 300.6 86.8Z" fill="#0089AA"/>
<path d="M310.4 85.9L325.2 97.1C325.8 97.5 326.1 98.2 326.1 99V158.6C326.1 159.2 325.4 159.6 324.9 159.2L310.4 148.2V85.9Z" fill="#0099BE"/>
<path d="M325.3 158.5L316 159.5V98.9L325.3 97.9V158.5Z" fill="#F5E1CD"/>
<path d="M325.3 97.9L316 98.9L300.7 87.4L310.3 86.4L325.3 97.9Z" fill="#FBE9D4"/>
<path d="M300.6 86.7L315.4 97.9C316 98.3 316.3 99 316.3 99.8V159.4C316.3 160 315.6 160.4 315.1 160L300.6 149V86.7Z" fill="#00ABD3"/>
<path d="M296.5 278.7C296.5 278.7 306.5 281.1 312.8 286.9C319.1 292.7 322 299.3 322 299.3L317.8 336.9C317.8 336.9 309.1 327.1 302.3 323.2C295.7 319.4 294.5 318.8 294.5 318.8L296.5 278.7Z" fill="white"/>
<path d="M291.9 281.8C291.9 281.8 302.1 282.4 309.3 287C316.5 291.6 320.7 298.3 320.7 298.3L319.7 335C319.7 335 312.6 327.2 305.3 324.5C298.2 321.9 296.9 321.5 296.9 321.5L291.9 281.8Z" fill="#E8E8FF"/>
<path d="M346.8 280.3C346.8 280.3 336.7 281.8 329.9 287.1C323.1 292.4 319.7 299.4 319.7 299.4L324 335.9C324 335.9 330.3 327.5 337.3 324.1C344.1 320.8 345.4 320.3 345.4 320.3L346.8 280.3Z" fill="white"/>
<path d="M289 283.8C289 283.8 299.2 283.9 306.7 288.2C314.2 292.5 320.5 300.7 320.5 300.7L319.4 335.7C319.4 335.7 312 328.3 304.5 325.9C297.3 323.6 295.9 323.3 295.9 323.3L289 283.8Z" fill="#DBDBFF"/>
<path d="M350.5 283.9C350.5 283.9 340.3 284.3 333 288.8C325.7 293.3 320.5 300.5 320.5 300.5L321.8 336.6C321.8 336.6 329 328.9 336.4 326.3C343.6 323.8 344.9 323.4 344.9 323.4L350.5 283.9Z" fill="#EDEDFF"/>
<path d="M316.2 298.6C316.2 298.6 317.6 299.5 320.2 299.7C322.8 299.8 324.1 298.8 324.1 298.8C324.1 298.8 323 300.2 322.1 300.4C321.2 300.7 319.3 300.5 318.4 300.3C317.5 300.1 316.2 298.6 316.2 298.6Z" fill="#008085"/>
<path d="M352.4 286.5C350.1 286.5 341.4 286.7 335 290.4C327.9 294.5 324 298.9 323.6 299.2C322.9 299.8 322.2 300.1 320.2 300.1C318.3 300.1 317 299.1 317 299.1C317 299.1 312.7 295.2 305.3 290.9C298.9 287.2 290.5 286.6 288.2 286.5C287.9 286.5 287.6 286.8 287.7 287.1L294.3 323.4C294.3 323.6 294.5 323.7 294.7 323.8C295.4 324 297.6 324.5 303.1 325.9C310.4 327.9 317.7 336.6 317.7 336.6C317.7 336.6 318 337.2 320 337.3C321.7 337.4 322.5 337 322.7 336.9C322.7 336.9 322.7 336.9 322.8 336.8C323.5 336.1 329.8 329.4 336.4 326.6C342.2 324.2 344.9 323.7 345.8 323.6C346 323.6 346.2 323.4 346.2 323.2L352.8 286.9C352.9 286.8 352.7 286.5 352.4 286.5Z" fill="#00ABD3"/>
<path d="M287.7 287.7C287.6 287.4 287.9 287.1 288.2 287.1C290.5 287.2 298.9 287.8 305.3 291.5C312.7 295.8 317 299.7 317 299.7L317.7 337.2C317.7 337.2 310.4 328.5 303.1 326.5C297.5 325 295.4 324.5 294.7 324.4C294.5 324.4 294.4 324.2 294.3 324L287.7 287.7Z" fill="#00ABD3"/>
<path d="M316.9 299.7C316.9 299.7 318.4 300.5 320.2 300.6C322.2 300.6 323.5 299.7 323.5 299.7L322.7 337.5C322.7 337.5 321.9 338 319.9 337.9C317.9 337.8 317.6 337.2 317.6 337.2L316.9 299.7Z" fill="#0099BE"/>
<path d="M351.9 292.5L352.8 287.6C352.9 287.3 352.6 287 352.3 287C350 287 341.3 287.2 334.9 290.9C327.5 295.2 323.4 299.8 323.4 299.8L322.6 337.5C322.6 337.5 322.7 337.4 322.9 337.1C326.1 327.5 331.2 318.5 336.9 310C341.2 303.6 346 297.3 351.9 292.5Z" fill="#00ABD3"/>
<path d="M351.9 292.5C346 297.3 341.3 303.6 337 310C331.3 318.5 326.2 327.5 323 337.1C324.5 335.6 330.3 329.8 336.3 327.2C336.7 327 337.1 326.9 337.4 326.7C340.5 318.8 344.7 311.3 349.7 304.4L351.9 292.5Z" fill="#00ABD3"/>
<path d="M337.4 326.8C342.4 324.8 344.9 324.3 345.7 324.2C345.9 324.2 346.1 324 346.1 323.8L349.6 304.4C344.7 311.4 340.6 318.9 337.4 326.8Z" fill="#00ABD3"/>
<path d="M320 329.1C319.8 329.1 319.6 328.9 319.6 328.7V317.1C319.6 316.9 319.8 316.7 320 316.7C320.2 316.7 320.4 316.9 320.4 317.1V328.7C320.4 328.9 320.2 329.1 320 329.1Z" fill="white"/>
<path d="M320 315.8C319.8 315.8 319.6 315.6 319.6 315.4V313.5C319.6 313.3 319.8 313.1 320 313.1C320.2 313.1 320.4 313.3 320.4 313.5V315.4C320.4 315.6 320.2 315.8 320 315.8Z" fill="white"/>
<path d="M135.8 612.2C135.8 612.2 145.8 614.6 152.1 620.4C158.4 626.2 161.3 632.8 161.3 632.8L157.1 670.4C157.1 670.4 148.4 660.6 141.6 656.7C135 652.9 133.8 652.3 133.8 652.3L135.8 612.2Z" fill="white"/>
<path d="M131.2 615.3C131.2 615.3 141.4 615.9 148.6 620.5C155.8 625.1 160 631.8 160 631.8L159 668.5C159 668.5 151.9 660.7 144.6 658C137.5 655.4 136.2 655 136.2 655L131.2 615.3Z" fill="#E8E8FF"/>
<path d="M186.1 613.8C186.1 613.8 176 615.3 169.2 620.6C162.4 625.9 159 632.9 159 632.9L163.3 669.4C163.3 669.4 169.6 661 176.6 657.6C183.4 654.3 184.7 653.8 184.7 653.8L186.1 613.8Z" fill="white"/>
<path d="M128.3 617.3C128.3 617.3 138.5 617.4 146 621.7C153.5 626 159.8 634.2 159.8 634.2L158.7 669.2C158.7 669.2 151.3 661.8 143.8 659.4C136.6 657.1 135.2 656.8 135.2 656.8L128.3 617.3Z" fill="#DBDBFF"/>
<path d="M189.8 617.4C189.8 617.4 179.6 617.8 172.3 622.3C165 626.8 159.8 634 159.8 634L161.1 670.1C161.1 670.1 168.3 662.4 175.7 659.8C182.9 657.3 184.2 656.9 184.2 656.9L189.8 617.4Z" fill="#EDEDFF"/>
<path d="M155.5 632.1C155.5 632.1 156.9 633 159.5 633.2C162.1 633.3 163.4 632.3 163.4 632.3C163.4 632.3 162.3 633.7 161.4 633.9C160.5 634.2 158.6 634 157.7 633.8C156.8 633.6 155.5 632.1 155.5 632.1Z" fill="#008085"/>
<path d="M191.7 620C189.4 620 180.7 620.2 174.3 623.9C167.2 628 163.3 632.4 162.9 632.7C162.2 633.3 161.5 633.6 159.5 633.6C157.6 633.6 156.3 632.6 156.3 632.6C156.3 632.6 152 628.7 144.6 624.4C138.2 620.7 129.8 620.1 127.5 620C127.2 620 126.9 620.3 127 620.6L133.6 656.9C133.6 657.1 133.8 657.2 134 657.3C134.7 657.5 136.9 658 142.4 659.4C149.7 661.4 157 670.1 157 670.1C157 670.1 157.3 670.7 159.3 670.8C161 670.9 161.8 670.5 162 670.4C162 670.4 162 670.4 162.1 670.3C162.8 669.6 169.1 662.9 175.7 660.1C181.5 657.7 184.2 657.2 185.1 657.1C185.3 657.1 185.5 656.9 185.5 656.7L192.1 620.4C192.2 620.3 192 620 191.7 620Z" fill="#00ABD3"/>
<path d="M127 621.2C126.9 620.9 127.2 620.6 127.5 620.6C129.8 620.7 138.2 621.3 144.6 625C152 629.3 156.3 633.2 156.3 633.2L157 670.7C157 670.7 149.7 662 142.4 660C136.8 658.5 134.7 658 134 657.9C133.8 657.9 133.7 657.7 133.6 657.5L127 621.2Z" fill="#00ABD3"/>
<path d="M156.2 633.2C156.2 633.2 157.7 634 159.5 634.1C161.5 634.1 162.8 633.2 162.8 633.2L162 671C162 671 161.2 671.5 159.2 671.4C157.2 671.3 156.9 670.7 156.9 670.7L156.2 633.2Z" fill="#0099BE"/>
<path d="M191.2 626L192.1 621.1C192.2 620.8 191.9 620.5 191.6 620.5C189.3 620.5 180.6 620.7 174.2 624.4C166.8 628.7 162.7 633.3 162.7 633.3L161.9 671C161.9 671 162 670.9 162.2 670.6C165.4 661 170.5 652 176.2 643.5C180.5 637.1 185.3 630.8 191.2 626Z" fill="#00ABD3"/>
<path d="M191.2 626C185.3 630.8 180.6 637.1 176.3 643.5C170.6 652 165.5 661 162.3 670.6C163.8 669.1 169.6 663.3 175.6 660.7C176 660.5 176.4 660.4 176.7 660.2C179.8 652.3 184 644.8 189 637.9L191.2 626Z" fill="#00ABD3"/>
<path d="M176.7 660.3C181.7 658.3 184.2 657.8 185 657.7C185.2 657.7 185.4 657.5 185.4 657.3L188.9 637.9C184 644.9 179.9 652.4 176.7 660.3Z" fill="#00ABD3"/>
<path d="M159.3 662.6C159.1 662.6 158.9 662.4 158.9 662.2V650.6C158.9 650.4 159.1 650.2 159.3 650.2C159.5 650.2 159.7 650.4 159.7 650.6V662.2C159.7 662.4 159.5 662.6 159.3 662.6Z" fill="white"/>
<path d="M159.3 649.3C159.1 649.3 158.9 649.1 158.9 648.9V647C158.9 646.8 159.1 646.6 159.3 646.6C159.5 646.6 159.7 646.8 159.7 647V648.9C159.7 649.1 159.5 649.3 159.3 649.3Z" fill="white"/>
<path d="M52.7 202.4L94.7 196C95.3 195.9 95.9 196.4 95.9 197.1L95.8 262.2C95.8 262.7 95.4 263.2 94.9 263.3L52.7 269.2V202.4Z" fill="#0099BE"/>
<path d="M59.7 206.2C59.7 206.2 56.3 205.5 55.3 204.9C54.5 204.5 52.8 202.4 52.8 202.4L94.3 196.7L101.3 200.5L59.7 206.2Z" fill="#F5E1CD"/>
<path d="M59.6 273.4L59.2 273.3C56.7 272.8 54.4 271.5 52.7 269.6L52.8 202.4L53.8 203.5C55.2 204.7 56.8 205.4 58.6 205.9L59.8 206.2L59.6 273.4Z" fill="#0099BE"/>
<path d="M59.7 206.2L101.6 200.3C102.2 200.2 102.8 200.7 102.8 201.4L102.7 266.5C102.7 267 102.3 267.5 101.8 267.6L59.6 273.5L59.7 206.2ZM94.1 218.9V209.5L68.3 213.2V222.6L94.1 218.9Z" fill="#0099BE"/>
<path d="M53.1 202.6L94.8 196.9" stroke="white" stroke-width="0.09471" stroke-miterlimit="10"/>
<path d="M53.5001 202.9L95.1001 197.1" stroke="white" stroke-width="0.09471" stroke-miterlimit="10"/>
<path d="M53.9 203.1L95.5 197.3" stroke="white" stroke-width="0.09471" stroke-miterlimit="10"/>
<path d="M54.3 203.3L95.8001 197.5" stroke="white" stroke-width="0.09471" stroke-miterlimit="10"/>
<path d="M54.7 203.5L96.2 197.7" stroke="white" stroke-width="0.09471" stroke-miterlimit="10"/>
<path d="M55.0001 203.7L96.5001 197.9" stroke="white" stroke-width="0.09471" stroke-miterlimit="10"/>
<path d="M55.4 203.9L96.9 198.1" stroke="white" stroke-width="0.09471" stroke-miterlimit="10"/>
<path d="M55.8 204.1L97.2 198.3" stroke="white" stroke-width="0.09471" stroke-miterlimit="10"/>
<path d="M56.2 204.3L97.6 198.4" stroke="white" stroke-width="0.09471" stroke-miterlimit="10"/>
<path d="M56.6 204.5L97.9 198.6" stroke="white" stroke-width="0.09471" stroke-miterlimit="10"/>
<path d="M57.0001 204.8L98.2001 198.8" stroke="white" stroke-width="0.09471" stroke-miterlimit="10"/>
<path d="M57.4 205L98.6 199" stroke="white" stroke-width="0.09471" stroke-miterlimit="10"/>
<path d="M57.8 205.2L98.9001 199.2" stroke="white" stroke-width="0.09471" stroke-miterlimit="10"/>
<path d="M58.2 205.4L99.3 199.4" stroke="white" stroke-width="0.09471" stroke-miterlimit="10"/>
<path d="M58.6 205.6L99.6 199.6" stroke="white" stroke-width="0.09471" stroke-miterlimit="10"/>
<path d="M59.0001 205.8L100 199.8" stroke="white" stroke-width="0.09471" stroke-miterlimit="10"/>
<path d="M59.4 206L100.3 200" stroke="white" stroke-width="0.09471" stroke-miterlimit="10"/>
<path d="M94.1 227V236.4L68.3 240V230.7L94.1 227Z" fill="#00ABD3"/>
<path d="M293.5 510.6L335.5 504.2C336.1 504.1 336.7 504.6 336.7 505.3L336.6 570.4C336.6 570.9 336.2 571.4 335.7 571.5L293.5 577.4V510.6Z" fill="#0099BE"/>
<path d="M300.5 514.4C300.5 514.4 297.1 513.7 296.1 513.1C295.3 512.7 293.6 510.6 293.6 510.6L335.1 504.9L342.1 508.7L300.5 514.4Z" fill="#F5E1CD"/>
<path d="M300.4 581.6L300 581.5C297.5 581 295.2 579.7 293.5 577.8L293.6 510.6L294.6 511.7C296 512.9 297.6 513.6 299.4 514.1L300.6 514.4L300.4 581.6Z" fill="#0099BE"/>
<path d="M300.5 514.4L342.4 508.5C343 508.4 343.6 508.9 343.6 509.6L343.5 574.7C343.5 575.2 343.1 575.7 342.6 575.8L300.4 581.7L300.5 514.4ZM334.9 527.1V517.7L309.1 521.4V530.8L334.9 527.1Z" fill="#0099BE"/>
<path d="M293.9 510.8L335.6 505.1" stroke="white" stroke-width="0.09471" stroke-miterlimit="10"/>
<path d="M294.3 511.1L335.9 505.3" stroke="white" stroke-width="0.09471" stroke-miterlimit="10"/>
<path d="M294.7 511.3L336.3 505.5" stroke="white" stroke-width="0.09471" stroke-miterlimit="10"/>
<path d="M295.1 511.5L336.6 505.7" stroke="white" stroke-width="0.09471" stroke-miterlimit="10"/>
<path d="M295.5 511.7L337 505.9" stroke="white" stroke-width="0.09471" stroke-miterlimit="10"/>
<path d="M295.8 511.9L337.3 506.1" stroke="white" stroke-width="0.09471" stroke-miterlimit="10"/>
<path d="M296.2 512.1L337.7 506.3" stroke="white" stroke-width="0.09471" stroke-miterlimit="10"/>
<path d="M296.6 512.3L338 506.5" stroke="white" stroke-width="0.09471" stroke-miterlimit="10"/>
<path d="M297 512.5L338.4 506.6" stroke="white" stroke-width="0.09471" stroke-miterlimit="10"/>
<path d="M297.4 512.7L338.7 506.8" stroke="white" stroke-width="0.09471" stroke-miterlimit="10"/>
<path d="M297.8 513L339 507" stroke="white" stroke-width="0.09471" stroke-miterlimit="10"/>
<path d="M298.2 513.2L339.4 507.2" stroke="white" stroke-width="0.09471" stroke-miterlimit="10"/>
<path d="M298.6 513.4L339.7 507.4" stroke="white" stroke-width="0.09471" stroke-miterlimit="10"/>
<path d="M299 513.6L340.1 507.6" stroke="white" stroke-width="0.09471" stroke-miterlimit="10"/>
<path d="M299.4 513.8L340.4 507.8" stroke="white" stroke-width="0.09471" stroke-miterlimit="10"/>
<path d="M299.8 514L340.8 508" stroke="white" stroke-width="0.09471" stroke-miterlimit="10"/>
<path d="M300.2 514.2L341.1 508.2" stroke="white" stroke-width="0.09471" stroke-miterlimit="10"/>
<path d="M334.9 535.2V544.6L309.1 548.2V538.9L334.9 535.2Z" fill="#00ABD3"/>
<path d="M209.7 124.1L213.9 119.6C214.4 119 214.1 117.9 213.1 117L202.8 107.4C201.8 106.5 200.7 106.2 200.1 106.8L195.9 111.3L209.7 124.1Z" fill="#E63B20"/>
<path d="M176.3 159.1C173.9 145.2 162.5 146.3 162.5 146.3L162.1 148.5L162 149.1L161.4 152.4L161.3 153.1L161 154.6V154.7L160.9 155.2L159.5 162.5L166.7 161.1L167.5 160.9H167.7L168.1 160.8L168.7 160.7L173.6 159.7L174.2 159.6L176.3 159.1Z" fill="#E4CDA7"/>
<path d="M203.6 125.5L174.3 156.1C174.3 156.2 174.2 156.3 174.2 156.4C174.2 156.4 174.2 156.6 174.2 156.7V156.8C174.2 156.8 174.2 156.8 174.2 156.9V157V157.1L174.3 157.3C174.3 157.3 174.3 157.3 174.3 157.4V157.5C174.3 157.5 174.3 157.5 174.3 157.6C174.3 157.6 174.5 158 174.6 158.1L174.7 158.2L174.8 158.3C174.9 158.4 175.1 158.6 175.1 158.7C175.1 158.7 175.3 158.9 175.4 159L175.5 159.1L175.6 159.2L205.7 127.7L203.6 125.5Z" fill="#E3AB29"/>
<path d="M192.4 115.1L162.3 146.6C162.3 146.6 162.8 147.2 162.8 147.3C162.8 147.3 162.8 147.4 162.9 147.4C163 147.5 163 147.5 163.1 147.6C163.1 147.6 163.1 147.6 163.2 147.6L163.4 147.8L163.5 147.9L163.6 148C163.6 148 163.7 148.1 163.8 148.1C163.8 148.1 163.8 148.1 163.9 148.1C163.9 148.1 164 148.1 164 148.2C164 148.2 164.1 148.3 164.2 148.3C164.2 148.3 164.3 148.4 164.4 148.4C164.4 148.4 164.4 148.4 164.5 148.4L164.7 148.5H164.8C164.8 148.5 164.8 148.5 164.9 148.5C165 148.5 165.1 148.6 165.2 148.6C165.3 148.6 165.4 148.6 165.4 148.6C165.4 148.6 165.4 148.6 165.5 148.6C165.6 148.6 165.7 148.6 165.7 148.6C165.8 148.6 165.9 148.6 166 148.6C166 148.6 166 148.6 166.1 148.6C166.2 148.6 166.3 148.6 166.4 148.6L195.7 118L192.4 115.1Z" fill="#FABB2C"/>
<path d="M167.7 160.8L166.9 160.1L166.7 159.9L166.3 159.5L165.1 158.4L164.9 158.2L163.7 157.1L163.5 156.9L162.5 156L162.3 155.8L161.9 155.4L161.7 155.2L161.2 154.7C161.1 155 161.1 155.2 161.1 155.5L159.7 162.2C159.7 162.3 159.8 162.4 159.9 162.5C160 162.6 160.1 162.6 160.2 162.6L167 161H167.2C167.4 161 167.7 160.9 167.8 160.9C167.7 160.8 167.7 160.8 167.7 160.8Z" fill="#3C3C3B"/>
<path d="M195.5 118L166.2 148.6C166.2 148.6 166.2 148.6 166.2 148.7V148.8C166.2 148.8 166.3 148.9 166.3 149V149.1C166.3 149.1 166.3 149.2 166.4 149.2C166.4 149.2 166.4 149.3 166.5 149.3L166.6 149.4C166.6 149.4 166.6 149.4 166.6 149.5C166.6 149.6 166.7 149.6 166.7 149.7C166.7 149.8 166.8 149.8 166.8 149.9L166.9 150C167 150.1 167 150.2 167.1 150.3C167.2 150.4 167.2 150.5 167.3 150.6C167.3 150.6 167.3 150.7 167.4 150.7C167.5 150.8 167.5 150.9 167.6 151L167.7 151.1C167.8 151.2 167.8 151.3 167.9 151.3C167.9 151.3 167.9 151.3 168 151.4C168 151.4 168 151.4 168.1 151.5L168.2 151.6C168.2 151.6 168.3 151.8 168.4 151.8C168.4 151.9 168.5 151.9 168.5 152C168.5 152 168.7 152.2 168.7 152.3C168.7 152.3 168.7 152.3 168.8 152.4L168.9 152.5C169 152.6 169.1 152.7 169.2 152.9L169.3 153C169.4 153.1 169.5 153.2 169.6 153.3C169.7 153.4 169.7 153.4 169.8 153.5C169.9 153.6 169.9 153.6 170 153.7C170 153.7 170 153.7 170.1 153.7L200 122.4L195.5 118Z" fill="#E3AB29"/>
<path d="M200.3 122.5L170.3 153.7C170.4 153.7 170.4 153.8 170.5 153.8C170.6 153.9 170.7 153.9 170.7 154C170.9 154.1 171.1 154.3 171.3 154.4C171.4 154.5 171.5 154.5 171.6 154.6C171.7 154.7 171.8 154.7 171.9 154.8C172 154.9 172.1 154.9 172.2 155C172.6 155.2 172.9 155.4 173.3 155.6C173.4 155.6 173.5 155.7 173.6 155.7C173.8 155.8 174 155.9 174.2 155.9L203.5 125.3L200.3 122.5Z" fill="#FABB2C"/>
<path d="M196.545 110.694L192.388 115.158L206.146 127.971L210.303 123.507L196.545 110.694Z" fill="#9C9B9B"/>
<path d="M193.618 113.938L192.937 114.669L206.695 127.483L207.376 126.752L193.618 113.938Z" fill="#ECECEC"/>
<path d="M194.935 112.505L194.254 113.237L208.012 126.049L208.693 125.317L194.935 112.505Z" fill="#ECECEC"/>
<path d="M196.196 111.291L195.514 112.023L209.272 124.837L209.954 124.105L196.196 111.291Z" fill="#ECECEC"/>
<path d="M106.2 567L110.4 562.5C110.9 561.9 110.6 560.8 109.6 559.9L99.3 550.3C98.3 549.4 97.2 549.1 96.6 549.7L92.4 554.2L106.2 567Z" fill="#E63B20"/>
<path d="M72.8 602C70.4 588.1 59 589.2 59 589.2L58.6 591.4L58.5 592L57.9 595.3L57.8 596L57.5 597.5V597.6L57.4 598.1L56 605.4L63.2 604L64 603.8H64.2L64.6 603.7L65.2 603.6L70.1 602.6L70.7 602.5L72.8 602Z" fill="#E4CDA7"/>
<path d="M100.1 568.4L70.8 599C70.8 599.1 70.7 599.2 70.7 599.3C70.7 599.3 70.7 599.5 70.7 599.6V599.7C70.7 599.7 70.7 599.7 70.7 599.8V599.9V600L70.8 600.2C70.8 600.2 70.8 600.2 70.8 600.3V600.4C70.8 600.4 70.8 600.4 70.8 600.5C70.8 600.5 71 600.9 71.1 601L71.2 601.1L71.3 601.2C71.4 601.3 71.6 601.5 71.6 601.6C71.6 601.6 71.8 601.8 71.9 601.9L72 602L72.1 602.1L102.2 570.6L100.1 568.4Z" fill="#E3AB29"/>
<path d="M88.9 558L58.8 589.5C58.8 589.5 59.3 590.1 59.3 590.2C59.3 590.2 59.3 590.3 59.4 590.3C59.5 590.4 59.5 590.4 59.6 590.5C59.6 590.5 59.6 590.5 59.7 590.5L59.9 590.7L60 590.8L60.1 590.9C60.1 590.9 60.2 591 60.3 591C60.3 591 60.3 591 60.4 591C60.4 591 60.5 591 60.5 591.1C60.5 591.1 60.6 591.2 60.7 591.2C60.7 591.2 60.8 591.3 60.9 591.3C60.9 591.3 60.9 591.3 61 591.3L61.2 591.4H61.3C61.3 591.4 61.3 591.4 61.4 591.4C61.5 591.4 61.6 591.5 61.7 591.5C61.8 591.5 61.9 591.5 61.9 591.5C61.9 591.5 61.9 591.5 62 591.5C62.1 591.5 62.2 591.5 62.2 591.5C62.3 591.5 62.4 591.5 62.5 591.5C62.5 591.5 62.5 591.5 62.6 591.5C62.7 591.5 62.8 591.5 62.9 591.5L92.2 560.9L88.9 558Z" fill="#FABB2C"/>
<path d="M64.2 603.7L63.4 603L63.2 602.8L62.8 602.4L61.6 601.3L61.4 601.1L60.2 600L60 599.8L59 598.9L58.8 598.7L58.4 598.3L58.2 598.1L57.7 597.6C57.6 597.9 57.6 598.1 57.6 598.4L56.2 605.1C56.2 605.2 56.3 605.3 56.4 605.4C56.5 605.5 56.6 605.5 56.7 605.5L63.5 603.9H63.7C63.9 603.9 64.2 603.8 64.3 603.8C64.2 603.7 64.2 603.7 64.2 603.7Z" fill="#3C3C3B"/>
<path d="M92 560.9L62.7 591.5C62.7 591.5 62.7 591.5 62.7 591.6V591.7C62.7 591.7 62.8 591.8 62.8 591.9V592C62.8 592 62.8 592.1 62.9 592.1C62.9 592.1 62.9 592.2 63 592.2L63.1 592.3C63.1 592.3 63.1 592.3 63.1 592.4C63.1 592.5 63.2 592.5 63.2 592.6C63.2 592.7 63.3 592.7 63.3 592.8L63.4 592.9C63.5 593 63.5 593.1 63.6 593.2C63.7 593.3 63.7 593.4 63.8 593.5C63.8 593.5 63.8 593.6 63.9 593.6C64 593.7 64 593.8 64.1 593.9L64.2 594C64.3 594.1 64.3 594.2 64.4 594.2C64.4 594.2 64.4 594.2 64.5 594.3C64.5 594.3 64.5 594.3 64.6 594.4L64.7 594.5C64.7 594.5 64.8 594.7 64.9 594.7C64.9 594.8 65 594.8 65 594.9C65 594.9 65.2 595.1 65.2 595.2C65.2 595.2 65.2 595.2 65.3 595.3L65.4 595.4C65.5 595.5 65.6 595.6 65.7 595.8L65.8 595.9C65.9 596 66 596.1 66.1 596.2C66.2 596.3 66.2 596.3 66.3 596.4C66.4 596.5 66.4 596.5 66.5 596.6C66.5 596.6 66.5 596.6 66.6 596.6L96.5 565.3L92 560.9Z" fill="#E3AB29"/>
<path d="M96.8 565.4L66.8 596.6C66.9 596.6 66.9 596.7 67 596.7C67.1 596.8 67.2 596.8 67.2 596.9C67.4 597 67.6 597.2 67.8 597.3C67.9 597.4 68 597.4 68.1 597.5C68.2 597.6 68.3 597.6 68.4 597.7C68.5 597.8 68.6 597.8 68.7 597.9C69.1 598.1 69.4 598.3 69.8 598.5C69.9 598.5 70 598.6 70.1 598.6C70.3 598.7 70.5 598.8 70.7 598.8L100 568.2L96.8 565.4Z" fill="#FABB2C"/>
<path d="M93.0389 553.523L88.8817 557.987L102.64 570.799L106.797 566.335L93.0389 553.523Z" fill="#9C9B9B"/>
<path d="M90.0565 556.723L89.3749 557.455L103.133 570.269L103.814 569.538L90.0565 556.723Z" fill="#ECECEC"/>
<path d="M91.3612 555.406L90.6797 556.138L104.438 568.95L105.119 568.219L91.3612 555.406Z" fill="#ECECEC"/>
<path d="M92.566 554.15L91.8844 554.882L105.642 567.696L106.324 566.964L92.566 554.15Z" fill="#ECECEC"/>
<path d="M216.3 343L220.5 338.5C221 337.9 220.7 336.8 219.7 335.9L209.4 326.3C208.4 325.4 207.3 325.1 206.7 325.7L202.5 330.2L216.3 343Z" fill="#E63B20"/>
<path d="M182.9 378C180.5 364.1 169.1 365.2 169.1 365.2L168.7 367.4L168.6 368L168 371.3L167.9 372L167.6 373.5V373.6L167.5 374.1L166.1 381.4L173.3 380L174.1 379.8H174.3L174.7 379.7L175.3 379.6L180.2 378.6L180.8 378.5L182.9 378Z" fill="#E4CDA7"/>
<path d="M210.2 344.4L180.9 375C180.9 375.1 180.8 375.2 180.8 375.3C180.8 375.3 180.8 375.5 180.8 375.6V375.7C180.8 375.7 180.8 375.7 180.8 375.8V375.9V376L180.9 376.2C180.9 376.2 180.9 376.2 180.9 376.3V376.4C180.9 376.4 180.9 376.4 180.9 376.5C180.9 376.5 181.1 376.9 181.2 377L181.3 377.1L181.4 377.2C181.5 377.3 181.7 377.5 181.7 377.6C181.7 377.6 181.9 377.8 182 377.9L182.1 378L182.2 378.1L212.3 346.6L210.2 344.4Z" fill="#E3AB29"/>
<path d="M199 334L168.9 365.5C168.9 365.5 169.4 366.1 169.4 366.2C169.4 366.2 169.4 366.3 169.5 366.3C169.6 366.4 169.6 366.4 169.7 366.5C169.7 366.5 169.7 366.5 169.8 366.5L170 366.7L170.1 366.8L170.2 366.9C170.2 366.9 170.3 367 170.4 367C170.4 367 170.4 367 170.5 367C170.5 367 170.6 367 170.6 367.1C170.6 367.1 170.7 367.2 170.8 367.2C170.8 367.2 170.9 367.3 171 367.3C171 367.3 171 367.3 171.1 367.3L171.3 367.4H171.4C171.4 367.4 171.4 367.4 171.5 367.4C171.6 367.4 171.7 367.5 171.8 367.5C171.9 367.5 172 367.5 172 367.5C172 367.5 172 367.5 172.1 367.5C172.2 367.5 172.3 367.5 172.3 367.5C172.4 367.5 172.5 367.5 172.6 367.5C172.6 367.5 172.6 367.5 172.7 367.5C172.8 367.5 172.9 367.5 173 367.5L202.3 336.9L199 334Z" fill="#FABB2C"/>
<path d="M174.3 379.7L173.5 379L173.3 378.8L172.9 378.4L171.7 377.3L171.5 377.1L170.3 376L170.1 375.8L169.1 374.9L168.9 374.7L168.5 374.3L168.3 374.1L167.8 373.6C167.7 373.9 167.7 374.1 167.7 374.4L166.3 381.1C166.3 381.2 166.4 381.3 166.5 381.4C166.6 381.5 166.7 381.5 166.8 381.5L173.6 379.9H173.8C174 379.9 174.3 379.8 174.4 379.8C174.3 379.7 174.3 379.7 174.3 379.7Z" fill="#3C3C3B"/>
<path d="M202.1 336.9L172.8 367.5C172.8 367.5 172.8 367.5 172.8 367.6V367.7C172.8 367.7 172.9 367.8 172.9 367.9V368C172.9 368 172.9 368.1 173 368.1C173 368.1 173 368.2 173.1 368.2L173.2 368.3C173.2 368.3 173.2 368.3 173.2 368.4C173.2 368.5 173.3 368.5 173.3 368.6C173.3 368.7 173.4 368.7 173.4 368.8L173.5 368.9C173.6 369 173.6 369.1 173.7 369.2C173.8 369.3 173.8 369.4 173.9 369.5C173.9 369.5 173.9 369.6 174 369.6C174.1 369.7 174.1 369.8 174.2 369.9L174.3 370C174.4 370.1 174.4 370.2 174.5 370.2C174.5 370.2 174.5 370.2 174.6 370.3C174.6 370.3 174.6 370.3 174.7 370.4L174.8 370.5C174.8 370.5 174.9 370.7 175 370.7C175 370.8 175.1 370.8 175.1 370.9C175.1 370.9 175.3 371.1 175.3 371.2C175.3 371.2 175.3 371.2 175.4 371.3L175.5 371.4C175.6 371.5 175.7 371.6 175.8 371.8L175.9 371.9C176 372 176.1 372.1 176.2 372.2C176.3 372.3 176.3 372.3 176.4 372.4C176.5 372.5 176.5 372.5 176.6 372.6C176.6 372.6 176.6 372.6 176.7 372.6L206.6 341.3L202.1 336.9Z" fill="#E3AB29"/>
<path d="M206.9 341.4L176.9 372.6C177 372.6 177 372.7 177.1 372.7C177.2 372.8 177.3 372.8 177.3 372.9C177.5 373 177.7 373.2 177.9 373.3C178 373.4 178.1 373.4 178.2 373.5C178.3 373.6 178.4 373.6 178.5 373.7C178.6 373.8 178.7 373.8 178.8 373.9C179.2 374.1 179.5 374.3 179.9 374.5C180 374.5 180.1 374.6 180.2 374.6C180.4 374.7 180.6 374.8 180.8 374.8L210.1 344.2L206.9 341.4Z" fill="#FABB2C"/>
<path d="M203.12 329.486L198.963 333.95L212.72 346.762L216.878 342.298L203.12 329.486Z" fill="#9C9B9B"/>
<path d="M200.205 332.739L199.523 333.471L213.281 346.285L213.962 345.553L200.205 332.739Z" fill="#ECECEC"/>
<path d="M201.442 331.37L200.761 332.101L214.519 344.914L215.2 344.182L201.442 331.37Z" fill="#ECECEC"/>
<path d="M202.782 330.092L202.101 330.824L215.858 343.638L216.54 342.906L202.782 330.092Z" fill="#ECECEC"/>
<path d="M291.8 376C291.9 375 292.4 373.8 293.5 373.7C294.1 373.7 294.7 374.1 295.1 374.5C296.8 376.2 298.1 378.3 298.8 380.6C297.7 375.9 298.3 370.8 300.5 366.4C301.1 365.2 302.1 363.9 303.4 364C305 364.1 305.7 366.2 305.9 367.8C306.3 371.3 306.4 374.9 306.1 378.5C307.2 375.9 308.9 373.5 310.9 371.5C311.3 371.2 311.7 370.8 312.2 370.7C313.2 370.5 314.1 371.5 314.3 372.5C314.5 373.5 314 374.5 313.6 375.4C312.5 377.7 311 379.9 309.3 381.8C311.1 380.9 313 380.3 314.9 379.8C315.5 379.7 316.1 379.5 316.6 379.8C317.7 380.3 317.6 381.9 317.1 382.9C316.1 385.2 314.1 387 312.2 388.8C309.8 391 307.2 393.2 304 394C294.8 396.2 290.8 382.8 291.8 376Z" fill="#8BC376"/>
<path d="M303.2 369.5C301.9 374.8 301.5 380.3 301.3 385.8C301.2 387.6 301.1 389.4 300.9 391.3C300.9 391.4 300.8 391.5 300.7 391.5C300.6 391.5 300.5 391.4 300.5 391.3C300.3 389.5 300.2 387.6 300.3 385.8C300.5 382.1 301.1 378.5 301.7 374.9C302 373.1 302.4 371.3 302.7 369.5C302.8 369.2 303.2 369.3 303.2 369.5Z" fill="#BEDDB2"/>
<path d="M294.5 377.5C294.8 380.7 295.8 383.7 296.5 386.8C296.7 387.8 296.9 388.9 297 389.9C297 390 296.9 390.1 296.8 390.1C296.7 390.1 296.6 390.1 296.6 390C296.1 389 295.8 388 295.6 387C294.9 383.9 294.7 380.7 294.1 377.6C294 377.3 294.4 377.3 294.5 377.5Z" fill="#BEDDB2"/>
<path d="M311.2 374.9C309.1 378.8 307.3 382.8 305.3 386.8C304.6 388.1 303.9 389.4 303 390.6C302.9 390.7 302.8 390.7 302.7 390.6C302.6 390.5 302.6 390.5 302.6 390.4C303.6 387.6 305.1 385.1 306.5 382.5C308 379.9 309.4 377.4 310.7 374.7C311 374.5 311.4 374.7 311.2 374.9Z" fill="#BEDDB2"/>
<path d="M314.9 382.6C312.6 384.8 310.6 387.3 308.4 389.5C307.7 390.3 306.9 391 306 391.6C305.9 391.7 305.8 391.6 305.7 391.5C305.7 391.4 305.7 391.3 305.7 391.3C306.9 389.5 308.5 388.1 310 386.7C311.6 385.3 313.1 383.8 314.5 382.3C314.8 382.1 315.1 382.4 314.9 382.6Z" fill="#BEDDB2"/>
<path d="M297.3 388C301.6 388.2 305.9 389.5 309.5 391.8C310.8 392.6 312 393.6 312.8 394.8C315.1 398.4 313.9 403.1 312.4 407.1C308.2 418.9 302.8 430.7 293.6 439.3C292.9 439.9 292.1 440.6 291.2 440.7C290 440.9 288.8 440.1 288.2 439.1C287.5 438.1 287.3 436.9 287 435.7C286.5 433.3 286 430.9 285.5 428.4C284.6 424.2 280.8 397.8 289.1 389.8C291 388 294.7 387.9 297.3 388Z" fill="#F2902B"/>
<path d="M302.4 397.7C301.9 399.8 299 399.9 297.8 398.3C297.3 397.8 297.1 395.9 298.1 396.1C298.3 396.2 298.4 396.4 298.5 396.6C298.7 397.3 299 397.5 299.8 397.7C300.5 397.9 301 397.8 301.6 397.4C301.9 397 302.5 397.2 302.4 397.7Z" fill="#1D1D1B"/>
<path d="M304.3 398.8C303.8 397.6 305 396.3 306.2 396.5C307.4 396.6 308.3 398.2 307.5 399.2C307.3 399.5 306.7 399.3 306.7 398.9C306.7 398.6 306.6 398.3 306.5 398.1C306 397.6 305.2 397.8 305 398.6C305 399.1 304.4 399.2 304.3 398.8Z" fill="#1D1D1B"/>
<path d="M292.4 396.9C291.8 395.8 293 394.4 294.2 394.6C295.4 394.6 296.4 396.2 295.6 397.2C295.4 397.5 294.8 397.4 294.8 397C294.8 396.7 294.7 396.4 294.6 396.2C294.1 395.7 293.2 396 293.1 396.7C293.2 397.1 292.6 397.3 292.4 396.9Z" fill="#1D1D1B"/>
<path d="M307.6 406.6C301.5 406.4 295.5 404.8 290.1 402.1C289.9 402 289.8 401.7 289.9 401.4C290 401.2 290.3 401.1 290.5 401.2C296.2 403.1 301.9 404.7 307.8 405.7C308.2 405.8 308.1 406.6 307.6 406.6Z" fill="#CE5F29"/>
<path d="M306.2 412C299.9 412 293.5 410.5 287.8 407.6C287.6 407.5 287.5 407.2 287.6 406.9C287.7 406.7 288 406.6 288.2 406.7C294.1 408.7 300.1 410.2 306.2 411.1C306.8 411.2 306.7 412 306.2 412Z" fill="#CE5F29"/>
<path d="M303.3 417.1C298.4 416.7 293.6 415.5 289.1 413.5C288.9 413.4 288.8 413.1 288.9 412.9C289 412.7 289.2 412.6 289.5 412.6C291.9 413.2 294.2 413.8 296.5 414.4C298.8 415 301.2 415.6 303.5 416.2C304 416.4 303.9 417.2 303.3 417.1Z" fill="#CE5F29"/>
<path d="M301.5 422.5C296.7 422.2 291.8 421.1 287.4 419.2C287.2 419.1 287 418.8 287.2 418.6C287.3 418.4 287.5 418.3 287.7 418.3C291.8 419.2 297.5 420.7 301.6 421.6C302.2 421.7 302 422.5 301.5 422.5Z" fill="#CE5F29"/>
<path d="M297.6 428C294.9 427.9 292.2 427.1 289.8 425.8C289.3 425.5 289.6 424.8 290.1 424.9C292.7 425.4 295.2 426.2 297.7 427.2C298.2 427.3 298.1 428 297.6 428Z" fill="#CE5F29"/>
<path d="M294.9 433.2C293 433.7 290.9 433.4 289.3 432.2C289.1 432 289 431.7 289.2 431.5C289.3 431.4 289.5 431.3 289.7 431.3C290.6 431.4 291.4 431.6 292.3 431.8C293.1 432 294 432.1 294.9 432.3C295.4 432.4 295.4 433.1 294.9 433.2Z" fill="#CE5F29"/>
<path opacity="0.25" d="M296.6 409.2C294.6 415 293.4 421 293.2 427.2C293.1 430 293.1 432.8 292.5 435.4C292.4 435.7 292.3 436.1 292 436.2C291.4 436.6 290.7 435.7 290.4 435C287.4 427.2 286 418.9 285.6 410.5C285.5 407.5 285.5 404.5 286.7 401.7C287 400.9 287.5 400.2 288.2 399.7C290.1 398.4 294.2 399.5 295.9 400.9C298.4 402.9 297.5 406.6 296.6 409.2Z" fill="#E08728"/>
<path opacity="0.34" d="M309.1 407.1C308.1 411.6 306.1 415.8 304.1 419.9C303.8 420.5 303.5 421.2 303 421.7C302.5 422.2 301.8 422.5 301.1 422.4C300 422.1 299.5 420.8 299.5 419.7C299.4 417.8 300 416 300.7 414.3C301.7 411.7 302.8 409.2 304 406.7C304.6 405.5 306.1 403 307.8 403.1C309.7 403.2 309.4 405.8 309.1 407.1Z" fill="#F1F1F1"/>
<path opacity="0.34" d="M300.7 425.4C300.8 426.4 300.2 427.4 299.4 427.8C299 428 298.5 428.1 298.1 427.9C297.4 427.7 297.1 426.8 297.1 426.1C297.3 424.1 300.4 422.8 300.7 425.4Z" fill="#F1F1F1"/>
<path d="M330.8 627.7C330.9 626.7 331.4 625.5 332.5 625.4C333.1 625.4 333.7 625.8 334.1 626.2C335.8 627.9 337.1 630 337.8 632.3C336.7 627.6 337.3 622.5 339.5 618.1C340.1 616.9 341.1 615.6 342.4 615.7C344 615.8 344.7 617.9 344.9 619.5C345.3 623 345.4 626.6 345.1 630.2C346.2 627.6 347.9 625.2 349.9 623.2C350.3 622.9 350.7 622.5 351.2 622.4C352.2 622.2 353.1 623.2 353.3 624.2C353.5 625.2 353 626.2 352.6 627.1C351.5 629.4 350 631.6 348.3 633.5C350.1 632.6 352 632 353.9 631.5C354.5 631.4 355.1 631.2 355.6 631.5C356.7 632 356.6 633.6 356.1 634.6C355.1 636.9 353.1 638.7 351.2 640.5C348.8 642.7 346.2 644.9 343 645.7C333.8 647.9 329.8 634.5 330.8 627.7Z" fill="#8BC376"/>
<path d="M342.2 621.2C340.9 626.5 340.5 632 340.3 637.5C340.2 639.3 340.1 641.1 339.9 643C339.9 643.1 339.8 643.2 339.7 643.2C339.6 643.2 339.5 643.1 339.5 643C339.3 641.2 339.2 639.3 339.3 637.5C339.5 633.8 340.1 630.2 340.7 626.6C341 624.8 341.4 623 341.7 621.2C341.8 620.9 342.2 621 342.2 621.2Z" fill="#BEDDB2"/>
<path d="M333.5 629.2C333.8 632.4 334.8 635.4 335.5 638.5C335.7 639.5 335.9 640.6 336 641.6C336 641.7 335.9 641.8 335.8 641.8C335.7 641.8 335.6 641.8 335.6 641.7C335.1 640.7 334.8 639.7 334.6 638.7C333.9 635.6 333.7 632.4 333.1 629.3C333 629 333.4 629 333.5 629.2Z" fill="#BEDDB2"/>
<path d="M350.2 626.6C348.1 630.5 346.3 634.5 344.3 638.5C343.6 639.8 342.9 641.1 342 642.3C341.9 642.4 341.8 642.4 341.7 642.3C341.6 642.2 341.6 642.2 341.6 642.1C342.6 639.3 344.1 636.8 345.5 634.2C347 631.6 348.4 629.1 349.7 626.4C350 626.2 350.4 626.4 350.2 626.6Z" fill="#BEDDB2"/>
<path d="M353.9 634.3C351.6 636.5 349.6 639 347.4 641.2C346.7 642 345.9 642.7 345 643.3C344.9 643.4 344.8 643.3 344.7 643.2C344.7 643.1 344.7 643 344.7 643C345.9 641.2 347.5 639.8 349 638.4C350.6 637 352.1 635.5 353.5 634C353.8 633.8 354.1 634.1 353.9 634.3Z" fill="#BEDDB2"/>
<path d="M336.3 639.7C340.6 639.9 344.9 641.2 348.5 643.5C349.8 644.3 351 645.3 351.8 646.5C354.1 650.1 352.9 654.8 351.4 658.8C347.2 670.6 341.8 682.4 332.6 691C331.9 691.6 331.1 692.3 330.2 692.4C329 692.6 327.8 691.8 327.2 690.8C326.5 689.8 326.3 688.6 326 687.4C325.5 685 325 682.6 324.5 680.1C323.6 675.9 319.8 649.5 328.1 641.5C330 639.7 333.7 639.6 336.3 639.7Z" fill="#F2902B"/>
<path d="M341.4 649.4C340.9 651.5 338 651.6 336.8 650C336.3 649.5 336.1 647.6 337.1 647.8C337.3 647.9 337.4 648.1 337.5 648.3C337.7 649 338 649.2 338.8 649.4C339.5 649.6 340 649.5 340.6 649.1C340.9 648.7 341.5 648.9 341.4 649.4Z" fill="#1D1D1B"/>
<path d="M343.3 650.5C342.8 649.3 344 648 345.2 648.2C346.4 648.3 347.3 649.9 346.5 650.9C346.3 651.2 345.7 651 345.7 650.6C345.7 650.3 345.6 650 345.5 649.8C345 649.3 344.2 649.5 344 650.3C344 650.8 343.4 650.9 343.3 650.5Z" fill="#1D1D1B"/>
<path d="M331.4 648.6C330.8 647.5 332 646.1 333.2 646.3C334.4 646.3 335.4 647.9 334.6 648.9C334.4 649.2 333.8 649.1 333.8 648.7C333.8 648.4 333.7 648.1 333.6 647.9C333.1 647.4 332.2 647.7 332.1 648.4C332.2 648.8 331.6 649 331.4 648.6Z" fill="#1D1D1B"/>
<path d="M346.6 658.3C340.5 658.1 334.5 656.5 329.1 653.8C328.9 653.7 328.8 653.4 328.9 653.1C329 652.9 329.3 652.8 329.5 652.9C335.2 654.8 340.9 656.4 346.8 657.4C347.2 657.5 347.1 658.3 346.6 658.3Z" fill="#CE5F29"/>
<path d="M345.2 663.7C338.9 663.7 332.5 662.2 326.8 659.3C326.6 659.2 326.5 658.9 326.6 658.6C326.7 658.4 327 658.3 327.2 658.4C333.1 660.4 339.1 661.9 345.2 662.8C345.8 662.9 345.7 663.7 345.2 663.7Z" fill="#CE5F29"/>
<path d="M342.3 668.8C337.4 668.4 332.6 667.2 328.1 665.2C327.9 665.1 327.8 664.8 327.9 664.6C328 664.4 328.2 664.3 328.5 664.3C330.9 664.9 333.2 665.5 335.5 666.1C337.8 666.7 340.2 667.3 342.5 667.9C343 668.1 342.9 668.9 342.3 668.8Z" fill="#CE5F29"/>
<path d="M340.5 674.2C335.7 673.9 330.8 672.8 326.4 670.9C326.2 670.8 326 670.5 326.2 670.3C326.3 670.1 326.5 670 326.7 670C330.8 670.9 336.5 672.4 340.6 673.3C341.2 673.4 341 674.2 340.5 674.2Z" fill="#CE5F29"/>
<path d="M336.6 679.7C333.9 679.6 331.2 678.8 328.8 677.5C328.3 677.2 328.6 676.5 329.1 676.6C331.7 677.1 334.2 677.9 336.7 678.9C337.2 679 337.1 679.7 336.6 679.7Z" fill="#CE5F29"/>
<path d="M333.9 684.9C332 685.4 329.9 685.1 328.3 683.9C328.1 683.7 328 683.4 328.2 683.2C328.3 683.1 328.5 683 328.7 683C329.6 683.1 330.4 683.3 331.3 683.5C332.1 683.7 333 683.8 333.9 684C334.4 684.1 334.4 684.8 333.9 684.9Z" fill="#CE5F29"/>
<path opacity="0.25" d="M335.6 660.9C333.6 666.7 332.4 672.7 332.2 678.9C332.1 681.7 332.1 684.5 331.5 687.1C331.4 687.4 331.3 687.8 331 687.9C330.4 688.3 329.7 687.4 329.4 686.7C326.4 678.9 325 670.6 324.6 662.2C324.5 659.2 324.5 656.2 325.7 653.4C326 652.6 326.5 651.9 327.2 651.4C329.1 650.1 333.2 651.2 334.9 652.6C337.4 654.6 336.5 658.3 335.6 660.9Z" fill="#E08728"/>
<path opacity="0.34" d="M348.1 658.8C347.1 663.3 345.1 667.5 343.1 671.6C342.8 672.2 342.5 672.9 342 673.4C341.5 673.9 340.8 674.2 340.1 674.1C339 673.8 338.5 672.5 338.5 671.4C338.4 669.5 339 667.7 339.7 666C340.7 663.4 341.8 660.9 343 658.4C343.6 657.2 345.1 654.7 346.8 654.8C348.7 654.9 348.4 657.5 348.1 658.8Z" fill="#F1F1F1"/>
<path opacity="0.34" d="M339.7 677.1C339.8 678.1 339.2 679.1 338.4 679.5C338 679.7 337.5 679.8 337.1 679.6C336.4 679.4 336.1 678.5 336.1 677.8C336.3 675.8 339.4 674.5 339.7 677.1Z" fill="#F1F1F1"/>
<path d="M87.5 85.4C89.5 81.4 89.8 76.8 90.6 72.4C91.4 68 92.8 63.4 96.3 60.5C97.8 59.2 100.1 58.4 101.7 59.5C102.7 60.2 103.2 61.4 103.2 62.6C103.2 63.8 102.9 65 102.5 66.1C99.8 73.9 95.2 81.1 89.3 86.9C88.6 86.5 87.9 86 87.5 85.4Z" fill="#00C86F"/>
<mask id="mask0_41_2014" style="mask-type:luminance" maskUnits="userSpaceOnUse" x="87" y="58" width="17" height="29">
<path d="M87.5 85.4C89.5 81.4 89.8 76.8 90.6 72.4C91.4 68 92.8 63.4 96.3 60.5C97.8 59.2 100.1 58.4 101.7 59.5C102.7 60.2 103.2 61.4 103.2 62.6C103.2 63.8 102.9 65 102.5 66.1C99.8 73.9 95.2 81.1 89.3 86.9C88.6 86.5 87.9 86 87.5 85.4Z" fill="white"/>
</mask>
<g mask="url(#mask0_41_2014)">
<path d="M103.4 58.8C100 69.4 94.6 79.4 87.5 88.1" stroke="#009D56" stroke-width="2" stroke-miterlimit="10" stroke-linecap="round" stroke-linejoin="round"/>
<path d="M96.5 57.5C97.6 68.3 93.8 79.4 86.3 87.3" stroke="#009D56" stroke-width="2" stroke-miterlimit="10" stroke-linecap="round" stroke-linejoin="round"/>
</g>
<path opacity="0.15" d="M87.5 85.4C87.9 86 88.6 86.4 89.3 86.9C90.8 85.4 92.3 83.8 93.6 82.2C92 81.2 90.5 80.5 89.3 80.1C88.9 81.9 88.3 83.7 87.5 85.4Z" fill="#451800"/>
<path d="M88.9 87.8C93.4 80.3 99.9 73.9 107.6 69.7C108.9 69 110.2 68.3 111.6 68.2C113 68.1 114.6 68.5 115.4 69.7C116.6 71.4 115.8 73.8 114.2 75.2C112.7 76.6 110.7 77.2 108.7 77.9C103.1 80.1 98.1 83.7 93.1 87.1C91.9 88 89.9 88.9 88.9 87.8Z" fill="#00C86F"/>
<mask id="mask1_41_2014" style="mask-type:luminance" maskUnits="userSpaceOnUse" x="88" y="68" width="28" height="21">
<path d="M88.9 87.8C93.4 80.3 99.9 73.9 107.6 69.7C108.9 69 110.2 68.3 111.6 68.2C113 68.1 114.6 68.5 115.4 69.7C116.6 71.4 115.8 73.8 114.2 75.2C112.7 76.6 110.7 77.2 108.7 77.9C103.1 80.1 98.1 83.7 93.1 87.1C91.9 88 89.9 88.9 88.9 87.8Z" fill="white"/>
</mask>
<g mask="url(#mask1_41_2014)">
<path d="M90 89.6C97.4 80.5 107.9 74 119.4 71.4" stroke="#009D56" stroke-width="2" stroke-miterlimit="10" stroke-linecap="round" stroke-linejoin="round"/>
<path d="M116.6 68.4C105.2 72.1 95 79.7 88.3 89.6" stroke="#009D56" stroke-width="2" stroke-miterlimit="10" stroke-linecap="round" stroke-linejoin="round"/>
</g>
<path opacity="0.15" d="M93 81.8C91.5 83.7 90.1 85.7 88.8 87.7C89.9 88.8 91.8 88 93.1 87.1C94.3 86.3 95.5 85.5 96.7 84.7C95.5 83.5 94.3 82.6 93 81.8Z" fill="#451800"/>
<path d="M91.4 89.2C94.6 83.9 100.9 80.6 107.1 80.9C109 81 111.1 81.6 111.8 83.3C112.5 85 111.4 87 109.7 87.9C108.1 88.7 106.1 88.7 104.3 88.4C102.5 88.1 100.7 87.7 98.8 87.9C96.6 88.1 94.5 89.3 93.2 91.1C92.3 90.6 91.5 89.7 91.4 89.2Z" fill="#00C86F"/>
<mask id="mask2_41_2014" style="mask-type:luminance" maskUnits="userSpaceOnUse" x="91" y="80" width="22" height="12">
<path d="M91.4 89.2C94.6 83.9 100.9 80.6 107.1 80.9C109 81 111.1 81.6 111.8 83.3C112.5 85 111.4 87 109.7 87.9C108.1 88.7 106.1 88.7 104.3 88.4C102.5 88.1 100.7 87.7 98.8 87.9C96.6 88.1 94.5 89.3 93.2 91.1C92.3 90.6 91.5 89.7 91.4 89.2Z" fill="white"/>
</mask>
<g mask="url(#mask2_41_2014)">
<path d="M91.5 90.6C94.4 87.7 97.6 84.9 101.5 83.4C105.3 81.9 109.9 81.7 113.5 83.9" stroke="#009D56" stroke-width="2" stroke-miterlimit="10" stroke-linecap="round" stroke-linejoin="round"/>
<path d="M112.7 87C109.3 85.3 105.3 84.8 101.5 85.6C97.8 86.4 94.3 88.6 91.9 91.6" stroke="#009D56" stroke-width="2" stroke-miterlimit="10" stroke-linecap="round" stroke-linejoin="round"/>
</g>
<path opacity="0.15" d="M99.4 87.8C98.4 86.4 97.3 85.2 96.2 84.2C94.3 85.5 92.7 87.3 91.4 89.2C91.5 89.7 92.2 90.6 93.2 91C94.5 89.2 96.6 88 98.8 87.8C99.1 87.8 99.2 87.8 99.4 87.8Z" fill="#451800"/>
<path d="M96.1 87.2C91.6 83.5 86.1 79.7001 80.4 80.9001C76.4 81.7001 73.4 84.9001 70.7 87.9001C56.6 104 45.2 122.6 37.4 142.6C36.9 143.8 36.6 145.6 37.8 146.2C38.6 146.6 39.6 146.2 40.3 145.8C58.7 135.7 75.7 123.2 90.9 108.7C93.9 105.9 96.8 102.8 98.4 99.0001C99.9 95.3001 99.8 90.3 96.1 87.2Z" fill="#FF7E4A"/>
<mask id="mask3_41_2014" style="mask-type:luminance" maskUnits="userSpaceOnUse" x="36" y="80" width="64" height="67">
<path d="M96.1 87.2C91.6 83.5 86.1 79.7001 80.4 80.9001C76.4 81.7001 73.4 84.9001 70.7 87.9001C56.6 104 45.2 122.6 37.4 142.6C36.9 143.8 36.6 145.6 37.8 146.2C38.6 146.6 39.6 146.2 40.3 145.8C58.7 135.7 75.7 123.2 90.9 108.7C93.9 105.9 96.8 102.8 98.4 99.0001C99.9 95.3001 99.8 90.3 96.1 87.2Z" fill="white"/>
</mask>
<g mask="url(#mask3_41_2014)">
<path d="M71.1 83.8C77.3 92.7 86.8 99.3 97.4 101.8" stroke="#F36432" stroke-width="2" stroke-miterlimit="10" stroke-linecap="round" stroke-linejoin="round"/>
<path d="M97.6 105.2C85.2 102.4 73.6 95.7001 65.1 86.2001" stroke="#F36432" stroke-width="2" stroke-miterlimit="10" stroke-linecap="round" stroke-linejoin="round"/>
<path d="M60.6 97.2001C63.6 100.5 67.3 103.2 71.4 105.2" stroke="#F36432" stroke-width="2" stroke-miterlimit="10" stroke-linecap="round" stroke-linejoin="round"/>
<path d="M78.4999 110C81.7999 111.1 85.0999 112.1 88.3999 113.2" stroke="#F36432" stroke-width="2" stroke-miterlimit="10" stroke-linecap="round" stroke-linejoin="round"/>
<path d="M85.3 119.2C73.6 116.7 62.6 110.6 54.3 102" stroke="#F36432" stroke-width="2" stroke-miterlimit="10" stroke-linecap="round" stroke-linejoin="round"/>
<path d="M51.7 109.3C57.1 119.3 62.8999 129.7 72.6999 135.5" stroke="#F36432" stroke-width="2" stroke-miterlimit="10" stroke-linecap="round" stroke-linejoin="round"/>
<path d="M50.3 113.7C51.4 121.8 54.9 129.5 60.3 135.6" stroke="#F36432" stroke-width="2" stroke-miterlimit="10" stroke-linecap="round" stroke-linejoin="round"/>
<path d="M40.4 131.2C42.3 136.2 46.5 140.3 51.6 142" stroke="#F36432" stroke-width="2" stroke-miterlimit="10" stroke-linecap="round" stroke-linejoin="round"/>
<path d="M49.4999 132.9C49.9999 135.3 51.9999 137.4 54.3999 138.1" stroke="#F36432" stroke-width="2" stroke-miterlimit="10" stroke-linecap="round" stroke-linejoin="round"/>
<path d="M87.9999 91.7001C91.7999 93.6001 96.0999 94.4001 100.3 94.2001" stroke="#F36432" stroke-width="2" stroke-miterlimit="10" stroke-linecap="round" stroke-linejoin="round"/>
</g>
<path opacity="0.15" d="M60.7 126.4C55.7 126.3 50.7 124.9 46.6 122.7C43.1 129.1 40.1 135.8 37.4 142.6C36.9 143.8 36.6 145.6 37.8 146.2C38.6 146.6 39.6 146.2 40.3 145.8C52.1 139.3 63.4 131.9 73.9 123.5C69.8 125.5 65.3 126.5 60.7 126.4Z" fill="#451800"/>
<path opacity="0.6" d="M84.3 84C80.2 82.9 63.3 91.5 69.7 99.1C76.2 106.6 95.6 87.1 84.3 84Z" fill="white"/>
<path opacity="0.6" d="M83.6 86.4001C81 83.5001 74.1 88.2001 76.2 90.9001C78.4 93.7001 86.5 89.5001 83.6 86.4001Z" fill="white"/>
<path d="M331.7 198.8C333.7 194.8 334 190.2 334.8 185.8C335.6 181.4 337 176.8 340.5 173.9C342 172.6 344.3 171.8 345.9 172.9C346.9 173.6 347.4 174.8 347.4 176C347.4 177.2 347.1 178.4 346.7 179.5C344 187.3 339.4 194.5 333.5 200.3C332.8 199.9 332.1 199.4 331.7 198.8Z" fill="#00C86F"/>
<mask id="mask4_41_2014" style="mask-type:luminance" maskUnits="userSpaceOnUse" x="331" y="172" width="17" height="29">
<path d="M331.7 198.8C333.7 194.8 334 190.2 334.8 185.8C335.6 181.4 337 176.8 340.5 173.9C342 172.6 344.3 171.8 345.9 172.9C346.9 173.6 347.4 174.8 347.4 176C347.4 177.2 347.1 178.4 346.7 179.5C344 187.3 339.4 194.5 333.5 200.3C332.8 199.9 332.1 199.4 331.7 198.8Z" fill="white"/>
</mask>
<g mask="url(#mask4_41_2014)">
<path d="M347.7 172.2C344.3 182.8 338.9 192.8 331.8 201.5" stroke="#009D56" stroke-width="2" stroke-miterlimit="10" stroke-linecap="round" stroke-linejoin="round"/>
<path d="M340.8 170.9C341.9 181.7 338.1 192.8 330.6 200.7" stroke="#009D56" stroke-width="2" stroke-miterlimit="10" stroke-linecap="round" stroke-linejoin="round"/>
</g>
<path opacity="0.15" d="M331.7 198.8C332.1 199.4 332.8 199.8 333.5 200.3C335 198.8 336.5 197.2 337.8 195.6C336.2 194.6 334.7 193.9 333.5 193.5C333.1 195.3 332.6 197.1 331.7 198.8Z" fill="#451800"/>
<path d="M333.1 201.2C337.6 193.7 344.1 187.3 351.8 183.1C353.1 182.4 354.4 181.7 355.8 181.6C357.2 181.5 358.8 181.9 359.6 183.1C360.8 184.8 360 187.2 358.4 188.6C356.9 190 354.9 190.6 352.9 191.3C347.3 193.5 342.3 197.1 337.3 200.5C336.1 201.4 334.2 202.3 333.1 201.2Z" fill="#00C86F"/>
<mask id="mask5_41_2014" style="mask-type:luminance" maskUnits="userSpaceOnUse" x="333" y="181" width="28" height="21">
<path d="M333.1 201.2C337.6 193.7 344.1 187.3 351.8 183.1C353.1 182.4 354.4 181.7 355.8 181.6C357.2 181.5 358.8 181.9 359.6 183.1C360.8 184.8 360 187.2 358.4 188.6C356.9 190 354.9 190.6 352.9 191.3C347.3 193.5 342.3 197.1 337.3 200.5C336.1 201.4 334.2 202.3 333.1 201.2Z" fill="white"/>
</mask>
<g mask="url(#mask5_41_2014)">
<path d="M334.2 203C341.6 193.9 352.1 187.4 363.6 184.8" stroke="#009D56" stroke-width="2" stroke-miterlimit="10" stroke-linecap="round" stroke-linejoin="round"/>
<path d="M360.9 181.8C349.5 185.5 339.3 193.1 332.5 203" stroke="#009D56" stroke-width="2" stroke-miterlimit="10" stroke-linecap="round" stroke-linejoin="round"/>
</g>
<path opacity="0.15" d="M337.3 195.2C335.8 197.1 334.4 199.1 333.1 201.1C334.2 202.2 336.1 201.4 337.4 200.5C338.6 199.7 339.8 198.9 341 198.1C339.8 196.9 338.5 196 337.3 195.2Z" fill="#451800"/>
<path d="M335.7 202.6C338.9 197.3 345.2 194 351.4 194.3C353.3 194.4 355.4 195 356.1 196.7C356.8 198.4 355.7 200.4 354 201.3C352.4 202.1 350.4 202.1 348.6 201.8C346.8 201.5 345 201.1 343.1 201.3C340.9 201.5 338.8 202.7 337.5 204.5C336.5 204 335.7 203.1 335.7 202.6Z" fill="#00C86F"/>
<mask id="mask6_41_2014" style="mask-type:luminance" maskUnits="userSpaceOnUse" x="335" y="194" width="22" height="11">
<path d="M335.7 202.6C338.9 197.3 345.2 194 351.4 194.3C353.3 194.4 355.4 195 356.1 196.7C356.8 198.4 355.7 200.4 354 201.3C352.4 202.1 350.4 202.1 348.6 201.8C346.8 201.5 345 201.1 343.1 201.3C340.9 201.5 338.8 202.7 337.5 204.5C336.5 204 335.7 203.1 335.7 202.6Z" fill="white"/>
</mask>
<g mask="url(#mask6_41_2014)">
<path d="M335.8 204C338.7 201.1 341.9 198.3 345.8 196.8C349.6 195.3 354.2 195.1 357.8 197.3" stroke="#009D56" stroke-width="2" stroke-miterlimit="10" stroke-linecap="round" stroke-linejoin="round"/>
<path d="M356.9 200.4C353.5 198.7 349.5 198.2 345.7 199C342 199.8 338.5 202 336.1 205" stroke="#009D56" stroke-width="2" stroke-miterlimit="10" stroke-linecap="round" stroke-linejoin="round"/>
</g>
<path opacity="0.15" d="M343.6 201.1C342.6 199.7 341.5 198.5 340.4 197.5C338.5 198.8 336.9 200.6 335.6 202.5C335.7 203 336.4 203.9 337.4 204.3C338.7 202.5 340.8 201.3 343 201.1C343.3 201.2 343.5 201.2 343.6 201.1Z" fill="#451800"/>
<path d="M340.3 200.6C335.8 196.9 330.3 193.1 324.6 194.3C320.6 195.1 317.6 198.3 314.9 201.3C300.8 217.4 289.4 236 281.6 256C281.1 257.2 280.8 259 282 259.6C282.8 260 283.8 259.6 284.5 259.2C302.9 249.1 319.9 236.6 335.1 222.1C338.1 219.3 341 216.2 342.6 212.4C344.1 208.7 344.1 203.7 340.3 200.6Z" fill="#FF7E4A"/>
<mask id="mask7_41_2014" style="mask-type:luminance" maskUnits="userSpaceOnUse" x="281" y="194" width="63" height="66">
<path d="M340.3 200.6C335.8 196.9 330.3 193.1 324.6 194.3C320.6 195.1 317.6 198.3 314.9 201.3C300.8 217.4 289.4 236 281.6 256C281.1 257.2 280.8 259 282 259.6C282.8 260 283.8 259.6 284.5 259.2C302.9 249.1 319.9 236.6 335.1 222.1C338.1 219.3 341 216.2 342.6 212.4C344.1 208.7 344.1 203.7 340.3 200.6Z" fill="white"/>
</mask>
<g mask="url(#mask7_41_2014)">
<path d="M315.3 197.1C321.5 206 331 212.6 341.6 215.1" stroke="#F36432" stroke-width="2" stroke-miterlimit="10" stroke-linecap="round" stroke-linejoin="round"/>
<path d="M341.8 218.6C329.4 215.8 317.8 209.1 309.3 199.6" stroke="#F36432" stroke-width="2" stroke-miterlimit="10" stroke-linecap="round" stroke-linejoin="round"/>
<path d="M304.8 210.6C307.8 213.9 311.5 216.6 315.6 218.6" stroke="#F36432" stroke-width="2" stroke-miterlimit="10" stroke-linecap="round" stroke-linejoin="round"/>
<path d="M322.7 223.4C326 224.5 329.3 225.5 332.6 226.6" stroke="#F36432" stroke-width="2" stroke-miterlimit="10" stroke-linecap="round" stroke-linejoin="round"/>
<path d="M329.6 232.6C317.9 230.1 306.9 224 298.6 215.4" stroke="#F36432" stroke-width="2" stroke-miterlimit="10" stroke-linecap="round" stroke-linejoin="round"/>
<path d="M295.9 222.7C301.3 232.7 307.1 243.1 316.9 248.9" stroke="#F36432" stroke-width="2" stroke-miterlimit="10" stroke-linecap="round" stroke-linejoin="round"/>
<path d="M294.5 227C295.6 235.1 299.1 242.8 304.5 248.9" stroke="#F36432" stroke-width="2" stroke-miterlimit="10" stroke-linecap="round" stroke-linejoin="round"/>
<path d="M284.7 244.6C286.6 249.6 290.8 253.7 295.9 255.4" stroke="#F36432" stroke-width="2" stroke-miterlimit="10" stroke-linecap="round" stroke-linejoin="round"/>
<path d="M293.7 246.3C294.2 248.7 296.2 250.8 298.6 251.5" stroke="#F36432" stroke-width="2" stroke-miterlimit="10" stroke-linecap="round" stroke-linejoin="round"/>
<path d="M332.2 205.1C336 207 340.3 207.8 344.5 207.6" stroke="#F36432" stroke-width="2" stroke-miterlimit="10" stroke-linecap="round" stroke-linejoin="round"/>
</g>
<path opacity="0.15" d="M304.9 239.8C299.9 239.7 294.9 238.3 290.8 236.1C287.3 242.5 284.3 249.2 281.6 256C281.1 257.2 280.8 259 282 259.6C282.8 260 283.8 259.6 284.5 259.2C296.3 252.7 307.6 245.3 318.1 236.9C314 238.9 309.5 239.9 304.9 239.8Z" fill="#451800"/>
<path opacity="0.6" d="M328.5 197.4C324.4 196.3 307.5 204.9 313.9 212.5C320.4 220 339.8 200.5 328.5 197.4Z" fill="white"/>
<path opacity="0.6" d="M327.9 199.8C325.3 196.9 318.4 201.6 320.5 204.3C322.6 207.1 330.7 202.9 327.9 199.8Z" fill="white"/>
<path d="M226.7 508C228.7 504 229 499.4 229.8 495C230.6 490.6 232 486 235.5 483.1C237 481.8 239.3 481 240.9 482.1C241.9 482.8 242.4 484 242.4 485.2C242.4 486.4 242.1 487.6 241.7 488.7C239 496.5 234.4 503.7 228.5 509.5C227.8 509 227.1 508.6 226.7 508Z" fill="#00C86F"/>
<mask id="mask8_41_2014" style="mask-type:luminance" maskUnits="userSpaceOnUse" x="226" y="481" width="17" height="29">
<path d="M226.7 508C228.7 504 229 499.4 229.8 495C230.6 490.6 232 486 235.5 483.1C237 481.8 239.3 481 240.9 482.1C241.9 482.8 242.4 484 242.4 485.2C242.4 486.4 242.1 487.6 241.7 488.7C239 496.5 234.4 503.7 228.5 509.5C227.8 509 227.1 508.6 226.7 508Z" fill="white"/>
</mask>
<g mask="url(#mask8_41_2014)">
<path d="M242.6 481.3C239.2 491.9 233.8 501.9 226.7 510.6" stroke="#009D56" stroke-width="2" stroke-miterlimit="10" stroke-linecap="round" stroke-linejoin="round"/>
<path d="M235.7 480C236.8 490.8 233 501.9 225.5 509.8" stroke="#009D56" stroke-width="2" stroke-miterlimit="10" stroke-linecap="round" stroke-linejoin="round"/>
</g>
<path opacity="0.15" d="M226.7 508C227.1 508.6 227.8 509 228.5 509.5C230 508 231.5 506.4 232.8 504.8C231.2 503.8 229.7 503.1 228.5 502.7C228.1 504.4 227.5 506.2 226.7 508Z" fill="#451800"/>
<path d="M228 510.3C232.5 502.8 239 496.4 246.7 492.2C248 491.5 249.3 490.8 250.7 490.7C252.1 490.6 253.7 491 254.5 492.2C255.7 493.9 254.9 496.3 253.3 497.7C251.8 499.1 249.8 499.7 247.8 500.4C242.2 502.6 237.2 506.2 232.2 509.6C231 510.6 229.1 511.4 228 510.3Z" fill="#00C86F"/>
<mask id="mask9_41_2014" style="mask-type:luminance" maskUnits="userSpaceOnUse" x="228" y="490" width="28" height="21">
<path d="M228 510.3C232.5 502.8 239 496.4 246.7 492.2C248 491.5 249.3 490.8 250.7 490.7C252.1 490.6 253.7 491 254.5 492.2C255.7 493.9 254.9 496.3 253.3 497.7C251.8 499.1 249.8 499.7 247.8 500.4C242.2 502.6 237.2 506.2 232.2 509.6C231 510.6 229.1 511.4 228 510.3Z" fill="white"/>
</mask>
<g mask="url(#mask9_41_2014)">
<path d="M229.2 512.2C236.6 503.1 247.1 496.6 258.6 494" stroke="#009D56" stroke-width="2" stroke-miterlimit="10" stroke-linecap="round" stroke-linejoin="round"/>
<path d="M255.8 490.9C244.4 494.6 234.2 502.2 227.4 512.1" stroke="#009D56" stroke-width="2" stroke-miterlimit="10" stroke-linecap="round" stroke-linejoin="round"/>
</g>
<path opacity="0.15" d="M232.2 504.3C230.7 506.2 229.3 508.2 228 510.2C229.1 511.3 231 510.5 232.3 509.6C233.5 508.8 234.7 508 235.9 507.2C234.7 506 233.4 505.1 232.2 504.3Z" fill="#451800"/>
<path d="M230.6 511.7C233.8 506.4 240.1 503.1 246.3 503.4C248.2 503.5 250.3 504.1 251 505.8C251.7 507.5 250.6 509.5 248.9 510.4C247.3 511.2 245.3 511.2 243.5 510.9C241.7 510.6 239.9 510.2 238 510.4C235.8 510.6 233.7 511.8 232.4 513.6C231.4 513.1 230.7 512.2 230.6 511.7Z" fill="#00C86F"/>
<mask id="mask10_41_2014" style="mask-type:luminance" maskUnits="userSpaceOnUse" x="230" y="503" width="22" height="11">
<path d="M230.6 511.7C233.8 506.4 240.1 503.1 246.3 503.4C248.2 503.5 250.3 504.1 251 505.8C251.7 507.5 250.6 509.5 248.9 510.4C247.3 511.2 245.3 511.2 243.5 510.9C241.7 510.6 239.9 510.2 238 510.4C235.8 510.6 233.7 511.8 232.4 513.6C231.4 513.1 230.7 512.2 230.6 511.7Z" fill="white"/>
</mask>
<g mask="url(#mask10_41_2014)">
<path d="M230.7 513.1C233.6 510.2 236.8 507.4 240.7 505.9C244.5 504.4 249.1 504.2 252.7 506.4" stroke="#009D56" stroke-width="2" stroke-miterlimit="10" stroke-linecap="round" stroke-linejoin="round"/>
<path d="M251.9 509.6C248.5 507.9 244.5 507.4 240.7 508.2C237 509 233.5 511.2 231.1 514.2" stroke="#009D56" stroke-width="2" stroke-miterlimit="10" stroke-linecap="round" stroke-linejoin="round"/>
</g>
<path opacity="0.15" d="M238.6 510.3C237.6 508.9 236.5 507.7 235.4 506.7C233.5 508 231.9 509.8 230.6 511.7C230.7 512.2 231.4 513.1 232.4 513.5C233.7 511.7 235.8 510.5 238 510.3C238.2 510.3 238.4 510.3 238.6 510.3Z" fill="#451800"/>
<path d="M235.3 509.7C230.8 506 225.3 502.2 219.6 503.4C215.6 504.2 212.6 507.4 209.9 510.4C195.8 526.5 184.4 545.1 176.6 565.1C176.1 566.3 175.8 568.1 177 568.7C177.8 569.1 178.8 568.7 179.5 568.3C197.9 558.2 214.9 545.7 230.1 531.2C233.1 528.4 236 525.3 237.6 521.5C239 517.8 239 512.8 235.3 509.7Z" fill="#FF7E4A"/>
<mask id="mask11_41_2014" style="mask-type:luminance" maskUnits="userSpaceOnUse" x="176" y="503" width="63" height="66">
<path d="M235.3 509.7C230.8 506 225.3 502.2 219.6 503.4C215.6 504.2 212.6 507.4 209.9 510.4C195.8 526.5 184.4 545.1 176.6 565.1C176.1 566.3 175.8 568.1 177 568.7C177.8 569.1 178.8 568.7 179.5 568.3C197.9 558.2 214.9 545.7 230.1 531.2C233.1 528.4 236 525.3 237.6 521.5C239 517.8 239 512.8 235.3 509.7Z" fill="white"/>
</mask>
<g mask="url(#mask11_41_2014)">
<path d="M210.3 506.3C216.5 515.2 226 521.8 236.6 524.3" stroke="#F36432" stroke-width="2" stroke-miterlimit="10" stroke-linecap="round" stroke-linejoin="round"/>
<path d="M236.8 527.7C224.4 524.9 212.8 518.2 204.3 508.7" stroke="#F36432" stroke-width="2" stroke-miterlimit="10" stroke-linecap="round" stroke-linejoin="round"/>
<path d="M199.8 519.7C202.8 523 206.5 525.7 210.6 527.7" stroke="#F36432" stroke-width="2" stroke-miterlimit="10" stroke-linecap="round" stroke-linejoin="round"/>
<path d="M217.7 532.5C221 533.6 224.3 534.6 227.6 535.7" stroke="#F36432" stroke-width="2" stroke-miterlimit="10" stroke-linecap="round" stroke-linejoin="round"/>
<path d="M224.5 541.7C212.8 539.2 201.8 533.1 193.5 524.5" stroke="#F36432" stroke-width="2" stroke-miterlimit="10" stroke-linecap="round" stroke-linejoin="round"/>
<path d="M190.9 531.8C196.3 541.8 202.1 552.2 211.9 558" stroke="#F36432" stroke-width="2" stroke-miterlimit="10" stroke-linecap="round" stroke-linejoin="round"/>
<path d="M189.5 536.2C190.6 544.3 194.1 552 199.5 558.1" stroke="#F36432" stroke-width="2" stroke-miterlimit="10" stroke-linecap="round" stroke-linejoin="round"/>
<path d="M179.6 553.7C181.5 558.7 185.7 562.8 190.8 564.5" stroke="#F36432" stroke-width="2" stroke-miterlimit="10" stroke-linecap="round" stroke-linejoin="round"/>
<path d="M188.7 555.4C189.2 557.8 191.2 559.9 193.6 560.6" stroke="#F36432" stroke-width="2" stroke-miterlimit="10" stroke-linecap="round" stroke-linejoin="round"/>
<path d="M227.1 514.2C230.9 516.1 235.2 516.9 239.4 516.7" stroke="#F36432" stroke-width="2" stroke-miterlimit="10" stroke-linecap="round" stroke-linejoin="round"/>
</g>
<path opacity="0.15" d="M199.9 548.9C194.9 548.8 189.9 547.4 185.8 545.2C182.3 551.6 179.3 558.3 176.6 565.1C176.1 566.3 175.8 568.1 177 568.7C177.8 569.1 178.8 568.7 179.5 568.3C191.3 561.8 202.6 554.4 213.1 546C209 548 204.4 549 199.9 548.9Z" fill="#451800"/>
<path opacity="0.6" d="M223.5 506.5C219.4 505.4 202.5 514 208.9 521.6C215.3 529.1 234.8 509.6 223.5 506.5Z" fill="white"/>
<path opacity="0.6" d="M222.8 508.9C220.2 506 213.3 510.7 215.4 513.4C217.6 516.2 225.6 512 222.8 508.9Z" fill="white"/>
<path d="M138.4 734.3C140.4 730.3 140.7 725.7 141.5 721.3C142.3 716.9 143.7 712.3 147.2 709.4C148.7 708.1 151 707.3 152.6 708.4C153.6 709.1 154.1 710.3 154.1 711.5C154.1 712.7 153.8 713.9 153.4 715C150.7 722.8 146.1 730 140.2 735.8C139.4 735.3 138.7 734.9 138.4 734.3Z" fill="#00C86F"/>
<mask id="mask12_41_2014" style="mask-type:luminance" maskUnits="userSpaceOnUse" x="138" y="707" width="17" height="29">
<path d="M138.4 734.3C140.4 730.3 140.7 725.7 141.5 721.3C142.3 716.9 143.7 712.3 147.2 709.4C148.7 708.1 151 707.3 152.6 708.4C153.6 709.1 154.1 710.3 154.1 711.5C154.1 712.7 153.8 713.9 153.4 715C150.7 722.8 146.1 730 140.2 735.8C139.4 735.3 138.7 734.9 138.4 734.3Z" fill="white"/>
</mask>
<g mask="url(#mask12_41_2014)">
<path d="M154.3 707.6C150.9 718.2 145.5 728.2 138.4 736.9" stroke="#009D56" stroke-width="2" stroke-miterlimit="10" stroke-linecap="round" stroke-linejoin="round"/>
<path d="M147.4 706.4C148.5 717.2 144.7 728.3 137.2 736.2" stroke="#009D56" stroke-width="2" stroke-miterlimit="10" stroke-linecap="round" stroke-linejoin="round"/>
</g>
<path opacity="0.15" d="M138.4 734.3C138.8 734.9 139.5 735.3 140.2 735.8C141.7 734.3 143.2 732.7 144.5 731.1C142.9 730.1 141.4 729.4 140.2 729C139.7 730.7 139.2 732.6 138.4 734.3Z" fill="#451800"/>
<path d="M139.7 736.6C144.2 729.1 150.7 722.7 158.4 718.5C159.7 717.8 161 717.1 162.4 717C163.8 716.9 165.4 717.3 166.2 718.5C167.4 720.2 166.6 722.6 165 724C163.5 725.4 161.5 726 159.5 726.7C153.9 728.9 148.9 732.5 143.9 735.9C142.7 736.9 140.8 737.7 139.7 736.6Z" fill="#00C86F"/>
<mask id="mask13_41_2014" style="mask-type:luminance" maskUnits="userSpaceOnUse" x="139" y="716" width="28" height="22">
<path d="M139.7 736.6C144.2 729.1 150.7 722.7 158.4 718.5C159.7 717.8 161 717.1 162.4 717C163.8 716.9 165.4 717.3 166.2 718.5C167.4 720.2 166.6 722.6 165 724C163.5 725.4 161.5 726 159.5 726.7C153.9 728.9 148.9 732.5 143.9 735.9C142.7 736.9 140.8 737.7 139.7 736.6Z" fill="white"/>
</mask>
<g mask="url(#mask13_41_2014)">
<path d="M140.8 738.5C148.2 729.4 158.7 722.9 170.2 720.3" stroke="#009D56" stroke-width="2" stroke-miterlimit="10" stroke-linecap="round" stroke-linejoin="round"/>
<path d="M167.5 717.2C156.1 720.9 145.9 728.5 139.1 738.4" stroke="#009D56" stroke-width="2" stroke-miterlimit="10" stroke-linecap="round" stroke-linejoin="round"/>
</g>
<path opacity="0.15" d="M143.9 730.7C142.4 732.6 141 734.6 139.7 736.6C140.8 737.7 142.7 736.9 144 736C145.2 735.2 146.4 734.4 147.6 733.6C146.4 732.4 145.1 731.4 143.9 730.7Z" fill="#451800"/>
<path d="M142.3 738.1C145.5 732.8 151.8 729.5 158 729.8C159.9 729.9 162 730.5 162.7 732.2C163.4 733.9 162.3 735.9 160.6 736.8C159 737.6 157 737.6 155.2 737.3C153.4 737 151.6 736.6 149.7 736.8C147.5 737 145.4 738.2 144.1 740C143.1 739.4 142.3 738.6 142.3 738.1Z" fill="#00C86F"/>
<mask id="mask14_41_2014" style="mask-type:luminance" maskUnits="userSpaceOnUse" x="142" y="729" width="21" height="11">
<path d="M142.3 738.1C145.5 732.8 151.8 729.5 158 729.8C159.9 729.9 162 730.5 162.7 732.2C163.4 733.9 162.3 735.9 160.6 736.8C159 737.6 157 737.6 155.2 737.3C153.4 737 151.6 736.6 149.7 736.8C147.5 737 145.4 738.2 144.1 740C143.1 739.4 142.3 738.6 142.3 738.1Z" fill="white"/>
</mask>
<g mask="url(#mask14_41_2014)">
<path d="M142.4 739.4C145.3 736.5 148.5 733.7 152.4 732.2C156.2 730.7 160.8 730.5 164.4 732.7" stroke="#009D56" stroke-width="2" stroke-miterlimit="10" stroke-linecap="round" stroke-linejoin="round"/>
<path d="M163.6 735.9C160.2 734.2 156.2 733.7 152.4 734.5C148.7 735.3 145.2 737.5 142.8 740.5" stroke="#009D56" stroke-width="2" stroke-miterlimit="10" stroke-linecap="round" stroke-linejoin="round"/>
</g>
<path opacity="0.15" d="M150.3 736.6C149.3 735.2 148.2 734 147.1 733C145.2 734.3 143.6 736.1 142.3 738C142.4 738.5 143.1 739.4 144.1 739.8C145.4 738 147.5 736.8 149.7 736.6C149.9 736.6 150.1 736.6 150.3 736.6Z" fill="#451800"/>
<path d="M146.9 736C142.4 732.3 136.9 728.5 131.2 729.7C127.2 730.5 124.2 733.7 121.5 736.7C107.4 752.8 96 771.4 88.2 791.4C87.7 792.6 87.4 794.4 88.6 795C89.4 795.4 90.4 795 91.1 794.6C109.5 784.5 126.5 772 141.7 757.5C144.7 754.7 147.6 751.6 149.2 747.8C150.7 744.1 150.7 739.1 146.9 736Z" fill="#FF7E4A"/>
<mask id="mask15_41_2014" style="mask-type:luminance" maskUnits="userSpaceOnUse" x="87" y="729" width="64" height="67">
<path d="M146.9 736C142.4 732.3 136.9 728.5 131.2 729.7C127.2 730.5 124.2 733.7 121.5 736.7C107.4 752.8 96 771.4 88.2 791.4C87.7 792.6 87.4 794.4 88.6 795C89.4 795.4 90.4 795 91.1 794.6C109.5 784.5 126.5 772 141.7 757.5C144.7 754.7 147.6 751.6 149.2 747.8C150.7 744.1 150.7 739.1 146.9 736Z" fill="white"/>
</mask>
<g mask="url(#mask15_41_2014)">
<path d="M122 732.6C128.2 741.5 137.7 748.1 148.3 750.6" stroke="#F36432" stroke-width="2" stroke-miterlimit="10" stroke-linecap="round" stroke-linejoin="round"/>
<path d="M148.4 754C136 751.2 124.4 744.5 115.9 735" stroke="#F36432" stroke-width="2" stroke-miterlimit="10" stroke-linecap="round" stroke-linejoin="round"/>
<path d="M111.5 746C114.5 749.3 118.2 752 122.3 754" stroke="#F36432" stroke-width="2" stroke-miterlimit="10" stroke-linecap="round" stroke-linejoin="round"/>
<path d="M129.4 758.8C132.7 759.9 136 760.9 139.3 762" stroke="#F36432" stroke-width="2" stroke-miterlimit="10" stroke-linecap="round" stroke-linejoin="round"/>
<path d="M136.2 768C124.5 765.5 113.5 759.4 105.2 750.8" stroke="#F36432" stroke-width="2" stroke-miterlimit="10" stroke-linecap="round" stroke-linejoin="round"/>
<path d="M102.6 758.2C108 768.2 113.8 778.6 123.6 784.4" stroke="#F36432" stroke-width="2" stroke-miterlimit="10" stroke-linecap="round" stroke-linejoin="round"/>
<path d="M101.2 762.5C102.3 770.6 105.8 778.3 111.2 784.4" stroke="#F36432" stroke-width="2" stroke-miterlimit="10" stroke-linecap="round" stroke-linejoin="round"/>
<path d="M91.3 780C93.2 785 97.4 789.1 102.5 790.8" stroke="#F36432" stroke-width="2" stroke-miterlimit="10" stroke-linecap="round" stroke-linejoin="round"/>
<path d="M100.3 781.7C100.8 784.1 102.8 786.2 105.2 786.9" stroke="#F36432" stroke-width="2" stroke-miterlimit="10" stroke-linecap="round" stroke-linejoin="round"/>
<path d="M138.8 740.6C142.6 742.5 146.9 743.3 151.1 743.1" stroke="#F36432" stroke-width="2" stroke-miterlimit="10" stroke-linecap="round" stroke-linejoin="round"/>
</g>
<path opacity="0.15" d="M111.6 775.3C106.6 775.2 101.6 773.8 97.5 771.6C94 778 91 784.7 88.3 791.5C87.8 792.7 87.5 794.5 88.7 795.1C89.5 795.5 90.5 795.1 91.2 794.7C103 788.2 114.3 780.8 124.8 772.4C120.7 774.3 116.1 775.4 111.6 775.3Z" fill="#451800"/>
<path opacity="0.6" d="M135.2 732.8C131.1 731.7 114.2 740.3 120.6 747.9C127 755.5 146.5 735.9 135.2 732.8Z" fill="white"/>
<path opacity="0.6" d="M134.5 735.3C131.9 732.4 125 737.1 127.1 739.8C129.3 742.5 137.3 738.4 134.5 735.3Z" fill="white"/>
<path d="M79.3 341.4C81.3 337.4 81.6 332.8 82.4 328.4C83.2 324 84.6 319.4 88.1 316.5C89.6 315.2 91.9 314.4 93.5 315.5C94.5 316.2 95 317.4 95 318.6C95 319.8 94.7 321 94.3 322.1C91.6 329.9 87 337.1 81.1 342.9C80.4 342.5 79.7 342 79.3 341.4Z" fill="#00C86F"/>
<mask id="mask16_41_2014" style="mask-type:luminance" maskUnits="userSpaceOnUse" x="79" y="314" width="16" height="29">
<path d="M79.3 341.4C81.3 337.4 81.6 332.8 82.4 328.4C83.2 324 84.6 319.4 88.1 316.5C89.6 315.2 91.9 314.4 93.5 315.5C94.5 316.2 95 317.4 95 318.6C95 319.8 94.7 321 94.3 322.1C91.6 329.9 87 337.1 81.1 342.9C80.4 342.5 79.7 342 79.3 341.4Z" fill="white"/>
</mask>
<g mask="url(#mask16_41_2014)">
<path d="M95.3001 314.8C91.9001 325.4 86.5001 335.4 79.4001 344.1" stroke="#009D56" stroke-width="2" stroke-miterlimit="10" stroke-linecap="round" stroke-linejoin="round"/>
<path d="M88.4001 313.5C89.5001 324.3 85.7001 335.4 78.2001 343.3" stroke="#009D56" stroke-width="2" stroke-miterlimit="10" stroke-linecap="round" stroke-linejoin="round"/>
</g>
<path opacity="0.15" d="M79.3 341.4C79.7 342 80.4 342.4 81.1 342.9C82.6 341.4 84.1 339.8 85.4 338.2C83.8 337.2 82.3 336.5 81.1 336.1C80.7 337.9 80.2 339.7 79.3 341.4Z" fill="#451800"/>
<path d="M80.7001 343.8C85.2001 336.3 91.7001 329.9 99.4001 325.7C100.7 325 102 324.3 103.4 324.2C104.8 324.1 106.4 324.5 107.2 325.7C108.4 327.4 107.6 329.8 106 331.2C104.5 332.6 102.5 333.2 100.5 333.9C94.9001 336.1 89.9001 339.7 84.9001 343.1C83.7001 344 81.8001 344.9 80.7001 343.8Z" fill="#00C86F"/>
<mask id="mask17_41_2014" style="mask-type:luminance" maskUnits="userSpaceOnUse" x="80" y="324" width="28" height="21">
<path d="M80.7001 343.8C85.2001 336.3 91.7001 329.9 99.4001 325.7C100.7 325 102 324.3 103.4 324.2C104.8 324.1 106.4 324.5 107.2 325.7C108.4 327.4 107.6 329.8 106 331.2C104.5 332.6 102.5 333.2 100.5 333.9C94.9001 336.1 89.9001 339.7 84.9001 343.1C83.7001 344 81.8001 344.9 80.7001 343.8Z" fill="white"/>
</mask>
<g mask="url(#mask17_41_2014)">
<path d="M81.8001 345.6C89.2001 336.5 99.7001 330 111.2 327.4" stroke="#009D56" stroke-width="2" stroke-miterlimit="10" stroke-linecap="round" stroke-linejoin="round"/>
<path d="M108.5 324.4C97.1001 328.1 86.9001 335.7 80.1001 345.6" stroke="#009D56" stroke-width="2" stroke-miterlimit="10" stroke-linecap="round" stroke-linejoin="round"/>
</g>
<path opacity="0.15" d="M84.9001 337.8C83.4001 339.7 82.0001 341.7 80.7001 343.7C81.8001 344.8 83.7001 344 85.0001 343.1C86.2001 342.3 87.4001 341.5 88.6001 340.7C87.4001 339.5 86.1001 338.5 84.9001 337.8Z" fill="#451800"/>
<path d="M83.3 345.2C86.5 339.9 92.8 336.6 99 336.9C100.9 337 103 337.6 103.7 339.3C104.4 341 103.3 343 101.6 343.9C100 344.7 98 344.7 96.2 344.4C94.4 344.1 92.6 343.7 90.7 343.9C88.5 344.1 86.4 345.3 85.1 347.1C84.1 346.5 83.3 345.7 83.3 345.2Z" fill="#00C86F"/>
<mask id="mask18_41_2014" style="mask-type:luminance" maskUnits="userSpaceOnUse" x="83" y="336" width="21" height="12">
<path d="M83.3 345.2C86.5 339.9 92.8 336.6 99 336.9C100.9 337 103 337.6 103.7 339.3C104.4 341 103.3 343 101.6 343.9C100 344.7 98 344.7 96.2 344.4C94.4 344.1 92.6 343.7 90.7 343.9C88.5 344.1 86.4 345.3 85.1 347.1C84.1 346.5 83.3 345.7 83.3 345.2Z" fill="white"/>
</mask>
<g mask="url(#mask18_41_2014)">
<path d="M83.4 346.5C86.3 343.6 89.5 340.8 93.4 339.3C97.2 337.8 101.8 337.6 105.4 339.8" stroke="#009D56" stroke-width="2" stroke-miterlimit="10" stroke-linecap="round" stroke-linejoin="round"/>
<path d="M104.5 343C101.1 341.3 97.1 340.8 93.3 341.6C89.6 342.4 86.1 344.6 83.7 347.6" stroke="#009D56" stroke-width="2" stroke-miterlimit="10" stroke-linecap="round" stroke-linejoin="round"/>
</g>
<path opacity="0.15" d="M91.2001 343.7C90.2001 342.3 89.1001 341.1 88.0001 340.1C86.1001 341.4 84.5001 343.2 83.2001 345.1C83.3001 345.6 84.0001 346.5 85.0001 346.9C86.3001 345.1 88.4001 343.9 90.6001 343.7C90.9001 343.8 91.1001 343.7 91.2001 343.7Z" fill="#451800"/>
<path d="M87.9 343.2C83.4 339.5 77.9 335.7 72.2 336.9C68.2 337.7 65.2 340.9 62.5 343.9C48.4 360 37 378.6 29.2 398.6C28.7 399.8 28.4 401.6 29.6 402.2C30.4 402.6 31.4 402.2 32.1 401.8C50.5 391.7 67.5 379.2 82.7 364.7C85.7 361.9 88.6 358.8 90.2 355C91.7 351.3 91.7 346.3 87.9 343.2Z" fill="#FF7E4A"/>
<mask id="mask19_41_2014" style="mask-type:luminance" maskUnits="userSpaceOnUse" x="28" y="336" width="64" height="67">
<path d="M87.9 343.2C83.4 339.5 77.9 335.7 72.2 336.9C68.2 337.7 65.2 340.9 62.5 343.9C48.4 360 37 378.6 29.2 398.6C28.7 399.8 28.4 401.6 29.6 402.2C30.4 402.6 31.4 402.2 32.1 401.8C50.5 391.7 67.5 379.2 82.7 364.7C85.7 361.9 88.6 358.8 90.2 355C91.7 351.3 91.7 346.3 87.9 343.2Z" fill="white"/>
</mask>
<g mask="url(#mask19_41_2014)">
<path d="M63 339.7C69.2 348.6 78.7 355.2 89.3 357.7" stroke="#F36432" stroke-width="2" stroke-miterlimit="10" stroke-linecap="round" stroke-linejoin="round"/>
<path d="M89.4 361.2C77 358.4 65.4 351.7 56.9 342.2" stroke="#F36432" stroke-width="2" stroke-miterlimit="10" stroke-linecap="round" stroke-linejoin="round"/>
<path d="M52.4 353.2C55.4 356.5 59.1 359.2 63.2 361.2" stroke="#F36432" stroke-width="2" stroke-miterlimit="10" stroke-linecap="round" stroke-linejoin="round"/>
<path d="M70.4 366C73.7 367.1 77 368.1 80.3 369.2" stroke="#F36432" stroke-width="2" stroke-miterlimit="10" stroke-linecap="round" stroke-linejoin="round"/>
<path d="M77.2 375.2C65.5 372.7 54.5 366.6 46.2 358" stroke="#F36432" stroke-width="2" stroke-miterlimit="10" stroke-linecap="round" stroke-linejoin="round"/>
<path d="M43.5 365.3C48.9 375.3 54.7 385.7 64.5 391.5" stroke="#F36432" stroke-width="2" stroke-miterlimit="10" stroke-linecap="round" stroke-linejoin="round"/>
<path d="M42.2 369.6C43.3 377.7 46.8 385.4 52.2 391.5" stroke="#F36432" stroke-width="2" stroke-miterlimit="10" stroke-linecap="round" stroke-linejoin="round"/>
<path d="M32.3 387.2C34.2 392.2 38.4 396.3 43.5 398" stroke="#F36432" stroke-width="2" stroke-miterlimit="10" stroke-linecap="round" stroke-linejoin="round"/>
<path d="M41.3 388.8C41.8 391.2 43.8 393.3 46.2 394" stroke="#F36432" stroke-width="2" stroke-miterlimit="10" stroke-linecap="round" stroke-linejoin="round"/>
<path d="M79.8 347.7C83.6 349.6 87.9 350.4 92.1 350.2" stroke="#F36432" stroke-width="2" stroke-miterlimit="10" stroke-linecap="round" stroke-linejoin="round"/>
</g>
<path opacity="0.15" d="M52.5 382.4C47.5 382.3 42.5 380.9 38.4 378.7C34.9 385.1 31.9 391.8 29.2 398.6C28.7 399.8 28.4 401.6 29.6 402.2C30.4 402.6 31.4 402.2 32.1 401.8C43.9 395.3 55.2 387.9 65.7 379.5C61.7 381.5 57.1 382.5 52.5 382.4Z" fill="#451800"/>
<path opacity="0.6" d="M76.2 340C72.1 338.9 55.2 347.5 61.6 355.1C68 362.6 87.4 343.1 76.2 340Z" fill="white"/>
<path opacity="0.6" d="M75.5 342.4C72.9 339.5 66 344.2 68.1 346.9C70.2 349.7 78.3 345.5 75.5 342.4Z" fill="white"/>
<g opacity="0.9">
<mask id="mask20_41_2014" style="mask-type:luminance" maskUnits="userSpaceOnUse" x="0" y="0" width="393" height="852">
<path d="M393 0H0V852H393V0Z" fill="white"/>
</mask>
<g mask="url(#mask20_41_2014)">
<path d="M393 0H0V852H393V0Z" fill="white"/>
</g>
</g>
</svg>
