<svg width="368" height="807" viewBox="0 0 368 807" fill="none" xmlns="http://www.w3.org/2000/svg">
<path d="M23.2 0H343.2C354.2 0 363.2 11.3472 363.2 25.2161V781.698C363.2 795.566 354.2 806.914 343.2 806.914H23.2C12.2 806.914 3.19995 795.566 3.19995 781.698V25.2161C3.19995 11.3472 12.2 0 23.2 0Z" fill="#3D94A8"/>
<path d="M-14.4 297.045C18.1 297.045 50.3 307.762 82.7 306.627C130.4 304.988 175.9 266.786 212.6 223.54" stroke="black" stroke-opacity="0.2" stroke-linecap="round"/>
<path d="M201.5 148.27C192.5 132.258 183.6 115.111 183.6 94.6862C183.6 66.066 199.5 52.3232 220.5 49.8016C251.4 45.8931 282.8 52.9536 313.8 52.4493C343.3 52.071 371.7 46.9018 400 36.4371C428.5 25.8464 454.3 9.58201 481.5 -4.79114" stroke="black" stroke-opacity="0.2" stroke-linecap="round"/>
<path d="M0.800002 465.993C10.2 447.333 60.1 391.479 74.6 426.403C80 439.516 78.1 456.41 75.8 470.279C68.8 513.273 50.7 552.61 34 590.434C18.3 625.988 -2.3 661.417 -11 701.006C-13.1 710.588 -14.1 718.531 -14.3 728.366C-14.5 739.461 -11.6 746.773 -9.6 757.112" stroke="black" stroke-opacity="0.2" stroke-linecap="round"/>
<path d="M20.6 -51.3147C23 -40.0936 33.3 -31.2679 39.5 -23.8292C60.5 1.26077 83.3 29.3767 92.8 64.6791C105.8 113.094 80.2 150.54 57.7 186.977C31.2 229.592 2.39997 269.812 -21.4 314.948" stroke="black" stroke-opacity="0.2" stroke-linecap="round"/>
<path d="M371.2 86.1128C372.9 96.8296 373 110.572 371.3 121.289C368 142.849 361.5 161.761 356.5 180.169C349.5 205.889 341.9 231.483 336.3 259.851C326.6 309.275 330 357.185 339.7 404.213C345.9 434.346 353.3 462.588 358.8 493.73C363 517.812 365 542.019 367.3 567.739" stroke="black" stroke-opacity="0.2" stroke-linecap="round"/>
<path d="M83.5 594.09C90.9 585.391 95.1 572.657 94.6 559.922C94.5 559.04 94.5 558.157 94.4 557.275C94.3 556.266 95.6 556.014 95.8 557.023C97.7 567.613 95.5 579.087 90.3 587.786C88.6 590.686 86.6 593.334 84.3 595.351C84 595.603 83.6 595.477 83.4 595.225C83.2 594.721 83.3 594.342 83.5 594.09Z" fill="#3C3C3B"/>
<path d="M94.4 557.275C92.8 556.518 91.6 554.879 91.3 552.736C91.2 552.231 91.5 551.727 91.9 551.601C92.8 551.601 93.5 552.988 94.1 553.618C94.5 554.375 96 556.518 94.9 557.275C94.7 557.275 94.5 557.275 94.4 557.275Z" fill="#3C3C3B"/>
<path d="M94.8 554.753C94.6 554.627 94.5 554.879 94.5 554.501C94.6 553.366 95.5 549.584 96.8 550.592C97.8 552.231 96.9 555.005 95.6 556.014C95.4 556.14 95.2 556.266 94.9 556.266C94.2 556.518 94 554.879 94.8 554.753Z" fill="#3C3C3B"/>
<path d="M95.3 556.14C96.2 554.753 97.4 554.123 98.8 554.249C99.4 554.375 99.7 555.257 99.3 555.888C98.4 557.275 97.1 557.779 95.8 557.653C95.3 557.527 95 556.644 95.3 556.14Z" fill="#3C3C3B"/>
<path d="M56.4 607.329C45.7 607.959 34.9 600.646 29.4 589.047C29.1 588.29 28.7 587.408 28.4 586.651C28.2 586.273 28.4 585.643 28.7 585.517C29 585.265 29.4 585.391 29.6 585.769C30.3 587.03 31.3 588.795 32 589.929C36.3 596.486 42.1 601.277 48.5 603.798C51.1 604.807 53.7 605.437 56.4 605.69C57.2 605.69 57.2 607.203 56.4 607.329Z" fill="#3C3C3B"/>
<path d="M28.3 585.517C27.9 584.256 27.6 578.708 29.3 579.339C29.5 579.465 29.6 579.591 29.7 579.717C30.5 581.608 30.4 583.878 29.5 585.769C29.3 586.399 28.5 586.147 28.3 585.517Z" fill="#3C3C3B"/>
<path d="M28.7 585.391C27.5 586.273 26 585.391 25.1 584.256C24.8 583.878 24.6 583.499 24.5 582.995C24.3 582.365 24.8 581.608 25.4 581.86C26.5 582.112 27.6 582.869 28.3 583.878C28.3 584.004 28.2 584.004 28.1 584.13C28.7 583.499 29.4 584.886 28.7 585.391Z" fill="#3C3C3B"/>
<path d="M28.7 587.156C27.7 588.29 26.4 588.921 25.1 588.543C24.5 588.416 24.3 587.408 24.7 586.904C25.7 585.643 27 585.264 28.4 585.643C28.9 585.769 29.1 586.651 28.7 587.156Z" fill="#3C3C3B"/>
<path d="M33 556.14C32.3 553.997 31.9 550.971 33.4 549.584C34.3 548.827 35.6 548.953 36.7 549.332C41 550.719 45 553.366 48.3 557.023C42.1 548.953 38.3 538.111 37.8 527.015C37.6 523.99 38 520.207 40.2 518.82C42.9 517.181 45.8 520.459 47.7 523.485C51.6 530.041 55 536.976 58 544.288C57.3 537.858 57.6 531.05 59.1 524.746C59.4 523.611 59.7 522.477 60.4 521.72C61.8 520.207 64.1 520.964 65.3 522.729C66.5 524.494 66.8 527.015 66.9 529.285C67.3 535.211 67 541.136 66.1 547.062C68.1 543.28 70.4 539.75 73 536.471C73.7 535.589 74.6 534.58 75.6 534.454C77.7 534.202 79 537.354 79.3 540.128C79.8 545.927 78.5 551.853 77.1 557.401C75.3 564.587 73.4 572.152 69.1 577.321C56.6 592.577 37.8 570.765 33 556.14Z" fill="#8BC376"/>
<path d="M44.7 530.041C48.7 546.18 55.1 560.931 61.4 575.809C61.5 576.061 61.2 576.313 61.1 576.061C55.4 565.596 51.4 553.871 47.7 542.145C46.5 538.237 45.4 534.202 44.3 530.294C44.2 529.915 44.6 529.663 44.7 530.041Z" fill="#BEDDB2"/>
<path d="M38.5 556.14C41.9 561.688 46.2 567.361 50.1 572.404C51.4 574.169 52.7 575.935 53.9 577.826C54 577.952 54 578.078 53.9 578.204C53.8 578.33 53.7 578.33 53.7 578.204C50.7 575.178 48.1 571.396 45.6 567.739L38.2 556.518C38.1 556.266 38.4 555.888 38.5 556.14Z" fill="#BEDDB2"/>
<path d="M62.4 531.176C62.5 544.541 64 558.409 64.2 571.774C64.2 572.026 63.8 572.152 63.8 571.774C62.9 565.092 62.7 558.283 62.5 551.475L62 531.176C62 530.798 62.4 530.798 62.4 531.176Z" fill="#BEDDB2"/>
<path d="M75.3 542.019C74.7 545.549 73.4 552.736 72.8 556.266C72 561.057 71.2 565.722 69.7 570.261C69.7 570.387 69.5 570.513 69.4 570.387C69.3 570.387 69.3 570.261 69.3 570.135C69.9 565.344 71 560.679 72.1 556.014C73.2 551.349 74.1 546.684 74.9 541.893C75 541.641 75.4 541.641 75.3 542.019Z" fill="#BEDDB2"/>
<path d="M52.8 573.287C59.7 568.496 67.6 566.226 75.5 566.605C78.3 566.731 81.1 567.235 83.5 568.748C90.5 573.035 92.9 583.878 94.4 593.46C98.8 621.828 101.3 651.583 94.8 679.194C94.3 681.212 93.7 683.481 92.4 684.742C90.7 686.507 88.1 686.255 86.1 685.12C84.1 683.859 82.6 681.842 81.1 679.825C78 675.664 75 671.377 71.9 667.217C66.6 659.904 36 612.12 41.6 586.651C43 580.726 48.6 576.187 52.8 573.287Z" fill="#F2902B"/>
<path d="M69.6 586.651C70.8 592.325 62.8 595.603 61.4 589.677C61.3 589.299 61.5 589.047 61.7 588.921C62 588.795 62.2 589.047 62.3 589.299C63.5 591.821 66.4 590.938 67.8 589.299C68.3 588.669 68.6 587.786 68.6 586.777C68.7 586.147 69.5 586.021 69.6 586.651Z" fill="#1D1D1B"/>
<path d="M74.1 586.273C71.6 583.247 74.9 578.456 77.7 580.726C78.5 581.356 79 582.491 79 583.625C79 583.878 78.8 584.13 78.5 584.13C78.3 584.13 78.1 583.878 78.1 583.625C77.8 582.239 76.6 581.482 75.5 581.986C74.4 582.491 74 584.256 74.6 585.517C75 586.021 74.5 586.651 74.1 586.273Z" fill="#1D1D1B"/>
<path d="M53.7 596.36C51.1 593.46 54.3 588.543 57.2 590.56C58 591.19 58.6 592.325 58.5 593.46C58.5 593.712 58.3 593.964 58.1 593.964C57.9 593.964 57.7 593.838 57.7 593.586C57.4 592.199 56.1 591.442 55.1 592.073C54 592.703 53.7 594.342 54.3 595.603C54.6 596.107 54.1 596.738 53.7 596.36Z" fill="#1D1D1B"/>
<path d="M86.3 597.62C76.4 603.798 65.6 607.833 54.6 609.22C54 609.346 53.9 608.211 54.5 607.959C62.6 606.068 70.5 603.672 78.2 600.142C80.8 599.007 83.3 597.746 85.9 596.486C86.4 596.36 86.8 597.368 86.3 597.62Z" fill="#CE5F29"/>
<path d="M89 609.976C78.9 616.911 67.6 621.323 56.2 622.71C55.6 622.836 55.5 621.702 56.1 621.449C64.5 619.558 72.8 616.911 80.8 613.002C83.5 611.741 86.1 610.354 88.7 608.841C89.1 608.715 89.5 609.598 89 609.976Z" fill="#CE5F29"/>
<path d="M89.4 623.467C83.3 626.871 76.9 629.519 70.4 631.41C68.2 632.04 66 632.545 63.8 632.923C63.5 632.923 63.3 632.797 63.3 632.418C63.3 632.166 63.4 631.788 63.7 631.788C69.9 629.771 76.7 627.501 82.8 625.106L89.1 622.584C89.6 622.206 89.9 623.215 89.4 623.467Z" fill="#CE5F29"/>
<path d="M91.5 636.201C85.5 639.857 79.2 642.505 72.8 644.522C70.7 645.153 68.5 645.783 66.3 646.161C66 646.161 65.8 646.035 65.7 645.657C65.7 645.405 65.8 645.027 66 645.027C72.3 642.883 79 640.488 85 637.966L91.2 635.192C91.7 634.94 92 635.949 91.5 636.201Z" fill="#CE5F29"/>
<path d="M90.5 651.709C86 654.23 81.2 655.869 76.3 656.374C76 656.374 75.8 656.122 75.8 655.869C75.8 655.617 75.9 655.365 76.2 655.239C78.6 654.357 80.9 653.726 83.3 652.97C85.7 652.213 88 651.457 90.4 650.7C90.7 650.448 91 651.457 90.5 651.709Z" fill="#CE5F29"/>
<path d="M91.1 665.199C88.5 668.099 85 669.738 81.6 669.738C81.3 669.738 81.1 669.486 81.1 669.108C81.1 668.856 81.3 668.604 81.5 668.477C83.1 667.847 84.6 667.343 86.1 666.586C87.6 665.83 89.1 665.073 90.6 664.191C91.1 663.939 91.5 664.695 91.1 665.199Z" fill="#CE5F29"/>
<path opacity="0.25" d="M71.6 616.028C73.8 629.771 77.7 643.135 83 655.617C85.4 661.165 88.1 666.712 89.5 672.764C89.7 673.521 89.8 674.403 89.5 675.034C88.8 676.547 87 675.664 86 674.529C74 662.678 64 647.8 55.6 631.788C52.6 626.115 49.8 619.937 49.1 613.254C48.9 611.363 48.9 609.22 49.5 607.455C51.2 602.538 58.7 600.016 62.7 600.772C68.5 601.655 70.6 609.85 71.6 616.028Z" fill="#E08728"/>
<path opacity="0.34" d="M89.2 597.242C91.7 607.329 92.5 617.919 93.4 628.384C93.5 630.023 93.7 631.662 93.3 633.301C93 634.94 92.2 636.453 90.9 636.957C88.9 637.714 86.9 635.697 85.8 633.553C84 629.897 83.2 625.61 82.6 621.45C81.7 615.272 81.1 608.968 80.7 602.664C80.5 599.512 80.5 592.829 83.2 591.064C86.5 588.921 88.5 594.342 89.2 597.242Z" fill="#F1F1F1"/>
<path opacity="0.34" d="M93.1 643.387C94.2 645.153 94.2 647.8 93.2 649.691C92.8 650.574 92.1 651.204 91.3 651.457C90 651.835 88.7 650.574 88.1 649.061C86.5 644.648 90.3 638.596 93.1 643.387Z" fill="#F1F1F1"/>
<path d="M308.4 615.902C318.5 614.767 328 608.085 333.9 597.62C334.3 596.864 334.7 596.107 335.1 595.477C335.6 594.594 336.7 595.351 336.3 596.36C332.6 606.194 325.2 613.506 316.9 616.28C314.1 617.163 311.3 617.667 308.4 617.541C308 617.541 307.8 617.163 307.8 616.659C307.9 616.28 308.1 615.902 308.4 615.902Z" fill="#3C3C3B"/>
<path d="M335 595.477C334.1 593.586 334 591.442 334.8 589.425C335 588.921 335.5 588.795 335.8 589.047C336.5 589.803 336.4 591.316 336.5 592.325C336.4 593.208 336.6 596.107 335.3 595.729C335.3 595.729 335.1 595.603 335 595.477Z" fill="#3C3C3B"/>
<path d="M336.6 593.838C336.5 593.712 336.3 593.712 336.5 593.46C337.2 592.703 339.7 590.308 340.2 592.199C340.2 594.216 338.1 595.729 336.6 595.477C336.4 595.477 336.1 595.351 335.9 595.225C335.3 594.595 335.9 593.208 336.6 593.838Z" fill="#3C3C3B"/>
<path d="M336.3 595.351C337.4 594.847 341.1 595.981 340 597.999C339 599.26 334.1 596.864 336.3 595.351Z" fill="#3C3C3B"/>
<path d="M280.6 605.185C271.9 597.368 267 583.121 268.3 569.757C268.4 568.874 268.5 567.992 268.7 567.109C268.8 566.605 269.1 566.353 269.5 566.353C269.8 566.479 270.1 566.857 270.1 567.235C270 568.748 269.9 570.891 270 572.404C270.2 580.852 272.4 589.173 276.2 596.234C277.7 599.007 279.5 601.655 281.5 603.924C282 604.555 281.3 605.816 280.6 605.185Z" fill="#3C3C3B"/>
<path d="M269.3 566.226C269.6 564.966 272.1 560.301 273.1 562.192C273.2 562.444 273.2 562.57 273.2 562.822C272.9 564.966 271.7 566.605 270.1 567.361C269.6 567.613 269 566.857 269.3 566.226Z" fill="#3C3C3B"/>
<path d="M269.5 566.479C268.1 566.226 267.4 564.335 267.2 562.696C267.2 562.192 267.2 561.688 267.3 561.183C267.5 560.553 268.2 560.427 268.6 560.931C269.3 562.066 269.8 563.453 269.9 564.84C269.8 564.966 269.8 564.84 269.6 564.84C270.5 564.966 270.4 566.605 269.5 566.479Z" fill="#3C3C3B"/>
<path d="M268.7 567.739C267.6 568.118 263.9 566.479 265.3 564.587C266.3 563.453 271.1 566.479 268.7 567.739Z" fill="#3C3C3B"/>
<path d="M287.3 546.81C287.8 544.541 289 541.893 290.8 542.019C291.9 542.145 292.8 543.28 293.5 544.415C296.2 548.827 298 553.997 298.8 559.544C297.9 548.449 300.2 536.976 305.2 527.772C306.6 525.25 308.7 522.603 311.1 523.233C314.1 523.99 314.7 528.907 314.7 532.689C314.6 540.884 313.8 549.08 312.5 557.023C315.1 551.349 318.7 546.306 322.9 542.523C323.7 541.893 324.5 541.137 325.4 541.137C327.3 541.01 328.7 543.406 328.8 545.801C328.8 548.197 327.9 550.34 326.8 552.232C324.2 557.149 321 561.688 317.5 565.47C320.9 564.083 324.5 563.074 328.1 562.57C329.1 562.444 330.3 562.318 331.1 563.074C332.9 564.587 332.3 568.118 331.2 570.387C328.8 575.43 324.8 578.961 321 582.365C316.1 586.651 310.9 591.064 304.9 591.821C288 593.838 283.9 562.066 287.3 546.81Z" fill="#8BC376"/>
<path d="M309.3 535.337C304.6 551.097 302.3 567.739 300 584.382C300 584.634 299.6 584.634 299.6 584.382C300.2 571.774 302.8 559.292 305.7 547.314C306.7 543.28 307.7 539.245 308.9 535.337C309 534.832 309.4 534.959 309.3 535.337Z" fill="#BEDDB2"/>
<path d="M291.7 551.097C291.7 558.157 292.3 565.974 292.9 572.909C293.1 575.304 293.2 577.7 293.2 580.221C293.2 580.347 293.1 580.473 293 580.473C292.9 580.473 292.8 580.347 292.8 580.221C291.9 575.43 291.7 570.513 291.6 565.722L291.3 551.097C291.2 550.719 291.7 550.719 291.7 551.097Z" fill="#BEDDB2"/>
<path d="M322.7 549.962C316.2 560.553 310.6 572.657 304.2 583.247C304.1 583.499 303.7 583.247 303.9 582.995C306.5 577.069 309.7 571.522 312.8 566.1L322.4 549.71C322.5 549.458 322.9 549.71 322.7 549.962Z" fill="#BEDDB2"/>
<path d="M327.5 568.622C325.3 570.891 320.8 575.556 318.6 577.826C315.6 580.852 312.7 584.004 309.3 586.525C309.2 586.651 309.1 586.525 309 586.399C309 586.273 309 586.147 309 586.147C310.4 584.508 311.9 582.995 313.5 581.482C318.1 577.069 322.8 572.909 327.2 568.244C327.5 567.992 327.7 568.37 327.5 568.622Z" fill="#BEDDB2"/>
<path d="M294.5 575.682C302.3 577.322 309.6 581.608 315.6 588.038C317.7 590.308 319.7 592.829 320.9 595.981C324.3 604.807 320.9 615.272 317.3 623.971C306.8 649.692 294.3 675.034 275.6 691.676C274.2 692.937 272.7 694.198 271 694.198C268.8 694.198 266.9 692.055 265.9 689.659C264.9 687.137 264.8 684.364 264.6 681.59C264.3 675.916 263.9 670.243 263.6 664.569C263 654.609 262.4 593.334 279.3 577.574C283.1 573.917 289.8 574.674 294.5 575.682Z" fill="#F2902B"/>
<path d="M301.1 599.259C299.2 604.681 291.4 600.899 293.2 595.351C293.3 594.973 293.6 594.847 293.9 594.973C294.1 595.099 294.3 595.351 294.2 595.729C293.9 598.629 296.6 600.268 298.5 600.016C299.2 599.89 299.9 599.386 300.3 598.755C300.7 598.125 301.4 598.755 301.1 599.259Z" fill="#1D1D1B"/>
<path d="M304.9 602.538C304.4 598.251 309.4 596.99 310.5 600.899C310.8 602.033 310.7 603.294 310.1 604.177C309.9 604.429 309.7 604.429 309.5 604.177C309.3 604.051 309.3 603.672 309.4 603.546C309.8 602.159 309.3 600.646 308.2 600.268C307.1 599.89 305.9 600.899 305.8 602.412C305.7 603.042 305 603.042 304.9 602.538Z" fill="#1D1D1B"/>
<path d="M283.9 594.595C283.3 590.308 288.2 588.921 289.4 592.829C289.7 593.964 289.6 595.225 289.1 596.107C288.9 596.36 288.7 596.36 288.5 596.234C288.3 596.107 288.3 595.855 288.4 595.603C288.8 594.216 288.2 592.703 287.1 592.451C286 592.073 284.9 593.208 284.8 594.595C284.7 595.099 284 595.099 283.9 594.595Z" fill="#1D1D1B"/>
<path d="M308.8 620.945C298 618.171 287.5 612.876 278.2 605.437C277.7 605.059 278.1 604.05 278.7 604.429C285.9 609.22 293.4 613.507 301.2 616.785C303.8 617.919 306.4 618.928 309 619.937C309.6 620.063 309.4 621.071 308.8 620.945Z" fill="#CE5F29"/>
<path d="M305 632.671C293.7 630.275 282.6 624.98 272.9 617.163C272.4 616.785 272.8 615.776 273.4 616.154C280.9 621.197 288.8 625.484 296.9 628.762C299.6 629.897 302.4 630.779 305.1 631.662C305.7 631.788 305.5 632.797 305 632.671Z" fill="#CE5F29"/>
<path d="M298.7 643.64C292.2 641.622 285.9 638.723 279.9 635.066C277.9 633.805 275.9 632.545 274 631.158C273.8 631.032 273.7 630.653 273.8 630.275C273.9 630.023 274.2 629.897 274.4 630.023C280.3 633.301 286.7 636.831 292.7 639.605L298.9 642.505C299.4 642.757 299.2 643.766 298.7 643.64Z" fill="#CE5F29"/>
<path d="M294.1 655.365C287.6 653.6 281.4 650.826 275.3 647.422C273.3 646.287 271.3 645.027 269.4 643.64C269.2 643.514 269.1 643.135 269.2 642.757C269.3 642.505 269.6 642.379 269.8 642.505C275.7 645.657 282.1 648.935 288.1 651.583L294.3 654.23C294.8 654.483 294.6 655.491 294.1 655.365Z" fill="#CE5F29"/>
<path d="M285.7 666.712C280.9 665.199 276.3 662.678 272.2 659.274C271.7 658.895 272.1 657.887 272.7 658.139C277.2 660.534 281.6 663.056 286 665.578C286.5 665.956 286.2 666.838 285.7 666.712Z" fill="#CE5F29"/>
<path d="M279.6 677.807C276.2 678.06 272.6 676.673 269.9 674.025C269.5 673.647 269.9 672.764 270.4 673.016C273.4 674.655 276.4 675.916 279.7 676.799C280.2 676.799 280.1 677.681 279.6 677.807Z" fill="#CE5F29"/>
<path opacity="0.25" d="M288.3 623.845C283.3 636.453 279.8 649.944 277.9 663.813C277 670.117 276.5 676.421 274.6 682.346C274.4 683.103 274.1 683.859 273.5 684.111C272.3 684.742 271.3 682.725 271 680.959C267.4 662.3 266.8 642.883 268.1 623.719C268.6 616.911 269.3 609.85 272.1 604.051C272.9 602.412 273.9 600.772 275.3 599.89C279 597.368 286.2 601.151 289 604.807C292.9 610.228 290.5 618.298 288.3 623.845Z" fill="#E08728"/>
<path opacity="0.34" d="M311.4 622.963C308.4 632.797 303.9 641.748 299.4 650.7C298.7 652.087 298 653.474 297 654.483C296 655.491 294.6 655.996 293.4 655.491C291.5 654.609 290.9 651.457 291.1 648.809C291.4 644.522 292.9 640.614 294.5 636.831C296.9 631.284 299.4 625.736 302.2 620.567C303.6 617.919 306.9 612.624 309.9 613.38C313.3 614.137 312.2 620.063 311.4 622.963Z" fill="#F1F1F1"/>
<path opacity="0.34" d="M291.9 662.173C291.9 664.443 290.6 666.586 288.9 667.217C288.1 667.469 287.3 667.595 286.6 667.091C285.4 666.334 285 664.317 285.3 662.678C286 658.013 292 656.122 291.9 662.173Z" fill="#F1F1F1"/>
</svg>
