<svg width="56" height="61" viewBox="0 0 56 61" fill="none" xmlns="http://www.w3.org/2000/svg">
<path d="M32.2 8.39999C32.2 9.89999 31.9 10.3 30.4 10.6C29.9 10.7 29.3 10.8 28.7 10.9C28.1 10.9 27.8 11.2 27.8 11.9C27.8 12.7 27.8 13.6 27.8 14.4C27.8 15.4 27.4 15.8 26.5 15.9C25.2 16.1 23.9 16.2 22.6 16.3C21.9 16.3 21.6 15.9 21.5 15.2C21.4 14.3 21.4 13.4 21.4 12.5C21.4 12 21.2 11.8 20.6 11.8C19.6 11.8 18.6 11.7 17.6 11.7C16.4 11.6 15.9 11.2 16 10C16 9.1 16.2 8.20001 16.3 7.20001C16.4 6.60001 16.9 6.39999 17.4 6.29999C18.3 6.09999 19.1 6.10001 20 6.20001C20.7 6.20001 20.9 5.99999 20.9 5.39999C20.9 4.29999 20.9 3.20001 20.9 2.10001C20.9 1.10001 21.2 0.800006 22.2 0.600006C23 0.500006 23.9 0.399994 24.7 0.399994C25.7 0.399994 26.1 0.700012 26.3 1.70001C26.5 2.80001 26.7 4.00001 26.8 5.10001C26.8 5.70001 27.1 5.79999 27.6 5.79999C28.5 5.79999 29.4 5.79999 30.2 5.79999C31.3 5.79999 31.7 6.09999 31.9 7.29999C32.1 7.59999 32.1 7.99999 32.2 8.39999ZM30.9 8.20001C30.9 8.10001 30.9 7.99999 30.9 7.79999C30.9 6.89999 30.8 6.79999 29.9 6.89999C28.9 6.89999 28 6.99999 27 6.89999C26.1 6.89999 25.7 6.50001 25.7 5.60001C25.6 4.90001 25.6 4.09999 25.5 3.39999C25.2 1.39999 25.2 1.40001 23.3 1.60001C23.2 1.60001 23.2 1.60001 23.1 1.60001C22.5 1.50001 22.3 1.79999 22.3 2.39999C22.3 3.59999 22.2 4.8 22.1 6C22 6.8 21.8 7.00001 20.9 7.10001C20.4 7.10001 19.8 7.10001 19.3 7.20001C17.3 7.40001 17.3 7.39999 17.3 9.39999C17.3 9.99999 17.4 10.2 18.1 10.2C19.2 10.2 20.2 10.3 21.3 10.3C22.3 10.3 22.6 10.6 22.7 11.6C22.8 12.4 22.8 13.2 22.8 14C22.8 14.5 23 14.8 23.5 14.7C24.3 14.6 25.1 14.5 25.9 14.5C26.4 14.5 26.6 14.2 26.6 13.7C26.6 12.8 26.6 11.8 26.7 10.9C26.7 9.99999 27 9.70001 27.9 9.60001C28.6 9.50001 29.3 9.39999 29.9 9.29999C30.9 9.29999 30.9 9.20001 30.9 8.20001Z" fill="#6B247C"/>
<path d="M48.1 14.3C46.8 14.4 45.1 14.4 43.4 14.3C42 14.2 41.5 13.8 41.3 12.4C41.2 11.5 41.3 10.6 41.3 9.70001C41.3 9.10001 41.9 9 42.4 9C43.5 9 44.6 9.10001 45.7 9.10001C48.3 9.20001 50.9 9.09999 53.4 9.29999C53.8 9.29999 54.2 9.3 54.5 9.5C55 9.7 55.3 10.1 55.3 10.6C55.3 11.2 55.3 11.8 55.3 12.4C55.2 13.6 54.7 14.1 53.4 14.2C51.8 14.2 50.2 14.2 48.1 14.3ZM46.9 13.1C48.7 13.2 50.6 13 52.5 13C54 12.9 54 12.9 54.1 11.4C54.1 10.5 54.1 10.5 53.2 10.4C49.9 10.2 46.6 10.4 43.3 10.2C42 10.1 42 10.2 42.2 11.4C42.2 11.7 42.2 11.9 42.3 12.2C42.4 12.8 42.7 13.1 43.4 13.1C44.5 13.1 45.7 13.1 46.9 13.1Z" fill="#B2721F"/>
<path d="M45 2.20001C47.9 2.40001 50.8 2.50001 53.8 2.70001C54.7 2.80001 55.1 3.10001 55.1 4.10001C55.1 4.80001 55 5.50001 54.9 6.20001C54.7 7.20001 54.3 7.5 53.3 7.5C51 7.4 48.7 7.20001 46.4 7.20001C45 7.20001 43.6 7.10001 42.2 7.10001C41.6 7.10001 41.3 6.79999 41.2 6.29999C41 5.19999 41.2 4.20001 41.5 3.10001C41.7 2.60001 42.1 2.29999 42.7 2.29999C43.5 2.29999 44.3 2.30001 45 2.20001ZM48 6.10001C49.5 6.10001 51.1 6.10001 52.6 6.10001C53.6 6.10001 53.6 6.10001 53.8 5.10001C53.8 5.00001 53.8 4.80001 53.8 4.70001C53.9 4.10001 53.7 3.89999 53.1 3.89999C50.2 3.79999 47.3 3.6 44.4 3.5C42.5 3.4 42.3 3.70001 42.4 5.60001C42.4 5.60001 42.4 5.60001 42.4 5.70001C42.4 6.10001 42.6 6.20001 43 6.20001C44.6 6.10001 46.3 6.10001 48 6.10001Z" fill="#B2721F"/>
<path d="M40.4 20.6C43.2 20.6 46 20.7 48.7 20.9C50.1 21 50.5 21.5 50.4 22.9C50.3 23.8 50.1 24.8 49.8 25.7C49.5 26.7 49.1 27 48 27.1C47 27.1 46 27.2 45.1 27.2C41.2 27.3 37.3 27.6 33.4 27.3C32 27.2 31.6 26.8 31.6 25.3C31.6 24.2 31.8 23.1 31.7 22C31.6 21.3 32.3 21.1 32.9 21C34.1 20.8 35.4 20.6 36.6 20.6C38 20.6 39.2 20.6 40.4 20.6ZM37.4 25.8C40 25.8 43.1 25.6 46.1 25.5C48.4 25.4 48.4 25.5 48.7 23.2C48.8 22.6 48.6 22.5 48.1 22.5C43.8 22.3 39.5 22 35.3 22.3C32.5 22.5 32.8 22.1 33 25.1C33 25.6 33.3 25.8 33.8 25.8C34.9 25.8 36 25.8 37.4 25.8Z" fill="#E2172B"/>
<path d="M29.1 37.2H27.1L24.2 24.4C25.2 24 25.6 22.9 25.3 22C24.9 21 23.8 20.5 22.8 20.9C22 21.2 21.6 22 21.6 22.7L17.9 24.2C17.3 23.3 16.4 22.7 15.3 22.7C13.4 22.7 11.8 24.5 12.1 26.4L8.39999 27.9C7.99999 27.5 7.5 27.2 7 27.2C5.7 27.2 4.70001 28.6 5.20001 29.8C5.40001 30.4 5.79999 30.7 6.39999 30.9L3.29999 43.4H1.29999C0.899988 43.4 0.600006 43.7 0.600006 44.1V44.7C0.600006 48.2 3.4 51 7 51C10.5 51 13.4 48.2 13.4 44.7V44C13.4 43.6 13.1 43.3 12.7 43.3H10.7L7.60001 30.7C8.40001 30.4 8.89999 29.6 8.79999 28.9L12.5 27.4C13.1 28.3 14 28.9 15.1 28.9C17.1 28.9 18.6 27.1 18.3 25.2L22 23.7C22.2 23.9 22.4 24.1 22.7 24.2L19.8 37H17.8C17.4 37 17.1 37.3 17.1 37.7V38.4C17.1 41.9 19.9 44.7 23.5 44.7C27 44.7 29.9 41.9 29.9 38.4V37.7C29.8 37.5 29.5 37.2 29.1 37.2ZM6.89999 28.5C7.19999 28.5 7.4 28.7 7.5 28.9C7.7 29.3 7.29999 29.8 6.89999 29.8C6.59999 29.8 6.39999 29.6 6.29999 29.4C6.09999 28.9 6.39999 28.5 6.89999 28.5ZM6.89999 49.8C4.09999 49.8 1.79999 47.5 1.79999 44.8C3.99999 44.8 9.8 44.8 12 44.8C12 47.5 9.69999 49.8 6.89999 49.8ZM4.5 43.5L6.89999 33.7L9.29999 43.5H4.5ZM15.2 27.8C14.1 27.8 13.3 26.9 13.3 25.9C13.3 24.9 14.2 24 15.2 24C16.3 24 17.1 24.9 17.1 25.9C17.1 26.9 16.2 27.8 15.2 27.8ZM23.4 22.1C23.7 22.1 23.9 22.3 24 22.5C24.2 22.8 23.9 23.2 23.6 23.3C23.3 23.4 22.9 23.2 22.8 22.9C22.7 22.6 23 22.1 23.4 22.1ZM23.4 26.9L25.8 37.3H21L23.4 26.9ZM23.4 43.5C20.6 43.5 18.3 41.2 18.3 38.5C20.6 38.5 26.1 38.5 28.5 38.5C28.5 41.3 26.2 43.5 23.4 43.5Z" fill="#1818A8"/>
<path d="M54.8 31.3H47.7C47.4 31.3 47.1 31.6 47.1 31.9V38H40.7C40.4 38 40.1 38.3 40.1 38.6V46.5H33.7C33.4 46.5 33.1 46.8 33.1 47.1V52H26.7C26.4 52 26.1 52.3 26.1 52.6V59.9C26.1 60.2 26.4 60.5 26.7 60.5C27.3 60.5 54.3 60.5 54.9 60.5C55.2 60.5 55.5 60.2 55.5 59.9V31.9C55.4 31.5 55.1 31.3 54.8 31.3ZM27.1 53.1H32.9V59.2H27.1V53.1ZM34.2 47.7H40V59.2H34.2C34.2 58.9 34.2 48.4 34.2 47.7ZM41.3 39.2H47.1V59.2H41.3C41.3 58.3 41.3 40.2 41.3 39.2ZM54.1 59.2H48.3C48.3 58.6 48.3 32.7 48.3 32.5H54.1V59.2Z" fill="#1E4F28"/>
</svg>
