<svg width="61" height="64" viewBox="0 0 61 64" fill="none" xmlns="http://www.w3.org/2000/svg">
<path opacity="0.1" d="M42.6 42.7C52.7621 42.7 61 34.462 61 24.3C61 14.138 52.7621 5.89999 42.6 5.89999C32.438 5.89999 24.2 14.138 24.2 24.3C24.2 34.462 32.438 42.7 42.6 42.7Z" fill="url(#paint0_radial_41_36)"/>
<path opacity="0.1" d="M18.6 63.7C28.7621 63.7 37 55.462 37 45.3C37 35.138 28.7621 26.9 18.6 26.9C8.43798 26.9 0.200012 35.138 0.200012 45.3C0.200012 55.462 8.43798 63.7 18.6 63.7Z" fill="url(#paint1_radial_41_36)"/>
<path opacity="0.1" d="M30.9 56.2C41.062 56.2 49.3 47.962 49.3 37.8C49.3 27.638 41.062 19.4 30.9 19.4C20.738 19.4 12.5 27.638 12.5 37.8C12.5 47.962 20.738 56.2 30.9 56.2Z" fill="url(#paint2_radial_41_36)"/>
<path d="M44.8 14.2H17.8V41.2H44.8V14.2Z" fill="#DD1B2E"/>
<path d="M44.4 14.6V40.8H18.2V14.6H44.4ZM44.8 14.2H17.8V41.2H44.8V14.2Z" fill="black"/>
<path d="M42.5 28.2C50.2872 28.2 56.6 21.8872 56.6 14.1C56.6 6.31279 50.2872 0 42.5 0C34.7128 0 28.4 6.31279 28.4 14.1C28.4 21.8872 34.7128 28.2 42.5 28.2Z" fill="#EAEA4E"/>
<path d="M42.5 0.399994C50.1 0.399994 56.3 6.6 56.3 14.2C56.3 21.8 50.1 28 42.5 28C34.9 28 28.7 21.8 28.7 14.2C28.7 6.6 34.9 0.399994 42.5 0.399994ZM42.5 0C34.7 0 28.4 6.30001 28.4 14.1C28.4 21.9 34.7 28.2 42.5 28.2C50.3 28.2 56.6 21.9 56.6 14.1C56.6 6.30001 50.3 0 42.5 0Z" fill="black"/>
<path d="M19 20.6L35.3 48.9H2.60004L19 20.6Z" fill="#1818A8"/>
<path d="M19 21.4L34.7 48.5H3.40001L19 21.4ZM19 20.6L2.70001 48.9H35.3L19 20.6Z" fill="black"/>
<defs>
<radialGradient id="paint0_radial_41_36" cx="0" cy="0" r="1" gradientUnits="userSpaceOnUse" gradientTransform="translate(42.593 24.3) scale(18.4037)">
<stop offset="0.1111" stop-color="#FF8800"/>
<stop offset="0.1488" stop-color="#FF9112"/>
<stop offset="0.2857" stop-color="#FFAD50"/>
<stop offset="0.4216" stop-color="#FFC685"/>
<stop offset="0.553" stop-color="#FFDBB1"/>
<stop offset="0.6791" stop-color="#FFEAD3"/>
<stop offset="0.7985" stop-color="#FFF6EB"/>
<stop offset="0.9084" stop-color="#FFFDFA"/>
<stop offset="1" stop-color="white"/>
</radialGradient>
<radialGradient id="paint1_radial_41_36" cx="0" cy="0" r="1" gradientUnits="userSpaceOnUse" gradientTransform="translate(18.55 45.3) scale(18.4)">
<stop offset="0.1111" stop-color="#84D5FF"/>
<stop offset="0.1207" stop-color="#86D6FF"/>
<stop offset="0.3189" stop-color="#B1E4FF"/>
<stop offset="0.5109" stop-color="#D3F0FF"/>
<stop offset="0.6928" stop-color="#EBF8FF"/>
<stop offset="0.8603" stop-color="#FAFDFF"/>
<stop offset="1" stop-color="white"/>
</radialGradient>
<radialGradient id="paint2_radial_41_36" cx="0" cy="0" r="1" gradientUnits="userSpaceOnUse" gradientTransform="translate(30.85 37.8417) scale(18.4209)">
<stop offset="0.1111" stop-color="#FF5C8D"/>
<stop offset="0.2531" stop-color="#FF86AB"/>
<stop offset="0.4212" stop-color="#FFB1C9"/>
<stop offset="0.5844" stop-color="#FFD3E0"/>
<stop offset="0.739" stop-color="#FFEBF1"/>
<stop offset="0.8814" stop-color="#FFFAFB"/>
<stop offset="1" stop-color="white"/>
</radialGradient>
</defs>
</svg>
