<svg width="76" height="65" viewBox="0 0 76 65" fill="none" xmlns="http://www.w3.org/2000/svg">
<path d="M44.2 53C43.3 53 42.3 53.1 41.4 53.4C40.5 53.7 39.3 54.6 39.8 55.7C40 56.2 40.5 56.5 41.1 56.5C41.3 56.5 41.5 56.5 41.7 56.4C42.5 56.1 42.9 55.3 42.6 54.6C42.5 54.4 42.4 54.3 42.3 54.2C42.8 54.1 43.4 54 44.1 54C44.4 54 44.6 53.8 44.6 53.5C44.6 53.2 44.4 53 44.2 53ZM41.2 55.2C41.1 55.2 41.1 55.2 41 55.2C40.9 55.2 40.8 55.2 40.8 55.2C40.8 55.2 40.9 55 41 55C41.1 55 41.1 55 41.2 55C41.3 55 41.4 55 41.4 55C41.5 55 41.4 55.1 41.2 55.2Z" fill="#B2721F"/>
<path d="M34.4 53.3C33.5 53 32.5 52.9 31.6 52.9C31.3 52.9 31.1 53.1 31.1 53.4C31.1 53.7 31.3 53.9 31.6 53.9C32.3 53.9 32.9 53.9 33.4 54.1C33.3 54.2 33.2 54.4 33.1 54.5C32.8 55.2 33.2 56 34 56.3C34.2 56.4 34.4 56.4 34.6 56.4C35.2 56.4 35.7 56.1 35.9 55.6C36.5 54.5 35.3 53.7 34.4 53.3ZM34.9 55.2C34.9 55.2 34.8 55.2 34.7 55.2C34.6 55.2 34.6 55.2 34.5 55.2C34.3 55.1 34.2 55 34.3 55C34.3 55 34.4 55 34.5 55C34.6 55 34.6 55 34.7 55C34.9 55 34.9 55.2 34.9 55.2Z" fill="#B2721F"/>
<path d="M34.6 48.4C34.6 48.4 35.1 46.7 33.8 45.8C33.7 45.7 31.7 48 31.9 50.1C31.9 50 33.6 48.8 34.6 48.4Z" fill="#B2721F"/>
<path d="M43.9 50C44.1 47.9 42.1 45.6 42 45.7C40.7 46.6 41.2 48.3 41.2 48.3C42.2 48.8 43.9 50 43.9 50Z" fill="#B2721F"/>
<path d="M50.8 52.6L50.2 52.5C50.2 52.5 48.1 52.2 46.7 50.5C46.6 50.3 46.4 50.2 46.2 50C46.2 48.6 45.7 45 41.7 43.1L41.4 42.9L41.1 43.1C41 43.2 39.4 44.4 39.2 46.9H36.7C36.5 44.4 34.8 43.2 34.8 43.1L34.5 42.9L34.2 43.1C30.2 45 29.7 48.6 29.7 50C29.5 50.2 29.4 50.3 29.2 50.5C27.8 52.2 25.7 52.5 25.7 52.5L25.1 52.6V53.2C25.2 56.3 26.2 58.8 28.1 60.7C27.9 60.8 27.8 60.8 27.6 60.9C27.4 61 27.3 61.3 27.4 61.5C27.5 61.7 27.7 61.8 27.8 61.8C27.9 61.8 27.9 61.8 28 61.8C28.3 61.7 28.6 61.6 28.8 61.5C30.1 62.6 31.8 63.4 33.7 64C35 64.4 36.4 64.7 37.8 64.7C39.2 64.7 40.6 64.5 41.9 64C43.8 63.4 45.5 62.6 46.8 61.5C47.1 61.6 47.4 61.7 47.6 61.8C47.7 61.8 47.7 61.8 47.8 61.8C48 61.8 48.2 61.7 48.2 61.5C48.3 61.3 48.2 61 48 60.9C47.8 60.8 47.7 60.8 47.5 60.7C49.4 58.8 50.4 56.3 50.5 53.2L50.8 52.6ZM41.7 62.7C40.5 63.1 39.2 63.3 37.9 63.3C36.6 63.3 35.3 63.1 34.2 62.7C32.8 62.3 31.5 61.7 30.4 61C31.9 60.6 33.4 60.6 34 60.5C34.4 61.3 35.3 61.9 36.3 61.9C36.7 61.9 37 61.8 37.3 61.7C37.5 61.7 37.6 61.6 37.8 61.4C38 61.5 38.2 61.6 38.3 61.7C38.6 61.8 39 61.9 39.3 61.9C40.3 61.9 41.2 61.3 41.6 60.5C42.3 60.5 43.7 60.6 45.2 61C44.4 61.7 43.1 62.3 41.7 62.7ZM46.7 59.9C46.6 60 46.5 60.1 46.3 60.2C44.6 59.7 42.9 59.6 42 59.5V59.4C42 59.3 42 59.1 42 59C42.9 58.8 44.6 58.5 46.2 58.8C46.5 58.9 46.7 58.7 46.8 58.4C46.9 58.1 46.7 57.9 46.4 57.8C44.6 57.4 42.6 57.8 41.7 58.1C41.7 58.1 41.7 58 41.6 58C41.3 57.6 40.9 57.3 40.4 57.1L40.2 57.7L40 58.3C40.5 58.5 40.9 59 40.9 59.5C40.9 60.2 40.3 60.8 39.5 60.8C39.3 60.8 39.1 60.8 38.9 60.7L38.7 60.6C38.6 60.5 38.4 60.4 38.2 60.3L38.9 59.6C39.2 59.3 39 58.9 38.6 58.9H37C36.6 58.9 36.5 59.3 36.7 59.6L37.4 60.3C37.2 60.4 37.1 60.5 36.9 60.6L36.7 60.7C36.5 60.8 36.3 60.8 36.1 60.8C35.4 60.8 34.7 60.2 34.7 59.5C34.7 59 35 58.5 35.6 58.3L35.4 57.7L35.2 57.1C34.7 57.3 34.3 57.6 34 58C34 58 34 58.1 33.9 58.1C33 57.9 31 57.5 29.2 57.8C28.9 57.9 28.8 58.1 28.8 58.4C28.9 58.7 29.1 58.8 29.4 58.8C31 58.5 32.7 58.8 33.5 59C33.5 59.1 33.5 59.3 33.5 59.4V59.5C32.6 59.5 30.9 59.7 29.2 60.2C29.1 60.1 29 60 28.8 59.9C27.2 58.3 26.3 56.2 26.1 53.7C27 53.5 28.6 52.9 29.9 51.4C30.1 51.2 30.3 51 30.5 50.8L30.7 50.6V50.3C30.7 49.8 30.7 48.7 31.2 47.6C31.8 46.3 32.7 45.2 34.1 44.5C34.2 44.6 34.4 44.8 34.6 45.1C35.1 45.8 35.3 46.7 35.3 47.7V48.3H40.2V47.7C40.2 46.8 40.4 45.9 40.9 45.1C41.1 44.8 41.2 44.6 41.4 44.5C42.8 45.2 43.7 46.3 44.3 47.6C44.8 48.8 44.8 49.8 44.8 50.3V50.6L45 50.8C45.2 51 45.4 51.2 45.6 51.4C46.8 52.9 48.5 53.5 49.4 53.7C49.3 56.2 48.4 58.3 46.7 59.9Z" fill="#B2721F"/>
<path d="M73 23.5C73.2 23.2 73.3 22.8 73.3 22.3C73.3 21.7 73.1 21.1 72.7 20.7C72.9 20.3 73 19.9 73 19.5C73 18.1 71.9 17 70.5 17C70.3 17 70 17 69.8 17.1C69.4 16.7 68.8 16.4 68.1 16.4C67.4 16.4 66.9 16.7 66.5 17C66 16.6 65.6 16.4 64.9 16.4C64.4 16.4 64 16.5 63.7 16.7C63.4 16.5 63 16.4 62.5 16.4C61.8 16.4 61.4 16.6 60.9 17C60.5 16.6 60 16.4 59.3 16.4C58.6 16.4 58 16.7 57.6 17.1C57.4 17 57.1 17 56.9 17C55.5 17 54.4 18.1 54.4 19.5C54.4 19.9 54.5 20.3 54.7 20.7C54.3 21.1 54.1 21.7 54.1 22.3C54.1 22.7 54.2 23.1 54.4 23.5C53.5 24.5 52.8 25.3 52.6 25.5C52.4 25.7 52.3 26 52.4 26.2C52.5 26.6 52.9 26.6 53.1 26.7C53.3 26.7 53.5 26.8 53.8 26.8C54.5 26.8 55.3 26.7 56.1 26.5C56.7 26.3 57.1 26.2 57.5 26V33.3C57.5 34.5 57.9 35.6 58.7 36.5C59.2 37 59.7 37.4 60.4 37.7C60.5 38 60.7 38.3 61 38.6C61.3 38.9 61.7 39.1 62.1 39.3C62.6 39.5 63.1 39.6 63.7 39.6C64 39.6 64.3 39.6 64.6 39.5C65.6 39.3 66.3 38.9 66.8 38.2C66.9 38 67 37.9 67.1 37.7C67.7 37.4 68.3 37 68.8 36.5C69.6 35.6 70 34.5 70 33.3V26C71.3 26.7 72.9 26.8 73.7 26.8C74.3 26.8 74.9 26.7 75.1 26.3C75.2 26.1 75.1 25.8 74.9 25.6C74.6 25.4 73.9 24.5 73 23.5ZM71.6 25.4C71 25.2 70.5 25 70.1 24.8C70 24.7 69.8 24.6 69.7 24.5L68.8 23.7V23.9V33.3C68.8 34.2 68.5 35.1 67.9 35.8C67.3 36.5 66.5 36.9 65.6 37.1C65.6 37.1 65.4 37.1 65.2 37.1C64.9 37.1 64.6 37.1 64.4 37V33.4C64.8 33.3 65.2 33.1 65.5 32.9C66 32.5 66.2 32 66.2 31.4H65.1C65.1 31.7 65 31.9 64.7 32.1C64.4 32.3 64.1 32.4 63.7 32.4C63.3 32.4 63 32.3 62.7 32.1C62.5 31.9 62.3 31.7 62.3 31.4H61.2C61.2 32 61.5 32.5 61.9 32.9C62.2 33.2 62.6 33.3 63 33.4V37C62.8 37.1 62.5 37.1 62.2 37.1C61.9 37.1 61.8 37.1 61.8 37.1C60.9 37 60.1 36.5 59.5 35.8C58.9 35.1 58.6 34.2 58.6 33.3V24V23.8L57.7 24.6C57.6 24.7 57.5 24.8 57.4 24.9C57 25.2 56.5 25.4 55.9 25.5C55.3 25.7 54.6 25.8 54.1 25.8C54.4 25.4 54.8 25 55.3 24.5C55.4 24.4 55.5 24.2 55.7 24.1C55.8 24 55.9 23.8 56.1 23.7C56.4 23.4 56.7 23 57 22.7C57.3 22.9 57.7 23 58.1 23.1C58.2 23.1 58.3 23.1 58.4 23.1C58.5 23.1 58.6 23.1 58.7 23.1C58.9 23.1 59.1 23.1 59.3 23C59.8 22.9 60.2 22.8 60.4 22.8C60.9 23.1 61.5 23.2 62.1 23.2C62.9 23.2 63.5 22.9 63.9 22.7C64.3 22.9 64.9 23.2 65.7 23.2C66.3 23.2 66.8 23.1 67.4 22.8C67.7 22.9 68.1 23 68.5 23C68.7 23 68.9 23 69.1 23.1C69.2 23.1 69.2 23.1 69.3 23.1C69.4 23.1 69.5 23.1 69.6 23.1C70 23.1 70.4 22.9 70.7 22.7C71 23 71.3 23.4 71.6 23.7C71.7 23.8 71.8 24 72 24.1C72.1 24.2 72.2 24.4 72.4 24.5C72.8 25 73.2 25.5 73.6 25.8C72.9 25.7 72.2 25.6 71.6 25.4ZM57 18.2C56.3 18.6 55.7 19.3 55.6 20C55.6 19.9 55.5 19.7 55.5 19.6C55.5 18.8 56.2 18.2 57 18.2ZM58.7 17.8C58.9 17.7 59.1 17.6 59.4 17.6C59.9 17.6 60.1 17.8 60.6 18.2L61 18.6L61.4 18.2C61.9 17.7 62.1 17.6 62.6 17.6C62.9 17.6 63.2 17.8 63.4 17.9L63.7 18.1L64 17.9C64.2 17.8 64.5 17.6 64.8 17.6C65.3 17.6 65.5 17.7 66 18.2L66.4 18.6L66.8 18.2C67.3 17.7 67.6 17.6 68 17.6C68.3 17.6 68.5 17.7 68.7 17.8C68.9 17.9 69 18 69.1 18.2C69.2 18.3 69.3 18.5 69.3 18.7V18.8V19.1L69.7 19.2C70.1 19.3 70.4 19.5 70.6 19.8C70.7 20 70.8 20.2 70.8 20.3C70.8 20.5 70.8 20.6 70.7 20.7V20.8C70.6 20.9 70.5 21 70.4 21.2C70.3 21.3 70.3 21.3 70.2 21.3C70.1 21.4 70 21.4 69.9 21.4C69.8 21.5 69.7 21.5 69.5 21.5C69.4 21.5 69.4 21.5 69.3 21.5C69.2 21.5 69.2 21.5 69.1 21.5C69 21.5 68.9 21.5 68.9 21.5C68.7 21.5 68.5 21.5 68.3 21.4C67.7 21.3 67.2 21.2 67.2 21.2L67 21.1L66.8 21.2C66.4 21.5 65.9 21.6 65.5 21.6C64.7 21.6 64.1 21.2 64.1 21.1L63.8 20.8L63.5 21.1C63.5 21.1 62.9 21.6 62.1 21.6C61.7 21.6 61.2 21.5 60.8 21.2L60.6 21.1L60.4 21.2C60.4 21.2 59.9 21.4 59.3 21.4C59.1 21.4 58.9 21.5 58.7 21.5C58.6 21.5 58.5 21.5 58.5 21.5H58.4C58.3 21.5 58.3 21.5 58.2 21.5C58.1 21.5 57.9 21.4 57.8 21.4C57.7 21.4 57.6 21.3 57.5 21.3C57.4 21.3 57.4 21.2 57.3 21.2C57.2 21.1 57.1 21 57 20.8V20.7C56.9 20.6 56.9 20.4 56.9 20.3C56.9 20.1 57 19.9 57.1 19.8C57.3 19.5 57.6 19.3 58 19.2L58.4 19.1V18.8V18.7C58.4 18.5 58.5 18.4 58.6 18.2C58.4 18 58.5 17.9 58.7 17.8ZM70.5 18.2C71.3 18.2 71.9 18.8 71.9 19.6C71.9 19.7 71.9 19.9 71.8 20C71.7 19.3 71.1 18.6 70.4 18.3V18.2H70.5ZM71.5 21.9C71.6 21.8 71.8 21.7 71.9 21.7C72 21.9 72.1 22.2 72.1 22.4C72.1 22.5 72.1 22.5 72.1 22.6C71.9 22.3 71.7 22.1 71.5 21.9ZM55.3 22.4C55.3 22.1 55.4 21.9 55.5 21.7C55.6 21.8 55.8 21.9 55.9 21.9C55.7 22.1 55.5 22.4 55.3 22.6C55.3 22.5 55.3 22.4 55.3 22.4ZM64.4 38.5C63.8 38.6 63 38.6 62.5 38.4C62.4 38.4 62.3 38.3 62.2 38.3C62.3 38.3 62.3 38.3 62.4 38.3C63 38.3 63.4 38.2 63.8 38C64.3 38.2 64.8 38.3 65.2 38.3C65.3 38.3 65.3 38.3 65.4 38.3C65 38.3 64.7 38.4 64.4 38.5Z" fill="white"/>
<path d="M61.9 24.6C61.8 24.6 61.8 24.6 61.9 24.6C61.6 24.3 61.2 24.1 60.8 24.1C60.7 24.1 60.6 24.1 60.6 24.1C59.8 24.1 59.2 24.6 59.1 25.3C59 25.7 59.2 26.1 59.5 26.4C59.8 26.7 60.1 26.8 60.5 26.9C60.6 26.9 60.7 26.9 60.7 26.9C61 26.9 61.3 26.8 61.6 26.7C61.6 26.9 61.6 27.2 61.6 27.4H62.7C62.7 25.5 62.1 24.8 61.9 24.6ZM61.1 25.5C61.1 25.6 60.9 25.7 60.7 25.7H60.6C60.3 25.7 60.1 25.5 60.1 25.4C60.1 25.3 60.3 25.2 60.5 25.2H60.6C60.8 25.2 60.9 25.3 61 25.4C61.1 25.3 61.1 25.4 61.1 25.5Z" fill="white"/>
<path d="M66.9 24C66.8 24 66.7 24 66.7 24C66.3 24.1 65.9 24.2 65.7 24.5C65.5 24.7 64.9 25.4 64.9 27.2H66C66 26.9 66 26.7 66 26.5C66.2 26.6 66.5 26.7 66.9 26.7C67 26.7 67.1 26.7 67.1 26.7C67.5 26.6 67.9 26.5 68.1 26.2C68.4 25.9 68.5 25.5 68.5 25.1C68.3 24.5 67.7 24 66.9 24ZM66.8 25.7H66.7C66.5 25.7 66.3 25.6 66.3 25.5C66.3 25.4 66.4 25.4 66.4 25.3C66.5 25.2 66.6 25.1 66.8 25.1H66.9C67.1 25.1 67.3 25.2 67.3 25.3C67.3 25.5 67.1 25.6 66.8 25.7Z" fill="white"/>
<path d="M1 27.4C1.4 29.4 2 31 2 31.1L2.10001 31.4H4.60001L2.79999 33.4L2.89999 33.7C2.89999 33.7 3.30001 34.6 4.10001 35.5C4.50001 36 5 36.5 5.5 36.8C6.1 37.2 6.8 37.4 7.5 37.4C8.7 37.4 9.8 36.8 10.5 35.7C10.6 35.6 10.7 35.4 10.8 35.3C10.9 35.4 11 35.6 11.1 35.7C11.9 36.8 12.9 37.4 14.1 37.4C14.8 37.4 15.5 37.2 16.1 36.8C16.6 36.5 17.1 36.1 17.5 35.5C18.3 34.6 18.7 33.7 18.7 33.7L18.8 33.4L17 31.4H19.5L19.6 31.1C19.6 31 20.2 29.4 20.6 27.4C20.8 26.2 21 25.2 21 24.4C21 23.2 20.8 22.4 20.4 21.8C20 21.2 19.4 20.9 18.7 20.9C18.3 20.9 17.8 21 17.3 21.2C15.9 21.7 14.7 22.4 13.7 23.3C13.2 23.8 12.7 24.3 12.2 24.9V24.7C12.2 24.4 12.1 24.1 11.9 23.8C11.9 23.5 12 22.8 12.7 22.6C13 22.5 13.1 22.2 13 22C12.9 21.7 12.6 21.6 12.4 21.7C11.7 21.9 11.3 22.4 11.1 23.1C11.1 23.2 11.1 23.2 11.1 23.2C11 23.2 10.9 23.2 10.8 23.2C10.7 23.2 10.5 23.2 10.4 23.3C10.4 23.2 10.4 23.2 10.4 23.1C10.2 22.4 9.70001 21.9 9.10001 21.7C8.80001 21.6 8.6 21.7 8.5 22C8.4 22.3 8.49999 22.5 8.79999 22.6C9.19999 22.7 9.4 23 9.5 23.4C9.6 23.7 9.60001 23.9 9.60001 24C9.50001 24.2 9.39999 24.5 9.39999 24.7V24.9C8.99999 24.3 8.49999 23.8 7.89999 23.4C6.89999 22.5 5.59999 21.8 4.29999 21.3C3.79999 21.1 3.29999 21 2.89999 21C2.19999 21 1.60001 21.3 1.20001 21.9C0.800012 22.5 0.600006 23.3 0.600006 24.5C0.700006 25.2 0.8 26.2 1 27.4ZM10.5 24.6C10.5 24.3 10.7 24.1 11 24.1C11.1 24.1 11.3 24.2 11.4 24.2C11.5 24.3 11.5 24.4 11.5 24.5V26.3C11.3 26.7 11.1 27 11 27.4C10.9 27.1 10.7 26.7 10.5 26.3V24.6ZM2.10001 22.3C2.30001 22 2.6 21.9 3 21.9C3.3 21.9 3.70001 22 4.10001 22.1C5.30001 22.6 6.39999 23.2 7.39999 24C8.19999 24.7 8.79999 25.4 9.39999 26.3C9.49999 26.4 9.50001 26.5 9.60001 26.6C10.2 27.6 10.5 28.5 10.6 28.9C10.6 29 10.6 29.1 10.6 29.1L11.1 31.5L11.6 29.1C11.6 29.1 11.6 29.1 11.6 29C11.7 28.7 12 27.8 12.6 26.7C12.7 26.6 12.7 26.5 12.8 26.4C13.3 25.5 14 24.7 14.8 24.1C15.8 23.3 16.9 22.6 18.1 22.2C18.5 22.1 18.9 22 19.2 22C19.6 22 19.9 22.1 20.1 22.4C20.6 23.1 20.7 24.9 20.2 27.2C19.9 28.6 19.5 29.9 19.3 30.4H15.2L18 33.5C17.8 33.8 17.5 34.3 17.1 34.8C16.7 35.3 16.3 35.6 15.9 35.9C15.4 36.2 14.9 36.4 14.4 36.4C13.5 36.4 12.8 36 12.2 35.2C12.1 35 12 34.9 11.9 34.7C11.7 34.3 11.6 33.9 11.6 33.9V33.7L11.2 31.9L10.8 33.7V33.9C10.8 33.9 10.7 34.3 10.5 34.7C10.4 34.9 10.3 35 10.2 35.2C9.60001 36 8.9 36.4 8 36.4C6.2 36.4 4.89999 34.3 4.39999 33.5L7.20001 30.4H3.10001C2.90001 29.8 2.50001 28.6 2.20001 27.2C1.50001 24.8 1.50001 23.1 2.10001 22.3Z" fill="#D94CE5"/>
<path d="M45 31.2C45.9 31.2 46.6 30.5 46.6 29.6C46.6 28.7 45.9 28 45 28C44.1 28 43.4 28.7 43.4 29.6C43.4 30.5 44.1 31.2 45 31.2ZM45 29.3C45.2 29.3 45.4 29.5 45.4 29.7C45.4 29.9 45.2 30.1 45 30.1C44.8 30.1 44.6 29.9 44.6 29.7C44.6 29.5 44.8 29.3 45 29.3Z" fill="#1818A8"/>
<path d="M45.5 25.5C44.6 24.9 43.7 24.5 42.7 24.2C42.2 24.1 41.7 24 41.3 23.9C40.3 22.9 39 22.2 37.5 21.9C36.4 21.7 35.5 21.8 35.5 21.8L34.8 21.9L35.4 24.7C35.2 24.8 35 24.9 34.8 25C33.5 25.7 32.2 26.6 31.2 27.8L25 23.6L26.9 29.7C27 30.1 27 30.6 26.9 31.1L25 37.2L31.2 33C32.3 34.2 33.5 35.1 34.8 35.8C36.3 36.6 38 37 39.7 37C40.5 37 41.3 36.9 42.1 36.7L43 36.5L42.5 35.8C41.7 34.7 41.1 33.6 40.8 32.5C40.6 31.6 40.5 30.8 40.6 29.9C40.8 28.5 41.4 27.6 41.4 27.6L42.1 26.7H40.9C39.2 26.7 37.5 27.1 35.9 27.9C35.1 28.3 34.4 28.7 33.9 29.2C33.4 29.6 33 30 32.6 30.5C32.5 30.7 32.3 30.8 32.2 31C31.9 31.3 31.5 31.6 31.1 31.9L27.3 34.5L28.2 31.6C28.4 30.9 28.4 30.2 28.2 29.5L27.3 26.6L30.6 28.8L29.8 29.7L30.7 30.4L31.9 29C34 26.5 36.9 25.1 39.8 25.1C41.6 25.1 43.4 25.6 45 26.6C46.5 27.5 47.8 28.8 48.8 30.4C48.2 31.4 47.4 32.3 46.6 33C45.8 33.7 44.9 34.3 44 34.8C43.9 34.7 43.8 34.5 43.7 34.4C42.5 32.5 42.2 30.9 42.5 29.4L41.3 29.1C41.1 30.1 41.1 31.2 41.4 32.2C41.6 33.1 42.1 34 42.7 35C42.9 35.4 43.1 35.6 43.3 35.9L43.6 36.2L44 36C45.2 35.5 46.3 34.8 47.4 33.8C48.4 32.9 49.3 31.8 50 30.6L50.2 30.3L50 30C48.7 28.1 47.2 26.5 45.5 25.5ZM32.8 31.5C33 31.3 33.1 31.2 33.3 31C33.7 30.6 34 30.2 34.5 29.9C35 29.5 35.6 29.1 36.3 28.8C37.4 28.3 38.6 27.9 39.8 27.8C39.6 28.3 39.4 28.9 39.3 29.6C39.2 30.6 39.2 31.6 39.5 32.6C39.8 33.6 40.2 34.6 40.8 35.6C40.4 35.7 40 35.7 39.6 35.7C36.8 35.7 34.1 34.5 32.1 32.3C32.3 32 32.6 31.7 32.8 31.5ZM36.5 24.2L36.2 22.9C36.9 22.9 38 23.1 39.1 23.7C38.2 23.8 37.3 24 36.5 24.2Z" fill="#1818A8"/>
<path d="M44.9 0.200012C43.6 0.200012 42.4 0.700012 41.5 1.70001C39.8 0.100012 36.9 0.0999756 36.8 0.0999756C36.7 0.0999756 33.7 0.100012 32.1 1.70001C31.3 0.800012 30.1 0.200012 28.8 0.200012C26.3 0.200012 24.3 2.20001 24.3 4.70001C24.3 6.20001 25 7.50002 26.2 8.40002C25.9 9.00002 25.7 9.5 25.6 10C25.5 10.7 25.6 11.3 25.8 11.8C26.3 12.7 27.2 13.2 28.8 13.5C29 13.5 29.2 13.6 29.4 13.6C29.8 14.6 31.2 16.9 36.9 16.9C42.6 16.9 44 14.7 44.4 13.6C44.6 13.6 44.8 13.5 45 13.5C46.5 13.2 47.5 12.6 48 11.8C48.3 11.3 48.4 10.7 48.2 10C48.1 9.5 47.9 9.00002 47.6 8.40002C48.8 7.60002 49.5 6.20001 49.5 4.70001C49.4 2.20001 47.3 0.200012 44.9 0.200012ZM42.4 14.3C41 15.5 38.6 15.8 36.8 15.8C33.6 15.8 32 15 31.3 14.4C31.1 14.2 30.9 14 30.8 13.9C31.5 13.9 32.2 14 33 14C33.8 14 34.5 14 35.2 14C35.8 14 36.3 14 36.8 14C37.3 14 37.8 14 38.4 14C39.1 14 39.9 14 40.6 14C41.4 14 42.2 14 42.8 13.9C42.7 14 42.6 14.1 42.4 14.3ZM46.4 7.70001L45.8 8L46.1 8.5C46.9 9.7 47.1 10.6 46.7 11.2C46.3 11.9 45.2 12.3 44 12.5H43.6C42.8 12.6 41.8 12.7 40.5 12.7C39.7 12.7 39 12.7 38.3 12.7C37.7 12.7 37.1 12.7 36.7 12.7C36.3 12.7 35.6 12.7 35.1 12.7C34.4 12.7 33.7 12.7 32.9 12.7C31.7 12.7 30.7 12.6 29.8 12.5H29.4C28.2 12.3 27 11.9 26.6 11.2C26.3 10.6 26.5 9.7 27.2 8.5L27.5 8L26.9 7.70001C25.8 7.10001 25.1 5.99999 25.1 4.79999C25.1 2.99999 26.6 1.5 28.4 1.5C29.5 1.5 30.6 2.09998 31.2 3.09998L31.7 3.90002L32.2 3.09998C32.7 2.29998 33.8 1.90001 34.6 1.70001C35.6 1.50001 36.4 1.5 36.4 1.5C36.4 1.5 37.2 1.50001 38.1 1.70001C38.9 1.90001 40 2.30001 40.7 3.20001L41.2 3.90002L41.7 3.20001C42.3 2.20001 43.4 1.59998 44.5 1.59998C46.3 1.59998 47.8 3.10002 47.8 4.90002C48.2 6.00002 47.5 7.10001 46.4 7.70001Z" fill="#1E4F28"/>
<path d="M28.1 2.90002C26.9 2.90002 26 3.8 26 5C26 6.2 26.9 7.09998 28.1 7.09998C29.3 7.09998 30.2 6.2 30.2 5C30.2 3.8 29.2 2.90002 28.1 2.90002ZM28.1 5.90002C27.6 5.90002 27.2 5.5 27.2 5C27.2 4.5 27.6 4.09998 28.1 4.09998C28.6 4.09998 29 4.5 29 5C29 5.5 28.6 5.90002 28.1 5.90002Z" fill="#1E4F28"/>
<path d="M45.5 2.90002C44.3 2.90002 43.4 3.8 43.4 5C43.4 6.2 44.3 7.09998 45.5 7.09998C46.7 7.09998 47.6 6.2 47.6 5C47.6 3.8 46.6 2.90002 45.5 2.90002ZM45.5 5.90002C45 5.90002 44.6 5.5 44.6 5C44.6 4.5 45 4.09998 45.5 4.09998C46 4.09998 46.4 4.5 46.4 5C46.4 5.5 46 5.90002 45.5 5.90002Z" fill="#1E4F28"/>
<path d="M34.7 10.3C34.4 10.3 34.1 10.6 34.1 10.9C34.1 11.2 34.4 11.5 34.7 11.5C35 11.5 35.3 11.2 35.3 10.9C35.3 10.6 35 10.3 34.7 10.3Z" fill="#1E4F28"/>
<path d="M38.8 10.3C38.5 10.3 38.2 10.6 38.2 10.9C38.2 11.2 38.5 11.5 38.8 11.5C39.1 11.5 39.4 11.2 39.4 10.9C39.4 10.6 39.2 10.3 38.8 10.3Z" fill="#1E4F28"/>
</svg>
