<svg width="65" height="57" viewBox="0 0 65 57" fill="none" xmlns="http://www.w3.org/2000/svg">
<path d="M27.5 27.9L24.6 24.1C24.6 24.1 24.1 23.5 24 22.8C23.9 22.1 22.8 14.7 22.4 13.7C21.8 12.4 20.4 11.4 19 11.4H13.2H7.39999C5.99999 11.4 4.6 12.4 4 13.7C3.9 13.9 3.8 14.1 3.8 14.3L0.499995 31.2C0.299995 32.3 1 33.3 2.1 33.5C2.2 33.5 2.3 33.5 2.5 33.5C3.4 33.5 4.29999 32.8 4.39999 31.9L7.1 18.4C7.2 18.2 7.3 18.1 7.5 18.1C7.8 18.1 8 18.3 8 18.6L5.39999 32.9C5.19999 34.2 6.39999 35.3 8.39999 35.8V51.6C8.39999 52.7 9.29999 53.6 10.4 53.6C11.5 53.6 12.4 52.7 12.4 51.6V36H13.2H14V51.6C14 52.7 14.9 53.6 16 53.6C17.1 53.6 18 52.7 18 51.6V35.8C20 35.4 21.3 34.2 21 32.9L18.4 18.6C18.4 18.3 18.6 18.1 18.9 18.1C19.1 18.1 19.3 18.2 19.3 18.4C19.3 18.4 20.3 23.5 20.4 24C20.5 24.5 20.7 25 21.1 25.6C21.5 26.2 24.6 29.9 24.6 29.9C25.2 30.7 26 31 27.1 30.5C28.1 29.7 28.1 28.9 27.5 27.9Z" fill="url(#paint0_linear_41_67)"/>
<path d="M13.6 10.4C15.9 10.4 17.8 8.50001 17.8 6.20001C17.8 3.90001 15.9 2 13.6 2C11.3 2 9.39999 3.90001 9.39999 6.20001C9.49999 8.60001 11.4 10.4 13.6 10.4Z" fill="url(#paint1_linear_41_67)"/>
<path d="M55.7 8.60001C53.4 8.60001 51.6 6.7 51.6 4.5C51.6 2.3 53.4 0.399994 55.6 0.399994C57.8 0.399994 59.6 2.3 59.6 4.5C59.6 6.7 57.9 8.50001 55.7 8.60001Z" fill="url(#paint2_linear_41_67)"/>
<path d="M46.6 10.9C47.1 9.99999 48.1 9.39999 49.2 9.39999H55.6H55.7H62.1C63.2 9.39999 64.2 9.99999 64.7 10.9C64.9 11.2 65 11.5 65 11.8V31.5C65 32.4 64.3 33.1 63.4 33.1C62.5 33.1 61.8 32.4 61.8 31.5V18.6C61.8 18.4 61.6 18.2 61.4 18.2C61.2 18.2 61.1 18.3 61 18.5V29.5C61 29.6 61 29.6 61 29.7V50.8C61 51.9 60.1 52.8 59 52.8C57.9 52.8 57 51.9 57 50.8V32.3H55.6H55.5H54.1V50.8C54.1 51.9 53.2 52.8 52.1 52.8C51 52.8 50.1 51.9 50.1 50.8V29.7C50.1 29.6 50.1 29.6 50.1 29.5V18.5C50.1 18.3 49.9 18.2 49.7 18.2C49.5 18.2 49.3 18.4 49.3 18.6C49.3 18.6 48.2 23.3 47.7 24.4C47.2 25.5 44.7 28.7 44.4 29.3C44 29.9 43 30.2 42.3 29.7C41.6 29.2 41.6 28.8 41.9 28C42.2 27.3 44.3 24.9 45 23.2C45.7 21.5 46.1 11.9 46.1 11.9C46.3 11.5 46.4 11.2 46.6 10.9Z" fill="url(#paint3_linear_41_67)"/>
<path d="M41.5 53C40.4 52.2 38.9 51.9 37.6 51.8C35.3 51.6 32.9 51.9 30.6 52.3C29.9 52.4 29.3 52.5 28.6 52.7C27.9 52.9 26.7 53.2 26.4 54C26 54.9 27.4 55.6 28.1 55.9C29.3 56.4 30.6 56.6 31.9 56.6C34.7 56.8 37.6 56.6 40.3 55.7C40.9 55.5 42 55.2 42.3 54.5C42.5 54 41.9 53.3 41.5 53Z" fill="#583F3C"/>
<path d="M36.5 37.6C38.1 37.2 39.4 35.8 40.1 34.4C40.6 33.5 40.9 32.6 41.2 31.7C41.3 31.1 41.5 30.4 41 29.9C40.6 29.4 40.2 29.4 39.9 29.6C40.4 28.8 40.9 28 41.2 27.1C41.3 26.6 41.6 25.8 41.2 25.4C40.1 24.2 39 27.2 38.7 27.8C37.9 29.7 37.2 31.5 36.2 33.2C36.1 31 35.8 28.8 35.5 26.7C35.5 26.6 35.5 26.5 35.4 26.4C36.8 25.1 38 23.3 38.8 21.7C39.2 20.9 39.6 20 39.9 19C40 18.5 40.1 17.9 39.7 17.5C39.3 17.1 38.7 17.1 38.3 17.4C37.7 17.8 37.5 18.6 37.3 19.3C36.6 21.4 35.8 23.5 35.3 25.7C35.1 24.8 35 24 34.8 23.1C34.8 23 34.7 22.9 34.7 22.7C35.6 20.5 36.3 18.1 36.5 15.7C36.6 14.5 36.6 13.2 36.4 12C36.3 11.3 36.2 9.69998 35.6 9.29998C34 8.19998 34.3 12.9 34.3 13.3C34.3 16 34.4 18.6 34.9 21.2C34.8 21.5 34.7 21.7 34.7 22C34.6 19.2 34.4 16.4 33.6 13.8C33.2 12.5 32.6 11.2 31.8 9.99999C31.5 9.49999 30.8 8.19998 30.1 8.39998C29.3 8.69998 29.8 10.2 29.9 10.7C30.1 12 30.5 13.4 31.1 14.6C31.7 15.8 32.3 17.1 32.9 18.3C33.2 18.9 33.5 19.5 33.7 20.2C33.9 21.1 34.2 22.1 34.4 23C34.4 23 34.4 23 34.4 23.1C34.4 23.3 34.5 23.4 34.5 23.6C34.6 23.9 34.6 24.2 34.7 24.5C34 22.7 32.9 21.1 31.8 19.5C31.2 18.7 30.7 17.7 29.8 17.1C29.4 16.8 28.4 16.2 27.9 16.7C27.5 17.2 27.9 18 28.2 18.5C28.7 19.5 29.2 20.6 29.9 21.5C30.6 22.4 31.4 23 32.4 23.6C33 24 33.5 24.4 34 24.9C34.4 25.3 34.7 25.8 35 26.3C35.1 26.6 35.1 26.9 35.1 27.2C35.3 28.4 35.4 29.5 35.5 30.7C34.9 28.9 33.9 27.2 32.8 25.6C32.4 25 32 24.2 31.4 23.8C31 23.5 30.1 23.2 29.6 23.4C28.3 23.9 30.5 26.4 31 27C31.2 27.2 31.4 27.4 31.5 27.6C31.1 27.4 30.7 27.3 30.3 27.5C28.6 28.3 30.5 30.8 31.2 31.6C32 32.5 33 33.4 33.8 34.3C34.7 35.3 35.3 36.4 35.8 37.6C35.8 37.6 35.8 37.6 35.8 37.7C35.8 38.4 35.8 39 35.8 39.7C35.5 38.5 35 37.4 34.5 36.3C34.2 35.7 33.2 33.2 32.1 33.9C31 34.6 32.2 36.7 32.6 37.5C33.3 39.1 34.3 40.5 35.6 41.7C35.6 41.7 35.7 41.8 35.8 41.8C35.8 43.1 35.7 44.5 35.6 45.8C35.2 44.5 34.4 43.3 33.6 42.1C33.1 41.3 32.3 40 31.1 40.4C30 40.7 31.5 42.5 31.9 42.9C33 44.3 34.4 45.2 35.5 46.6C35.5 46.6 35.5 46.6 35.5 46.7C35.5 47.5 35.4 48.3 35.4 49.1C35.2 57.8 35.5 49.2 35.5 49.1C35.6 48.3 35.7 47.6 35.8 46.8C35.9 46.8 35.9 46.7 35.8 46.6C37.1 45.9 38.3 44.7 39.2 43.7C39.7 43.1 41 41.7 40.4 40.9C39.7 40 38.7 41.2 38.4 41.7C37.6 43.1 36.7 44.4 35.9 45.9C36 44.6 36.1 43.3 36.2 42C37.7 41.2 38.9 40.1 39.9 38.8C40.3 38.3 41.6 36.5 40.7 35.9C39.9 35.4 38.7 37.2 38.4 37.7C37.6 38.9 36.9 40.1 36.2 41.3C36.4 39.9 36.5 38.8 36.5 37.6ZM33.5 28.9C34.4 29.7 35.1 30.5 35.8 31.4C35.9 32.3 35.9 33.3 36 34.2C36 34.7 36 35.2 36 35.7C35.8 35 35.5 34.4 35.4 33.8C35 32.7 34.6 31.6 34.1 30.6C33.8 30.1 33.3 28.9 32.6 28C32.9 28.4 33.2 28.6 33.5 28.9ZM38.7 31.5C37.9 33.3 37.5 35.3 36.4 37C36.4 36 36.4 35 36.3 33.9C37.3 33.3 38.1 32.3 38.8 31.2C38.8 31.3 38.7 31.4 38.7 31.5Z" fill="#345948"/>
<defs>
<linearGradient id="paint0_linear_41_67" x1="14.3824" y1="54.5642" x2="13.8504" y2="1.89729" gradientUnits="userSpaceOnUse">
<stop stop-color="#F29100"/>
<stop offset="0.1917" stop-color="#F08D01"/>
<stop offset="0.3707" stop-color="#EC8204"/>
<stop offset="0.5446" stop-color="#E36F09"/>
<stop offset="0.7153" stop-color="#D85511"/>
<stop offset="0.8822" stop-color="#C9331A"/>
<stop offset="1" stop-color="#BD1622"/>
</linearGradient>
<linearGradient id="paint1_linear_41_67" x1="14.0386" y1="54.5675" x2="13.5067" y2="1.9007" gradientUnits="userSpaceOnUse">
<stop stop-color="#F29100"/>
<stop offset="0.1917" stop-color="#F08D01"/>
<stop offset="0.3707" stop-color="#EC8204"/>
<stop offset="0.5446" stop-color="#E36F09"/>
<stop offset="0.7153" stop-color="#D85511"/>
<stop offset="0.8822" stop-color="#C9331A"/>
<stop offset="1" stop-color="#BD1622"/>
</linearGradient>
<linearGradient id="paint2_linear_41_67" x1="55.9559" y1="53.415" x2="55.4915" y2="-2.55401" gradientUnits="userSpaceOnUse">
<stop stop-color="#F29100"/>
<stop offset="0.1621" stop-color="#F08C01"/>
<stop offset="0.348" stop-color="#EA7E05"/>
<stop offset="0.5455" stop-color="#E0670B"/>
<stop offset="0.7512" stop-color="#D24714"/>
<stop offset="0.9614" stop-color="#C11E20"/>
<stop offset="1" stop-color="#BD1622"/>
</linearGradient>
<linearGradient id="paint3_linear_41_67" x1="53.58" y1="53.4344" x2="53.1154" y2="-2.53431" gradientUnits="userSpaceOnUse">
<stop stop-color="#F29100"/>
<stop offset="0.1621" stop-color="#F08C01"/>
<stop offset="0.348" stop-color="#EA7E05"/>
<stop offset="0.5455" stop-color="#E0670B"/>
<stop offset="0.7512" stop-color="#D24714"/>
<stop offset="0.9614" stop-color="#C11E20"/>
<stop offset="1" stop-color="#BD1622"/>
</linearGradient>
</defs>
</svg>
