<svg width="358" height="648" viewBox="0 0 358 648" fill="none" xmlns="http://www.w3.org/2000/svg">
<path d="M13.2 0H333.2C344.2 0 353.2 9 353.2 20V620C353.2 631 344.2 640 333.2 640H13.2C2.2 640 -6.8 631 -6.8 620V20C-6.8 9 2.2 0 13.2 0Z" fill="#3D94A8"/>
<path d="M-24.4 235.6C8.1 235.6 40.3 244.1 72.7 243.2C120.4 241.9 165.9 211.6 202.6 177.3" stroke="black" stroke-opacity="0.2" stroke-linecap="round"/>
<path d="M191.5 117.6C182.5 104.9 173.6 91.3 173.6 75.1C173.6 52.4 189.5 41.5 210.5 39.5C241.4 36.4 272.8 42 303.8 41.6C333.3 41.3 361.7 37.2 390 28.9C418.5 20.5 444.3 7.59998 471.5 -3.80002" stroke="black" stroke-opacity="0.2" stroke-linecap="round"/>
<path d="M-9.2 369.6C0.199998 354.8 50.1 310.5 64.6 338.2C70 348.6 68.1 362 65.8 373C58.8 407.1 40.7 438.3 24 468.3C8.3 496.5 -12.3 524.6 -21 556C-23.1 563.6 -24.1 569.9 -24.3 577.7C-24.5 586.5 -21.6 592.3 -19.6 600.5" stroke="black" stroke-opacity="0.2" stroke-linecap="round"/>
<path d="M10.6 -40.7C13 -31.8 23.3 -24.8 29.5 -18.9C50.5 0.999989 73.3 23.3 82.8 51.3C95.8 89.7 70.2 119.4 47.7 148.3C21.2 182.1 -7.6 214 -31.4 249.8" stroke="black" stroke-opacity="0.2" stroke-linecap="round"/>
<path d="M361.2 68.3C362.9 76.8 363 87.7 361.3 96.2C358 113.3 351.5 128.3 346.5 142.9C339.5 163.3 331.9 183.6 326.3 206.1C316.6 245.3 320 283.3 329.7 320.6C335.9 344.5 343.3 366.9 348.8 391.6C353 410.7 355 429.9 357.3 450.3" stroke="black" stroke-opacity="0.2" stroke-linecap="round"/>
<path d="M174 696C266.784 696 342 620.784 342 528C342 435.216 266.784 360 174 360C81.2162 360 6 435.216 6 528C6 620.784 81.2162 696 174 696Z" fill="white" fill-opacity="0.1"/>
<path d="M71.2 640C-47.1 518.3 80 413.3 74.3 413.2C51.8 412.7 25.7 302.6 47.9 278.3C70 254 127.9 374.7 135.9 380.8C155.1 368.3 218.6 382.6 218.6 382.6C218.6 382.6 223.6 297.5 260.1 278.2C296.5 258.9 298.3 377.4 272 411.7C272 411.7 389.9 519.4 276.7 639.9" fill="#EAE8E9"/>
<path d="M71.2 640C-47.1 518.3 80 413.3 74.3 413.2C51.8 412.7 25.7 302.6 47.9 278.3C70 254 127.9 374.7 135.9 380.8C155.1 368.3 218.6 382.6 218.6 382.6C218.6 382.6 223.6 297.5 260.1 278.2C296.5 258.9 298.3 377.4 272 411.7C272 411.7 389.9 519.4 276.7 639.9" stroke="white" stroke-width="5" stroke-miterlimit="10"/>
<path d="M94.4 403.3C67.3 403.3 48 319.7 57.3 311.9C75.2 301.9 114.4 372.6 114.4 392.6C114.4 392.6 100.1 403.3 94.4 403.3Z" fill="#F9ACBC"/>
<path d="M231.5 389.7L257.2 403.3C271.2 391 281.5 318.3 269.3 305.4C257.2 292.6 231.5 361.1 231.5 389.7Z" fill="#F9ACBC"/>
</svg>
