<svg width="67" height="58" viewBox="0 0 67 58" fill="none" xmlns="http://www.w3.org/2000/svg">
<path d="M14.5 13.6L38 0V28.8V57.6L14.5 44H0.100037V34.9V22.7V13.6H14.5Z" fill="#FF8431"/>
<path d="M53.9 28.8C53.9 34.6 51.7 39.8 48 43.8L50.7 46.4C55 41.8 57.7 35.6 57.7 28.9C57.7 22.2 55.1 15.9 50.7 11.4L48 14C51.7 17.8 53.9 23.1 53.9 28.8Z" fill="#FF8431"/>
<path d="M47.3 28.8C47.3 33.1 45.7 37 43 39.9L45 41.8C48.2 38.4 50.1 33.8 50.1 28.8C50.1 23.8 48.1 19.2 45 15.8L43 17.7C45.7 20.7 47.3 24.6 47.3 28.8Z" fill="#FF8431"/>
<path d="M61.7 28.8C61.7 36.6 58.7 43.7 53.8 48.9L57.4 52.5C63.2 46.3 66.8 37.9 66.8 28.8C66.8 19.6 63.2 11.3 57.4 5.09998L53.8 8.69998C58.7 13.9 61.7 21 61.7 28.8Z" fill="#FF8431"/>
</svg>
