<svg width="224" height="355" viewBox="0 0 224 355" fill="none" xmlns="http://www.w3.org/2000/svg">
<path d="M112 354.285C173.469 354.285 223.3 291.458 223.3 213.958C223.3 136.457 173.469 73.6302 112 73.6302C50.5307 73.6302 0.700012 136.457 0.700012 213.958C0.700012 291.458 50.5307 354.285 112 354.285Z" fill="white" fill-opacity="0.1"/>
<path d="M43.9 307.509C-37 202.358 49.7 118.263 45.9 118.137C31 117.758 13.7 25.7198 28.4 5.54694C43 -14.752 81.4 85.9862 86.7 91.1554C99.4 80.8169 141.5 92.6684 141.5 92.6684C141.5 92.6684 144.8 21.5591 169 5.42087C193.1 -10.7174 197.4 83.5906 176.9 116.876C192 116.624 246.9 232.491 180 307.509C113.1 382.527 50.1 316.083 43.9 307.509Z" fill="#EAE8E9" stroke="white" stroke-width="5" stroke-miterlimit="10"/>
<path d="M59.3 109.815C41.4 109.815 28.6 39.9668 34.7 33.5367C46.5 25.2154 72.5 84.221 72.5 100.99C72.5 100.864 63 109.815 59.3 109.815Z" fill="#F9ACBC"/>
<path d="M150.1 98.4681L167.1 109.815C176.3 99.6028 183.2 38.8321 175.1 28.1153C167.1 17.3985 150.1 74.5128 150.1 98.4681Z" fill="#F9ACBC"/>
</svg>
