<svg width="97" height="164" viewBox="0 0 97 164" fill="none" xmlns="http://www.w3.org/2000/svg">
<path d="M76.5 114C76.5 114 81.8 133 86.4 140.4C86.4 140.4 81.6 146.9 68 145.2C68 145.2 71 124 68 116.1L76.5 114Z" fill="#76DB46"/>
<path d="M72.2 146.3C70.9 146.3 69.4 146.2 67.9 146C67.7 146 67.5 145.9 67.4 145.7C67.3 145.5 67.2 145.3 67.2 145.1C67.2 144.9 70.2 124 67.2 116.4C67.1 116.2 67.1 115.9 67.2 115.7C67.3 115.5 67.5 115.3 67.7 115.3L76.1 113.1C76.5 113 77 113.2 77.1 113.7C77.2 113.9 82.4 132.7 86.9 139.9C87.1 140.2 87.1 140.5 86.9 140.8C86.8 141.1 82.8 146.3 72.2 146.3ZM68.9 144.5C79.3 145.5 84.1 141.6 85.4 140.3C81.3 133.3 76.9 118.5 75.9 114.9L69.1 116.7C71.4 124.3 69.4 140.6 68.9 144.5Z" fill="#000072"/>
<path d="M73.1 146.3H73C72.6 146.2 72.3 145.8 72.3 145.4C74 131.9 69.7 115.9 69.7 115.7C69.6 115.3 69.8 114.8 70.3 114.7C70.7 114.6 71.2 114.8 71.3 115.3C71.3 115.5 75.7 131.8 73.9 145.6C73.8 146 73.5 146.3 73.1 146.3Z" fill="#000072"/>
<path d="M82 144.4C81.8 144.4 81.5 144.3 81.4 144.1C77.2 138.5 72.9 115.9 72.7 114.9C72.6 114.5 72.9 114 73.3 114C73.7 113.9 74.2 114.2 74.2 114.6C74.2 114.8 78.6 137.8 82.6 143.1C82.9 143.5 82.8 144 82.4 144.2C82.3 144.3 82.2 144.4 82 144.4Z" fill="#000072"/>
<path d="M96.2 148.1C96.2 145.6 94.2 143.5 91.6 143.5C91.5 143.5 91.4 143.5 91.2 143.5C91.4 143 91.6 142.4 91.6 141.7C91.6 139.2 89.6 137.1 87 137.1C85.2 137.1 83.7 138.1 82.9 139.6C81.7 138 79 137.1 76.2 137.7C73.7 138.2 71.7 139.5 70.9 141.2C70.4 141 69.8 140.9 69.2 140.9C66.7 140.9 64.6 142.9 64.6 145.5C64.6 146.1 64.7 146.7 65 147.3C62.6 147.5 60.7 149.4 60.7 151.9C60.7 154.4 62.7 156.5 65.3 156.5C65.4 156.5 65.6 156.5 65.7 156.5C65.4 157.1 65.3 157.7 65.3 158.4C65.3 160.9 67.3 163 69.9 163C71.5 163 73 162.1 73.8 160.8C75.2 162.2 77.8 162.9 80.5 162.4C83.6 161.8 86 159.9 86.5 157.7C87.3 158.7 88.6 159.3 90 159.3C92.5 159.3 94.6 157.3 94.6 154.7C94.6 153.8 94.3 152.9 93.9 152.2C95.2 151.4 96.2 149.9 96.2 148.1Z" fill="#76DB46"/>
<g opacity="0.6">
<path d="M87 137.2C85.2 137.2 83.7 138.2 82.9 139.7C81.7 138.1 79 137.2 76.2 137.8C73.7 138.3 71.7 139.6 70.9 141.3C70.3 141.1 69.6 140.9 68.9 141C66.9 141.1 65.1 142.6 64.7 144.6C64.6 145.3 64.6 146 64.7 146.6C65.1 144.8 67.3 143.8 70 144.2C70.6 144.3 71.2 144 71.6 143.5C72.6 142.1 74.2 140.8 76.3 140.4C78.4 140 80.3 140.7 81.7 141.7C82.4 142.2 83.4 142.2 84 141.5C84.8 140.5 86 139.8 87.6 139.7C89.8 139.6 91 140.8 91.4 142.8C91.5 142.5 91.5 142.1 91.5 141.8C91.6 139.3 89.6 137.2 87 137.2Z" fill="white"/>
</g>
<g opacity="0.2">
<path d="M94.3 153.5C93.6 154 92.6 154.3 91.7 154.3C91 154.3 90.4 154.2 89.9 153.9C89 153.5 88 153.8 87.4 154.5C86.3 155.9 84.5 157 82.3 157.4C80.3 157.8 78.3 157.5 76.9 156.7C76.2 156.3 75.2 156.4 74.6 156.9C73.8 157.5 72.8 157.9 71.8 157.9C69.8 157.9 67.8 156.6 67.5 153.8C67.4 152.8 66.6 152 65.6 151.9C63.9 151.7 62.2 150.5 62.8 148.1C61.6 148.9 60.9 150.3 60.9 151.8C60.9 154.3 62.9 156.4 65.5 156.4C65.6 156.4 65.8 156.4 65.9 156.4C65.6 157 65.5 157.6 65.5 158.3C65.5 160.8 67.5 162.9 70.1 162.9C71.7 162.9 73.2 162 74 160.7C75.4 162.1 78 162.8 80.7 162.3C83.8 161.7 86.2 159.8 86.7 157.6C87.6 158.7 89 159.3 90.5 159.2C92.5 159.1 94.3 157.5 94.7 155.5C94.5 154.8 94.5 154.1 94.3 153.5Z" fill="#300063"/>
</g>
<path d="M69.8 163.7C66.8 163.7 64.4 161.3 64.4 158.3C64.4 157.9 64.4 157.5 64.5 157.2C61.9 156.9 59.8 154.6 59.8 151.9C59.8 149.4 61.5 147.3 63.8 146.7C63.7 146.3 63.7 146 63.7 145.6C63.7 142.6 66.1 140.2 69.1 140.2C69.6 140.2 70 140.3 70.5 140.4C71.6 138.8 73.7 137.5 76 137.1C78.6 136.6 81.2 137.2 82.7 138.5C83.7 137.2 85.2 136.5 86.9 136.5C89.9 136.5 92.3 138.9 92.3 141.9C92.3 142.2 92.3 142.6 92.2 142.9C94.8 143.2 96.9 145.5 96.9 148.2C96.9 149.9 96.1 151.5 94.7 152.5C95 153.2 95.2 153.9 95.2 154.7C95.2 157.7 92.8 160.1 89.8 160.1C88.7 160.1 87.6 159.7 86.7 159.1C85.7 161.1 83.4 162.7 80.5 163.2C78 163.7 75.5 163.2 73.8 161.9C72.8 163 71.4 163.7 69.8 163.7ZM65.7 155.6C66 155.6 66.2 155.7 66.4 155.9C66.6 156.1 66.6 156.4 66.5 156.7C66.3 157.2 66.2 157.7 66.2 158.3C66.2 160.4 67.9 162.1 70 162.1C71.3 162.1 72.5 161.4 73.2 160.3C73.3 160.1 73.5 160 73.8 159.9C74 159.9 74.3 160 74.5 160.1C75.8 161.4 78.1 162 80.5 161.5C83.2 161 85.4 159.3 85.8 157.4C85.9 157.1 86.1 156.9 86.4 156.8C86.7 156.7 87 156.8 87.2 157.1C87.9 157.9 89 158.4 90.1 158.4C92.2 158.4 93.9 156.7 93.9 154.6C93.9 153.9 93.7 153.2 93.3 152.6C93.2 152.4 93.1 152.2 93.2 152C93.3 151.8 93.4 151.6 93.6 151.5C94.9 150.8 95.6 149.6 95.6 148.2C95.6 146.1 93.9 144.4 91.8 144.4C91.7 144.4 91.6 144.4 91.5 144.4C91.2 144.4 91 144.3 90.8 144.1C90.6 143.9 90.6 143.6 90.7 143.3C90.9 142.8 91 142.3 91 141.8C91 139.7 89.3 138 87.2 138C85.8 138 84.5 138.8 83.8 140.1C83.7 140.3 83.4 140.5 83.2 140.5C82.9 140.5 82.7 140.4 82.5 140.2C81.5 138.8 79 138.1 76.6 138.6C74.4 139 72.6 140.2 71.8 141.6C71.6 142 71.2 142.1 70.8 142C70.3 141.8 69.9 141.7 69.4 141.7C67.3 141.7 65.6 143.4 65.6 145.5C65.6 146 65.7 146.5 65.9 147C66 147.2 66 147.5 65.8 147.7C65.7 147.9 65.4 148.1 65.2 148.1C63.2 148.2 61.7 149.9 61.7 151.9C61.7 154 63.4 155.7 65.5 155.7C65.4 155.6 65.5 155.6 65.7 155.6Z" fill="#000072"/>
<path d="M45 37.4L29.9 39C28.6 34.9 28 31.1 27.7 27.6C27.7 26.8 27.6 26.1 27.6 25.4C27.4 13.4 32.3 5.3 34.8 1.9C35.3 1.2 36.2 0.900011 36.9 1.10001C37.3 1.20001 37.6 1.40001 37.9 1.60001C44.3 7.90001 46.3 15.8 46.6 22.5C47.1 30.9 45 37.4 45 37.4Z" fill="white"/>
<path d="M29.9 39.9C29.6 39.9 29.2 39.7 29.1 39.3C23 19.6 30.6 6.3 34.2 1.5C34.7 0.799998 35.5 0.399992 36.3 0.399992C37.1 0.299992 38 0.60001 38.6 1.20001C44.6 7.10001 47.7 15.3 47.6 24.9C47.6 32.1 45.8 37.5 45.7 37.7C45.6 38 45.3 38.2 45 38.2L29.9 39.9ZM36.5 1.89999C36 1.89999 35.7 2.09999 35.5 2.39999C32.1 6.89999 24.9 19.5 30.4 38.1L44.3 36.6C44.7 35.1 45.9 30.5 45.9 24.7C45.9 18.3 44.5 9.30001 37.3 2.20001C37.2 2.10001 36.9 1.89999 36.5 1.89999Z" fill="#000072"/>
<g opacity="0.2">
<path d="M46.8 22.7C38.1 21.8 31.3 25.3 27.8 27.7C27.8 26.9 27.7 26.2 27.7 25.5C36.8 19.1 37.4 7.09999 37.1 1.29999C37.5 1.39999 37.8 1.59999 38.1 1.79999C44.4 8.09999 46.4 15.9 46.8 22.7Z" fill="#000072"/>
</g>
<path d="M72.9 120.3C54 124.2 37.3 103.4 33.3 71C29.6 40.7 37.3 7.7 45.2 2.2C45.7 1.8 46.3 1.59999 46.8 1.49999C55.8 -0.400014 77.8 31.9 86.2 60.3C87.2 63.6 88 66.9 88.5 70.1C93.2 96.4 91.8 116.4 72.9 120.3Z" fill="#FF903E"/>
<g opacity="0.6">
<path d="M87 110.2C89 104.6 89.2 96.4 88.6 88.2C88.5 87.1 87.4 86.4 86.4 86.8C81.5 88.8 70 92.9 58.6 92C58.6 92 78.6 88.9 88.3 83.4C87.9 80.2 87.4 76.9 86.8 73.5C86.2 70.3 85.4 67.1 84.5 63.7C84.2 62.8 83.8 61.6 83.4 60.4C82.6 58.1 80 56.9 77.7 57.8C71.3 60.4 60.1 64.3 48.8 62.6C48.8 62.6 66.8 61.1 81 53.6C76.4 41.8 70 30.1 63.7 21.1C62.1 18.8 59.3 17.6 56.5 18.1C52.1 18.9 45.9 19.4 40.2 17.5C40.2 17.5 51.8 17.3 58.3 14C53 7.79999 48.2 4.19998 45 4.89998C44.5 4.99998 43.9 5.29999 43.4 5.59999C41.9 6.69999 40.4 8.69999 39 11.5C40.9 6.69999 42.9 3.39998 45 1.89998C45.5 1.49998 46.1 1.3 46.6 1.2C55.6 -0.700002 77.6 31.6 86 60C87 63.3 87.8 66.6 88.3 69.8C91.5 86.8 92 101.1 87 110.2Z" fill="white"/>
</g>
<path d="M68.4 121.5C63.4 121.5 58.5 119.9 54.1 116.6C48.7 112.7 43.9 106.6 40.2 98.9C36.4 90.9 33.8 81.5 32.5 71C30.7 56.2 31.5 39.2 34.6 24.5C37.6 10.5 42.1 1.60001 46.6 0.600009C48.3 0.200009 50.4 0.900003 52.7 2.5C65 10.8 84.6 44.1 89.2 69.8C91.9 84.8 92.2 95.6 90.2 103.8C87.8 113.5 82.2 119.2 72.9 121.1C71.5 121.4 70 121.5 68.4 121.5ZM47 2.20002C43.3 3.00002 39 12.1 36.2 24.9C33.1 39.5 32.3 56.2 34.1 70.9C36.6 91.5 44.3 107.7 55 115.4C60.5 119.3 66.6 120.8 72.7 119.5C81.3 117.7 86.5 112.5 88.7 103.4C90.6 95.6 90.3 84.7 87.7 70.1C85.6 58.5 80.1 44 72.5 30.4C65.5 17.9 57.6 7.69999 51.9 3.79999C49.9 2.49999 48.2 2.00002 47 2.20002Z" fill="#000072"/>
<path d="M37.2 18.5C37.1 18.5 37 18.5 37 18.5C36.6 18.4 36.3 17.9 36.5 17.5C36.7 16.9 37.1 16.9 38.1 16.9C48.1 16.9 55.9 15.2 61.1 11.7C61.5 11.5 62 11.6 62.2 11.9C62.4 12.3 62.3 12.8 62 13C56.5 16.6 48.4 18.4 38.1 18.4C37.8 18.4 37.5 18.4 37.4 18.4C37.3 18.5 37.3 18.5 37.2 18.5ZM38 17.9C38 18 37.9 18.2 37.8 18.3C37.8 18.2 37.9 18.1 38 17.9Z" fill="#000072"/>
<path d="M44.9 63.5C40.6 63.5 36.3 63 32.2 61.8C31.8 61.7 31.5 61.2 31.7 60.8C31.8 60.4 32.3 60.1 32.7 60.3C44.2 63.7 57.3 61.2 66.2 58.5C76 55.6 83.1 51.8 83.2 51.8C83.6 51.6 84.1 51.7 84.3 52.1C84.5 52.5 84.4 53 84 53.2C83.9 53.2 76.7 57.1 66.8 60.1C60.8 61.8 52.9 63.5 44.9 63.5Z" fill="#000072"/>
<path d="M52.1 92.9C47.4 92.9 42.5 92.5 37.5 91.3C37.1 91.2 36.8 90.8 36.9 90.3C37 89.9 37.4 89.6 37.9 89.7C52.1 92.9 65.5 90.5 74.2 88C83.7 85.3 89.8 81.8 89.9 81.7C90.3 81.5 90.8 81.6 91 82C91.2 82.4 91.1 82.9 90.7 83.1C90.4 83.2 84.3 86.7 74.6 89.5C68.8 91.3 60.9 92.9 52.1 92.9Z" fill="#000072"/>
<path d="M61.2 113C57.2 113 52.9 112.5 48.2 111.2C47.8 111.1 47.5 110.6 47.6 110.2C47.7 109.8 48.2 109.5 48.6 109.6C61 113.1 71.4 110.7 77.9 108.1C85 105.2 89.2 101.5 89.2 101.5C89.5 101.2 90 101.2 90.3 101.6C90.6 101.9 90.6 102.4 90.2 102.7C90 102.9 85.8 106.6 78.5 109.6C74.4 111.3 68.4 113 61.2 113Z" fill="#000072"/>
<g opacity="0.2">
<path d="M72.7 120.3C53.8 124.2 37.1 103.4 33.1 71C29.4 40.7 37.1 7.70001 45 2.20001C44.7 7.10001 44.4 16.2 44.9 27.1C45.1 31.5 45.8 35.8 47.2 40C48.6 44.4 50.9 49.1 54.5 52.5C63.2 60.6 78.8 54.7 79.3 54.5C78.8 54.7 63.8 62.3 49 62.9C49 62.9 49.2 65.5 50.4 68.9C53.2 77 61.3 89.8 84.4 85.4C84.4 85.4 73.9 90.7 59.2 92C65.4 103.2 72.4 107.6 77.6 106.6C85.8 105 89.8 81.5 86 60.3C87 63.6 87.8 66.9 88.3 70.1C93.1 96.4 91.6 116.5 72.7 120.3Z" fill="#000072"/>
</g>
<g opacity="0.2">
<path d="M50.6 68.8C49.4 65.4 49.2 62.8 49.2 62.8C49.3 63.4 49.5 64 49.6 64.7C49.9 66.1 50.3 67.5 50.6 68.8Z" fill="#300063"/>
</g>
<path d="M73.1 118.6C72.9 122.6 70.1 132.3 64.4 132.3C58.7 132.3 59.8 123 59.8 123C59.8 123 47.7 121 46.2 107.8C46.3 110.8 46.1 117.6 40.9 120.1C34.2 123.3 25.3 123.8 24.3 118.9C24.2 118.6 24.2 118.4 24.2 118.1C24.2 115.8 26.6 115.1 28.4 114.9C29.5 114.8 30.5 114.8 30.5 114.8C30.3 114.7 22.4 112.1 21.3 104.1C21 101.8 21.4 100 22.1 98.5C23.1 96.3 24.9 94.9 26.1 94.1C27 93.6 27.6 93.3 27.6 93.3C27.6 93.3 23.7 87.2 23.6 79.8C23.6 79.8 11.9 74.1 7.7 64.5C7.7 64.5 4.9 66.7 2 63.3C0.299998 61.3 0.399997 57.8 2.1 55.2C3.3 53.3 5.4 52 8.3 51.9C9.1 51.9 10.1 52 11.2 52.3C14.8 53.1 19.8 54.9 24.4 56.8L24.6 56.9L25.7 57.4L26.5 57.7C32.1 60.1 36.6 62.3 36.6 62.3C40.6 63.8 45.2 65.8 49.6 68.3C54.1 70.8 58.4 74 61.8 77.7C63.7 79.9 65.4 82.3 66.5 84.9C67.2 86.5 67.7 88.3 68 90.1C68.6 93.9 68.9 96.8 69 98.9C69.3 105.1 68.2 105.6 69.4 109.1C71.1 114 73.3 114.6 73.1 118.6Z" fill="white"/>
<g opacity="0.2">
<path d="M69.1 99.1C69 99.1 69 99.1 69.1 99.1C64.6 97.5 66.5 91.4 66.5 91.4C66.5 91.4 59.9 86.6 59.9 82.1C59.9 80.2 60.8 78.8 61.8 77.9C58.4 74.1 54.1 71 49.6 68.5C45.2 66 40.6 64 36.6 62.5C36.6 62.5 32.1 60.3 26.5 57.9L25.7 57.6L24.6 57.1L24.4 57C19.8 55.1 14.9 53.3 11.2 52.5C11.2 52.5 9.50001 61.1 5.50001 60.3C3.30001 59.8 2.40001 57.5 2.10001 55.5C0.400009 58.1 0.40001 61.6 2.00001 63.6C4.80001 67 7.70001 64.8 7.70001 64.8C11.9 74.5 23.6 80.1 23.6 80.1C23.6 87.6 27.6 93.6 27.6 93.6C27.6 93.6 27 93.8 26.1 94.4C26.1 94.4 30.7 103.4 35.7 106.6C40.7 109.8 42.7 115.7 36.1 118.1C29.5 120.5 24.2 118.4 24.2 118.4C24.2 118.6 24.2 118.9 24.3 119.2C25.3 124.1 34.2 123.6 40.9 120.4C44.7 118.6 45.9 114.4 46.2 111.2C45.9 107 46.5 101.4 50.7 98.9C57.3 95 57.2 108.6 69.2 108C68.6 105.5 69.3 104.3 69.1 99.1ZM45.9 98.8C45.7 99.3 45.2 99.5 44.7 99.5C42.3 99.2 35 97.6 29.3 90.6C28.6 89.7 29.5 88.4 30.6 88.9C34 90.2 39.4 91.9 45.2 91.5C45.8 91.5 46.3 91.8 46.4 92.4C46.6 93.8 46.9 96.5 45.9 98.8Z" fill="#000072"/>
</g>
<path d="M64.4 133.1C63 133.1 61.8 132.6 60.8 131.6C58.8 129.4 58.8 125.3 58.9 123.7C57.7 123.4 55.3 122.6 52.7 120.9C50.6 119.4 48.1 117 46.6 113.1C46 116.1 44.5 119.3 41.2 121C35.7 123.6 29.6 124.3 26.2 122.6C24.7 121.9 23.8 120.7 23.5 119.2C23.2 117.6 23.7 116.6 24.2 116C25 115.1 26.2 114.6 27.4 114.4C24.8 112.8 21.2 109.8 20.5 104.4C19.6 97.5 24.4 94.3 26.4 93.2C25.4 91.3 22.9 86.4 22.8 80.5C20.6 79.4 11.4 74.2 7.3 65.8C5.9 66.4 3.5 66.6 1.4 64C-0.200003 62 -0.500003 58.7 0.799997 56C2.2 53.1 4.9 51.3 8.3 51.3H8.4C11.4 51.3 16.9 52.9 24.7 56.2L26.9 57.1C26.9 57.1 26.9 57.1 27 57.1C32.2 59.3 36.6 61.5 37 61.7C42 63.6 46.3 65.6 50.1 67.7C58.8 72.6 64.6 78.4 67.3 84.8C68.1 86.5 68.6 88.4 68.9 90.2C70.3 98.9 70 102.4 69.8 104.7C69.7 106.3 69.6 107.2 70.2 109.1C70.8 110.9 71.5 112.1 72.2 113.1C73.2 114.7 74 116 73.9 118.7C73.8 120.8 73 124.4 71.5 127.4C69.6 131.1 67.2 133.1 64.4 133.1ZM46.9 107.9C48.4 120.3 59.7 122.3 59.8 122.3C60.2 122.4 60.5 122.8 60.5 123.2C60.5 123.3 60 128.4 62 130.6C62.6 131.3 63.4 131.6 64.4 131.6C69.5 131.6 72.1 122.3 72.3 118.6C72.4 116.5 71.8 115.4 70.8 113.9C70.2 112.9 69.3 111.6 68.7 109.6C68 107.5 68 106.3 68.2 104.6C68.4 102.4 68.6 99 67.3 90.5C67 88.8 66.5 87.1 65.8 85.5C63.2 79.4 57.6 73.9 49.3 69.2C45.6 67.1 41.4 65.1 36.4 63.3C36.4 63.3 36.4 63.3 36.3 63.3C36.3 63.3 31.7 61.1 26.3 58.7C26.3 58.7 26.3 58.7 26.2 58.7L24.1 57.8C16.4 54.6 11 53 8.3 53C5.6 53 3.4 54.4 2.3 56.8C1.3 59 1.4 61.6 2.7 63.1C4.9 65.8 7 64.4 7.2 64.2C7.4 64.1 7.7 64 7.9 64.1C8.1 64.2 8.3 64.3 8.4 64.6C12.5 73.9 23.8 79.5 23.9 79.6C24.2 79.7 24.4 80 24.4 80.3C24.4 87.4 28.2 93.3 28.2 93.4C28.3 93.6 28.4 93.9 28.3 94.1C28.2 94.3 28 94.5 27.8 94.6C27.5 94.7 21.1 97.1 22 104.4C23 111.9 30.6 114.4 30.6 114.4C31 114.5 31.2 114.9 31.1 115.3C31 115.7 30.7 116 30.3 115.9C29.3 115.8 26.4 115.9 25.3 117.2C24.9 117.7 24.8 118.2 24.9 119C25.1 120 25.7 120.7 26.7 121.3C29.6 122.8 35.3 122.1 40.3 119.7C45.1 117.4 45.3 110.9 45.2 108.1C45.2 107.7 45.1 107.2 45.1 106.8C45.1 106.4 45.4 106 45.8 106C46.2 106 46.6 106.3 46.7 106.7C46.8 106.5 46.9 107 46.9 107.9Z" fill="#000072"/>
<path d="M7.2 64C8.7 63.1 10.2 61.9 11.3 60.5C11.6 60.2 12.1 60.5 11.9 60.9C11.2 62.2 10.3 63.3 9.2 64.4C8.8 64.7 8.5 65.1 8.1 65.4C7.2 66 6.2 64.6 7.2 64Z" fill="#000072"/>
<path d="M28.2 93.1C32.5 99.2 38.9 103.9 46.2 105.7L45.2 106.3C45.4 105.7 45.6 105.1 45.8 104.5C46.2 103.3 46.8 102.2 47.5 101.2C47.9 100.7 48.3 100.2 48.7 99.8C48.8 99.7 49.1 99.7 49.2 99.8C49.3 99.9 49.3 100.1 49.2 100.3C48.5 101.2 48 102.2 47.6 103.3C47.2 104.4 47 105.5 46.8 106.7C46.7 107.2 46.3 107.5 45.8 107.3C43.9 106.8 42 106.2 40.2 105.4C36.6 103.7 33.4 101.4 30.6 98.6C29.6 97.6 28.6 96.5 27.7 95.3C27.4 94.9 27.1 94.5 26.8 94.1C26.6 93.7 26.7 93.2 27 93C27.5 92.6 28 92.8 28.2 93.1Z" fill="#000072"/>
<path d="M66.5 85.1C65.5 87.3 63.8 89.3 60.9 90.8C53.3 94.8 46.9 88.1 46.9 88.1C46.9 88.1 32.9 88.1 24.1 84.4L23.7 80C23.7 80 22.8 65.7 24.5 56.9L24.7 57L25.8 57.5L26.6 57.8C26.6 58.1 27.3 75.9 28.1 80C28.1 80 38.5 82.2 44.2 82.4C44.2 82.4 41.1 72.8 49.7 68.4C56.7 72.5 63.4 77.9 66.5 85.1Z" fill="#66ADFF"/>
<path d="M55.9 92.9C51.2 92.9 47.5 89.8 46.5 88.9C44.3 88.9 31.9 88.6 23.7 85.2C23.4 85.1 23.2 84.8 23.2 84.5L22.8 80.1C22.8 79.5 21.9 65.6 23.6 56.8C23.6 56.6 23.8 56.4 24 56.2C24.2 56.1 24.5 56.1 24.7 56.2L26.9 57.1C27.2 57.2 27.4 57.5 27.4 57.8C27.4 58.3 28.1 74.5 28.8 79.3C30.9 79.7 38.3 81.1 43.2 81.5C42.6 78.7 42 71.4 49.4 67.6C49.6 67.5 49.9 67.5 50.2 67.6C58.9 72.5 64.7 78.3 67.4 84.7C67.5 84.9 67.5 85.1 67.4 85.3C66.2 87.8 64.2 89.9 61.4 91.4C59.4 92.5 57.6 92.9 55.9 92.9ZM24.8 83.9C33.3 87.3 46.7 87.3 46.8 87.3C47 87.3 47.2 87.4 47.4 87.5C47.6 87.8 53.5 93.7 60.5 90C62.9 88.7 64.6 87.1 65.6 85C63 79.2 57.6 73.9 49.6 69.2C42.2 73.3 44.8 81.7 44.9 82.1C45 82.4 44.9 82.6 44.8 82.8C44.6 83 44.4 83.1 44.1 83.1C38.5 82.8 28.3 80.8 27.9 80.7C27.6 80.6 27.3 80.4 27.3 80.1C26.6 76.3 26 61.3 25.8 58.3L25 58C23.6 66.5 24.4 79.4 24.4 79.9L24.8 83.9Z" fill="#000072"/>
<path d="M46.8 88.9C46.5 88.9 46.3 88.8 46.1 88.5C44 85.2 43.3 82.7 43.3 82.6C43.2 82.2 43.4 81.7 43.9 81.6C44.3 81.5 44.8 81.7 44.9 82.2C44.9 82.2 45.6 84.6 47.5 87.6C47.7 88 47.6 88.5 47.2 88.7C47.1 88.9 47 88.9 46.8 88.9Z" fill="#000072"/>
<path d="M24 85.2C23.8 85.2 23.6 85.1 23.5 85C23.2 84.7 23.2 84.2 23.4 83.9L27.4 79.5C27.7 79.2 28.2 79.1 28.5 79.4C28.8 79.7 28.8 80.2 28.6 80.5L24.6 84.9C24.5 85.1 24.3 85.2 24 85.2Z" fill="#000072"/>
<path d="M69 103.6C61.2 102.8 62.4 96.1 62.4 96.1C60.7 93.2 57.6 91.4 51.9 85.5C46.2 79.6 48.1 72.2 52.9 71C56.1 70.2 59.6 71.8 62.9 74.4C68.1 78.5 72.7 85.2 74.7 88.7C75.6 90.4 76.2 92.4 76.3 94.4C76.8 99.4 74.6 104.2 69 103.6Z" fill="white"/>
<path d="M69.9 104.6C69.6 104.6 69.2 104.6 68.9 104.5C66.2 104.2 64.2 103.2 62.9 101.5C61.4 99.5 61.5 97.2 61.6 96.4C60.7 94.9 59.3 93.7 57.3 91.9C55.7 90.5 53.8 88.7 51.3 86.2C48.2 83 46.9 78.9 47.9 75.3C48.6 72.8 50.4 70.9 52.7 70.4C61.8 68.1 72.4 83.1 75.4 88.6C77.7 92.7 77.8 98.4 75.6 101.7C74.7 103 73 104.6 69.9 104.6ZM53.2 71.9C51.5 72.3 50.1 73.7 49.6 75.7C48.7 78.7 49.9 82.3 52.6 85.1C55 87.6 56.9 89.3 58.5 90.7C60.6 92.6 62.2 94 63.2 95.8C63.3 96 63.3 96.2 63.3 96.4C63.3 96.4 62.9 98.8 64.3 100.6C65.3 101.9 66.9 102.7 69.2 102.9C71.5 103.1 73.3 102.4 74.4 100.7C76.2 97.9 76.1 92.9 74.2 89.3C72.6 86.3 69.3 81.5 65.3 77.6C62 74.4 57.3 70.9 53.2 71.9Z" fill="#000072"/>
<path d="M61.7 96.2C62 94.8 62.8 93.5 64 92.6C64.4 92.3 64.8 92.1 65.2 91.9C65.4 91.8 65.6 91.9 65.7 92C65.8 92.2 65.7 92.4 65.6 92.5C64.4 93.4 63.5 94.8 63.4 96.4C63.3 97.6 61.4 97.5 61.7 96.2Z" fill="#000072"/>
<g opacity="0.2">
<path d="M69 103.6C61.2 102.8 62.4 96.1 62.4 96.1C60.7 93.2 57.6 91.4 51.9 85.5C46.2 79.6 48.1 72.2 52.9 71C56.1 70.2 59.6 71.8 62.9 74.4C62.8 74.5 62.7 74.6 62.6 74.6C59 77.3 58.4 82.5 61.4 85.8C62.4 87 63.6 88.2 64.9 89.3C66.1 90.3 66.7 91.9 66.4 93.5C66.1 95.4 66.3 97.9 68.9 98.9C73.3 100.7 75.8 96.9 76.3 94.3C76.8 99.4 74.6 104.2 69 103.6Z" fill="#300063"/>
</g>
<g opacity="0.2">
<path d="M73.1 118.6C72.9 122.6 70.1 132.3 64.4 132.3C58.7 132.3 59.8 123 59.8 123C59.8 123 49.1 121.6 46.9 111.3C46 107.1 47.6 102.1 47.6 102.1C48.6 113.2 54.6 117.3 57.7 117.8C60.9 118.3 63.5 120.8 64.3 124C64.7 125.4 65.4 126.4 66.6 126C68.7 125.3 70.4 118.1 71.3 112.9C72.3 114.8 73.2 115.9 73.1 118.6Z" fill="#000072"/>
</g>
<path d="M94.9 28.6C94.9 28.6 90.9 30.6 89.4 32.8C88 35 76.1 39.9 65.4 37.4C65.4 37.4 72.9 54.2 67.6 65.7C62.4 77.2 43.2 76.6 28.8 70.7C17.3 66 9.99998 57 12.6 46.8C13.2 44.3 14.5 41.8 16.3 39.2C20.1 34.1 23.9 30.5 27.1 27.9C33.4 23 41.6 21 49.4 22.9C51.9 23.5 54.4 24.4 56.9 25.9C56.9 25.9 79.4 15.4 93.9 27.7C94.3 28 94.6 28.3 94.9 28.6Z" fill="white"/>
<path d="M48.7 75.7C42.3 75.7 35.1 74.2 28.5 71.5C19.8 67.9 13.7 62.1 11.8 55.4C10.3 50 11.6 44.2 15.6 38.8C18.9 34.3 22.6 30.5 26.5 27.4C33.1 22.2 41.4 20.3 49.4 22.2C52.1 22.8 54.5 23.8 56.8 25.1C58.2 24.5 63.5 22.3 70.2 21.4C80.5 20 89.2 22.3 95.3 28C95.5 28.2 95.6 28.4 95.5 28.7C95.4 29 95.3 29.2 95.1 29.3C95.1 29.3 91.2 31.2 90 33.3C88.6 35.5 80.3 39 71.5 39C69.9 39 68.2 38.9 66.6 38.6C68.3 42.9 72.7 56.2 68.2 66.1C65.7 71.7 59.9 75 51.6 75.6C50.7 75.6 49.7 75.7 48.7 75.7ZM43.5 23.1C37.8 23.1 32.3 25 27.6 28.7C23.8 31.7 20.2 35.5 17 39.8C13.3 44.8 12.1 50.1 13.4 55C15.1 61.2 20.9 66.7 29.1 70C43.9 76 62 75.9 66.8 65.4C71.8 54.4 64.6 38 64.6 37.8C64.5 37.5 64.5 37.2 64.7 37C64.9 36.8 65.2 36.7 65.5 36.7C75.7 39 87.4 34.4 88.7 32.4C89.8 30.7 92.1 29.2 93.4 28.4C87.6 23.5 79.9 21.7 70.5 23C63 24 57.3 26.7 57.2 26.7C57 26.8 56.7 26.8 56.5 26.7C54.3 25.4 51.8 24.4 49.2 23.8C47.3 23.3 45.4 23.1 43.5 23.1Z" fill="#000072"/>
<path d="M65.4 38.3C65.1 38.3 64.8 38.1 64.7 37.8C64.1 36.6 63.5 35.5 62.9 34.4C62.2 33.3 61.5 32.2 60.8 31.2C58.4 28 56.5 26.6 56.5 26.6C56.1 26.3 56.1 25.8 56.3 25.5C56.6 25.1 57.1 25.1 57.4 25.3C57.5 25.4 59.5 26.9 62 30.3C62.8 31.3 63.5 32.5 64.2 33.6C64.9 34.7 65.5 35.9 66.1 37.1C66.3 37.5 66.1 38 65.7 38.2C65.6 38.2 65.5 38.3 65.4 38.3Z" fill="#000072"/>
<path d="M88.5 29.3C88.5 29.3 76.6 35.8 63.5 34C62.8 32.8 62 31.7 61.3 30.7C67.3 28.8 78.2 26.3 88.5 29.3Z" fill="#FF9EDA"/>
<g opacity="0.2">
<path d="M83.5 28.2C79 30 70.8 32.5 62 31.4C61.9 31.2 61.7 30.9 61.6 30.7C66.5 29.1 74.9 27.1 83.5 28.2Z" fill="#000072"/>
</g>
<path d="M68.1 35.1C66.6 35.1 65 35 63.4 34.8C63.2 34.8 62.9 34.6 62.8 34.4C62.1 33.3 61.4 32.2 60.7 31.2C60.5 31 60.5 30.7 60.6 30.5C60.7 30.3 60.9 30.1 61.1 30C66.9 28.1 78.1 25.5 88.7 28.5C89 28.6 89.2 28.9 89.3 29.2C89.3 29.5 89.2 29.8 88.9 30C88.5 30.2 79.3 35.1 68.1 35.1ZM64 33.3C73.5 34.4 82.3 31.2 86.1 29.6C77.2 27.7 68 29.6 62.6 31.3C63.1 31.9 63.6 32.5 64 33.3Z" fill="#000072"/>
<path d="M54.9 55.3C54.8 54 54.4 52.8 53.7 51.9C52.3 50 49.5 49.9 47.6 51.1C46.6 51.7 45.6 52.5 44.8 53.4L44.1 52.1C46.8 52.1 49.8 53 51.5 55.1C51.6 55.2 51.6 55.4 51.5 55.5C51.4 55.6 51.2 55.6 51.1 55.5C50.6 55.1 50.1 54.7 49.6 54.4C48.2 53.7 46.7 53.5 45.1 53.5C44.8 53.5 44.5 53.5 44.2 53.6C43.8 53.7 43.4 53.4 43.3 53C43.2 52.6 43.6 52.2 43.8 51.9C45.1 50.4 46.7 49.1 48.7 48.7C50.9 48.2 53.6 49.1 54.7 51.1C55.1 51.8 55.3 52.5 55.4 53.2C55.5 53.9 55.5 54.6 55.3 55.3C55.3 55.4 55.1 55.5 55 55.5C54.9 55.5 54.9 55.4 54.9 55.3Z" fill="#000072"/>
<path d="M21 42.5C22.3 40.5 25 40.2 26.6 41.9C28 43.3 28.2 45.5 27.8 47.3C27.6 48 26.7 48.1 26.4 47.5C25.6 46.2 24.4 45.1 22.8 44.9C22.6 44.9 22.5 44.7 22.5 44.6C22.5 44.5 22.6 44.4 22.8 44.4C23.3 44.4 23.7 44.4 24.2 44.5C25.4 44.8 26.5 45.5 27.4 46.4C27.5 46.5 27.6 46.6 27.7 46.7L26.3 47C26.4 46.3 26.4 45.5 26.3 44.8C26.1 43.8 25.5 42.9 24.6 42.5C23.6 42.1 22.5 42.5 21.5 43.1C21.2 43.1 20.9 42.8 21 42.5Z" fill="#000072"/>
<path d="M31 49.8C32.9 48.4 37.1 51.2 37.2 53C37.3 54.8 33.7 55.8 32.1 55.2C30.5 54.7 29.9 50.7 31 49.8Z" fill="#000072"/>
<path d="M41.2 58C40.9 59.7 39.5 60.8 37.8 61C36.3 61.2 34.6 61 33.3 60.1C32.4 59.5 31.7 58.7 31.2 57.8L32.2 58.1C31.8 58.3 31.3 58.4 30.8 58.5C29 58.8 27 57.8 26.2 56C25.6 54.7 25.7 53.2 26.2 52C26.4 51.6 27 51.8 27 52.2C27 53.3 27.1 54.5 27.6 55.5C28.4 56.8 30 57.2 31.4 56.8H31.5H32.1C32.4 56.8 32.5 57.1 32.6 57.3C32.8 57.5 33 57.8 33.2 58C34.5 59.4 36.8 59.8 38.6 59.2C39.3 59 39.8 58.5 40.3 57.8C40.7 57.3 41.3 57.5 41.2 58Z" fill="#000072"/>
<path d="M31.9 58.2C31.4 58.1 31.1 57.7 31.1 57.3C31.1 57.2 31.3 55.8 31.9 54.1C32.1 53.7 32.5 53.5 32.9 53.6C33.3 53.8 33.5 54.2 33.4 54.6C32.8 56.1 32.7 57.4 32.7 57.4C32.7 57.9 32.3 58.2 31.9 58.2Z" fill="#000072"/>
<path d="M36.7 60.2C36.6 60.5 36.4 60.8 36.2 61.2C35.2 63.1 33.6 65.3 31.3 64.6C31 64.5 30.7 64.4 30.5 64.2C28.7 62.9 28.2 59.4 28.1 57C29.9 58.4 32 57.5 32 57.5C32 57.5 33.4 60 36.3 60.3C36.4 60.2 36.5 60.2 36.7 60.2Z" fill="#000072"/>
<path d="M36.2 61.2C35.2 63.1 33.6 65.3 31.3 64.6C31 64.5 30.7 64.4 30.5 64.2C30.5 64 30.4 63.8 30.4 63.6C30.4 61.7 31.9 60.2 33.8 60.2C34.7 60.2 35.6 60.6 36.2 61.2Z" fill="#FF9EDA"/>
<path d="M32.1 65.5C31.7 65.5 31.4 65.4 31 65.3C30.6 65.2 30.3 65 30 64.8C27.9 63.3 27.4 59.7 27.2 56.9C27.2 56.6 27.4 56.3 27.6 56.2C27.9 56.1 28.2 56.1 28.5 56.3C29.9 57.4 31.6 56.7 31.6 56.7C32 56.5 32.4 56.7 32.6 57.1C32.6 57.2 33.8 59.2 36.3 59.5C36.4 59.5 36.6 59.5 36.7 59.5C37 59.5 37.2 59.7 37.3 59.9C37.4 60.1 37.5 60.4 37.4 60.6C37.2 61 37.1 61.3 36.9 61.6C35.6 64.1 33.9 65.5 32.1 65.5ZM28.9 58.3C29.2 61 29.9 62.8 30.9 63.5C31.1 63.6 31.3 63.7 31.5 63.8C33.2 64.3 34.6 62.5 35.4 60.9C33.4 60.5 32.1 59.2 31.6 58.4C31 58.5 30 58.6 28.9 58.3Z" fill="#000072"/>
<g opacity="0.2">
<path d="M94.9 28.6C94.9 28.6 90.9 30.6 89.4 32.8C88 35 76.1 39.9 65.4 37.4C65.4 37.4 72.9 54.2 67.6 65.7C62.4 77.2 43.2 76.6 28.8 70.7C17.3 66 9.99998 57 12.6 46.8C14 64.7 36.6 72.5 52.6 68.8C75 63.7 62.5 33.1 62.5 33.1C62.5 33.1 70.6 34.2 77.8 33.1C82.4 32.4 89.5 29.6 94 27.7C94.3 28 94.6 28.3 94.9 28.6Z" fill="#000072"/>
</g>
<path d="M30.4 114.9C30.4 114.9 29.5 115 28.3 115C29.5 114.8 30.4 114.9 30.4 114.9Z" fill="#300063"/>
<g opacity="0.6">
<path d="M81.2 147.3C81.2 147.5 81.2 147.7 81.1 147.9C80.8 146.4 79.5 145.3 77.9 145.3C76.3 145.3 75 146.4 74.7 147.9C74.7 147.7 74.6 147.5 74.6 147.3C74.6 145.5 76.1 144.1 77.8 144.1C79.7 144.1 81.2 145.5 81.2 147.3Z" fill="white"/>
</g>
<g opacity="0.6">
<path d="M72.4 150.8C72.4 150.9 72.4 151.1 72.4 151.2C72.2 150.2 71.3 149.5 70.3 149.5C69.3 149.5 68.4 150.2 68.2 151.2C68.2 151.1 68.2 150.9 68.2 150.8C68.2 149.6 69.2 148.6 70.4 148.6C71.4 148.6 72.4 149.6 72.4 150.8Z" fill="white"/>
</g>
<g opacity="0.6">
<path d="M89.8 148.9C89.8 149 89.8 149.2 89.8 149.3C89.6 148.3 88.7 147.6 87.7 147.6C86.7 147.6 85.8 148.3 85.6 149.3C85.6 149.2 85.6 149 85.6 148.9C85.6 147.7 86.6 146.7 87.8 146.7C88.9 146.7 89.8 147.7 89.8 148.9Z" fill="white"/>
</g>
<g opacity="0.6">
<path d="M83.3 152.7C83.3 152.8 83.3 153 83.3 153.1C83.1 152.1 82.2 151.4 81.2 151.4C80.2 151.4 79.3 152.1 79.1 153.1C79.1 153 79.1 152.8 79.1 152.7C79.1 151.5 80.1 150.5 81.3 150.5C82.4 150.6 83.3 151.6 83.3 152.7Z" fill="white"/>
</g>
</svg>
