<svg width="176" height="135" viewBox="0 0 176 135" fill="none" xmlns="http://www.w3.org/2000/svg">
<path d="M84.1 117L83.5 118.8L80.6 118.5C80.2 118.2 79.8 118 79.4 118C79.3 117.3 79.1 116.7 78.8 116.2C79.9 116.3 81.2 116.5 82.3 116.6C83.3 116.9 84.1 117 84.1 117Z" fill="#91BBF9"/>
<path d="M80.6 124C80.6 124 80.1 125.3 79.3 126.9C78.2 129 76.6 131.8 74.7 133C71.4 135.3 67.1 133.2 65.6 131.4C60.5 130.1 55.5 129.3 50.4 129.1C50.7 128.7 51 128.2 51.1 127.7C55.9 123.9 63.8 121.1 66 120.4C66.4 120.3 66.6 120.2 66.6 120.2L68.7 117.8C68.8 117.6 68.8 117.4 68.9 117.1C69.9 114.3 72.5 113.5 73.9 115.8C75.5 114.2 77.6 114.3 78.7 116.2C79 116.7 79.2 117.3 79.3 118C79.7 118 80.2 118.2 80.5 118.5C81.7 119.4 82.4 121.3 80.6 124Z" fill="white"/>
<path d="M79.4 126.9C78.3 129 76.7 131.8 74.8 133C71.5 135.3 67.2 133.2 65.7 131.4C60.6 130.1 55.6 129.3 50.5 129.1C50.8 128.7 51.1 128.2 51.2 127.7C56 123.9 63.9 121.1 66.1 120.4L66.5 121.4C66.5 121.4 61.8 123.3 61.7 124.8C61.6 126.3 65.3 125.9 65.3 125.9C65.3 125.9 65.2 129.5 69.7 131.3C74.2 133.1 79.1 126.6 79.1 126.6C79.1 126.6 79.1 126.7 79.4 126.9Z" fill="white"/>
<path d="M17 115.7C16.5 116.3 16.2 117 16 118.1C15.8 118.1 15.5 118.2 15.3 118.3C14 118.6 11.1 119.3 9.4 119.9L9 117.6C9 117.6 9.6 117.4 10.5 117.2C12.2 116.6 15.1 115.8 17 115.7Z" fill="#DD6B1F"/>
<path d="M44.4 129.1C39.5 129.3 34.6 130.1 29.7 131.3C28.1 133.1 23.9 135.2 20.6 132.9C20.5 132.8 20.3 132.7 20.2 132.6C17.1 130.1 14.8 123.9 14.8 123.9C12.7 120.8 14 118.7 15.4 118.1C15.8 118 16.1 117.9 16.1 117.9C16.3 116.9 16.6 116.1 17.1 115.5C18.2 114.2 20.1 114.2 21.5 115.7C22.6 113.9 24.4 114 25.6 115.5C26.1 116 26.4 116.8 26.7 117.7C27.5 118 28.2 118.4 29 118.8C34.2 121.2 38.9 124.1 43.4 127.2C43.6 128.1 43.9 128.7 44.4 129.1Z" fill="white"/>
<path d="M44.4 129.1C39.5 129.3 34.6 130.1 29.7 131.3C28.1 133.1 23.9 135.2 20.6 132.9C20.5 132.8 20.3 132.7 20.2 132.6C27.7 135.2 29.1 127.2 29.1 127.2C29.1 127.2 33.8 128.3 34.2 126.4C34.6 124.5 29.1 120.7 28.7 120.6L28.1 118.7C28.1 118.7 28.6 118.8 29 118.8C34.2 121.2 38.9 124.1 43.4 127.2C43.6 128.1 43.9 128.7 44.4 129.1Z" fill="white"/>
<path d="M46.2 121.9C44.2 119.6 42.1 117.8 39.9 116.4C35.7 111.5 29.1 109 20.8 108.3L18.7 105.7C19.7 105.7 20.7 105.8 21.7 105.9C24.8 106.2 27.7 106.9 30.4 107.9C37 110.2 42.4 114.8 46.2 121.9Z" fill="#EAEA4E"/>
<path d="M20.8 108.2C29.2 109 35.8 111.5 39.9 116.3C32.6 111.5 24.7 110.8 19.7 111L17 108C18.3 108 19.6 108.1 20.8 108.2Z" fill="#EAEA4E"/>
<path d="M47.3 123.1C47.3 123.1 46 124 45.2 125.6C45.1 125.5 45 125.3 44.9 125.2C35.8 117.2 25.7 115.8 25.5 115.7C24.3 114.2 22.5 114.1 21.4 115.9C20 114.4 18.1 114.4 17 115.7C15 115.8 12.2 116.6 10.4 117.1L14.7 111.6C14.7 111.6 15.4 111.5 16.6 111.3C17.4 111.2 18.4 111.1 19.7 111.1C24.7 110.9 32.6 111.6 39.9 116.4C42.1 117.8 44.2 119.6 46.2 121.9C46.6 122.3 46.9 122.7 47.3 123.1Z" fill="#EAEA4E"/>
<path d="M69 117.2C68.9 117.4 68.9 117.6 68.8 117.9L66.7 120.3C66.7 120.3 56.8 123.4 51.3 127.8C51.1 128.4 50.9 128.8 50.6 129.2C49.1 131.2 46.2 131 44.5 129.2C44 128.7 43.7 128.1 43.4 127.4C38.3 123.8 32.8 120.6 26.7 117.9C26.5 117 26.1 116.3 25.6 115.7C25.8 115.7 35.8 117.2 45 125.2C45.1 125.4 45.2 125.5 45.3 125.6C46.9 128 48.3 128.3 49.5 125.8C55 122 61.2 118.9 69 117.2Z" fill="#DD6B1F"/>
<path d="M47.3 123.1L49.4 125.7C48.2 128.2 46.8 128 45.2 125.5C46 124 47.3 123.1 47.3 123.1Z" fill="#73D30D"/>
<path d="M82.2 116.7C81.2 116.5 79.8 116.3 78.7 116.3C77.6 114.4 75.5 114.3 73.9 115.9C72.5 113.6 69.9 114.4 68.9 117.2C61.1 118.8 54.9 122 49.3 125.7L47.2 123.1C47.2 123.1 50.2 119.9 55.3 116.8C58.7 114.7 63.1 112.7 68 111.7C70.7 111.1 73.6 110.9 76.7 111.1C76.8 111.1 79.9 113.3 82.2 116.7Z" fill="#EAEA4E"/>
<path d="M68.1 111.7C66.8 112 65.5 112.3 64.3 112.7C60.9 113.8 57.8 115.3 55.3 116.8L55.2 116.6L56.8 114.3L59.3 110.8L59.4 110.7L59.8 109.3C61 109.9 62.4 110.2 63.2 110.2C63.3 110.2 63.4 110.2 63.5 110.2C63.9 110.2 64.4 109.6 64.9 108.8C65.6 108.8 66.3 108.7 67.1 108.6C67.2 108.7 67.8 110.5 68.1 111.7Z" fill="#91BBF9"/>
<path d="M67.8 81.5L66.4 86.5C66.1 86.1 65.7 85.9 65.4 85.6C64.1 84.9 62.4 84.9 62.4 84.9L63.6 80.6C64.3 80.2 65.7 80.3 66.7 80.8C67.2 81 67.6 81.2 67.8 81.5Z" fill="#DB2E2E"/>
<path d="M67.8 81.5L66.4 86.5C66.1 86.1 65.7 85.9 65.4 85.6L65.6 85.1L66.8 80.7C67.2 81 67.6 81.2 67.8 81.5Z" fill="#AA0505"/>
<path d="M66.4 86.5L65.8 88.4L65.7 88.7L65.6 89L61.5 87.8L62.3 84.9C62.3 84.9 64 84.9 65.3 85.7C65.8 85.9 66.1 86.2 66.4 86.5Z" fill="#C8DFFC"/>
<path d="M66.4 86.5L65.8 88.4H64.6L65.4 85.6C65.8 85.9 66.1 86.2 66.4 86.5Z" fill="#72B2ED"/>
<path d="M65.7 89L65.6 89.3L65.3 90.4L63.6 96.3L62.8 99C59.5 99.3 57.9 100.8 57.8 100.9L58.9 97.1L59.1 96.5L61.6 87.8L65.7 89Z" fill="#6EB0FF"/>
<path d="M65.6 89.3L65.3 90.4L63.6 96.3L62.8 99C59.5 99.3 57.9 100.8 57.8 100.9L58.9 97.1H59.1C59.1 97.1 61.4 98 62.1 96.5C62.8 95 64.6 89 64.6 89C64.6 89 65 89.2 65.6 89.3Z" fill="#2F7CF7"/>
<path d="M56.9 114.3L55.3 116.6V113.7C55.3 113.7 56.3 113.4 56.9 114.3Z" fill="#350071"/>
<path d="M59.8 109.4L59.4 110.8L59.3 110.9C58.6 109.6 56.9 110.6 56.9 110.6C56.3 109.1 55.1 109.8 55.1 109.8L56.3 105.6C56.5 106 56.9 106.3 57.4 106.6C57.5 107.8 58.6 108.8 59.8 109.4Z" fill="#6EB0FF"/>
<path d="M59.4 110.8L56.9 114.3C56.3 113.4 55.3 113.7 55.3 113.7V109.7C55.3 109.7 56.4 109 57.1 110.5C57 110.6 58.7 109.6 59.4 110.8Z" fill="#EA863B"/>
<path d="M74 106.6C72.2 107.8 69.6 108.4 67.4 108.6C66.6 108.7 65.9 108.7 65.2 108.8C66.4 106.8 67.7 103 67.7 100.4C67.7 99.7 67.5 99.2 67.3 98.7C66.3 96.6 63.8 96.4 63.8 96.4L65.5 90.5C65.5 90.5 73.7 92.6 76.1 100C77.2 103.2 76 105.3 74 106.6Z" fill="#C8DFFC"/>
<g opacity="0.78">
<path d="M65.1 91.9C65.1 91.9 71.4 93.5 74.3 99.4C71.8 96 68.6 93.9 64.7 93.4" fill="white"/>
</g>
<path d="M73.8 106.6C72 107.8 69.4 108.4 67.2 108.6C66.4 108.7 65.7 108.7 65 108.8C66.2 106.8 67.5 103 67.5 100.4C67.5 99.7 67.3 99.2 67.1 98.7L67.2 98.5C67.2 98.5 68.2 104.2 70.5 104.7C72.7 105.1 74.7 100 74.7 100C74.7 100 76.8 103.3 73.8 106.6Z" fill="#72B2ED"/>
<path d="M57.1 103.5C57.1 103.5 56.8 101.6 57.8 101C57.9 100.9 59.3 99.4 62.8 99L63.6 96.3C63.6 96.3 67.4 96.7 67.5 100.3C67.6 102.9 66.3 106.7 65 108.7C64.5 109.5 64 110 63.6 110.1C62.9 110.2 61.2 109.9 59.9 109.2C58.6 108.6 57.5 107.7 57.6 106.5C57.1 106.2 56.7 105.8 56.5 105.5C55.8 104.6 56 103.6 57.1 103.5Z" fill="#C8DFFC"/>
<path d="M57.6 104.4C57.6 104.4 58.1 106.2 59.8 106.4C61.4 106.6 62.4 106.2 62.5 106.2C62.6 106.2 60.9 107.4 59.8 107.4C58.6 107.3 57.3 106 57.2 105.9C57 105.8 56.5 103.8 57.6 104.4Z" fill="#72B2ED"/>
<path d="M59.1 101C59.1 101 58.3 101.7 59.1 102.9C59.9 104.1 64.3 103.4 64.3 103.4C64.3 103.4 63.3 104.6 61.4 104.6C58.7 104.6 57.9 103.5 57.9 102.6C58.1 101.6 59.1 101 59.1 101Z" fill="#72B2ED"/>
<path d="M59.1 96.5L57.8 101C57.8 101 56.6 101.7 56.2 101.2C55.9 100.6 56.6 97.7 59.1 96.5Z" fill="#72B2ED"/>
<path d="M59.2 35.7C57.6 39.1 55.5 42.3 53 45.1L47.8 41.7C49.7 37.3 51.5 32.6 52.7 27.5C53.8 22.4 54.2 16.8 53.2 10.5C63.6 15.5 63.6 26.2 59.2 35.7Z" fill="#FFB3FF"/>
<path d="M59.2 35.7C59.6 32.7 61.3 21 58.2 19.8C54.7 18.3 52.7 27.3 52.6 27.5C53.7 22.4 54.1 16.8 53.1 10.5C63.6 15.5 63.6 26.2 59.2 35.7Z" fill="#F47CF7"/>
<path d="M25.8 45C24.1 46.6 22 49.6 22 49.6C21.3 48.4 20.6 47.2 19.9 46.1C19.1 44.9 18.3 43.8 17.4 42.8C18.8 39.3 20 36 20.9 32.7C21.3 33.4 21.7 34.2 22.1 35C24.2 39.7 25.8 45 25.8 45Z" fill="#FFB3FF"/>
<path d="M19.9 46.1C19.1 44.9 18.3 43.8 17.4 42.8C18.8 39.3 20 36 20.9 32.7C21.3 33.4 21.7 34.2 22.1 35C22.2 37.9 21.9 41.9 19.9 46.1Z" fill="#F47CF7"/>
<path d="M55.7 46.8C61.9 40.4 65.6 33.5 65.5 25.7C65.9 8.10003 51.6 5.30004 49.9 6.40004C48.2 7.50004 50.7 12.8 49 22C47.3 31.2 44 40.6 44 40.6C34.7 40 29.9 43 29.9 43C29 35.4 26.6 24.6 22.1 24.2C17.6 23.8 13.4 27.6 13.4 27.6C1.59997 21.8 -0.200026 30.8 2.89997 40.3C5.99997 49.8 2.39997 54.7 6.99997 56.2C10.2 57.3 13.3 52 14.9 48.8C15.6 47.4 16 46.4 16 46.4C16 46.4 17.1 47.2 18.3 49.2C18.7 49.9 19.2 50.8 19.5 51.8C13.3 73 11.2 85.7 20.5 92.2C22 93.3 23.8 94.1 26 94.9C25.7 94.9 25.4 95 25.1 95C14.9 96.4 12.1 103.9 14.5 108.8C15 109.8 15.7 110.6 16.6 111.3C16.7 111.4 16.8 111.4 16.8 111.5C17.1 111.5 17.4 111.4 17.7 111.4C18.3 111.3 19.1 111.3 19.9 111.3L17 108C18.3 108 19.5 108.1 20.8 108.2L19.9 107.1L18.7 105.6C19.7 105.6 20.7 105.7 21.7 105.8C22.3 105.9 22.9 105.9 23.5 106C25.4 106.3 27.1 106.7 28.8 107.2C29.3 107.4 29.8 107.5 30.3 107.7C31.6 108.2 32.8 108.7 34 109.3C39 111.9 43 116 46.1 121.7C46.5 122.1 46.8 122.5 47.1 122.9C47.1 122.9 50.1 119.7 55.2 116.6L55.1 116.4V109.6L56.3 105.4C55.6 104.4 55.8 103.4 56.9 103.3C56.9 103.3 56.9 103 56.9 102.6C56.9 102 57.1 101.2 57.6 100.8C57.5 100.9 56.4 101.5 56.1 101C55.8 100.5 56.5 97.6 58.9 96.3L59.6 93.7L61.3 87.6L62.1 84.7L62.2 84.5L63.4 80.4C63.9 80.1 64.7 80.1 65.6 80.3C66.5 80.5 67.3 80.9 67.6 81.4L66.2 86.4L66 87.1L65.6 88.6L65.8 88.7C75.8 77.7 72.4 63.7 55.7 46.8ZM22 49.6C21.3 48.4 20.6 47.2 19.9 46.1C19.1 44.9 18.3 43.8 17.4 42.8C18.8 39.3 20 36 20.9 32.7C21.3 33.4 21.7 34.2 22.1 35C24.3 39.7 25.9 45 25.9 45C24.1 46.6 22 49.6 22 49.6ZM53 45.1L47.8 41.7C51.6 32.8 55.2 23.1 53.2 10.5C67.3 17.3 62.3 34.6 53 45.1Z" fill="white"/>
<g opacity="0.78">
<path d="M16.1 100.3C16.1 100.3 18.8 96.1 27.4 95.3L28.9 95.7C25.8 96.4 19.1 97.9 16.1 100.3Z" fill="white"/>
</g>
<path d="M28.9 107.3C27.2 106.8 25.4 106.4 23.6 106.1C25.7 104.7 27.1 102.4 27.1 102.4C27.1 102.4 29.2 104.3 28.9 107.3Z" fill="#72B2ED"/>
<path d="M14.3 108.6C14.1 106.5 14.1 103.4 15.8 100.7C15.8 100.7 14.9 104 16.6 105.4C16.6 105.4 16.7 105.3 16.8 105.1C17 105.6 17.5 106.2 18.7 106.8C19.1 107 19.5 107.1 19.9 107.2L20.8 108.3C19.6 108.2 18.3 108.1 17 108.1L19.7 111.2C18.9 111.2 18.2 111.3 17.5 111.3C17.1 111.3 16.7 111.2 16.4 111.2L14.3 108.6Z" fill="#72B2ED"/>
<path d="M20.8 32.7C20 35.9 18.8 39.3 17.3 42.8C18.2 43.8 19 44.9 19.8 46.1C19.3 47.1 18.7 48.1 18 49.1C16.8 47.1 15.7 46.3 15.7 46.3C15.7 46.3 15.3 47.3 14.6 48.7L14.4 48.4L21.1 30.8C21.1 30.8 21.7 32.5 21.8 35.1C21.6 34.2 21.2 33.4 20.8 32.7Z" fill="#72B2ED"/>
<path d="M11.3 27.2C11.3 27.2 5.2 25.8 5 27.9C4.8 30 7.4 32.9 7.8 32.7C8.2 32.5 12 28.7 12 28.7C12 28.7 12.6 27.9 12.6 27.8" fill="#72B2ED"/>
<path d="M5.09998 43.3C5.09998 43.3 6.99998 47.7 9.29998 48.1C11.5 48.5 20.5 26.8 20.5 26.8C20.5 26.8 21.5 32.6 18.9 39C16.3 45.4 11.5 55.6 8.59998 56C5.69998 56.5 6.39998 52.4 5.99998 49.3C5.49998 46.2 5.09998 43.3 5.09998 43.3Z" fill="#72B2ED"/>
<path d="M62.5 84.7L62.4 84.9L61.6 87.8L59.9 93.9C50.3 98.9 32.2 97.2 25 94.8C23.9 94.4 23 94.1 22.5 93.7C21.8 93.2 21.1 92.7 20.4 92C16.5 88.2 13 81.5 16.7 72.3C16.5 72.7 13.5 81.4 24.3 88.3C32.5 93.8 52.4 94.5 62.5 84.7Z" fill="#72B2ED"/>
<path d="M66.4 86.5L67.8 81.5C67.5 81 66.6 80.6 65.8 80.4C67.3 77.8 68.3 74.7 68.5 71C68.5 71 71.2 78 66.2 87.2L66.4 86.5Z" fill="#72B2ED"/>
<path d="M64.4 112.7C61 113.8 57.9 115.3 55.4 116.8C50.3 119.9 47.3 123.1 47.3 123.1C47 122.7 46.6 122.3 46.3 121.9C43.2 116.2 39.1 112.1 34.2 109.5C38.2 100.3 49 97 57.1 102.8C57.1 103.2 57.1 103.5 57.1 103.5C56 103.6 55.8 104.6 56.5 105.6L55.3 109.8V116.6L56.9 114.3L59.4 110.8L59.5 110.7L59.9 109.3C61.1 109.9 62.5 110.2 63.3 110.2C63.7 111 64 111.8 64.4 112.7Z" fill="#FFF3FF"/>
<path d="M65.4 88.3C74.6 77.9 70.4 66.2 63 56.3C60.6 53.1 57.9 50.1 55.1 47.3C54.8 47 54.8 46.6 55.1 46.3C61.7 39.5 65.6 32.1 64.6 22.4C64.2 17.2 61.8 12 57.3 9.09995C55.3 7.79995 53.1 6.89996 50.7 6.79996C50.5 6.79996 50.3 6.8 50.1 6.9C50 7 49.9 7.09996 49.9 7.29996C49.8 7.59996 49.8 8.09997 49.8 8.49997C49.9 10.3 50.1 12.1 50.1 13.9C50.2 17.6 49.7 21.3 48.9 24.9C47.7 30.2 46.2 35.5 44.4 40.7C44.3 41 44 41.2 43.7 41.2C42.9 41.2 41.9 41.0999 41 41.0999C37.3 41.1999 33.3 41.7 30 43.4C29.6 43.7 29 43.4 28.9 42.9C28.6 40.4 28.2 37.8 27.6 35.4C26.8 32.1 25.7 27.6 23.2 25.4C22.7 25 22.2 24.8 21.6 24.8C21.2 24.8 20.9 24.8 20.5 24.8C18.6 25 16.7 25.8 15 26.9C14.5 27.2 14 27.6 13.5 28C13.3 28.2 13 28.2 12.7 28.1C10.6 27.1 8.29999 26.2 5.99999 26.4C0.0999856 27.1 1.89999 36.1 3.19999 40C4.29999 43.4 4.69999 47 4.69999 50.5C4.79999 51.9 4.59999 53.9 5.69999 54.9C6.09999 55.2 6.49999 55.4 6.99999 55.5C9.69999 56 12.4 51.1999 13.4 49.0999C13.9 48.0999 14.4 47 14.8 46C14.9 45.6 15.3 45.3999 15.7 45.5999C16.3 45.8999 16.7 46.5 17.1 47C18 48.1 18.7 49.4 19.3 50.7C19.4 51.1 19.8 51.5 19.6 51.9C17.3 60.3 14.7 68.8 14.4 77.6C14.2 84.6 16.5 90.1 23 93.1C24.9 94 27.1 94.7 29 95.5C29.1 95.6 29.2 95.7 29.1 95.8C29.1 95.9 28.9 96 28.8 96C27.7 95.9 26.6 95.7 25.5 95.4C19.9 94 14.9 90.1 13.4 84.3C10.9 74.7 15.4 60.9 18.1 51.5C18.1 51.5 18.1 52 18.1 51.9C17.4 50 16.3 48.1 14.8 46.8L15.9 46.5C14.8 49.3 13.4 51.9 11.5 54.3C10.2 55.9 8.09999 57.6 5.89999 56.7C4.69999 56.3 3.69999 55.4 3.39999 54.2C2.99999 53 3.09999 51.8 2.99999 50.5C2.99999 49.3 2.99999 48.1999 2.89999 47.0999C2.69999 44.7999 2.29999 42.6 1.59999 40.4C0.899986 38.1 0.299986 35.8 0.199986 33.4C0.0999858 30.3 0.799986 26.5 4.09999 25.4C5.89999 24.8 7.89999 25.1 9.69999 25.6C10.9 26 12 26.4 13 26.9L12.2 27C14.4 25.2 17 23.7 20 23.4C20.4 23.4 20.9 23.4 21.3 23.4C22.2 23.4 23 23.8 23.7 24.4C26.6 26.9 27.7 31.7 28.6 35.2C29.2 37.7 29.6 40.3 29.9 42.9L28.8 42.4C32.6 40.4 37.2 39.9 41.5 39.9C42.1 39.9 42.7 39.9 43.3 40L42.6 40.5C44.5 35 46.1 29.3 47.3 23.6C47.5 22.3 47.8 20.8999 48 19.5999C48.3 16.8999 48.3 14.3 48.1 11.6C48 10.2 47.8 8.79996 48 7.29996C48.1 6.79996 48.5 6.09996 49 5.79996L49.1 5.69999H49.2C50.2 5.39999 51.2 5.59996 52.2 5.79996C55.9 6.69996 59.2 8.9 61.5 11.9C65 16.4 65.7 22.4 65.3 27.9C64.7 35.4 60.5 42.1 55.4 47.3V46.3C58.2 49.2 61 52.2 63.4 55.5C67.6 61.2 71.3 67.9 71.4 75.1C71.5 80.3 69.2 85.4 65.8 89.3C65.8 89.9 64.8 89 65.4 88.3Z" fill="#350071"/>
<path d="M15.2 46C16.9 42 18.6 37.8 19.8 33.7C20.2 32.3 20.6 30.9 21.1 29.5C21.2 29.3 21.4 29.2 21.6 29.2C21.8 29.3 21.9 29.4 21.9 29.6C21.8 31.1 21.5 32.6 21.2 34C20.1 38.3 18.4 42.5 16.5 46.5C16.1 47.3 14.9 46.8 15.2 46Z" fill="#350071"/>
<path d="M13.8 27.9C12.3 29.3 10.7 30.7 8.99999 31.9C8.69999 32.1 8.29999 31.7 8.59999 31.4C10.1 30 11.6 28.5 12.9 27C13.5 26.5 14.3 27.3 13.8 27.9Z" fill="#350071"/>
<path d="M22 50.2C21.8 50.2 21.6 50.1 21.5 49.9C19.9 46.9 18.4 44.8 16.9 43.2C16.7 43 16.7 42.6 16.9 42.3C17.1 42.1 17.5 42.1 17.8 42.3C19.2 43.9 20.6 45.8 22.1 48.4C22.8 47.4 24 45.8 25.1 44.7C24.6 43.2 22.7 37.1 20.3 32.9C20.1 32.6 20.2 32.2 20.5 32.1C20.8 31.9 21.2 32 21.3 32.3C24.1 37.3 26.2 44.4 26.3 44.7C26.4 44.9 26.3 45.2 26.1 45.3C24.5 46.8 22.4 49.8 22.4 49.8C22.4 50.1 22.2 50.2 22 50.2Z" fill="#350071"/>
<path d="M53 45.7C52.9 45.7 52.8 45.7 52.7 45.6L47.5 42.2C47.3 42 47.2 41.7 47.3 41.5C51.1 32.6 54.6 23 52.6 10.6C52.6 10.4 52.7 10.2 52.8 9.99998C53 9.89998 53.2 9.80001 53.4 9.90001C58.3 12.3 61.3 15.9 62.2 20.8C63.7 28.1 60.2 37.8 53.4 45.5C53.3 45.6 53.1 45.7 53 45.7ZM48.5 41.4L52.9 44.3C59.3 37 62.5 27.9 61.1 21C60.3 16.9 57.9 13.7 54 11.5C55.5 23.4 52.2 32.8 48.5 41.4Z" fill="#350071"/>
<path d="M40.4 96.6C42.9 96.4 45.3 96.3 47.7 95.8C48.8 95.6 49.9 95.3 51 95.1C51.2 95 51.3 95.3 51.1 95.4C48.7 96.9 45.8 97.4 43 97.4C42.1 97.4 41.1 97.2 40.2 97C40.2 97 40.2 96.6 40.4 96.6Z" fill="#350071"/>
<path d="M57.8 101.6C57.6 101.6 57.5 101.5 57.4 101.4C57.2 101.2 57.2 101 57.3 100.8L63.2 80.4C63.2 80.2 63.3 80.1 63.5 80C64.8 79.3 67.6 79.9 68.5 81.2C68.6 81.3 68.6 81.5 68.6 81.7L63.6 99.2C63.5 99.5 63.2 99.7 62.9 99.6C62.6 99.5 62.4 99.2 62.5 98.9L67.4 81.8C66.8 81.2 65.2 80.9 64.4 81.1L58.6 101.2C58.6 101.3 58.5 101.4 58.4 101.5C58.1 101.5 57.9 101.6 57.8 101.6Z" fill="#350071"/>
<path d="M55.3 117.2C55.2 117.2 55.2 117.2 55.1 117.2C54.8 117.1 54.7 116.9 54.7 116.6V109.8C54.7 109.7 54.7 109.7 54.7 109.6L55.9 105.4C56 105.1 56.3 104.9 56.6 105C56.9 105.1 57.1 105.4 57 105.7L55.8 109.8V114.7L58.8 110.5L59.2 109.2C59.3 108.9 59.6 108.7 59.9 108.8C60.2 108.9 60.4 109.2 60.3 109.5L59.9 110.9C59.9 111 59.9 111 59.8 111.1L55.6 117C55.6 117.1 55.4 117.2 55.3 117.2Z" fill="#350071"/>
<path d="M59.4 111.4C59.2 111.4 59 111.3 58.9 111.1C58.8 110.9 58.7 110.8 58.5 110.8C58.1 110.7 57.5 111 57.3 111.1C57.1 111.2 57 111.2 56.8 111.2C56.6 111.1 56.5 111 56.4 110.9C56.3 110.7 56.2 110.4 55.9 110.3C55.7 110.2 55.5 110.4 55.5 110.4C55.2 110.6 54.8 110.5 54.7 110.2C54.5 109.9 54.6 109.5 54.9 109.4C55 109.4 55.6 109 56.3 109.2C56.7 109.3 57 109.6 57.2 109.9C57.6 109.8 58.2 109.6 58.7 109.8C59.2 109.9 59.6 110.2 59.8 110.7C60 111 59.9 111.4 59.6 111.5C59.6 111.4 59.5 111.4 59.4 111.4Z" fill="#350071"/>
<path d="M56.9 114.7C56.8 114.7 56.6 114.6 56.6 114.5C56.2 113.9 55.5 114.1 55.4 114.1C55.2 114.2 55 114.1 54.9 113.8C54.8 113.6 54.9 113.4 55.2 113.3C55.7 113.1 56.7 113.1 57.3 114C57.4 114.2 57.4 114.4 57.2 114.6C57 114.7 57 114.7 56.9 114.7Z" fill="#350071"/>
<path d="M63.3 110.8C62 110.8 59.3 110.1 57.9 108.8C57.3 108.2 57 107.6 56.9 106.9C55.8 106.1 55.2 105 55.4 104C55.5 103.5 55.8 103.1 56.3 102.9C56.3 102.6 56.3 102.2 56.4 101.8C56.1 101.8 55.8 101.6 55.6 101.3C55.3 100.9 55.4 100.1 55.6 99.6C55.8 99 56.5 96.9 58.7 95.8C59 95.7 59.4 95.8 59.5 96.1C59.6 96.4 59.5 96.8001 59.2 96.9001C57.3 97.9001 56.6 100 56.6 100.6C56.8 100.6 57.1 100.4 57.3 100.3C57.6 100.1 58 100.2 58.1 100.5C58.3 100.8 58.2 101.1 57.9 101.3C57.4 101.6 57.4 102.7 57.5 103.2C57.5 103.4 57.5 103.5 57.4 103.7C57.3 103.8 57.2 103.9 57 103.9C56.6 103.9 56.6 104.1 56.6 104.2C56.5 104.6 56.9 105.4 57.8 106C58 106.1 58.1 106.3 58.1 106.6C58.1 107 58.3 107.5 58.7 107.9C60 109.1 62.7 109.7 63.4 109.6C64.2 109.4 66.8 104.2 66.7 100.4C66.6 97.3001 63.5 97 63.4 97C63.1 97 62.8 96.7 62.9 96.3C62.9 96 63.2 95.7 63.6 95.8C65.1 95.9 67.9 97.1001 68 100.4C68 102.2 67.5 104.6 66.6 106.9C66 108.3 64.9 110.7 63.6 110.9C63.6 110.8 63.4 110.8 63.3 110.8Z" fill="#350071"/>
<path d="M57.8 101.6C57.7 101.6 57.5 101.5 57.4 101.4C57.2 101.2 57.1 100.8 57.4 100.6C57.5 100.5 59.5 98.4 64.3 98.4H64.4C64.7 98.4 65 98.7 65 99C65 99.3 64.7 99.6 64.4 99.6H64.3C60 99.6 58.3 101.4 58.3 101.4C58.1 101.5 57.9 101.6 57.8 101.6Z" fill="#350071"/>
<path d="M57.5 103.3C58.1 104.3 59.8 104.4 60.9 104.4C61.3 104.4 61.9 104.3 62.3 104.3C62.4 104.3 62.6 104.4 62.6 104.5C62.6 104.6 62.5 104.8 62.4 104.8L61.7 104.9C61 105 60.2 105.1 59.5 105.1C58.5 105 57.2 104.7 56.6 103.7C56.3 103.1 57.2 102.7 57.5 103.3Z" fill="#350071"/>
<path d="M57.8 106.2C58.9 106.9 60.4 107.4 61.6 106.9C61.9 106.8 62.1 107.2 61.8 107.4C60.6 108.1 59 107.9 57.8 107.4C57.6 107.3 57.4 107.3 57.3 107.1C56.7 106.7 57.2 105.8 57.8 106.2Z" fill="#350071"/>
<path d="M66.4 87.1C66.2 87.1 66 87 65.9 86.9C64.8 85.5 62.4 85.5 62.4 85.5C62.1 85.5 61.8 85.2 61.8 84.9C61.8 84.6 62.1 84.3 62.4 84.3C62.5 84.3 65.5 84.3 66.9 86.1C67.1 86.4 67.1 86.7 66.8 86.9C66.7 87.1 66.5 87.1 66.4 87.1Z" fill="#350071"/>
<path d="M65.7 89.6C65.6 89.6 65.6 89.6 65.5 89.6L61.4 88.4C61.1 88.3 60.9 88 61 87.7C61.1 87.4 61.4 87.2 61.7 87.3L65.8 88.5C66.1 88.6 66.3 88.9 66.2 89.2C66.2 89.4 66 89.6 65.7 89.6Z" fill="#350071"/>
<path d="M65 109.5L64.9 108.1C67.8 108 73 107.4 74.8 104.6C75.6 103.4 75.7 101.9 75.1 100.1C72.9 93.2 65.1 91.1 65 91.1L65.4 89.7C65.8 89.8 74 92 76.5 99.6C77.2 101.9 77.1 103.8 76 105.3C73.9 108.5 68.9 109.4 65 109.5Z" fill="#350071"/>
<path d="M64.2 95.7C64.8 95.7 65.7 95.6 66.3 95.6C67 95.6 67.7 95.6 68.4 95.6C68.5 95.6 68.6 95.7 68.6 95.8C68.6 95.9 68.5 96 68.4 96C67.4 96.2 66.3 96.5 65.3 96.8C65 96.9 64.6 97 64.3 97.1C63.5 97.3 63.2 95.8 64.2 95.7Z" fill="#350071"/>
<path d="M71.6 134.7C69 134.7 66.5 133.3 65.3 132C60.5 130.8 55.6 130 50.8 129.8C50 130.7 48.9 131.2 47.8 131.2C46.4 131.3 45 130.7 43.9 129.6L44.9 128.6C45.7 129.4 46.7 129.8 47.7 129.8C48.6 129.8 49.4 129.3 49.9 128.6C50.2 128.3 50.4 127.9 50.5 127.4C50.5 127.3 50.6 127.2 50.7 127.1C55.9 123 64.7 120 66.2 119.6L68.1 117.5C68.7 115.5 69.9 114.1 71.5 113.9C72.5 113.7 73.4 114.1 74.1 114.9C75.1 114.1 76.3 113.9 77.4 114.2C78.7 114.6 79.6 115.8 80 117.4C80.8 117.6 81.6 118.2 82 119.1C82.4 120 82.9 121.8 81.3 124.3C81 125.1 78.5 131.3 75.2 133.6C74 134.4 72.8 134.7 71.6 134.7ZM51.7 128.5C56.4 128.8 61.2 129.5 65.9 130.7C66 130.7 66.2 130.8 66.3 130.9C67.6 132.4 71.5 134.5 74.5 132.4C77.6 130.3 80 123.8 80.1 123.7C80.1 123.6 80.1 123.6 80.2 123.6C81.5 121.6 81.2 120.3 80.9 119.7C80.5 119 79.9 118.7 79.5 118.7C79.2 118.7 78.9 118.4 78.8 118.1C78.6 116.7 77.9 115.7 77.1 115.5C76.3 115.2 75.4 115.6 74.6 116.3C74.4 116.5 74.2 116.5 74 116.5C73.8 116.5 73.6 116.4 73.5 116.2C73.2 115.7 72.6 115.1 71.8 115.2C70.8 115.4 69.9 116.4 69.6 118C69.6 118.1 69.5 118.2 69.4 118.3L67.3 120.7C67.2 120.8 67.1 120.9 67 120.9C66.9 120.9 57.4 124 52 128.1C51.8 128.2 51.7 128.4 51.7 128.5Z" fill="#350071"/>
<path d="M23.8 134.7C22.6 134.7 21.3 134.4 20.2 133.6C16.9 131.3 14.4 125.1 14.1 124.3C12.4 121.7 12.9 119.9 13.4 119.1C13.8 118.2 14.6 117.6 15.4 117.4C15.8 115.7 16.7 114.6 18 114.2C19.1 113.9 20.3 114.1 21.3 114.9C22 114.1 22.9 113.8 23.9 113.9C25.4 114.1 26.6 115.4 27.2 117.4C33.1 120 38.6 123.2 43.7 126.8C43.8 126.9 43.9 127 44 127.1C44.2 127.7 44.5 128.2 44.9 128.7C45.1 128.9 45.1 129.2 45 129.4C44.9 129.7 44.7 129.8 44.4 129.8C39.6 130 34.8 130.8 30.1 132C28.9 133.3 26.4 134.7 23.8 134.7ZM19 115.4C18.8 115.4 18.6 115.4 18.4 115.5C17.5 115.8 16.9 116.7 16.7 118.1C16.6 118.4 16.4 118.7 16 118.7C15.6 118.7 15 119 14.6 119.7C14.3 120.3 14 121.6 15.3 123.6L15.4 123.7C15.4 123.8 17.9 130.3 21 132.4C24 134.5 27.9 132.4 29.2 130.9C29.3 130.8 29.4 130.7 29.6 130.7C34.1 129.5 38.6 128.8 43.1 128.5C43 128.3 42.9 128 42.8 127.8C37.8 124.2 32.2 121.1 26.4 118.5C26.2 118.4 26.1 118.2 26 118C25.6 116.5 24.7 115.4 23.8 115.2C23 115.1 22.4 115.7 22.1 116.2C22 116.4 21.8 116.5 21.6 116.5C21.4 116.5 21.2 116.4 21 116.3C20.3 115.8 19.7 115.4 19 115.4Z" fill="#350071"/>
<path d="M9.39999 120.5C9.29999 120.5 9.19999 120.5 8.99999 120.4C8.79999 120.3 8.69999 120.1 8.69999 119.9L8.29999 117.6C8.19999 117.2 8.39999 116.9 8.79999 116.8C8.99999 116.7 14 115.2 17 115L17.1 116.4C14.8 116.6 11.2 117.6 9.79999 118L9.99999 118.9C12.3 118.2 15.8 117.4 15.9 117.4L16.2 118.8C16.2 118.8 11.9 119.7 9.69999 120.5C9.59999 120.5 9.49999 120.5 9.39999 120.5Z" fill="#350071"/>
<path d="M47.5 128.2C46.5 128.2 45.4 127.3 44.3 125.6C35.4 117.9 25.5 116.4 25.4 116.4L25.6 115C26 115.1 36.1 116.5 45.3 124.6C45.4 124.6 45.4 124.7 45.4 124.8C46.5 126.7 47.2 126.8 47.4 126.8C47.8 126.8 48.2 126.3 48.6 125.4C48.7 125.3 48.7 125.2 48.8 125.1C55.4 120.7 61.7 117.9 68.6 116.5L68.9 117.9C62.3 119.3 56.2 121.9 49.7 126.2C49.3 127.5 48.5 128.2 47.5 128.2C47.6 128.2 47.6 128.2 47.5 128.2Z" fill="#350071"/>
<path d="M83.5 119.6L80.5 119.3L80.7 117.9L83.1 118.2L83.3 117.7C82.3 117.5 80.3 117.2 78.8 117.1L78.9 115.7C81.3 115.8 84.3 116.5 84.4 116.5C84.6 116.5 84.8 116.7 84.9 116.8C85 117 85 117.2 85 117.4L84.4 119.2C84.1 119.4 83.8 119.6 83.5 119.6Z" fill="#350071"/>
<path d="M45.9 125.9L44.6 125.3C45.1 124.2 45.8 123.5 46.3 123C40 115.4 32 112.9 26.3 112.1C20.7 111.3 16.3 112 15.2 112.2L11.1 117.5L10 116.6L14.3 111.1C14.4 111 14.5 110.9 14.7 110.8C14.9 110.8 19.9 109.7 26.5 110.6C32.6 111.4 41.3 114.2 47.9 122.5C48 122.7 48.1 122.9 48 123C48 123.2 47.9 123.4 47.7 123.5C47.7 123.7 46.5 124.5 45.9 125.9Z" fill="#350071"/>
<path d="M48.9 126.2L46.8 123.6C46.6 123.3 46.6 122.9 46.8 122.7C46.9 122.6 50.1 119.3 55.3 116.1C60.2 113.2 67.9 109.8 76.9 110.4C77 110.4 77.2 110.5 77.3 110.5C77.4 110.6 80.5 112.8 82.9 116.3L81.7 117.1C79.7 114.3 77.3 112.3 76.6 111.8C68.1 111.3 60.7 114.5 56.1 117.3C52.1 119.7 49.3 122.2 48.3 123.2L50 125.3L48.9 126.2Z" fill="#350071"/>
<path d="M45.7 122.1C40.3 112.2 31.9 107 20 106.2L21.3 107.8L20.4 108.5L18.3 105.9C18.2 105.7 18.1 105.5 18.2 105.3C18.3 105.1 18.5 105 18.8 105C25.1 105.3 30.6 106.7 35.2 109.3C40 112.1 43.9 116.2 46.8 121.6L45.7 122.1Z" fill="#350071"/>
<path d="M39.5 116.8C35.3 111.9 28.4 109.2 18.4 108.7L20.1 110.7L19.2 111.5L16.5 108.4C16.3 108.2 16.3 108 16.4 107.7C16.5 107.5 16.7 107.3 17 107.4C28.1 107.7 35.7 110.5 40.3 116L39.5 116.8Z" fill="#350071"/>
<path d="M16.3 111.8C12.4 109.1 11.8 103.6 14.5 99.8C16.4 97 19.4 95.4 22.6 94.6C23.6 94.3 24.7 94.2 25.8 94L25.9 95.4C24.9 95.5 23.9 95.6 22.9 95.9C20.1 96.6 17.2 98.1 15.5 100.5C13.8 102.9 13.5 106.2 15 108.7C15.5 109.5 16.1 110.2 16.9 110.8L16.3 111.8Z" fill="#350071"/>
<path d="M29.8 107.9C29.3 105 27.9 100.8 24.4 100.7C22 100.6 19.5 102 17.9 103.9C17.4 104.5 16.9 105.3 17 106C17 106.2 16.9 106.4 16.7 106.4C16.5 106.4 16.4 106.3 16.3 106.1C16.1 105 16.6 104.1 17.2 103.3C19 100.7 22.3 98.9 25.5 99.5C29.1 100.3 30.5 104.4 31 107.6C31.1 108.5 29.9 108.6 29.8 107.9Z" fill="#350071"/>
<path d="M25.9 106.7C25.6 105.7 24.8 104.8 24 104.1C23.8 103.9 24.1 103.5 24.3 103.7C24.8 104 25.3 104.4 25.7 104.9C26.1 105.4 26.6 105.9 26.8 106.4C27 107.1 26.1 107.4 25.9 106.7Z" fill="#350071"/>
<path d="M21.4 106.1L20.4 104.5C20.2 104.2 20.6 103.9 20.8 104.2L22.2 105.5C22.7 106 21.8 106.8 21.4 106.1Z" fill="#350071"/>
<path d="M29.3 105.6V99.3C29.3 98.8 30.1 98.7 30.1 99.3L30.5 105.6C30.6 106.4 29.4 106.4 29.3 105.6Z" fill="#350071"/>
<path d="M67.4 111.9C67.1 110.7 66.5 109 66.4 108.9L67.7 108.4C67.7 108.5 68.4 110.3 68.7 111.5L67.4 111.9Z" fill="#350071"/>
<path d="M27.2 117.5L29.7 121.7C30 122.1 29.3 122.6 29 122.2L26 118.4C25.5 117.5 26.7 116.6 27.2 117.5Z" fill="#350071"/>
<path d="M67.3 120.5C66.6 121.7 66 123 65.5 124.4C65.3 124.9 64.6 124.7 64.7 124.2C65 122.7 65.5 121.3 66 120C66.4 119 67.7 119.6 67.3 120.5Z" fill="#350071"/>
<path d="M47.6 88.8C47.6 88.9 47.5 89.9 47.1 90.8C46.8 91.6 46.3 92.3 45.5 92.4C44.7 92.5 43.9 91.8 43.4 91C42.8 90.3 42.5 89.5 42.5 89.5C43.5 89.5 44.6 89 44.7 87.8C45.3 89 46.5 89.2 47.6 88.8Z" fill="#350071"/>
<path d="M47.1 90.8C46.8 91.6 46.3 92.3 45.5 92.4C44.7 92.5 43.9 91.8 43.4 91C43.9 90.6 44.6 90.4 45.4 90.4C46 90.5 46.6 90.6 47.1 90.8Z" fill="#F978BB"/>
<path d="M33.1004 84.0287C35.4996 83.6428 37.0393 80.8105 36.5394 77.7025C36.0395 74.5944 33.6893 72.3877 31.2901 72.7736C28.8909 73.1594 27.3512 75.9919 27.8511 79.0999C28.3511 82.2079 30.7012 84.4146 33.1004 84.0287Z" fill="#350071"/>
<path d="M34.8776 78.4119C35.4701 78.115 35.5893 77.1538 35.144 76.2651C34.6986 75.3763 33.8573 74.8966 33.2648 75.1935C32.6723 75.4904 32.553 76.4515 32.9984 77.3403C33.4437 78.229 34.2851 78.7088 34.8776 78.4119Z" fill="#F2F2F2"/>
<g opacity="0.41">
<path d="M34.3063 81.0855C34.9061 80.989 35.3355 80.5572 35.2653 80.1209C35.1952 79.6847 34.652 79.4093 34.0522 79.5058C33.4525 79.6023 33.0231 80.0341 33.0933 80.4703C33.1634 80.9065 33.7065 81.1819 34.3063 81.0855Z" fill="#F2F2F2"/>
</g>
<path d="M25.9 68.1C26.8 66 29 64.6 31.2 64.7C31.9 64.7 32.7 64.8 33.3 65.1C33.5 65.2 33.7 65.5 33.6 65.7C33.5 65.9 33.4 66 33.2 66C32.6 66.1 31.9 66.2 31.4 66.3C29.6 66.7 28.2 67.6 26.9 68.8C26.4 69.3 25.6 68.7 25.9 68.1Z" fill="#350071"/>
<path d="M54.4462 81.4569C56.8687 81.2669 58.633 78.5687 58.3868 75.4304C58.1405 72.2922 55.9771 69.9022 53.5546 70.0922C51.1321 70.2823 49.3678 72.9805 49.614 76.1187C49.8603 79.257 52.0237 81.647 54.4462 81.4569Z" fill="#350071"/>
<path d="M52.9334 74.9346C53.1569 73.9659 52.8145 73.0599 52.1688 72.9109C51.523 72.7619 50.8183 73.4264 50.5948 74.395C50.3713 75.3637 50.7137 76.2697 51.3595 76.4187C52.0053 76.5677 52.7099 75.9032 52.9334 74.9346Z" fill="#F2F2F2"/>
<g opacity="0.41">
<path d="M52.5568 78.8775C53.1624 78.83 53.6254 78.4344 53.5908 77.9939C53.5563 77.5535 53.0373 77.2349 52.4317 77.2825C51.826 77.33 51.3631 77.7255 51.3977 78.166C51.4322 78.6065 51.9512 78.925 52.5568 78.8775Z" fill="#F2F2F2"/>
</g>
<path d="M53.3 63C53 65.5 50.3 66.9 47.9 66.2C47.3 66 46.8 65.7 46.4 65.3C46.2 65 45.8 64.4 46.3 64.2C46.5 64.1 46.6 64.2 46.7 64.3C47.6 64.9 48.8 64.9 49.8 64.6C50.9 64.3 51.7 63.6 52.3 62.6C52.6 62.2 53.4 62.4 53.3 63Z" fill="#350071"/>
<path d="M41.8 83.7C43.2 83 44.8 82.7 46.3 82.8C46.7 82.8 47 83.3 46.8 83.7C46.5 84.4 46 85.5 44.8 86.2C44.7 86.3 44.5 86.3 44.3 86.3C43.8 86.2 42.5 85.8 41.5 84.7C41.3 84.4 41.4 83.9 41.8 83.7Z" fill="#350071"/>
<path d="M40.7 86.9C40.6 87.4 40.7 88 41 88.4C41.7 89.3 43.3 89.4 44 88.5C44.1 88.3 44.2 88.1 44.2 87.9C44.2 87.6 44.5 87.4 44.8 87.5C45 87.5 45.1 87.6 45.2 87.8C45.6 88.6 46.5 88.7 47.3 88.5L47 89C47 88.8 47.1 88.6 47.3 88.5C48.4 88.1 48.8 87 48.3 85.9C48.2 85.7 48.5 85.5 48.7 85.7C49.7 87 49.1 88.7 47.6 89.4L47.9 88.9C47.9 89.4 47.1 89.5 46.7 89.6C45.7 89.7 44.6 89.2 44.2 88.2L45.2 88.1C45 90.5 41.3 90.9 40.3 88.9C40 88.3 40 87.6 40.2 86.9C40.2 86.8 40.4 86.7 40.5 86.7C40.7 86.7 40.7 86.8 40.7 86.9Z" fill="#350071"/>
<path d="M45.4 92.8C43.6 92.8 42.3 90 42.1 89.7C42 89.5 42.1 89.3 42.3 89.2C42.5 89.1 42.7 89.2 42.8 89.4C43.1 90.2 44.2 92.1 45.4 92C46.5 91.9 47 89.6 47.1 88.7C47.1 88.5 47.3 88.3 47.5 88.3C47.7 88.3 47.9 88.5 47.9 88.7C47.9 89.1 47.4 92.6 45.5 92.7C45.5 92.8 45.5 92.8 45.4 92.8Z" fill="#350071"/>
<path d="M24 122.3C22.5 121.9 20.9 122.5 20.1 123.7C19.5 124.6 19 126.1 19.7 128.3C21.1 132.8 27.4 130.7 27.5 127.1C27.5 124.7 25.8 122.9 24 122.3Z" fill="#350071"/>
<path d="M19.5 120C20.2732 120 20.9 119.373 20.9 118.6C20.9 117.827 20.2732 117.2 19.5 117.2C18.7268 117.2 18.1 117.827 18.1 118.6C18.1 119.373 18.7268 120 19.5 120Z" fill="#350071"/>
<path d="M23.6 119.4C24.2627 119.4 24.8 118.863 24.8 118.2C24.8 117.537 24.2627 117 23.6 117C22.9373 117 22.4 117.537 22.4 118.2C22.4 118.863 22.9373 119.4 23.6 119.4Z" fill="#350071"/>
<path d="M16.6 122.7C17.2627 122.7 17.8 122.118 17.8 121.4C17.8 120.682 17.2627 120.1 16.6 120.1C15.9373 120.1 15.4 120.682 15.4 121.4C15.4 122.118 15.9373 122.7 16.6 122.7Z" fill="#350071"/>
<path d="M71.4 122.3C72.9 121.9 74.5 122.5 75.3 123.7C75.9 124.6 76.4 126.1 75.7 128.3C74.3 132.8 68 130.7 67.9 127.1C67.9 124.7 69.6 122.9 71.4 122.3Z" fill="#350071"/>
<path d="M75.9 120C76.6732 120 77.3 119.373 77.3 118.6C77.3 117.827 76.6732 117.2 75.9 117.2C75.1268 117.2 74.5 117.827 74.5 118.6C74.5 119.373 75.1268 120 75.9 120Z" fill="#350071"/>
<path d="M71.8 119.4C72.4627 119.4 73 118.863 73 118.2C73 117.537 72.4627 117 71.8 117C71.1372 117 70.6 117.537 70.6 118.2C70.6 118.863 71.1372 119.4 71.8 119.4Z" fill="#350071"/>
<path d="M78.8 122.7C79.4627 122.7 80 122.118 80 121.4C80 120.682 79.4627 120.1 78.8 120.1C78.1372 120.1 77.6 120.682 77.6 121.4C77.6 122.118 78.1372 122.7 78.8 122.7Z" fill="#350071"/>
<g opacity="0.83">
<path d="M46.4 43C42.3 40.5 33.4 41.5 27.7 45.6C34.1 43.5 40.5 42 46.4 43Z" fill="white"/>
</g>
<g opacity="0.83">
<path d="M45 40.8C47.9 32.7 50.3 24.6 50.7 17.1C51.6 27.2 49.3 34.7 45 40.8Z" fill="white"/>
</g>
<g opacity="0.2">
<path d="M124.2 133.6C142.591 133.6 157.5 131.899 157.5 129.8C157.5 127.701 142.591 126 124.2 126C105.809 126 90.9 127.701 90.9 129.8C90.9 131.899 105.809 133.6 124.2 133.6Z" fill="#000072"/>
</g>
<path fill-rule="evenodd" clip-rule="evenodd" d="M100.8 110.4C100.9 111.4 100.8 112.2 100.5 112.9C100.2 113.6 99.6 114.1 98.9 114.6C97.1 115.7 94.7 113.9 94.7 113.9C94.7 113.9 91.7 115.2 90.3 113C88.9 111 90.7 107.9 90.7 107.9C90.7 107.9 89.6 105.1 91 103.6C91.2 103.4 91.4 103.2 91.6 103.1C93.9 101.8 96.3 104.2 96.3 104.2C96.3 104.2 98.9 103 100.5 104.8C102.7 107.1 100.8 110.4 100.8 110.4Z" fill="white"/>
<g opacity="0.2">
<path fill-rule="evenodd" clip-rule="evenodd" d="M100.6 112.8C100.3 113.5 99.7 114 99 114.5C97.2 115.6 94.8 113.8 94.8 113.8C94.8 113.8 91.8 115.1 90.4 112.9C89 110.9 90.8 107.8 90.8 107.8C90.8 107.8 89.7 105 91.1 103.5C91.5 105.1 92.3 107.4 93.7 107.7C93.7 107.7 92.2 109.4 93 110.6C93.7 111.8 95.8 110.9 95.8 110.9C95.8 110.9 97.8 112.9 100.6 112.8Z" fill="#000072"/>
</g>
<path d="M97.6 115.7C96.4 115.7 95.2 115.1 94.6 114.7C93.2 115.1 90.9 115.3 89.6 113.4C88.2 111.4 89.3 108.7 89.8 107.7C89.5 106.6 88.8 103.6 91.3 102.3C93.5 101.1 95.7 102.5 96.6 103.1C97.6 102.8 99.8 102.4 101.2 104.1C103.3 106.5 102.1 109.6 101.7 110.5C101.9 112.6 101.2 114.1 99.4 115.2C98.8 115.6 98.2 115.7 97.6 115.7ZM94.7 113C94.9 113 95.1 113.1 95.2 113.2C95.2 113.2 97.1 114.7 98.4 113.9C99.7 113.1 100.1 112.1 99.9 110.5C99.9 110.3 99.9 110.2 100 110C100.1 109.9 101.5 107.2 99.8 105.2C98.7 103.9 96.6 104.8 96.6 104.8C96.3 104.9 95.9 104.9 95.7 104.6C95.7 104.6 93.7 102.7 91.9 103.7C90.2 104.6 91.3 107.5 91.3 107.5C91.4 107.7 91.4 108 91.2 108.2C90.8 108.9 89.9 111.2 90.8 112.5C91.9 114.1 94.2 113.1 94.2 113.1C94.5 113 94.6 113 94.7 113Z" fill="#000072"/>
<path d="M161 103.1C160.1 101.2 156.5 100.7 156.5 100.7C153.7 95.8 150.6 91.3 147.2 87.3C139.4 78.2 130.6 72.3 123.5 71.8C123 71.8 122.5 71.7 121.9 71.7C121.7 71.7 121.6 71.7 121.4 71.7C121.1 71.7 120.8 71.7 120.5 71.7C120.4 71.7 120.3 71.7 120.3 71.7C120.2 71.7 120.1 71.7 120 71.7C119.9 71.7 119.8 71.7 119.7 71.7C119.6 71.7 119.5 71.7 119.3 71.7C119.2 71.7 119.1 71.7 118.9 71.7C118.2 71.8 117.5 71.9 116.9 72.1C116.8 72.1 116.7 72.2 116.5 72.2C116.4 72.2 116.2 72.3 116.1 72.3C116 72.3 115.9 72.3 115.8 72.4C115.6 72.4 115.5 72.5 115.3 72.5C115.2 72.5 115.1 72.6 115 72.6C114.9 72.6 114.8 72.7 114.7 72.7C114.6 72.7 114.5 72.8 114.4 72.8C114.3 72.8 114.3 72.8 114.2 72.9C114.1 72.9 114 73 113.9 73C113.6 73.1 113.2 73.3 112.9 73.4C112.8 73.4 112.7 73.5 112.6 73.5C112.5 73.5 112.4 73.6 112.4 73.6C112.3 73.6 112.3 73.7 112.2 73.7C112.1 73.7 112 73.8 111.9 73.8C111.7 73.9 111.6 74 111.4 74C111.3 74 111.2 74.1 111.1 74.1C111 74.1 110.9 74.2 110.8 74.2C110.7 74.2 110.6 74.3 110.5 74.3C110 74.6 109.6 74.8 109.2 75.1C109.1 75.2 109 75.2 109 75.3C108.9 75.4 108.8 75.4 108.8 75.5C108.7 75.5 108.7 75.6 108.6 75.7C108.5 75.8 108.3 75.9 108.2 76C108.1 76.1 107.9 76.2 107.8 76.3C107.7 76.4 107.6 76.5 107.4 76.6C107.3 76.7 107.2 76.8 107.1 76.9C107.1 76.9 107 76.9 107 77C106.8 77.2 106.6 77.3 106.5 77.5C106.4 77.6 106.2 77.7 106.1 77.9C105.7 78.3 105.4 78.6 105.3 78.7C105.5 79.1 106.2 80.3 106.5 82C106.9 83.9 106.8 86.2 105.3 88.5C103.7 90.8 101.6 91.2 101.6 91.2L100.6 93.1C100.6 93 100.7 93 100.7 93L100.8 92.9C101 92.7 101.1 92.5 101.2 92.3C101.2 92.2 101.3 92.2 101.3 92.1C101.4 92 101.4 91.9 101.5 91.9V91.8C101.1 92.5 98.8 97 98.2 110.7C97.5 125.8 101.6 129.9 107.3 129.9C113 129.9 117.9 129.9 117.8 127.4C117.7 124.9 116.4 123.6 116.4 123.6C118.8 121.4 118.8 116.8 118.8 116.8C122.4 117 124.4 117 124.4 117C124.4 117 126.6 119 127.3 123.6C128 128.2 131.8 130 137.6 129.9C143.4 129.8 147.3 129.9 147.3 127.4C147.3 124.9 144.5 123.6 144.5 123.6C146 117.9 144.5 109.8 144.5 109.8L147.3 111.9C155.8 115.2 158.7 106.7 158.7 106.7C158.7 106.7 162 105 161 103.1Z" fill="white"/>
<path d="M159 106.8C159 106.8 156 115.2 147.6 112L144.8 109.9C144.8 109.9 144.9 110.2 144.9 110.8C145.1 112.2 145.4 114.9 145.4 117.9C145.4 119.9 145.2 121.9 144.8 123.7C144.8 123.7 147.6 125 147.6 127.5C147.6 130 143.6 129.9 137.9 130C132.1 130.1 128.3 128.3 127.6 123.7C126.9 119.1 124.7 117.1 124.7 117.1C124.7 117.1 122.7 117.1 119.1 116.9C119.1 116.9 119.2 121.6 116.7 123.7C116.7 123.7 118.1 125 118.1 127.5C118.2 130 113.3 130 107.6 130C104.9 130 102.6 129.1 101 126.6C99.1 123.8 98.1 118.8 98.5 110.8C99.1 97.2 101.4 92.7 101.8 91.9C101.8 91.9 101.8 91.9 101.8 92C101.8 92.1 101.7 92.1 101.6 92.2C101.6 92.3 101.5 92.3 101.5 92.4C101.4 92.6 101.2 92.8 101.1 93L101 93.1C99.6 94.8 96.7 97.3 93 95.7C87.7 93.4 89 87.1 91.4 83.5C93.8 79.8 97.5 76.5 100.9 77.1C100.9 77.1 101.2 75.7 101.8 74.4C102.4 73.3 103.2 72.2 104.4 72.5C107.2 73.1 105.4 79.1 105.4 79.1C105.4 79.1 105.7 78.7 106.4 78.1C106.5 78 106.7 77.9 106.8 77.7C107 77.6 107.1 77.4 107.3 77.2C107.3 77.2 107.4 77.2 107.4 77.1C107.5 77 107.6 76.9 107.7 76.8C107.8 76.7 107.9 76.6 108.1 76.5C108.2 76.4 108.4 76.3 108.5 76.2C108.6 76.1 108.8 76 108.9 75.9C109 75.8 109 75.8 109.1 75.7C109.2 75.6 109.3 75.6 109.3 75.5C109.4 75.4 109.5 75.4 109.5 75.3C109.9 75 110.3 74.8 110.8 74.5C110.9 74.4 111 74.4 111.1 74.4C111.2 74.3 111.3 74.3 111.4 74.3C111.5 74.3 111.6 74.2 111.7 74.2C111.9 74.1 112 74 112.2 74C112.3 74 112.4 73.9 112.5 73.9C112.6 73.9 112.6 73.8 112.7 73.8C112.8 73.8 112.9 73.7 112.9 73.7C113 73.7 113.1 73.6 113.2 73.6C113.5 73.5 113.8 73.3 114.2 73.2C114.3 73.2 114.4 73.1 114.5 73.1C114.6 73.1 114.6 73.1 114.7 73C114.8 73 114.9 72.9 115 72.9C115.1 72.9 115.2 72.8 115.3 72.8C115.4 72.8 115.5 72.7 115.6 72.7C115.8 72.6 115.9 72.6 116.1 72.6C116.2 72.6 116.3 72.6 116.4 72.5C116.5 72.5 116.7 72.4 116.8 72.4C116.9 72.4 117 72.3 117.2 72.3C117.9 72.2 118.5 72 119.2 71.9C119.3 71.9 119.4 71.9 119.6 71.9C119.7 71.9 119.8 71.9 120 71.9C120.1 71.9 120.2 71.9 120.3 71.9C120.4 71.9 120.5 71.9 120.6 71.9C120.7 71.9 120.8 71.9 120.8 71.9C121.1 71.9 121.4 71.9 121.7 71.9C121.9 71.9 122 71.9 122.2 71.9C122.7 71.9 123.2 71.9 123.8 72C130.9 72.5 139.7 78.4 147.5 87.5C150.8 91.4 154 95.9 156.8 100.9C156.8 100.9 160.4 101.4 161.3 103.3C161.4 103.5 161.4 103.6 161.5 103.8C161.5 105.3 159 106.8 159 106.8Z" fill="white"/>
<g opacity="0.2">
<path fill-rule="evenodd" clip-rule="evenodd" d="M147.3 87.4C142.5 89.3 136.4 90.3 129.7 90C120.1 89.6 111.6 86.5 106.5 82.2C103.7 79.9 102 77.2 101.6 74.4C102.2 73.3 103 72.2 104.2 72.5C107 73.1 105.2 79.1 105.2 79.1C105.2 79.1 105.5 78.7 106.2 78.1C106.3 78 106.5 77.9 106.6 77.7C106.8 77.6 106.9 77.4 107.1 77.2C107.1 77.2 107.2 77.2 107.2 77.1C107.3 77 107.4 76.9 107.5 76.8C107.6 76.7 107.7 76.6 107.9 76.5C108 76.4 108.2 76.3 108.3 76.2C108.4 76.1 108.6 76 108.7 75.9C108.8 75.8 108.8 75.8 108.9 75.7C109 75.6 109.1 75.6 109.1 75.5C109.2 75.4 109.3 75.4 109.3 75.3C109.7 75 110.1 74.8 110.6 74.5C110.7 74.4 110.8 74.4 110.9 74.4C111 74.3 111.1 74.3 111.2 74.3C111.3 74.3 111.4 74.2 111.5 74.2C111.7 74.1 111.8 74 112 74C112.1 74 112.2 73.9 112.3 73.9C112.4 73.9 112.4 73.8 112.5 73.8C112.6 73.8 112.7 73.7 112.7 73.7C112.8 73.7 112.9 73.6 113 73.6C113.3 73.5 113.6 73.3 114 73.2C114.1 73.2 114.2 73.1 114.3 73.1C114.4 73.1 114.4 73.1 114.5 73C114.6 73 114.7 72.9 114.8 72.9C114.9 72.9 115 72.8 115.1 72.8C115.2 72.8 115.3 72.7 115.4 72.7C115.6 72.6 115.7 72.6 115.9 72.6C116 72.6 116.1 72.6 116.2 72.5C116.3 72.5 116.5 72.4 116.6 72.4C116.7 72.4 116.8 72.3 117 72.3C117.7 72.2 118.3 72 119 71.9C119.1 71.9 119.2 71.9 119.4 71.9C119.5 71.9 119.6 71.9 119.8 71.9C119.9 71.9 120 71.9 120.1 71.9C120.2 71.9 120.3 71.9 120.4 71.9C120.5 71.9 120.6 71.9 120.6 71.9C120.9 71.9 121.2 71.9 121.5 71.9C121.7 71.9 121.8 71.9 122 71.9C122.5 71.9 123 71.9 123.6 72C130.7 72.4 139.5 78.2 147.3 87.4Z" fill="#000072"/>
</g>
<path d="M137.3 130.7C131 130.7 127.5 128.4 126.7 123.7C126.2 120.3 124.7 118.4 124.2 117.8C123.5 117.8 122 117.8 119.7 117.6C119.6 119 119.2 121.8 117.6 123.6C118.1 124.3 118.7 125.6 118.8 127.3V127.4C118.8 128 118.6 128.6 118.1 129C116.6 130.6 112.5 130.6 107.4 130.6C104.8 130.6 102.7 129.8 101.1 128.1C98.6 125.5 97.4 120.8 97.4 113.8C97.4 112.8 97.4 111.7 97.5 110.5C97.9 102.9 98.7 98.1 99.5 95.2C97.6 96.6 95.2 97.4 92.4 96.2C90.4 95.3 89.1 93.9 88.5 92C87.6 88.8 88.9 85 90.4 82.8C91.5 81.1 95.4 75.8 100 76C100.3 74.9 101 72.7 102.4 71.9C103 71.5 103.6 71.4 104.3 71.6C105 71.8 105.6 72.2 106 72.8C106.6 73.8 106.6 75.3 106.5 76.6C109.3 74.2 115.2 70.4 123.6 71C133.1 71.6 145.2 81.4 154.2 95.3C155.2 96.8 156.1 98.4 157 100C158.1 100.2 160.8 100.9 161.7 102.7C161.9 103.1 162 103.4 162 103.8C162 105.3 160.7 106.6 159.6 107.3C159.2 108.2 157.7 111.3 154.6 112.7C152.4 113.7 149.9 113.7 147.2 112.6C147.1 112.6 147.1 112.5 147 112.5L145.7 111.6C145.9 113.1 146.1 115.2 146.1 117.5C146.1 119.4 146 121.4 145.6 123.2C146.6 123.8 148.3 125.2 148.3 127.4C148.3 130.5 144.4 130.6 139 130.7C138.6 130.7 138.2 130.7 137.7 130.7C137.6 130.7 137.4 130.7 137.3 130.7ZM118.9 116C122.5 116.2 124.5 116.2 124.5 116.2C124.7 116.2 124.9 116.3 125 116.4C125.1 116.5 127.4 118.6 128.2 123.5C128.8 127.4 131.9 129.2 137.7 129.1C138.1 129.1 138.5 129.1 139 129.1C141.5 129.1 143.6 129 145 128.7C146.7 128.3 146.7 127.7 146.7 127.4C146.7 125.5 144.4 124.3 144.3 124.3C144 124.2 143.8 123.9 143.8 123.6C143.8 123.5 143.8 123.5 143.8 123.4C144.3 121.6 144.4 119.5 144.4 117.5C144.4 113.5 143.8 110 143.8 109.9V109.8C143.8 109.5 143.9 109.3 144.2 109.1C144.5 108.9 144.8 108.9 145.1 109.1L147.8 111.2C150.1 112 152.1 112.1 153.8 111.3C156.8 109.9 158 106.5 158 106.5C158.1 106.3 158.2 106.2 158.4 106.1C158.4 106.1 160.2 104.9 160.2 103.9C160.2 103.8 160.2 103.6 160.1 103.5C159.5 102.3 157 101.7 156.2 101.6C155.9 101.6 155.7 101.4 155.6 101.2C151.2 93.4 145.5 86.2 139.6 81.1C133.8 76.1 128 73.1 123.2 72.8C114 72.2 107.8 77.4 106.1 79.1C106.9 80.8 108.5 85.2 105.7 89.2C104.5 90.9 103.1 91.7 102.3 92C102.3 92.1 102.2 92.2 102.2 92.3L102.1 92.4C101.7 93.1 99.5 97.5 98.9 110.9C98.8 112 98.8 113 98.8 114C98.8 120.5 99.9 124.9 102.1 127.2C103.4 128.5 105 129.2 107.2 129.2C111.3 129.2 115.6 129.2 116.7 128.1C116.8 128 116.9 127.8 116.9 127.6C116.8 125.5 115.7 124.4 115.7 124.3C115.5 124.1 115.5 123.9 115.5 123.7C115.5 123.5 115.6 123.3 115.8 123.1C117.9 121.2 117.9 117.1 117.9 116.9C117.9 116.7 118 116.5 118.2 116.3C118.5 116.1 118.7 116 118.9 116ZM100 77.8C97.1 77.8 94 80.9 91.9 83.9C90.6 85.8 89.4 89 90.2 91.7C90.6 93.2 91.6 94.2 93.2 94.9C96.2 96.2 98.7 94.3 100 92.8L101 90.9C101.1 90.7 101.3 90.5 101.6 90.5C101.7 90.5 103.4 90.2 104.7 88.2C106.9 84.9 105.7 81.3 105 79.8C105 79.8 104.9 79.8 104.9 79.7C104.6 79.5 104.4 79.1 104.5 78.8C104.9 77.4 105.3 74.8 104.7 73.7C104.5 73.4 104.4 73.3 104.1 73.2C103.9 73.1 103.7 73.2 103.4 73.3C102.5 73.9 101.8 75.9 101.6 77.1C101.5 77.5 101.1 77.8 100.7 77.7C100.4 77.8 100.2 77.8 100 77.8Z" fill="#000072"/>
<path fill-rule="evenodd" clip-rule="evenodd" d="M107.5 112.1C107.5 112.1 111.4 114.7 115.9 116.4C118 117.2 120.2 117.7 122.2 117.8C123.4 117.8 124.5 117.7 125.6 117.6C127.5 117.4 129.1 117 130.6 116.5C135.7 114.8 137.8 112.1 137.8 112.1C137.9 111.9 137.9 111.7 137.7 111.5C137.5 111.4 137.3 111.4 137.1 111.6C137.1 111.6 135 114 130.2 115.4C128.8 115.8 127.3 116.1 125.5 116.3C124.5 116.4 123.4 116.5 122.3 116.5C120.5 116.5 118.4 116 116.5 115.4C112.1 113.9 108.1 111.6 108.1 111.6C107.9 111.5 107.6 111.5 107.5 111.7C107.4 111.9 107.3 112 107.5 112.1Z" fill="#000072"/>
<path fill-rule="evenodd" clip-rule="evenodd" d="M145 123C145 123 143.1 122.2 140.2 122.8C138.9 123.1 137.5 123.6 135.9 124.6C135.7 124.7 135.6 125 135.8 125.2C135.9 125.4 136.2 125.5 136.4 125.3C137.9 124.5 139.3 124.1 140.5 123.9C143 123.6 144.6 124.3 144.6 124.3C145 124.5 145.4 124.3 145.6 123.9C145.6 123.6 145.4 123.1 145 123Z" fill="#000072"/>
<path fill-rule="evenodd" clip-rule="evenodd" d="M116.9 122.9C116.9 122.9 114.6 121.9 111.5 122.3C110 122.5 108.3 123.1 106.6 124.2C106.4 124.3 106.4 124.6 106.5 124.8C106.6 125 106.9 125 107.1 124.9C108.7 123.9 110.3 123.5 111.7 123.4C114.4 123.2 116.3 124.2 116.3 124.2C116.7 124.4 117.1 124.2 117.3 123.9C117.4 123.6 117.2 123.1 116.9 122.9Z" fill="#000072"/>
<path fill-rule="evenodd" clip-rule="evenodd" d="M145.5 114.1C145.5 114.1 143.6 101.3 142.1 96.8C142 96.6 141.8 96.4 141.9 96.2C143.7 92.2 147 89.6 151.6 85.6C152.4 84.9 153.3 84.4 154.3 84C156.9 83 159.8 83.4 161.3 85.1C162.1 86 163.1 87.2 163.7 88.9C165.2 93.7 163.5 101.6 145.5 114.1Z" fill="#FF8431"/>
<g opacity="0.6">
<path fill-rule="evenodd" clip-rule="evenodd" d="M163.6 94.9C163.9 93.2 163.7 91.8 163.2 90.6C162.6 88.9 161.6 87.6 160.8 86.8C159.3 85.1 156.5 84.7 153.8 85.7C152.9 86 151.9 86.6 151.1 87.3C150.7 87.6 150.3 88 150 88.3C150.9 90.3 153.5 95.4 158.7 96C158.7 96 155 98.4 149.8 90.7C149.3 90 148.3 89.8 147.6 90.4C145.1 92.6 143.2 94.5 141.9 96.9C141.8 96.7 141.7 96.6 141.7 96.4C143.5 92.4 146.8 89.8 151.4 85.8C152.2 85.1 153.1 84.6 154.1 84.2C156.7 83.2 159.6 83.6 161.1 85.3C161.9 86.2 162.9 87.4 163.5 89.1C164.1 90.6 164.3 92.5 163.6 94.9Z" fill="white"/>
</g>
<path fill-rule="evenodd" clip-rule="evenodd" d="M141.4 95.9C141.3 96 141.3 96.1 141.3 96.2H141.4C141.4 96.2 142.8 101.7 143.8 107C144.3 109.7 144.6 112.4 144.6 114.2C144.6 114.4 144.7 114.5 144.8 114.6C145 114.7 145.1 114.7 145.3 114.6C145.3 114.6 148.7 112.8 152.9 109.6C155.1 107.9 157.4 105.8 159.5 103.3C161.7 100.7 164.3 96.2 164.7 92.1C165 89.1 164.3 86.2 161.7 84.3C158.3 81.8 154.7 82.4 151.5 84.3C145.8 87.9 141.4 95.9 141.4 95.9ZM142.4 96.4C142.8 95.7 146.9 88.7 152.2 85.6C154.9 84 157.9 83.4 160.9 85.6C163.1 87.2 163.6 89.6 163.3 92.1C162.9 96 160.5 100.1 158.4 102.6C156.4 105 154.2 107.1 152.1 108.8C149.3 111.2 146.8 112.8 145.6 113.5C145.5 111.7 145.2 109.4 144.7 107C143.9 102.4 142.7 97.7 142.4 96.4Z" fill="#000072"/>
<path d="M162.4 90.2C159.6 90.2 157.8 88.7 156.8 87.4C155.6 85.7 155.2 84 155.2 83.9C155.2 83.7 155.2 83.5 155.3 83.3C155.4 83.1 155.6 83 155.8 83C161.1 82.2 163.8 86.7 164.5 89.2C164.6 89.4 164.5 89.7 164.4 89.9C164.3 90.1 164.1 90.2 163.8 90.3C163.3 90.2 162.8 90.2 162.4 90.2ZM157 84.4C157.5 85.9 159 88.6 162.4 88.6C162.5 88.6 162.5 88.6 162.6 88.6C161.9 87.1 160.3 84.4 157 84.4Z" fill="#000072"/>
<path d="M156.9 85.9C156.9 85.9 157.6 87.3 158.6 88C158.6 88 163.1 83.1 164.6 79.1C164.7 78.8 164.6 78.6 164.5 78.4C164.4 78.2 164.1 78 163.9 78C163.3 77.9 162.4 77.8 161.4 78C161 78.1 160.7 78.5 160.6 78.9C160.5 80 159.7 83.1 156.9 85.9Z" fill="#68CF48"/>
<g opacity="0.6">
<path d="M164.7 78.8C164.1 78.7 163.4 78.7 162.6 78.9C162.2 79 161.9 79.3 161.8 79.7C161.5 80.9 160.5 83.9 157.6 86.5C157.6 86.5 157.8 86.8 158 87.2C157.4 86.5 157 85.7 157 85.7C159.7 83 160.5 79.9 160.8 78.6C160.9 78.2 161.2 77.8 161.6 77.7C162.6 77.4 163.4 77.5 164.1 77.7C164.4 77.8 164.6 77.9 164.7 78.1C164.6 78.4 164.7 78.6 164.7 78.8Z" fill="white"/>
</g>
<path d="M158.7 87.9C158.7 87.9 162.8 82.8 167.3 81.9C167.3 81.9 168.5 83.6 168.7 85.5C168.7 85.5 164.4 85 160.8 89C160.8 89 159.8 88.9 158.7 87.9Z" fill="#68CF48"/>
<g opacity="0.6">
<path d="M168.7 85.5C168.7 85.5 168.5 85.5 168.1 85.5C167.9 85.1 167.7 84.7 167.6 84.4C167.4 84 166.9 83.8 166.4 83.9C163.6 84.8 161 87.1 159.6 88.6C159.3 88.5 159.1 88.3 158.8 88C158.8 88 162.9 82.9 167.4 82C167.3 81.9 168.6 83.6 168.7 85.5Z" fill="white"/>
</g>
<path d="M158.7 88.7C158.5 88.7 158.4 88.7 158.2 88.6C157 87.8 156.3 86.3 156.2 86.2C156 85.9 156.1 85.5 156.4 85.3C159 82.8 159.7 79.8 159.9 78.6C160 77.9 160.5 77.3 161.3 77.1C162.4 76.8 163.5 76.9 164.2 77C164.7 77.1 165.1 77.4 165.3 77.8C165.5 78.2 165.6 78.7 165.5 79.2C164 83.4 159.5 88.2 159.3 88.4C159.1 88.6 158.9 88.7 158.7 88.7ZM158 86C158.2 86.2 158.4 86.5 158.6 86.8C159.8 85.4 162.8 81.8 163.9 78.8V78.7L163.8 78.6C163.3 78.5 162.6 78.4 161.7 78.6C161.6 78.6 161.5 78.7 161.5 78.8C161.2 80.4 160.4 83.3 158 86Z" fill="#000072"/>
<path d="M160.8 89.8C160.6 89.8 159.4 89.6 158.2 88.5C157.9 88.2 157.9 87.7 158.1 87.4C158.3 87.2 162.4 82.1 167.2 81.1C167.5 81 167.8 81.2 168 81.4C168.1 81.5 169.4 83.3 169.5 85.4C169.5 85.6 169.4 85.9 169.3 86C169.1 86.2 168.9 86.2 168.7 86.2C168.5 86.2 164.7 85.9 161.5 89.5C161.3 89.7 161 89.8 160.8 89.8ZM159.9 87.8C160.1 87.9 160.3 88 160.5 88.1C163.2 85.3 166.2 84.8 167.7 84.7C167.5 84 167.2 83.3 166.9 82.9C163.9 83.7 161.1 86.5 159.9 87.8Z" fill="#000072"/>
<path fill-rule="evenodd" clip-rule="evenodd" d="M149 87.2C149 87.2 150.6 91.4 153.6 94C155 95.2 156.7 96.2 158.7 96.2C158.9 96.2 159.1 96.1 159.1 95.9C159.1 95.7 159 95.5 158.8 95.5C157 95.3 155.6 94.4 154.4 93.2C151.7 90.6 150.5 86.6 150.5 86.6C150.4 86.2 149.9 86 149.6 86.2C149.1 86.4 148.9 86.8 149 87.2Z" fill="#000072"/>
<path fill-rule="evenodd" clip-rule="evenodd" d="M156 105.6C156 105.6 153.8 104.7 150.8 102C149.5 100.8 148 99.2 146.5 97.2C146.4 97 146.2 97 146 97.1C145.8 97.2 145.8 97.4 145.9 97.6C147.3 99.7 148.7 101.4 150.1 102.8C153.1 105.8 155.4 106.9 155.4 106.9C155.8 107.1 156.2 106.9 156.4 106.5C156.5 106.2 156.3 105.8 156 105.6Z" fill="#000072"/>
<g opacity="0.2">
<path fill-rule="evenodd" clip-rule="evenodd" d="M145.5 114.1C145.5 114.1 143.6 101.3 142.1 96.8C142 96.6 141.8 96.4 141.9 96.2C143.7 92.2 146.2 89.7 150.8 85.7C151.6 85 153.3 84.4 154.3 84.1C144.7 89 141.2 101.6 149.8 102C156.8 102.4 161.6 93.7 163.7 89C165.2 93.7 163.5 101.6 145.5 114.1Z" fill="#000072"/>
</g>
<path d="M174.2 21.6C171.7 27.7 165.2 39.6 151.3 42.8C151.3 42.8 152.2 44.6 153.2 47C154 49 154.8 51.4 155.1 53.6C155.9 58.6 155.5 69.8 160 70.2H160.1C160.1 70.2 158.9 73.3 155.9 74.2C155.9 74.2 156.7 76.2 155.9 80.1C155.9 80.1 154.4 78 149.8 80.1C145.2 82.2 137.8 84.9 123.8 82.2C112.6 80 102.7 72.8 98.5 67.3C98.5 67.3 97 65.8 93.8 67.3C93.8 67.3 92.8 63.2 95.6 61.6C95.6 61.6 92.9 58.1 92.7 55.8C92.7 55.8 93.1 56 93.7 56.3C94.9 56.8 97.1 57.4 98.4 55.8C100.3 53.6 103.7 42.1 112.3 34.9C112.8 34.5 113.3 34.1 113.9 33.7C113.9 33.7 113.9 33.7 113.8 33.6C113 32.6 105 22.4 109.1 4.49999C109.2 4.09999 109.3 3.59997 109.4 3.09997C109.6 2.19997 110.3 1.5 111.1 1.2C112 0.900004 112.9 0.999992 113.7 1.49999C117.4 3.99999 123.1 9.39998 125.4 19.3C126.1 22.4 126.5 25.9 126.4 30C126.4 30 127.2 30 128.6 30.1C131.9 30.3 138.3 31 142.4 33.8C142.4 33.8 152.8 18.3 171.4 17.8C171.8 17.8 172.2 17.9 172.6 18C173 18.2 173.4 18.5 173.7 18.9C174.5 19.8 174.6 20.7 174.2 21.6Z" fill="white"/>
<path d="M134.7 84.2C131.5 84.2 127.9 83.9 123.7 83.1C112.9 81 102.6 73.9 98 67.9C97.8 67.8 96.7 66.9 94.3 68.1C94.1 68.2 93.8 68.2 93.6 68.1C93.4 68 93.2 67.8 93.2 67.6C93.2 67.4 92.3 63.6 94.7 61.6C93.9 60.4 92.3 58 92.2 56.1C92.2 55.8 92.3 55.5 92.6 55.4C92.9 55.2 93.2 55.2 93.4 55.4C93.4 55.4 96.5 57.3 98.1 55.6C98.6 55.1 99.3 53.6 100.1 51.9C102.4 47.1 106.2 39.2 113.1 33.9C112.3 32.8 110.7 30.3 109.4 26.4C107.8 21.6 106.4 13.7 109.1 3.29999C109.4 2.19999 110.2 1.19999 111.3 0.799988C112.4 0.399988 113.7 0.500012 114.6 1.20001C119.6 4.70001 127.8 12.9 127.6 29.5C130.1 29.5 137.6 29.9 142.6 33C143.6 31.7 146 28.7 149.8 25.7C154.4 22 161.9 17.6 171.8 17.3C173 17.3 174.1 17.8 174.8 18.8C175.5 19.8 175.6 21 175.2 22.1C173.9 25.2 171.7 29.8 167.9 34C163.7 38.8 158.6 42 152.7 43.5C153.6 45.4 155.5 49.7 156.1 53.7C156.3 54.8 156.4 56.3 156.5 57.8C156.9 62.5 157.4 69.5 160.3 69.7C160.6 69.7 160.8 69.9 160.9 70.1C161 70.3 161.1 70.6 161 70.8C161 70.9 159.8 73.8 157 75.1C157.2 76.1 157.4 78 156.8 80.7C156.7 81 156.5 81.3 156.2 81.4C155.9 81.5 155.6 81.3 155.4 81.1C155.3 81 154 79.7 150.3 81.4C146.3 82.7 141.6 84.2 134.7 84.2ZM96.4 65.9C98.1 65.9 99 66.8 99 66.8C99 66.8 99 66.8 99.1 66.9C103.5 72.6 113.4 79.5 123.9 81.5C138.5 84.3 145.9 81.1 149.4 79.5C152.3 78.2 154.2 78.4 155.2 78.9C155.5 76.1 155 74.6 155 74.6C154.9 74.4 154.9 74.2 155 74C155.1 73.8 155.3 73.7 155.5 73.6C157.2 73.1 158.2 71.8 158.8 70.9C155.5 69.5 155 63.1 154.6 57.8C154.5 56.3 154.4 54.9 154.2 53.8C153.5 49 150.5 43.3 150.5 43.2C150.4 43 150.4 42.7 150.5 42.5C150.6 42.3 150.8 42.1 151.1 42C164.5 38.9 170.8 27.7 173.4 21.3C173.6 20.7 173.6 20 173.2 19.5C172.8 19 172.2 18.7 171.6 18.7C162.2 18.9 155 23.2 150.6 26.7C145.8 30.5 143.3 34.3 143.2 34.3C143.1 34.5 142.9 34.6 142.7 34.6C142.5 34.6 142.3 34.6 142.1 34.5C136.7 30.8 126.7 30.9 126.6 30.9C126.4 30.9 126.2 30.8 126 30.7C125.8 30.5 125.8 30.3 125.8 30.1C126.3 13.8 118.3 5.70002 113.5 2.40002C113 2.00002 112.3 2.00001 111.7 2.20001C111.1 2.40001 110.6 2.89998 110.5 3.59998C107.9 13.5 109.2 21.1 110.7 25.7C112.4 30.7 114.7 33.4 114.7 33.4C114.8 33.6 114.9 33.8 114.9 34C114.9 34.2 114.8 34.4 114.6 34.6C107.7 39.6 103.8 47.7 101.5 52.5C100.6 54.5 99.9 55.9 99.2 56.6C97.7 58.3 95.6 58 94.1 57.5C94.7 59 95.9 60.7 96.4 61.3C96.5 61.5 96.6 61.7 96.6 62C96.6 62.2 96.4 62.4 96.2 62.5C94.7 63.4 94.5 65.2 94.6 66.3C95.2 66 95.9 65.9 96.4 65.9Z" fill="#000072"/>
<path d="M122.3 29.9001C122.3 30.3001 122.3 30.6 122.3 30.6C120 31 117.4 32 117.4 32C111.2 22.6 112.3 12.3 113 8.50003C113.1 8.20003 113.3 8.00005 113.6 7.90005C113.9 7.80005 114.2 7.90004 114.4 8.20004C115.2 9.20004 116 10.1 116.6 11.1C122.2 19.3 122.4 27.5001 122.3 29.9001Z" fill="#FF78A7"/>
<g opacity="0.2">
<path d="M128.8 30.1C128.1 30.1 119.2 30 114 33.7C113.2 32.7 105.2 22.5 109.3 4.59998C109.8 10.3 111.4 21.6 117.4 25.7C118.1 26.2 119 25.5 118.7 24.6C116.7 19.5 116.4 14.5 116.6 10.8C119.4 15 120.9 19.1 121.6 22.5C122 24.2 124.4 24.3 124.9 22.6C125.2 21.6 125.4 20.4 125.5 19.2C126.2 22.3 126.6 25.8 126.5 29.9C126.6 30.1 127.4 30.1 128.8 30.1Z" fill="#000072"/>
</g>
<path d="M147.3 37.5C147.3 37.5 148.2 38.4 149.2 39.8C149.2 39.8 164.2 33.8 169.3 24C169.4 23.8 169.4 23.5 169.3 23.3C169.2 23.1 168.9 23 168.7 23C165.5 23.4 156.4 25.4 147.3 37.5Z" fill="#FF78A7"/>
<g opacity="0.2">
<path d="M174.2 21.6C171.7 27.7 165.2 39.6 151.3 42.8C151.3 42.8 152.2 44.6 153.2 47C153.1 47 153 47 153 47C153 47 149.6 38.5 144.6 35.4C144.9 35.6 146.1 36.2 147.9 36.6C156.8 25.3 165.4 23.4 168.5 23.1C168.8 23.1 169 23.2 169.1 23.4C169.2 23.6 169.3 23.9 169.1 24.1C168.8 24.7 168.4 25.3 168 25.9C163.2 26.8 155.9 29.4 148.4 36.8C151.3 37.2 155.7 36.8 160.7 33.2C168.2 27.8 171.7 23.3 172.5 18.2C172.9 18.4 173.3 18.7 173.6 19.1C174.5 19.8 174.6 20.7 174.2 21.6Z" fill="#000072"/>
</g>
<path d="M117.4 32.8C117.1 32.8 116.9 32.7 116.7 32.4C110.3 22.8 111.4 12.3 112.1 8.29997C112.2 7.69997 112.7 7.19998 113.3 6.99998C113.9 6.79998 114.5 6.99998 114.9 7.49998C124.1 18.4 123.1 30.1 123 30.6C123 31 122.7 31.3 122.3 31.3C120.1 31.7 117.6 32.7 117.6 32.7C117.6 32.8 117.5 32.8 117.4 32.8ZM113.8 8.59996C113.1 12.4 112.1 22 117.8 31C118.6 30.7 120.1 30.2 121.6 29.9C121.6 27.4 121.4 17.6 113.8 8.59996Z" fill="#000072"/>
<path d="M149.2 40.6C148.9 40.6 148.7 40.5 148.5 40.3C147.6 39 146.7 38.1 146.7 38.1C146.4 37.8 146.4 37.4 146.6 37C155.8 24.7 165 22.5 168.5 22.2C169 22.2 169.6 22.4 169.9 22.9C170.2 23.4 170.2 23.9 170 24.4C164.7 34.3 150.1 40.3 149.5 40.6C149.4 40.6 149.3 40.6 149.2 40.6ZM148.4 37.5C148.7 37.8 149.1 38.3 149.5 38.8C152.2 37.6 164 32 168.5 23.8C165.1 24.3 156.8 26.5 148.4 37.5Z" fill="#000072"/>
<path d="M151.4 43.8C151.1 43.8 150.8 43.6 150.7 43.3C148.5 38.8 142.3 34.6 142.2 34.5C141.8 34.2 141.7 33.7 142 33.4C142.3 33 142.8 32.9 143.1 33.2C143.4 33.4 149.8 37.7 152.1 42.6C152.3 43 152.1 43.5 151.7 43.7C151.7 43.8 151.6 43.8 151.4 43.8Z" fill="#000072"/>
<path d="M113.9 34.7C113.6 34.7 113.4 34.6 113.2 34.3C113 33.9 113.1 33.4 113.5 33.2C113.8 33 120.3 29 126.9 29.3C127.3 29.3 127.7 29.7 127.7 30.1C127.7 30.5 127.3 30.9 126.9 30.9C120.8 30.6 114.5 34.5 114.4 34.6C114.2 34.7 114.1 34.7 113.9 34.7Z" fill="#000072"/>
<path fill-rule="evenodd" clip-rule="evenodd" d="M144.5 55.2C146.8 55.5 148.3 58.2 148 61.1C147.6 64.1 145.4 66.2 143.1 65.9C140.8 65.6 139.3 62.9 139.6 60C140 57.1 142.2 54.9 144.5 55.2Z" fill="#000072"/>
<path fill-rule="evenodd" clip-rule="evenodd" d="M143 57.3C143.7 57.4 144.2 58.4 144.1 59.5C144 60.6 143.2 61.4 142.5 61.3C141.8 61.2 141.3 60.2 141.4 59.1C141.5 58 142.2 57.2 143 57.3Z" fill="white"/>
<g opacity="0.35">
<path fill-rule="evenodd" clip-rule="evenodd" d="M146.5 61C146.9 61.3 146.8 62.1 146.3 62.9C145.8 63.7 145.1 64.2 144.8 63.9C144.4 63.6 144.5 62.8 145 62C145.4 61.2 146.1 60.7 146.5 61Z" fill="white"/>
</g>
<path d="M115.9 58.5C116 57.7 116.2 57.1 116.6 56.4C116.9 55.7 117.3 55.1 117.9 54.5C118.2 54.2 118.5 53.9 118.8 53.7C119.1 53.5 119.5 53.3 119.9 53.1C120.3 53 120.8 52.9 121.2 52.8C121.6 52.8 122.1 52.8 122.5 52.9C122.7 52.9 122.9 53 123.1 53.1C123.2 53.1 123.3 53.2 123.4 53.2L123.5 53.3L123.6 53.4C124 53.6 124.4 53.9 124.7 54.2C125 54.5 125.3 54.9 125.5 55.2C125.7 55.6 125.8 56 125.9 56.4C126.1 57.2 126.1 58 126 58.7C126 59.1 125.9 59.4 125.8 59.8C125.7 60.2 125.6 60.5 125.5 60.9C125.4 61.1 125.2 61.2 125.1 61.1C125 61 124.9 60.9 124.9 60.8C124.9 59.5 124.8 58.1 124.3 57C124.1 56.5 123.8 56 123.4 55.7C123.2 55.5 123 55.4 122.8 55.3H122.7H122.6C122.5 55.3 122.5 55.3 122.4 55.2C122.3 55.2 122.1 55.1 122 55.1C121.5 55 121 55 120.5 55.2C120 55.4 119.5 55.6 119 56C118.1 56.8 117.2 57.8 116.5 59C116.4 59.2 116.2 59.2 116 59.1C115.9 58.8 115.9 58.6 115.9 58.5Z" fill="#000072"/>
<path fill-rule="evenodd" clip-rule="evenodd" d="M124.3 65.6C124.3 65.6 124.4 66.3 124.8 67.2C125 67.7 125.2 68.2 125.6 68.7C125.8 69 126.1 69.3 126.4 69.6C126.7 69.9 127.1 70.1 127.5 70.3C128.3 70.6 129.1 70.6 129.9 70.5C130.6 70.4 131.1 70.2 131.5 70.1C131.8 70.5 132.4 71 133 71.4C133.6 71.7 134.2 71.9 134.8 71.9C135.7 71.8 136.5 71.5 137 71.1C138 70.3 138.4 69.3 138.4 69.3C138.5 69.2 138.4 69 138.3 68.9C138.2 68.8 138 68.9 137.9 69C137.9 69 137.4 69.7 136.5 70.2C136 70.4 135.5 70.6 134.8 70.5C134.3 70.5 133.8 70.2 133.4 69.9C132.7 69.4 132.2 68.7 132.2 68.7C132 68.4 131.6 68.3 131.2 68.5C131.2 68.5 130.5 68.9 129.5 69C129 69.1 128.4 69.1 127.8 68.9C127.4 68.8 127.1 68.5 126.8 68.2C126.6 68 126.3 67.8 126.1 67.5C125.3 66.5 124.7 65.4 124.7 65.4C124.7 65.3 124.5 65.2 124.4 65.2C124.3 65.3 124.2 65.4 124.3 65.6Z" fill="#000072"/>
<path d="M131.6 70C131.5 70 131.4 70 131.2 69.9C130.8 69.7 130.6 69.2 130.8 68.8C130.8 68.8 131.2 68 131.5 66.7C131.6 66.3 132 65.9999 132.5 66.0999C132.9 66.1999 133.2 66.5999 133.1 67.0999C132.7 68.5999 132.3 69.5 132.3 69.5C132.2 69.8 131.9 70 131.6 70Z" fill="#000072"/>
<path fill-rule="evenodd" clip-rule="evenodd" d="M127.1 68.5C126.9 68.3 126.7 68.3 126.5 68.4C126.3 68.5 126.2 68.7 126.2 68.9H126.1C125.9 70.6 126.2 72.2 127 73.4C127.6 74.4 128.5 75.1 129.6 75.3C130.8 75.6 131.9 75.3 132.7 74.8C134.6 73.7 135.4 71.2 135.4 71.2C135.5 71 135.4 70.7 135.3 70.6C135.2 70.4 135 70.3 134.7 70.3C134.2 70.3 133.7 70.1 133.3 69.8C132.5 69.3 132 68.6 132 68.6C131.8 68.3 131.4 68.3 131.2 68.4C131.2 68.4 130.5 68.8 129.5 69C129 69.1 128.4 69.1 127.8 68.9C127.7 68.9 127.6 68.8 127.5 68.7C127.3 68.8 127.2 68.7 127.1 68.5ZM127.4 70C128.2 70.3 129 70.3 129.7 70.3C130.4 70.2 131 70 131.4 69.9C131.7 70.3 132.3 70.8 133 71.3C133.3 71.5 133.5 71.6 133.8 71.7C133.5 72.2 133.1 72.9 132.5 73.4C131.9 73.9 131.1 74.3 130 74C129.1 73.8 128.4 73.1 127.9 72.2C127.6 71.5 127.4 70.8 127.4 70Z" fill="#000072"/>
<path fill-rule="evenodd" clip-rule="evenodd" d="M126.8 69C127.1 69.2 127.3 69.4 127.6 69.5C129.6 70.2 131.5 69.1 131.5 69.1C131.5 69.1 133 71.1 134.7 71.1C134.7 71.1 133.3 75.4 129.7 74.6C127.7 74.2 126.5 71.8 126.8 69Z" fill="#000072"/>
<path fill-rule="evenodd" clip-rule="evenodd" d="M146.2 68.3C148.3 68.7 149.9 69.9 149.7 71.2C149.5 72.4 147.6 73.1 145.4 72.8C143.3 72.4 141.7 71.2 141.9 69.9C142.1 68.6 144 67.9 146.2 68.3Z" fill="#FFB0CB"/>
<path fill-rule="evenodd" clip-rule="evenodd" d="M115 61.2C117.1 61.8 118.5 63.2 118.2 64.4C117.9 65.6 115.9 66.1 113.8 65.5C111.7 64.9 110.3 63.5 110.6 62.3C110.9 61.2 112.9 60.6 115 61.2Z" fill="#FFB0CB"/>
<path fill-rule="evenodd" clip-rule="evenodd" d="M128.8 69.7C130.3 69.8 131.5 69.1 131.5 69.1C131.5 69.1 132.4 70.3 133.5 70.8C132.9 72.1 131.8 72.9 130.6 72.7C129.5 72.5 128.8 71.2 128.8 69.7Z" fill="white"/>
<path d="M131.1 73.6C130.9 73.6 130.7 73.6 130.5 73.5C129 73.2 127.9 71.6 128 69.7C128 69.5 128.1 69.3 128.3 69.1C128.5 69 128.7 68.9 128.9 68.9C130.1 69 131.2 68.4 131.2 68.4C131.6 68.2 132 68.3 132.2 68.6C132.2 68.6 133 69.6 133.9 70.1C134.3 70.3 134.5 70.8 134.3 71.1C133.7 72.6 132.4 73.6 131.1 73.6ZM129.7 70.5C129.9 71.2 130.3 71.8 130.9 71.9C131.5 72 132.1 71.7 132.5 71.1C132 70.8 131.6 70.4 131.3 70.1C130.9 70.2 130.4 70.4 129.7 70.5Z" fill="#000072"/>
<path d="M130.7 64.3C131.3 63.6 134.7 64.6 135.3 65.4C135.9 66.2 133.7 67.4 132.3 67C131.2 66.7 130.2 64.8 130.7 64.3Z" fill="#FF78A7"/>
<path d="M132.9 67.7C132.6 67.7 132.4 67.7 132.2 67.6C131.2 67.3 130.4 66.2 130.1 65.3C129.9 64.7 130 64.2 130.3 63.8C130.6 63.5 131 63.3 131.7 63.4C133 63.4 135.2 64.2 135.8 65C136.1 65.4 136.1 65.9 135.8 66.3C135.3 67.1 134.1 67.7 132.9 67.7ZM131.2 64.7C131.2 64.8 131.2 65.1 131.4 65.4C131.7 65.9 132.1 66.4 132.5 66.5C133.4 66.7 134.6 66.1 134.8 65.8C134.3 65.1 131.7 64.4 131.2 64.7Z" fill="#000072"/>
<g opacity="0.2">
<path d="M160.1 69.9C158 70.8 155.5 71.5 154.1 71.8C153.6 71.9 153.3 72.5 153.6 73C155.1 75.6 155.2 76.6 155.2 76.6C149.8 74.2 143 80.7 128.2 78.4C113.3 76 104.6 68.2 102.5 65.2C100.4 62.2 95.7 63.7 95.7 63.7C95.9 63.3 96.1 63 96.2 62.8C96.6 62.2 97.3 61.9 98 62C99.9 62.3 99.8 61.4 99.8 61.4C97.7 60.6 95.5 58.2 93.8 56.1C93.2 55.9 92.8 55.6 92.8 55.6C92.9 57.9 95.7 61.4 95.7 61.4C94.3 62.2 93.8 63.6 93.7 64.8C93.8 65.4 93.8 65.7 93.8 65.7C97 64.2 98.5 65.7 98.5 65.7C102.7 71.2 112.6 78.4 123.8 80.6C137.8 83.3 145.1 80.6 149.8 78.5C154.4 76.4 155.9 78.5 155.9 78.5C156.1 77.5 156.2 76.7 156.2 76C156.2 76.2 156.2 76.5 156.2 76.8C156.2 75 155.9 74 155.9 74C158.9 73 160.1 69.9 160.1 69.9Z" fill="#000072"/>
</g>
<path d="M105.4 88.6C103.8 91.3 101.7 91.3 101.7 91.3L100.7 93.2C99.2 94.9 96.4 97.2 92.9 95.6C90.5 94.6 89.5 92.7 89.3 90.7C89 88.2 90 85.4 91.4 83.4C93.8 79.7 97.5 76.4 100.9 77C100.9 77 101.9 71.9 104.4 72.5C104.9 72.6 105.2 72.8 105.4 73.2C106.7 74.9 105.4 79.1 105.4 79.1C105.4 79.1 108 84.2 105.4 88.6Z" fill="white"/>
<path d="M95.2 97C94.4 97 93.5 96.8001 92.5 96.4001C90.5 95.5001 89.2 94.1 88.6 92.2C87.7 89 89 85.2 90.5 83C91.6 81.3 95.5 76 100.1 76.2C100.4 75.1 101.1 72.9 102.5 72.1C103.1 71.7 103.7 71.6 104.4 71.8C105.1 72 105.7 72.4 106.1 73C107.1 74.8 106.4 77.9 106.2 79C106.9 80.2 108.8 84.3 106.1 89.1C104.8 91.4 103.1 92 102.2 92.1L101.4 93.6C101.4 93.7 101.3 93.7 101.3 93.8C100.1 95.1 97.9 97 95.2 97ZM100 77.8C97.1 77.8 94 80.9001 91.9 83.9001C90.6 85.8001 89.4 89 90.2 91.7C90.6 93.2 91.6 94.2001 93.2 94.9001C96.1 96.2001 98.5 94.5 100 92.8L101 91C101.1 90.7 101.4 90.6 101.7 90.6C101.8 90.6 103.4 90.6001 104.7 88.4001C107.3 83.7001 104.8 79.8 104.6 79.7C104.5 79.5 104.4 79.2 104.5 79C104.9 77.6 105.3 75.0001 104.7 73.9001C104.5 73.6001 104.4 73.5001 104.1 73.4001C103.9 73.3001 103.7 73.4 103.4 73.5C102.5 74.1 101.8 76.1 101.6 77.3C101.5 77.7 101.1 78.0001 100.7 77.9001C100.4 77.8001 100.2 77.8 100 77.8Z" fill="#000072"/>
<path fill-rule="evenodd" clip-rule="evenodd" d="M101.5 90.6C101.5 90.6 100.6 90.9 99.5 90.4C98.9 90.2 98.3 89.8 97.8 89C97.7 88.8 97.4 88.8 97.3 88.9C97.1 89 97.1 89.3 97.2 89.4C97.7 90.4 98.4 91 99.1 91.4C100.5 92.2 101.9 92 101.9 92C102.3 91.9 102.6 91.5 102.5 91.1C102.3 90.8 101.9 90.5 101.5 90.6Z" fill="#000072"/>
<path fill-rule="evenodd" clip-rule="evenodd" d="M105.8 78.5999C105.8 78.5999 105.3 78.1 104.4 77.9C104 77.8 103.5 77.7 102.9 77.8C102.7 77.8 102.5 78 102.5 78.2C102.5 78.4 102.7 78.5999 102.9 78.5999C103.3 78.6999 103.7 78.8 104 79C104.5 79.3 104.8 79.7 104.8 79.7C105.1 80 105.6 80 105.8 79.7C106.1 79.3 106.1 78.7999 105.8 78.5999Z" fill="#000072"/>
<g opacity="0.2">
<path d="M105.8 88.3C104.2 91 102.1 91 102.1 91L101.1 92.9C99.6 94.6 96.8 96.9 93.3 95.3C90.9 94.3 89.9 92.4 89.7 90.4C93.2 94.3 96.9 87.7 96.9 87.7C102.2 90.2 106.8 83.6 106.4 80.8C106 78.1 102.3 77.4 102 77.4C104.2 77.7 105.2 74.8 105.7 72.7C107 74.4 105.7 78.6 105.7 78.6C105.7 78.6 108.4 83.9 105.8 88.3Z" fill="#000072"/>
</g>
<path fill-rule="evenodd" clip-rule="evenodd" d="M139.8 87.6C139.8 87.6 140.1 111.2 145.2 113.8C145.2 113.8 143.9 95.9 139.8 87.6Z" fill="white"/>
<path d="M144.5 114.8C144.4 112.5 144.2 110.1 143.9 107.8C143.7 105.5 143.3 103.1 143 100.8C142.6 98.5 142.2 96.2 141.6 93.9C141.3 92.8 141 91.7 140.6 90.6C140.2 89.5 139.8 88.4 139.2 87.4C139.1 87.2 139.2 86.9 139.4 86.7C139.6 86.6 139.9 86.7 140 86.9C140.6 88 141.1 89.1 141.5 90.2C141.9 91.3 142.3 92.5 142.6 93.6C143.2 95.9 143.8 98.2 144.2 100.6C144.6 102.9 145 105.3 145.3 107.6C145.6 110 145.9 112.3 146.1 114.7C146.1 115.1 145.8 115.5 145.4 115.6C144.9 115.6 144.5 115.3 144.5 114.8Z" fill="#000072"/>
<g opacity="0.2">
<path d="M147.5 127.4C147.5 129.9 143.5 129.8 137.8 129.9C132 130 128.2 128.2 127.5 123.6C126.8 119 124.6 117 124.6 117C124.6 117 122.6 117 119 116.8C119 116.8 119.1 121.5 116.6 123.6C116.6 123.6 118 124.9 118 127.4C118.1 129.9 113.2 129.9 107.5 129.9C104.8 129.9 102.5 129 100.9 126.5C102.9 127 106.3 127.8 109.5 127.7C114.5 127.5 114.9 126.6 114.9 125.7C114.9 124.8 113.4 123.5 109.7 123.6C109.7 123.6 116.6 119.3 110.6 113.4C110.6 113.4 128.2 116.8 136.1 112.9C136 113 134.3 115.6 131.4 117.7C131.4 117.7 131.7 123.9 133.3 125.3C134.8 126.7 142.3 127.4 144.3 126.6C146.3 125.9 142.7 122.9 137.9 123.9C138.6 123.7 144.2 122.3 145.4 117.7C145.4 117.7 145.4 117.7 145.5 117.7C145.5 119.7 145.3 121.7 144.9 123.5C144.7 123.6 147.5 124.9 147.5 127.4Z" fill="#000072"/>
</g>
<path fill-rule="evenodd" clip-rule="evenodd" d="M150 111.9C147.1 112.5 144.4 106.7 148 104.3C152.3 101.4 158.8 104.3 158.8 104.3C159.9 104.8 156.3 110.5 150 111.9Z" fill="white"/>
<path d="M150 113.4C147.8 113.2 146 111.5 145.4 109.3C144.8 107.1 145.6 104.9 147.5 103.6C152.1 100.5 158.8 103.4 159.1 103.5C159.5 103.7 159.7 104.2 159.5 104.6C159.3 105 158.8 105.2 158.4 105C158.3 105 152.3 102.3 148.4 104.9C147.1 105.8 146.6 107.2 147 108.8C147.3 110.1 148.4 111.5 150.1 111.7C150.5 111.7 150.9 112.1 150.8 112.6C150.8 113.1 150.4 113.4 150 113.4Z" fill="#000072"/>
<g opacity="0.2">
<path fill-rule="evenodd" clip-rule="evenodd" d="M159 106.8C159 106.8 158.2 109 156.4 110.6C154.3 112.5 151.1 113.9 148.4 112.1C145.2 109.9 146.3 106.9 146.3 106.9C146.3 106.9 147.3 109.7 151.1 109.6C154.1 109.5 155.8 107.7 156.5 106.6C156.8 106.1 157.3 105.7 157.9 105.6C158.2 105.5 158.5 105.4 158.9 105.2C159.6 104.9 160.5 104.4 161.2 103.7C161.5 105.3 159 106.8 159 106.8Z" fill="#000072"/>
</g>
<path d="M86.3 70.9C86.3 70.9 85.6 73.9 83.3 74C85.6 74.1 86.3 77.1 86.3 77.1C86.3 77.1 87 74.1 89.3 74C87 73.9 86.3 70.9 86.3 70.9Z" fill="#FFD833"/>
<path d="M86 70.9L86.1 69C86.1 68.9 86.2 68.8 86.3 68.8C86.4 68.8 86.5 68.9 86.5 69L86.6 70.9C86.6 71.1 86.5 71.2 86.3 71.2C86.2 71.2 86 71.1 86 70.9Z" fill="#000072"/>
<path d="M86.2 79.1L86.1 77.2C86.1 77 86.2 76.9 86.4 76.9C86.6 76.9 86.7 77 86.7 77.2L86.6 79.1C86.6 79.2 86.5 79.3 86.4 79.3C86.2 79.2 86.2 79.2 86.2 79.1Z" fill="#000072"/>
<path d="M83.3 74.3L81.8 74.2C81.7 74.2 81.6 74.1 81.6 74C81.6 73.9 81.7 73.8 81.8 73.8L83.3 73.7C83.5 73.7 83.6 73.8 83.6 74C83.7 74.2 83.5 74.3 83.3 74.3Z" fill="#000072"/>
<path d="M90.8 74.2L89.3 74.3C89.1 74.3 89 74.2 89 74C89 73.8 89.1 73.7 89.3 73.7C89.3 73.7 89.3 73.7 89.4 73.7L90.9 73.8C91 73.8 91.1 73.9 91.1 74C91 74.1 90.9 74.2 90.8 74.2Z" fill="#000072"/>
<path d="M86.3 77.5C86.2 77.5 86 77.4 86 77.3C86 77.3 85.3 74.5 83.3 74.4C83.1 74.4 83 74.3 83 74.1C83 73.9 83.1 73.8 83.3 73.8C85.4 73.7 86 70.9 86 70.9C86 70.8 86.2 70.7 86.3 70.7C86.4 70.7 86.6 70.8 86.6 70.9C86.6 70.9 87.3 73.7 89.3 73.8C89.5 73.8 89.6 73.9 89.6 74.1C89.6 74.3 89.5 74.4 89.3 74.4C87.2 74.5 86.6 77.3 86.6 77.3C86.6 77.4 86.5 77.5 86.3 77.5ZM84.5 74C85.5 74.5 86 75.5 86.4 76.2C86.7 75.5 87.3 74.5 88.3 74C87.3 73.5 86.8 72.5 86.4 71.8C86 72.6 85.5 73.5 84.5 74Z" fill="#000072"/>
<path d="M168.7 57.4C168.7 57.4 167.8 61 165 61.2C167.8 61.4 168.7 65 168.7 65C168.7 65 169.6 61.4 172.4 61.2C169.6 61.1 168.7 57.4 168.7 57.4Z" fill="#FFD833"/>
<path d="M168.3 57.4L168.5 55.1C168.5 55 168.6 54.9 168.7 54.9C168.8 54.9 168.9 55 168.9 55.1L169.1 57.4C169.1 57.6 169 57.8 168.8 57.8C168.5 57.8 168.3 57.7 168.3 57.4Z" fill="#000072"/>
<path d="M168.5 67.3L168.3 65C168.3 64.8 168.4 64.6 168.6 64.6C168.8 64.6 169 64.7 169 64.9C169 64.9 169 64.9 169 65L168.8 67.3C168.8 67.4 168.7 67.5 168.6 67.5C168.6 67.5 168.5 67.4 168.5 67.3Z" fill="#000072"/>
<path d="M165 61.6L163.2 61.4C163.1 61.4 163 61.3 163 61.2C163 61.1 163.1 61 163.2 61L165 60.8C165.2 60.8 165.4 60.9 165.4 61.1C165.4 61.3 165.3 61.6 165 61.6C165.1 61.6 165.1 61.6 165 61.6Z" fill="#000072"/>
<path d="M174.1 61.4L172.3 61.6C172.1 61.6 171.9 61.5 171.9 61.3C171.9 61.1 172 60.9 172.2 60.9C172.2 60.9 172.2 60.9 172.3 60.9L174.1 61.1C174.2 61.1 174.3 61.2 174.3 61.3C174.3 61.3 174.2 61.4 174.1 61.4Z" fill="#000072"/>
<path d="M168.7 65.4C168.5 65.4 168.4 65.3 168.3 65.1C168.3 65.1 167.5 61.7 165 61.6C164.8 61.6 164.6 61.4 164.6 61.2C164.6 61 164.8 60.8 165 60.8C167.5 60.7 168.3 57.3 168.3 57.3C168.3 57.1 168.5 57 168.7 57C168.9 57 169 57.1 169.1 57.3C169.1 57.3 169.9 60.7 172.4 60.8C172.6 60.8 172.8 61 172.8 61.2C172.8 61.4 172.6 61.6 172.4 61.6C169.9 61.7 169.1 65.1 169.1 65.1C169 65.3 168.9 65.4 168.7 65.4ZM166.5 61.2C167.7 61.8 168.4 63 168.7 63.9C169.1 63 169.8 61.8 170.9 61.2C169.7 60.6 169 59.4 168.7 58.5C168.3 59.4 167.6 60.6 166.5 61.2Z" fill="#000072"/>
</svg>
