<svg width="171" height="307" viewBox="0 0 171 307" fill="none" xmlns="http://www.w3.org/2000/svg">
<path d="M123.6 298.8C124.5 301.7 122.2 304.6 119.1 304.6H95.3C92.4 304.6 90 302.7 89.4 300C89.1 298.6 89 297 88.8 295.2C88.8 294.9 88.8 294.6 88.7 294.3C87 290.6 86.1 286.2 86 281.6C83 281.9 79.7 281.9 76.4 281.6C76.4 281.6 76.4 281.6 76.4 281.7C76.3 286.3 75.5 290.6 73.7 294.4C73.6 294.7 73.6 295 73.6 295.3C73.6 297 73.5 298.6 73 300.1C72.4 302.8 69.8 304.7 67.1 304.7H43.3C40.3 304.7 38 301.8 38.8 298.9C38.8 298.8 38.9 298.6 38.9 298.5C39.8 296.1 42.4 293.7 46.4 293.5C30.7 284.6 34.5 266.7 44.8 259.2H117.8C128.2 266.7 131.9 284.4 116.2 293.5C120.1 293.6 122.7 295.9 123.7 298.5C123.5 298.5 123.6 298.7 123.6 298.8Z" fill="white"/>
<path d="M65.2 277.8C68.8 279.4 72.5 281 76.4 281.5C76.3 286.1 75.5 290.4 73.7 294.2C73.6 294.5 73.6 294.8 73.6 295.1C73.6 296.8 73.5 298.4 73 299.9C72.4 302.6 69.8 304.5 67.1 304.5H43.3C40.3 304.5 38 301.6 38.8 298.7C39.5 299.4 40.4 300.1 41.4 300.7C43 301.6 44.4 301.7 47.2 302C49.2 302.1 50.7 302.1 53.4 302C56.6 301.9 57.6 301.6 58.2 301.4C59.6 300.8 61.5 300.2 61.9 298.7C62.5 297.3 61.6 295.5 60.3 294.7C59 293.8 57.4 293.5 55.8 293.4C52.5 293 49.2 293 46 293.1C47 291.9 48.9 291.7 50.5 291.5C53.7 291.4 57 291.2 59.9 292.4C60.6 292.7 61.3 293 61.9 292.8C63.1 292.5 63.2 291.1 63.2 289.8C63.2 288.8 63.2 287.6 63.1 286.6C62.5 284.2 60.8 282.3 59.5 280.3C57.9 277.9 56.6 275.3 55.9 272.5H56.5C59 274.9 62.2 276.5 65.2 277.8Z" fill="#DFE8F4"/>
<path d="M119.2 304.6H95.4C92.5 304.6 90.1 302.7 89.5 300C89.2 298.6 89.1 297 88.9 295.2C88.9 294.9 88.9 294.6 88.8 294.3C87.1 290.6 86.2 286.2 86.1 281.6C90 281 93.6 279.4 97.2 277.9C100.4 276.5 103.4 275 105.8 272.6H106.4C105.7 275.3 104.4 278.1 102.8 280.4C101.4 282.4 99.8 284.3 99.2 286.7C98.9 287.7 98.9 288.9 99.1 289.9C99.1 291.1 99.4 292.5 100.4 292.9C101.1 293 101.8 292.8 102.4 292.5C105.3 291.3 108.6 291.3 111.8 291.6C113.4 291.7 115.3 291.9 116.3 293.2C113 292.9 109.7 293.1 106.5 293.5C104.9 293.6 103.3 293.9 102 294.8C100.7 295.7 99.8 297.4 100.4 298.8C101 300.4 102.7 301 104.1 301.5C104.7 301.6 105.5 301.9 108.9 302.1C111.6 302.2 113.1 302.2 115.1 302.1C117.8 301.8 119.3 301.7 120.9 300.8C122.1 300.2 122.9 299.5 123.6 298.8C124.5 301.7 122.2 304.6 119.2 304.6Z" fill="#DFE8F4"/>
<path d="M119.2 305.6H95.4C92.1 305.6 89.2 303.3 88.5 300.1C88.2 298.7 87.9 297.1 87.9 295.1C87.9 295 87.9 294.8 87.8 294.7C86.2 291.2 85.4 287.2 85.1 282.6C82.8 282.7 80.2 282.7 77.5 282.6C77.2 287.4 76.3 291.2 74.8 294.7C74.8 294.8 74.7 295 74.7 295.1C74.7 297 74.6 298.7 74.1 300.1C73.4 303.3 70.5 305.6 67.2 305.6H43.4C41.5 305.6 39.8 304.7 38.6 303.2C37.6 301.8 37.3 299.9 37.9 298.2C38.8 295.8 40.9 293.9 43.5 293C38 289.1 35 283.8 34.6 277.7C34.2 270.4 37.9 262.9 44 258.4C44.1 258.3 44.4 258.3 44.6 258.3H117.6C117.7 258.3 118 258.3 118.2 258.4C124.2 262.7 128 270.3 127.6 277.7C127.3 283.7 124.1 289.2 118.7 293C121.3 293.9 123.5 295.7 124.3 298.2C124.9 299.9 124.7 301.8 123.6 303.2C122.8 304.7 121 305.6 119.2 305.6ZM85.9 280.5C86.2 280.5 86.3 280.6 86.6 280.8C86.7 280.9 86.9 281.2 86.9 281.5C87 286.4 87.9 290.4 89.5 293.9C89.6 294.3 89.8 294.8 89.8 295.2C89.8 296.9 89.9 298.5 90.2 299.8C90.8 302.1 92.8 303.7 95.1 303.7H118.9C120.1 303.7 121.2 303.1 121.9 302.1C122.6 301.1 122.8 299.9 122.3 298.9C121.6 296.9 119.4 294.7 115.8 294.6C115.4 294.6 114.9 294.3 114.8 293.9C114.7 293.5 114.9 293 115.2 292.7C123.1 288.2 125 282 125.3 277.7C125.6 271.2 122.4 264.5 117.1 260.4H44.7C39.4 264.4 36.1 271.2 36.5 277.7C36.8 282 38.7 288.2 46.6 292.7C47 293 47.2 293.4 47 293.9C46.9 294.3 46.6 294.6 46 294.6C42.3 294.7 40.2 296.9 39.5 298.9C39.1 299.9 39.2 301.1 39.9 302.1C40.6 303.1 41.8 303.7 42.9 303.7H66.7C69 303.7 71.2 302.1 71.6 299.8C71.9 298.5 72 297.1 72 295.2C72 294.8 72.1 294.3 72.3 293.9C73.9 290.4 74.7 286.4 74.9 281.5C74.9 281.2 75 280.9 75.2 280.8C75.3 280.7 75.6 280.5 75.9 280.5C80 280.7 83 280.7 85.9 280.5Z" fill="#000072"/>
<path d="M107.4 272C90.4 285 73 284.8 55.1 272H107.4Z" fill="white"/>
<path d="M55 272C70.3 281.4 84.8 283.9 101.2 275.5C103.4 274.5 105.4 273.2 107.4 272C105.7 273.6 103.7 275 101.8 276.3C86 286.4 68.8 283.7 55 272Z" fill="#000072"/>
<path d="M45.9 292.5C50.4 292.4 54.7 293.2 58.7 294.8C54.5 293.9 50.2 293.9 46 294.7C44.6 294.6 44.3 292.5 45.9 292.5Z" fill="#000072"/>
<path d="M46.3 305.1C45.3 303.1 45.6 300.3 47.2 298.8C46.8 299.7 46.6 300.7 46.8 301.7C46.9 302.6 47.4 303.4 48 304L46.3 305.1Z" fill="#000072"/>
<path d="M55 305.1C53.7 303.1 54.1 300.2 55.9 298.6C55 300.3 55.2 302.5 56.8 303.8C56.5 304 55 305.1 55 305.1Z" fill="#000072"/>
<path d="M116.3 294.5C112.1 293.8 108 293.9 103.6 294.6C107.6 293.2 111.9 292.3 116.4 292.3C117 292.3 117.4 292.7 117.4 293.3C117.4 294 116.9 294.6 116.3 294.5Z" fill="#000072"/>
<path d="M114.4 304C115.3 303.3 115.7 301.6 115.7 300.3C115.7 299.9 115.6 299.3 115.3 298.9C116.2 299.6 116.5 300.8 116.7 301.8C116.8 303 116.7 304.2 116.1 305.3C116 305.1 114.4 304 114.4 304Z" fill="#000072"/>
<path d="M105.8 304C107.2 302.8 107.5 300.5 106.7 298.8C108.4 300.4 108.9 303.3 107.6 305.3C107.4 305.1 105.8 304 105.8 304Z" fill="#000072"/>
<path d="M81.3 221.2C91.6277 221.2 100 216.096 100 209.8C100 203.504 91.6277 198.4 81.3 198.4C70.9722 198.4 62.6 203.504 62.6 209.8C62.6 216.096 70.9722 221.2 81.3 221.2Z" fill="#DFE8F4"/>
<path d="M57.3 205.1C45.4 213.4 32.4 223.8 28.9 236.3C27.2 242.9 29.5 249.8 34.7 254.3C38.4 257.5 42.8 259.8 47.9 261.5L59 250L61 224.1L61.7 209.4L62.3 204.2L57.3 205.1Z" fill="#FF8431" stroke="black" stroke-miterlimit="10"/>
<path d="M29.6 234.3C29.6 238.2 30.9 242.1 33.2 245.1C35.5 248.1 39 250.3 42.7 251.1C43.1 253.7 43.3 256.3 43.1 259C39.4 258.7 36.2 256.1 33.3 253.7C31.9 252.4 30.4 251.1 29.4 249.4C28 247 27.8 243.9 27.8 241.1C27.8 238.9 28.1 236.5 29.7 235.1" fill="#FF8431"/>
<path d="M29.6 234.3C29.6 238.2 30.9 242.1 33.2 245.1C35.5 248.1 39 250.3 42.7 251.1C43.1 253.7 43.3 256.3 43.1 259C39.4 258.7 36.2 256.1 33.3 253.7C31.9 252.4 30.4 251.1 29.4 249.4C28 247 27.8 243.9 27.8 241.1C27.8 238.9 28.1 236.5 29.7 235.1" stroke="black" stroke-miterlimit="10"/>
<path d="M42 226.4C44.4 226.3 46.8 224.7 48.5 222.9C50.2 221.2 51.7 219 53.5 217.3C51.1 222.8 48.6 228.2 46.3 233.7C45.4 231.1 44.1 228.8 42.6 226.6" fill="#FF8431"/>
<path d="M42 226.4C44.4 226.3 46.8 224.7 48.5 222.9C50.2 221.2 51.7 219 53.5 217.3C51.1 222.8 48.6 228.2 46.3 233.7C45.4 231.1 44.1 228.8 42.6 226.6" stroke="black" stroke-miterlimit="10"/>
<path d="M47.8 262.5C47.7 262.5 47.7 262.5 47.5 262.5C42.2 260.8 37.6 258.3 34 255.2C28.5 250.4 26.1 243 28 236.2C31.6 223.2 44.6 212.7 56.8 204.4C56.9 204.3 57.1 204.3 57.2 204.3L62.1 203.4C62.4 203.4 62.7 203.4 63 203.7C63.3 204 63.3 204.3 63.3 204.6L62.7 209.8L62 224.3L60 250.4C60 250.7 59.9 250.8 59.7 251L48.6 262.5C48.3 262.4 48 262.5 47.8 262.5ZM57.7 206.1C46.5 213.9 33.2 224.4 29.9 236.6C28.3 242.6 30.3 249.3 35.2 253.6C38.5 256.5 42.7 258.8 47.4 260.4L57.8 249.6L59.8 224L60.5 209.5L60.9 205.6L57.7 206.1Z" fill="#FF8431" stroke="black" stroke-miterlimit="10"/>
<path d="M45.3 240.1C45.4 235.2 44.9 230 41.6 226.1C43.9 227.5 45.5 229.8 46.4 232.3C47.4 234.7 47.7 237.5 47.8 240.1H45.3Z" fill="#FF8431" stroke="black" stroke-miterlimit="10"/>
<path d="M105.3 205.1C117.2 213.4 130.2 223.8 133.7 236.3C135.4 242.9 133.1 249.8 127.9 254.3C124.2 257.5 119.8 259.8 114.7 261.5L103.6 250L101.6 224.1L100.9 209.4L100.3 204.2L105.3 205.1Z" fill="#FF8431" stroke="black" stroke-miterlimit="10"/>
<path d="M133 234.3C133 238.2 131.7 242.1 129.4 245.1C127.1 248.1 123.6 250.3 119.9 251.1C119.5 253.7 119.3 256.3 119.5 259C123.2 258.7 126.4 256.1 129.3 253.7C130.7 252.4 132.2 251.1 133.2 249.4C134.6 247 134.8 243.9 134.8 241.1C134.8 238.9 134.5 236.5 132.9 235.1" fill="#FF8431"/>
<path d="M133 234.3C133 238.2 131.7 242.1 129.4 245.1C127.1 248.1 123.6 250.3 119.9 251.1C119.5 253.7 119.3 256.3 119.5 259C123.2 258.7 126.4 256.1 129.3 253.7C130.7 252.4 132.2 251.1 133.2 249.4C134.6 247 134.8 243.9 134.8 241.1C134.8 238.9 134.5 236.5 132.9 235.1" stroke="black" stroke-miterlimit="10"/>
<path d="M120.6 226.4C118.2 226.3 115.8 224.7 114.1 222.9C112.4 221.2 110.9 219 109.1 217.3C111.5 222.8 114 228.2 116.3 233.7C117.2 231.1 118.5 228.8 120 226.6" fill="#FF8431"/>
<path d="M120.6 226.4C118.2 226.3 115.8 224.7 114.1 222.9C112.4 221.2 110.9 219 109.1 217.3C111.5 222.8 114 228.2 116.3 233.7C117.2 231.1 118.5 228.8 120 226.6" stroke="black" stroke-miterlimit="10"/>
<path d="M114.8 262.5C114.5 262.5 114.2 262.4 114.1 262.2L103 250.7C102.9 250.6 102.7 250.3 102.7 250.1L100.7 224.2L100 209.5L99.4 204.3C99.4 204 99.5 203.7 99.7 203.4C100 203.1 100.3 203.1 100.6 203.1L105.5 204C105.6 204 105.8 204.1 105.9 204.1C118.1 212.6 131.1 223 134.7 235.9C136.6 242.7 134.3 250.2 128.7 254.9C125.1 258.1 120.5 260.5 115.2 262.2C115 262.5 114.8 262.5 114.8 262.5ZM104.6 249.6L115 260.4C119.8 258.8 123.9 256.5 127.2 253.6C132.1 249.4 134.3 242.7 132.5 236.6C129.2 224.2 115.9 213.7 104.7 206.1L101.2 205.5L101.6 209.4L102.3 224.1L104.6 249.6Z" fill="#FF8431" stroke="black" stroke-miterlimit="10"/>
<path d="M114.8 240.1C114.9 234.9 116.4 229 121 226.1C119.4 228.1 118.4 230.3 117.8 232.7C117.2 235.1 117.2 237.6 117.2 240L114.8 240.1Z" fill="#FF8431" stroke="black" stroke-miterlimit="10"/>
<path d="M119.9 253.2C119.9 255.6 119.8 258.1 119.5 260.4C93.7 273.1 68.3 273.1 43.2 260.4C42.9 258.1 42.8 255.8 42.8 253.2C43.1 239.5 48.3 224 55.5 214.2L60 205.1L61.7 210L67 216.2L74.8 222.8L82.4 221.2L91.9 218.9L97.5 213.3L99.9 205.1L103.2 203.5L106.9 214.2C114.4 223.9 119.6 239.5 119.9 253.2Z" fill="#FF8431" stroke="black" stroke-miterlimit="10"/>
<path d="M119.9 253.2C119.9 255.6 119.8 258.1 119.5 260.4C93.7 273.1 68.3 273.1 43.2 260.4C42.9 258.1 42.8 255.8 42.8 253.2C67.9 263 93.7 262.8 119.9 253.2Z" fill="white"/>
<path d="M96.4 203.8C96.4 221.6 65.9 221.6 65.9 203.8L58.8 203.4C58.8 231.2 103.3 231.2 103.3 203.4L96.4 203.8Z" fill="white"/>
<path d="M59.1 203.5H58.8C58.8 231.3 103.3 231.3 103.3 203.5H103C99.9 226.8 62.4 226.8 59.1 203.5Z" fill="#DFE8F4"/>
<path d="M81.2 225.1C70.1 225.1 58.2 218.3 58.2 203.5C58.2 203.2 58.3 203.1 58.5 202.9C58.6 202.8 58.9 202.6 59.1 202.6L66.2 203C66.6 203 66.9 203.4 66.9 203.9C66.9 212.5 74.4 216.4 81.3 216.4C88.2 216.4 95.7 212.5 95.7 203.9C95.7 203.5 96 203 96.4 203L103.5 202.6C103.8 202.6 103.9 202.6 104.1 202.9C104.2 203 104.4 203.3 104.4 203.5C104.2 218.3 92.2 225.1 81.2 225.1ZM59.7 204.2C60.1 217.3 71.1 223.3 81.1 223.3C91.2 223.3 102 217.3 102.5 204.2L97.2 204.5C96.8 213.7 88.7 217.9 81.2 217.9C77 217.9 73.1 216.6 70.3 214.4C67.1 212 65.4 208.5 65.3 204.5L59.7 204.2Z" fill="#000072"/>
<path d="M62.4 216C62.3 216 62.1 216 62 215.9C61.6 215.6 61.6 215.2 61.7 214.7C63.3 212.1 65.2 210.5 67.5 209.8C67.9 209.7 68.4 209.9 68.5 210.4C68.6 210.8 68.4 211.3 67.9 211.4C66 212 64.3 213.4 63 215.6C62.9 215.9 62.7 216 62.4 216Z" fill="#000072"/>
<path d="M99.9 216.2C99.6 216.2 99.3 216.1 99.2 215.6C98.3 213.3 96.9 211.9 94.6 211.1C94.2 211 93.9 210.5 94 210.1C94.1 209.7 94.6 209.4 95 209.5C97.6 210.4 99.5 212.1 100.6 215C100.7 215.4 100.6 215.9 100.2 216C100 216.2 100 216.2 99.9 216.2Z" fill="#000072"/>
<path d="M89.4 223.2C89 223.2 88.5 222.8 88.5 222.3C88.5 220.3 87.8 218.4 86.6 216.5C86.3 216.1 86.5 215.6 86.7 215.3C87.1 215 87.6 215.2 87.9 215.4C89.3 217.4 90.1 219.7 90.1 222C90.2 222.8 89.8 223.2 89.4 223.2Z" fill="#000072"/>
<path d="M73 223.7C72.6 223.7 72.1 223.3 72.1 222.8C72.1 220.2 73.4 218 75.7 216.3C76.1 216 76.6 216.2 76.9 216.4C77.2 216.8 77 217.3 76.8 217.6C74.8 219 73.9 220.8 73.8 222.8C73.7 223.2 73.4 223.7 73 223.7Z" fill="#000072"/>
<path d="M55.5 214.2C47.7 227 43.1 242.1 43.8 257.2L44.1 260.2L43.5 259.5C49.4 262.4 55.4 264.8 61.8 266.4C80.8 271.6 101.4 268.3 118.8 259.5L118.2 260.2L118.5 257.2C118.8 251.3 118.2 245.1 116.9 239.4C115 230.5 111.4 222.1 106.8 214.2C108.8 216.5 110.7 219.1 112.1 221.7C118.3 233.5 121.7 247.2 120.2 260.4C120.2 260.7 119.9 261.1 119.6 261.1C107.7 267 94.4 270.7 81 270.7C67.6 270.8 54.4 267.1 42.4 261.1C42.1 261 41.8 260.7 41.8 260.4C40.8 252.2 41.9 243.8 44.1 235.9C46.9 228.1 50.2 220.3 55.5 214.2Z" fill="#000072"/>
<path d="M80.9 261.5C67.9 261.5 55.1 259.1 42.5 254.2C41.9 254.1 41.6 253.3 41.9 252.9C42 252.3 42.8 252 43.2 252.3C67.8 261.9 93.6 261.9 119.5 252.3C120.1 252.2 120.7 252.4 120.8 252.9C120.9 253.5 120.7 254.1 120.2 254.2C107.1 259.1 93.8 261.5 80.9 261.5Z" fill="#000072"/>
<path d="M48.8 263.7C48.4 263.7 48.1 263.4 47.9 263C47.5 260 47.9 257.4 49.1 255.2C49.2 254.8 49.8 254.6 50.3 254.9C50.7 255 50.9 255.6 50.6 256.1C49.6 258 49.3 260.3 49.7 262.9C49.6 263.2 49.3 263.7 48.8 263.7C48.9 263.7 48.9 263.7 48.8 263.7Z" fill="#000072"/>
<path d="M59.7 267.6C59.3 267.6 58.8 267.3 58.8 266.7C58.7 263.4 58.9 260.5 59.8 258.1C59.9 257.7 60.4 257.4 60.8 257.5C61.2 257.6 61.5 258.1 61.4 258.5C60.7 260.8 60.4 263.4 60.5 266.6C60.4 267.1 60.1 267.6 59.7 267.6Z" fill="#000072"/>
<path d="M74 270.3C73.6 270.3 73.3 270 73.1 269.6C72.7 266.3 72.7 263 73.2 260C73.3 259.6 73.8 259.3 74.2 259.3C74.6 259.4 74.9 259.9 74.9 260.3C74.3 263.2 74.3 266.3 74.8 269.4C74.8 269.7 74.5 270.2 74 270.3C74.1 270.3 74.1 270.3 74 270.3Z" fill="#000072"/>
<path d="M113.5 263.7C112.9 263.7 112.6 263.3 112.6 262.8C112.9 260.1 112.6 257.8 111.7 256C111.6 255.6 111.7 255.1 112 254.8C112.4 254.7 112.9 254.8 113.2 255.1C114.4 257.3 114.6 259.9 114.4 262.9C114.4 263.4 114 263.7 113.5 263.7Z" fill="#000072"/>
<path d="M102.7 267.6C102.3 267.6 101.8 267.2 101.8 266.7C101.9 263.5 101.7 260.9 100.9 258.6C100.8 258.2 101 257.7 101.5 257.6C101.9 257.5 102.4 257.7 102.5 258.2C103.4 260.6 103.7 263.5 103.5 266.8C103.6 267.3 103.2 267.6 102.7 267.6Z" fill="#000072"/>
<path d="M88.4 270.3C87.8 270.2 87.5 269.9 87.5 269.3C87.9 266.1 87.9 263.1 87.4 260.2C87.3 259.8 87.5 259.3 88.1 259.2C88.5 259.1 89 259.3 89.1 259.9C89.7 263.1 89.8 266.2 89.2 269.5C89.2 270 88.8 270.3 88.4 270.3Z" fill="#000072"/>
<path d="M105.3 118.4C100.5 79.8 105.3 44.1 120.7 23.2C135.8 2.89998 154.8 -1.35899e-05 162 5.49999C185.3 24.2 124.6 79.8 115.2 120.1" fill="white"/>
<path d="M132.5 83.3C124.6 96 117.8 108.6 115.2 120.2L105.3 118.5C103.7 105.5 103.1 92.9 103.7 81.1C104.9 57.6 110.3 37.2 120.7 23.4C135.8 3.1 154.8 0.199999 162 5.7C178.8 19.1 152.4 51.4 132.5 83.3Z" fill="white"/>
<path d="M132.5 83.3C124.6 96 117.8 108.6 115.2 120.2L105.3 118.5C103.7 105.5 103.1 92.9 103.7 81.1C107.7 85.6 114.4 88.9 121 77.8C129.6 63.4 129.2 76.1 129.2 76.1C129.2 76.1 129.1 82.7 132.5 83.3Z" fill="#DFE8F4"/>
<path d="M115.3 121.3C115.2 121.3 115.2 121.3 115 121.3C114.3 121.2 113.8 120.4 114.1 119.9C118 103.2 130.4 84.3 142.2 66.2C158.8 40.9 174.3 17.1 161.3 6.60001C158.9 4.70001 155 4 150.4 4.7C145.6 5.4 133.4 8.60001 121.9 24.1C107.2 43.7 101.7 78.1 106.6 118.2C106.7 118.9 106.2 119.5 105.4 119.6C104.6 119.7 104.1 119.2 104 118.4C99 77.5 104.7 42.5 119.7 22.4C128.2 10.9 139.3 3.50001 149.9 2.00001C155.2 1.30001 159.7 2.1 162.7 4.4C177.4 16.2 161.3 41 144.1 67.3C132.3 85.3 120.1 104 116.3 120.3C116.3 121 115.8 121.3 115.3 121.3Z" fill="#000072"/>
<path d="M158.5 10.3C138.3 5.30002 126.4 37.4 122.7 70.2C118.7 102.7 111.5 109.5 112.6 109.9C113 110.2 113.9 110.3 114.8 108.9C118.8 96.8 125.3 86.2 132.8 74.6C142.4 59.8 151.1 46.8 156 38.6C156 38.6 161.2 29.5 162.3 23.8C164.8 11.9 158.5 10.3 158.5 10.3Z" fill="#F9ACBC"/>
<path d="M162.3 23.9C161.1 29.7 156 38.7 156 38.7C151.1 46.9 142.5 59.9 132.8 74.7C132.7 75 132.4 75.3 132.2 75.6C125 86.8 118.7 97.2 114.8 109C113.9 110.4 112.9 110.2 112.6 110C111.4 109.6 118.6 102.9 122.7 70.3C126.3 38.5 137.7 7.4 156.7 10.1C157.3 10.2 158 10.2 158.6 10.5C158.5 10.3 164.8 11.9 162.3 23.9Z" fill="#F9ACBC"/>
<path d="M135.6 31.3C129 47.9 122.2 77.1 132.3 75.6C125.1 86.8 118.8 97.2 114.9 109C114 110.4 113 110.2 112.7 110C111.5 109.6 118.7 102.9 122.8 70.3C126.4 38.5 137.8 7.4 156.8 10.1C156.2 10 143.3 11.8 135.6 31.3Z" fill="#F46E94"/>
<path d="M158.5 10.3C142.5 7.00001 134.5 26.1 130.3 38.5C127.3 47.9 125.4 57.5 124.1 67.1C122.7 79.3 120.6 91.9 116.2 103.4C115.5 105.6 114.3 107.6 113.5 109.6C113.5 109.6 113.5 109.6 113.5 109.5C113.5 109.2 113.2 108.9 112.9 108.8H113C113.1 108.8 113.1 108.8 113.3 108.8C113.4 108.7 113.7 108.5 113.9 108.2L113.8 108.5C116 102 118.8 95.7 122.1 89.8C128.6 78 136.9 66.6 144.4 55.5C147.7 50.6 152.6 43.6 155.8 38.5C152.5 44.4 148.9 50.3 145.4 56.1C138.5 67.5 130.6 79.1 124 90.8C120.7 96.7 117.7 102.9 115.7 109.4C115.3 110.1 114.3 111.1 113.3 111.1C112.9 111.1 112.4 111 112.1 110.8H112.2C111.9 110.7 111.8 110.5 111.6 110.4C111 109.5 111.7 108.5 112.2 107.8C118.4 95.1 120.3 80.9 122 66.9C123.3 57.1 125.3 47.3 128.5 37.8C132.8 25.3 142.2 5.90001 158.5 10.3Z" fill="#000072"/>
<path d="M61.7 114.3C62.9 93 56.7 63.1 47.4 54.6C41.2 49.6 8.49999 70.1 24.5 85.4C31 88.9 43.9 100.8 50.7 120.1" fill="white"/>
<path d="M61.7 114.3L51.9 119.5C51.5 119.5 50.9 119.5 50.5 119.5C43.7 100.5 30.9 88.8 24.6 85.4C23.4 84.2 22.6 83.1 21.9 82.1C29.8 73.3 44.1 58.6 45.8 62.4C51 73.3 51.4 103.3 60.9 94.4C61.9 101 62.2 108.1 61.7 114.3Z" fill="#DFE8F4"/>
<path d="M50.8 121.2C50.2 121.2 49.8 120.9 49.6 120.3C43.1 101.9 30.7 89.8 24 86.3C23.9 86.3 23.9 86.2 23.7 86.2C17.2 80 17.4 71.9 24.3 64C30.9 56.4 43.7 49.9 48.2 53.5C58 62.4 64 92.9 62.9 114.2C62.9 114.9 62.3 115.4 61.6 115.4C60.9 115.4 60.4 114.8 60.4 114.1C61.4 93.8 55.6 63.7 46.6 55.4C44 53.4 33.1 57.7 26.2 65.6C22.7 69.5 18.1 77.3 25.3 84.2C32.5 88.1 45.3 100.6 51.9 119.5C52.2 120.2 51.8 120.8 51.2 121.1C51.1 121.2 50.9 121.2 50.8 121.2Z" fill="#000072"/>
<path d="M36 60C50.5 70.4 48.1 101.5 54.1 115.7L52.8 116.1C52.8 116.1 44.3 91.8 29.8 85.4" fill="#F46E94"/>
<path d="M46.5 89.2C46.9 91.8 46.9 94.2 45.9 94.8C44.9 95.2 43.9 94.9 42 92.1C40 89.1 40.3 80.4 41 80.2C44.2 79.1 46 86.8 46.5 89.2Z" fill="#F9ACBC"/>
<path d="M36.2 59.4C47.9 67.7 49 87.9 51.5 101C51.9 103.4 52.4 105.9 52.9 108.3C53.5 110.7 54.1 113.1 55.1 115.2C55.4 115.9 55 116.6 54.2 116.9L52.9 117.3C52.3 117.4 51.6 117.2 51.5 116.6C50.5 113.6 49.2 110.6 47.8 107.7C44.9 101.9 41.6 96.3 37.1 91.7C34.8 89.4 32.3 87.4 29.5 86.1C29.2 86 29.1 85.5 29.2 85.2C29.3 84.9 29.6 84.8 30.1 84.9C33.3 86.2 36 88.2 38.3 90.5C45.5 97.6 50.2 106.5 54 115.7L52.6 115L53.9 114.7L53 116.4C52 114 51.4 111.5 50.8 109.1C47.8 95.3 48.1 78.2 40.6 66.1C39.3 64.1 37.6 62.2 35.7 60.8C34.9 60 35.5 59 36.2 59.4Z" fill="#000072"/>
<path d="M45.9 62.3C46.3 75.3 39.7 109.7 23.7 111.2C3.8 113.1 -0.499999 71.9 4.3 60.7C9.1 49.6 35.5 45.4 47.5 54.7L45.9 62.3Z" fill="white"/>
<path d="M21 107.8C17.5 107.2 14.4 104.6 11.8 100C5.49998 88.6 4.49998 68.5 7.29998 61.9C9.89998 55.7 23.4 51.5 35.1 53.3C38.4 53.7 41.4 54.7 43.7 56.2L42.4 62.1V62.5C42.8 75.5 35.9 106.8 23.3 108C22.6 107.9 21.8 107.9 21 107.8Z" fill="white"/>
<path d="M23.4 107.8C22.5 107.9 21.8 107.8 21.1 107.8C17.6 107.2 14.5 104.6 11.9 100C11.3 99 10.7 97.8 10.3 96.7C12.9 100.3 15.9 102.5 19.2 102.9C20.1 103 21.1 103 21.9 102.9C32.3 101.9 39.2 83.8 42.3 67.9C41.1 82.7 34.5 106.8 23.4 107.8Z" fill="#DFE8F4"/>
<path d="M45.9 62.3C47.2 76.1 42.2 102.9 29.5 110.7C24.6 113.7 17.8 113 13.4 109.3C4.49998 101.7 1.69999 86.1 1.29999 74.9C1.19999 71.4 1.29999 67.8 1.99999 64.2C2.29999 62.3 2.89999 60.6 3.69999 58.9C6.59999 54 12 51.6 17.1 50C27 47.3 39.6 47.3 48.2 53.6C49.5 54.6 48.1 56.5 46.8 55.6C44.2 53.6 41 52.4 37.9 51.7C28.4 49.5 11.6 51.4 6.09999 60.2C5.39999 61.5 4.89999 63.1 4.69999 64.7C4.09999 68 3.99999 71.3 4.09999 74.8C4.49999 84.7 6.39999 95.2 12 103.6C15.7 109.1 22.2 111.8 28.3 108.4C39.4 101.4 45 74.8 45.9 62.3Z" fill="#000072"/>
<path d="M24.3 167.8C19.7 164.1 13.9 161.8 7.99998 162C7.59998 162 7.09999 162 6.79999 162C7.99999 161.6 9.19998 161.3 10.4 161.3C15.7 160.9 21.3 163.5 24.3 167.8Z" fill="#000072"/>
<path d="M23.1 174.3C17.8 172 12 171.1 6.29998 171.6C5.89998 171.6 5.59998 171.6 5.09998 171.6C11.1 169.2 18.2 170.3 23.1 174.3Z" fill="#000072"/>
<path d="M22.3 179.9C17.4 179.2 12.7 179.8 7.89996 181.2C8.29996 180.8 8.89996 180.5 9.49996 180.2C13.4 178 18.4 177.7 22.3 179.9Z" fill="#000072"/>
<path d="M138.2 167.4C141.2 162.9 146.7 160.3 152 160.6C153.2 160.7 154.4 160.9 155.6 161.3C155.2 161.3 154.7 161.3 154.4 161.3C148.5 161.2 142.8 163.5 138.2 167.4Z" fill="#000072"/>
<path d="M139.3 173.7C144.2 169.7 151.4 168.5 157.3 170.8C156.9 170.8 156.6 170.8 156.1 170.8C150.4 170.4 144.6 171.5 139.3 173.7Z" fill="#000072"/>
<path d="M140.3 179.5C144.2 177.3 149.2 177.6 153.1 179.6C153.7 179.9 154.1 180.3 154.7 180.6C150 179.2 145.2 178.6 140.3 179.5Z" fill="#000072"/>
<path d="M89.8 207.7C113.7 206.1 133.8 199.5 140.8 184.4C145.7 173.9 139.9 163.2 139.9 163.2C139.8 162.6 142.2 118.9 108.4 103.6C98.9 99.3 90 98.3 81 98.1C72.2 98.2 63.3 99.4 53.8 103.9C20.1 119.3 22.9 163.1 22.7 163.8C22.7 163.8 17.1 174.5 22 185C29.2 200 49.4 206.4 73.2 207.9L89.8 207.7Z" fill="white"/>
<path d="M140.8 184.4C139.6 186.8 138.1 189.2 136.3 191.2C127.1 201.6 109.7 206.5 89.8 207.8H73.4C53.5 206.6 36.1 201.9 26.8 191.7C24.9 189.7 23.5 187.4 22.2 184.9C17.2 174.4 22.8 163.7 22.9 163.7C23 163.1 20.2 119.4 54 103.8C63.5 99.5 72.4 98.2 81.2 98C90 98 98.9 99.2 108.6 103.5C142.4 118.6 140 162.4 140.1 163.1C139.9 163.2 145.6 173.9 140.8 184.4Z" fill="white"/>
<path d="M136.3 191.1C127.1 201.5 109.7 206.4 89.8 207.7H73.4C53.5 206.5 36.1 201.8 26.8 191.6C35.9 195.8 55.3 203 81.6 202.8C107.8 202.6 127.2 195.4 136.3 191.1Z" fill="#DFE8F4"/>
<path d="M89.8 207.7C102.8 205.1 116.3 203.4 127.7 196.5C134.2 192.6 139.8 186.6 141.2 178.9C142.1 174.1 141.2 169.3 139.5 164.8C139.4 164.7 139.2 164.2 139.1 163.9C139 163.6 138.8 163.5 138.8 163.2V163.3C138.8 163 138.8 162.6 138.8 162.3C138.8 149.9 136.4 137.1 130.6 126.2C125.3 115.8 116.1 107.6 105.1 103.6C90.4 98 71.8 98.1 57.3 103.7C32.8 112.9 23.8 139.1 24 163.4C24 164 24 164 23.6 164.7C21.7 168.9 20.9 173.6 21.4 178.1C21.8 181.3 23 184.3 24.7 186.9C33.2 199.4 49.2 203 63.3 205.8C66.6 206.4 69.9 207 73.2 207.7C69.9 208 66.4 208 63.1 207.7C49.9 206.5 35 202.7 25.7 192.7C22.2 189 19.7 184.4 18.9 179.3C18.2 174.1 19 168.6 21.2 163.9L21.3 163.6L21.4 163.5C21.4 163.6 21.3 163.8 21.4 163.8V163.7V163.6V163.2C21.1 137.9 30.9 111.4 56.2 101.7C71.5 95.7 90.6 95.7 105.9 101.4C117.4 105.6 127.1 114.4 132.7 125.2C138.7 136.7 141.3 150 141.2 162.9V163V163.1C141.2 163 141.2 162.8 141.2 162.8L141.3 162.9C143.2 166.8 144.2 171.1 144.2 175.3V176.6C144.2 177 144.1 178.2 144.1 178.6C144 179 143.8 180 143.7 180.6C138 201.8 108.8 208.7 89.8 207.7Z" fill="#000072"/>
<path d="M124.94 182.303C131.291 182.275 136.423 178.402 136.402 173.653C136.381 168.903 131.216 165.075 124.865 165.103C118.513 165.131 113.381 169.004 113.402 173.753C113.423 178.503 118.589 182.331 124.94 182.303Z" fill="#FFABAB"/>
<path d="M37.7392 182.703C44.0904 182.675 49.2223 178.802 49.2015 174.053C49.1807 169.303 44.0151 165.475 37.6638 165.503C31.3125 165.531 26.1807 169.404 26.2015 174.153C26.2223 178.903 31.3879 182.731 37.7392 182.703Z" fill="#FFABAB"/>
<path d="M39.4 114C55.1 97.9 71.2 101 73.2 86.1C73.2 86.1 80.1 90.7 79 97.3C81 95.7 83.6 92.8 93.4 94.3C102 95.5 106.1 92.1 106.5 92.3C106.9 92.4 107.1 103.1 94.8 105.5" fill="white"/>
<path d="M38.5 113.1C43.8 107.5 50.6 103.3 57.5 100.1C60.8 98.5 64.3 96.9 67.1 94.8C70 92.6 71.6 89.5 72 85.9C72.1 85.2 72.7 84.7 73.4 84.9C74.3 85 74.8 85.8 75.4 86.2C77.7 88.2 79.6 90.8 80.2 93.7C80.5 95 80.5 96.3 80.2 97.4L78.2 96.2C81.5 93 85.8 92.3 90.3 92.6C92.2 92.7 94.3 93 96.3 93.2C99.5 93.3 102.5 92.8 105.2 91.3C105.6 91.2 105.9 90.9 106.5 90.9C106.8 90.9 107.1 91 107.4 91.2C107.5 91.3 107.7 91.8 107.8 91.9C108.1 93.6 107.8 95.2 107.2 96.8C105.5 102 100 105.1 94.7 105.3C99.3 103.6 103 100.7 104.6 95.9C105 94.7 105.3 93.6 105.2 92.4C105.2 92.4 105.2 92.4 105.3 92.5C105.4 92.6 105.7 92.9 105.9 93.1C106 93.1 106 93.1 106.2 93.1C106.3 93.1 106.5 93.1 106.5 93.1C102.3 95.3 97.4 95.8 92.8 95.1C92.1 95 90.6 94.8 89.9 94.8C86 94.5 82.4 95.1 79.5 98C78.6 98.7 77.3 97.9 77.5 96.8C77.6 95.8 77.6 94.9 77.5 93.9C76.9 91 74.8 88.4 72.3 86.8L74.2 85.9C73.8 89.9 71.6 94 68.4 96.4C65.2 98.8 61.8 100.4 58.3 102C54.8 103.6 51.5 105.3 48.5 107.5C45.5 109.5 42.6 112 40 114.6C39.1 116 37.4 114.4 38.5 113.1Z" fill="#000072"/>
<path d="M73.8 101.4C75.7 100.1 77 98.5 78.1 96.5L80 98.1C78.3 99.6 76.1 100.9 73.8 101.4Z" fill="#000072"/>
<path d="M51.4 128.5C52 125.8 56.9 116.6 62.2 120.2C64.1 121.5 63.9 125.2 61.5 126.1C57.8 127.2 57 126.8 51.4 128.5Z" fill="#000072"/>
<path d="M111 128.2C110.4 125.5 105.5 116.3 100.2 119.9C98.3 121.2 98.5 124.9 100.9 125.8C104.6 127.1 105.3 126.6 111 128.2Z" fill="#000072"/>
<path d="M82.7 174.4L82.5 174.6V174.4H82.7Z" fill="#3B0372"/>
<path d="M82.9 174.4V174.6L82.7 174.4H82.9Z" fill="#3B0372"/>
<path d="M92.1 176.2C90.9 178.9 89.9 188.9 82 188.9C74.1 188.9 73.1 179 71.9 176.2C70.3 172.5 81.7 173.2 82 173.3C82.3 173.3 93.7 172.3 92.1 176.2Z" fill="#3B0372"/>
<path d="M92.1 176.2C91.5 177.8 90.8 181.5 89.1 184.5C87.7 186.9 85.5 189 82 189C78.5 189 76.4 187 74.9 184.7C73.2 181.7 72.5 177.9 71.9 176.5C70.3 172.8 81.7 173.5 82 173.6C82.3 173.3 93.7 172.3 92.1 176.2Z" fill="#000072"/>
<path d="M89.2 184.4C87.8 186.8 85.6 188.9 82.1 188.9C78.6 188.9 76.5 186.9 75 184.6C76.6 182.6 79.2 181.7 82.1 182.9C84.9 181.5 87.5 182.5 89.2 184.4Z" fill="#FF8080"/>
<path d="M83.6 182.2C82.6 182.5 82.2 183.5 82.2 183.5C82.2 183.5 81.8 182.5 80.8 182.2L82.2 182.1L83.6 182.2Z" fill="#000072"/>
<path d="M82 189.8C74.8 189.8 72.6 182.5 71.6 178.4C71.3 177.5 71.2 176.8 71 176.4C70.6 175.5 70.7 174.7 71.1 174C72.7 171.7 79.2 171.8 81.9 172C84.1 171.9 91 171.6 92.7 173.9C93.3 174.6 93.3 175.5 93 176.3C92.9 176.7 92.6 177.5 92.4 178.3C91.4 182.5 89.4 189.8 82 189.8C82.2 189.8 82.2 189.8 82 189.8ZM79.4 174.1C76.1 174.1 73.5 174.5 73.1 175.3C73.1 175.3 73 175.4 73.1 175.7C73.4 176.3 73.5 177 73.8 177.9C75.2 182.8 77 187.7 82.1 187.7C87.3 187.7 89.2 182.8 90.4 177.9C90.7 177 90.8 176.2 91.1 175.7C91.2 175.4 91.1 175.4 91.1 175.3C90.4 174.3 85.8 174 82 174.3C81.2 174.1 80.1 174.1 79.4 174.1Z" fill="#000072"/>
<path d="M95.4 170.3C95.4 170.3 94.2 175.9 90.9 177.4C87.4 178.8 84.6 177 83 175.7C82.4 175.3 82.1 174.5 82 173.8C82 174.5 81.7 175.2 81.1 175.7C79.5 177 76.6 179 73.2 177.4C69.9 176 68.7 170.3 68.7 170.3C68.7 170.3 71.9 165 82.1 165C92.4 164.9 95.4 170.3 95.4 170.3Z" fill="white"/>
<path d="M82.7 169.8C83 170.8 83.1 171.7 83.3 172.7L83.4 173.4C83.5 174.6 83.3 175.7 82.4 176.6C79.8 178.8 75.9 180.2 72.9 178.5C69.9 176.9 68.9 173.5 68.7 170.4C69.9 172.8 71.3 175.6 73.7 176.4C76 177.1 78.3 176 80 174.5C80.3 174.2 80.6 174.1 80.6 173.8C80.7 172.5 80.9 171.2 81.3 169.9C81.4 169.5 81.9 169.3 82.2 169.5C82.5 169.4 82.7 169.7 82.7 169.8Z" fill="#000072"/>
<path d="M82.7 169.8C83.1 171.1 83.3 172.4 83.4 173.7C83.5 174 83.8 174.3 84 174.4C84.6 174.8 85.2 175.3 85.9 175.7C90.9 178.3 93.5 174.5 95.4 170.2C95.4 172.2 94.8 174.2 93.8 176C92.6 177.9 90.2 179.2 87.9 179.2C85.6 179.2 83.4 178 81.7 176.6C80.8 175.7 80.5 174.6 80.7 173.4L80.8 172.7C80.9 171.7 81.1 170.7 81.4 169.8C81.6 169.1 82.6 169.1 82.7 169.8Z" fill="#000072"/>
<path d="M89.2 166.7C87.9 170.6 82 172.7 82 172.7C82 172.7 76.1 170.5 74.8 166.8C73.8 164.1 80.7 163.6 82 163.6C83.3 163.5 90.2 163.9 89.2 166.7Z" fill="#000072"/>
<g opacity="0.82">
<path d="M85 164.9C84.4 165.9 82 165.9 82 165.9C82 165.9 79.6 165.9 79 164.9C78.6 164.2 81.4 164 82 164C82.6 164.1 85.5 164.2 85 164.9Z" fill="white"/>
</g>
<path d="M57.8449 166.802C63.423 166.781 67.9253 161.526 67.9012 155.064C67.877 148.603 63.3356 143.381 57.7575 143.402C52.1794 143.423 47.677 148.678 47.7012 155.14C47.7253 161.602 52.2668 166.823 57.8449 166.802Z" fill="#000072"/>
<path d="M60.6169 156.002C62.4394 155.995 63.9099 154.109 63.9012 151.79C63.8925 149.47 62.4081 147.595 60.5855 147.602C58.763 147.609 57.2925 149.495 57.3012 151.814C57.3099 154.134 58.7944 156.009 60.6169 156.002Z" fill="white"/>
<g opacity="0.2">
<path d="M54.112 162.102C55.1614 162.098 56.0072 160.797 56.0012 159.195C55.9952 157.593 55.1397 156.298 54.0904 156.302C53.041 156.306 52.1952 157.608 52.2012 159.209C52.2072 160.811 53.0627 162.106 54.112 162.102Z" fill="white"/>
</g>
<path d="M105.631 166.701C111.209 166.687 115.717 161.437 115.701 154.975C115.684 148.513 111.149 143.287 105.571 143.301C99.9925 143.315 95.4841 148.565 95.5008 155.027C95.5174 161.489 100.053 166.715 105.631 166.701Z" fill="#000072"/>
<path d="M102.912 155.901C104.734 155.896 106.207 154.012 106.201 151.692C106.195 149.373 104.712 147.496 102.89 147.501C101.067 147.506 99.5948 149.39 99.6007 151.71C99.6067 154.029 101.089 155.906 102.912 155.901Z" fill="white"/>
<g opacity="0.2">
<path d="M109.408 161.901C110.458 161.898 111.305 160.598 111.301 158.996C111.297 157.394 110.443 156.098 109.393 156.101C108.344 156.104 107.497 157.404 107.501 159.006C107.505 160.608 108.359 161.904 109.408 161.901Z" fill="white"/>
</g>
<path d="M119.2 306.9H95.4C91.5 306.9 88.1 304.3 87.2 300.4C86.9 298.8 86.6 297.2 86.6 295.2C85 291.9 84.2 288.3 83.9 284C82.3 284 80.6 284 78.7 284C78.4 288.3 77.4 292.1 76 295.2C76 297.2 75.7 298.9 75.4 300.4C74.5 304.1 71.1 306.9 67.2 306.9H43.4C41.1 306.9 38.9 305.7 37.6 303.9C36.3 302 36 299.7 36.7 297.7C37.4 295.5 39 293.8 41 292.7C36.4 288.8 33.7 283.5 33.4 277.7C33.1 271.7 35.4 265.3 39.7 260.6C37.3 259.3 35.1 257.7 33.1 256.1C27.2 251.1 24.8 243 26.6 235.8C29.8 223.9 40.7 214.4 50.5 207C39.4 204.4 30.8 199.9 24.9 193.5C21.3 189.5 18.7 184.7 17.8 179.8V179.7C17.8 179.6 17.8 179.6 17.8 179.4C17.8 179.2 17.8 179.1 17.8 179V178.9C17.5 176.9 17.5 174.7 17.8 172.7C17.8 172.4 17.9 172 17.9 171.7C18.2 169.4 18.8 167.1 19.6 164.9C19.7 164.6 19.9 164.3 20 164C20.1 163.7 20.1 163.6 20.3 163.3V163.2V163.1C20 142.5 26.2 124.7 37.4 112.7C37.5 112.6 37.5 112.6 37.7 112.4C39.1 110.8 40.7 109.4 42.6 107.9C41.4 105.9 40.2 104 38.9 102.3C36.5 106.6 33.4 109.8 30.3 111.8C25 115.1 17.6 114.5 12.7 110.2C2.6 101.7 0.600001 84.4 0.200001 74.8C0.100001 70.6 0.300005 67.2 0.900005 63.9C1.20001 62.2 1.80001 60.2 2.80001 58.1C5.40001 53.8 10 50.8 17.1 48.6C29.3 45.1 41.4 46.6 49.2 52.3H49.3C57.1 59.4 62.1 78.6 63.8 95.2C64.8 94.6 65.7 94 66.4 93.5C68.8 91.6 70.4 88.9 70.9 85.4C71 84.7 71.3 84.1 71.9 83.7C72.5 83.3 73.1 83.1 73.8 83.1H73.9C74.8 83.2 75.5 83.8 75.9 84.3C76 84.4 76.2 84.6 76.3 84.6H76.4C79 86.9 80.7 89.5 81.4 92.1C84 90.9 87 90.5 90.5 90.7C91.4 90.7 92.4 90.8 93.4 91C94.4 91.1 95.4 91.3 96.4 91.3C98 91.3 99.6 91.2 101.2 90.9C101.1 61.4 107.4 36.8 118.9 21.2C127.7 9.40003 139.1 1.90003 150 0.300033C155.6 -0.399967 160.5 0.40003 163.8 3.00003C179.5 15.5 162.9 40.9 145.5 67.5C136.6 81.2 127.4 95.4 121.7 108.4C126.7 112.7 130.9 118 133.9 123.8C139.7 134.6 142.5 147.7 142.5 161.9C142.6 162.2 142.6 162.3 142.8 162.6C142.9 162.9 143.1 163.2 143.2 163.6C144.1 165.8 144.6 168.1 145.1 170.4C145.1 170.7 145.2 171.1 145.2 171.4C145.3 172.6 145.3 173.7 145.3 174.7V176.1C145.3 176.4 145.3 176.8 145.2 177.3V177.6C145.2 177.7 145.2 178 145.2 178.2V178.3C145.2 178.4 145.2 178.6 145.1 178.7L145 179.3C145 179.6 144.9 180 144.9 180.2V180.3C141.7 192.8 129.8 202.2 112.1 206.2C122 213.5 132.8 223 136.1 235C138.1 242.3 135.5 250.3 129.6 255.3C127.6 257 125.3 258.6 122.8 259.9C127 264.7 129.3 270.8 129 276.9C128.7 282.7 126 287.8 121.4 291.9C123.4 293.1 125 294.8 125.7 296.9C126.4 299.1 126.1 301.2 124.8 303.1C123.5 305.7 121.5 306.9 119.2 306.9ZM86.2 281.2V282.5C86.5 287 87.4 290.8 88.8 294.2C88.9 294.5 88.9 294.8 89.1 295.1C89.1 297 89.2 298.6 89.7 299.9C90.3 302.5 92.6 304.4 95.3 304.4H119C120.4 304.4 121.9 303.7 122.6 302.5C123.5 301.3 123.6 299.9 123 298.6C122.3 296.6 120.4 295 118.1 294.1L115.7 293.4L117.7 292C122.9 288.4 125.8 283.4 126 277.7C126.3 271.8 123.8 265.8 119.4 261.4L118.1 260.1L119.8 259.2C122.7 257.8 125.4 256.2 127.6 254.2C132.8 249.7 134.9 242.8 133.2 236.5C129.9 224.4 117.9 214.6 107.9 207.4L105.5 205.7L108.4 205.1C117 203.4 137.5 197.6 141.9 180.5C141.9 180.2 142 179.9 142 179.6L142.1 179C142.1 178.9 142.1 178.7 142.1 178.6C142.1 178.5 142.1 178.3 142.1 178.2V177.9C142.1 177.5 142.2 177 142.2 176.9V175.6C142.2 174.6 142.2 173.6 142.1 172.6C142.1 172.3 142 172 142 171.6C141.7 169.6 141.1 167.4 140.3 165.4C140.2 165.1 140 164.8 139.9 164.5C139.8 164.2 139.6 163.9 139.5 163.6L139.4 163.3V163V162.9C139.4 149.1 136.5 136.3 131.1 125.9C128.1 120.1 123.9 114.8 118.9 110.6L118.2 110L118.5 109.1C124.1 95.6 133.6 81 142.8 66.9C159.6 41.1 175.5 16.8 161.7 5.70003C159 3.70003 154.8 2.80003 149.9 3.50003C139.5 4.90003 128.9 12.1 120.5 23.4C109.1 38.7 102.9 63.3 103.4 92.5V93.5L102.4 93.8C100.4 94.4 98.2 94.7 95.9 94.5C94.9 94.5 93.7 94.4 92.6 94.2C91.6 94.1 90.7 93.9 89.9 93.9C86.2 93.6 83.1 94.3 80.7 95.8L79 96.8L78.9 94.8C78.9 94.5 78.8 94.2 78.8 93.9C78.2 91.5 76.8 89.1 74.5 87.1C74.4 87 74.2 86.8 73.9 86.7C73.6 86.4 73.3 86.3 73.2 86.1C72.8 90.1 70.9 93.4 67.9 95.7C66.6 96.7 65.2 97.7 63.1 98.7L61.4 99.6L61.3 97.7C59.6 77.8 54 60.4 47.5 54.5C40.3 49.2 29.1 48 17.6 51.2C11.3 53.1 7.10001 55.8 4.90001 59.5C4.00001 61.1 3.60001 63 3.30001 64.4C2.70001 67.4 2.6 70.7 2.6 74.8C2.9 82.1 4.50001 100.1 14.1 108.3C18.1 111.8 24.3 112.3 28.6 109.6C31.9 107.6 34.8 104.1 37.2 99.4L38.1 97.7L39.4 99.3C41.4 102 43.3 104.8 45 107.8L45.6 108.8L44.7 109.5C42.7 111.1 41 112.7 39.2 114.4V114.5L39.1 114.6C28.3 126 22.4 143.4 22.5 163.3V164L22.2 164.6C22.1 164.7 22.1 165 21.9 165.3C21.8 165.6 21.6 165.9 21.6 166.2C20.9 168.2 20.3 170.2 20 172.4C20 172.7 19.9 173 19.9 173.4C19.8 175.3 19.8 177.3 19.9 179V179.1C19.9 179.2 19.9 179.2 19.9 179.4C19.9 179.4 19.9 179.5 19.9 179.7V179.8C20.6 184.1 22.9 188.6 26.2 192.2C32.2 198.7 41.6 203.3 53.4 205.6L56.3 206.2L53.9 207.9C43.8 215.1 32 224.9 28.7 237C27 243.3 29.1 250.4 34.3 254.7C36.5 256.6 39.1 258.3 41.9 259.6L43.6 260.5L42.3 261.8C37.8 266.1 35.2 272.2 35.5 278.2C35.8 284 38.7 288.9 43.8 292.5L45.8 293.9L43.4 294.6C41.1 295.3 39.4 296.9 38.5 299.1C38.1 300.4 38.2 301.8 38.9 303C39.8 304.2 41.1 304.9 42.5 304.9H66C68.7 304.9 71 303 71.6 300.4C71.9 299.1 72 297.5 72.2 295.6C72.2 295.3 72.3 295 72.3 294.7C73.9 291.4 74.7 287.6 74.9 283V281.7L76.2 281.8C78.9 281.9 81.4 281.9 83.7 281.8L86.2 281.2Z" fill="#000072"/>
</svg>
