<svg width="368" height="640" viewBox="0 0 368 640" fill="none" xmlns="http://www.w3.org/2000/svg">
<path d="M23.2 0H343.2C354.2 0 363.2 9 363.2 20V620C363.2 631 354.2 640 343.2 640H23.2C12.2 640 3.20001 631 3.20001 620V20C3.20001 9 12.2 0 23.2 0Z" fill="#3D94A8"/>
<path d="M-14.4 235.6C18.1 235.6 50.3 244.1 82.7 243.2C130.4 241.9 175.9 211.6 212.6 177.3" stroke="black" stroke-opacity="0.2" stroke-linecap="round"/>
<path d="M201.5 117.6C192.5 104.9 183.6 91.3 183.6 75.1C183.6 52.4 199.5 41.5 220.5 39.5C251.4 36.4 282.8 42 313.8 41.6C343.3 41.3 371.7 37.2 400 28.9C428.5 20.5 454.3 7.59998 481.5 -3.80002" stroke="black" stroke-opacity="0.2" stroke-linecap="round"/>
<path d="M0.800002 369.6C10.2 354.8 60.1 310.5 74.6 338.2C80 348.6 78.1 362 75.8 373C68.8 407.1 50.7 438.3 34 468.3C18.3 496.5 -2.3 524.6 -11 556C-13.1 563.6 -14.1 569.9 -14.3 577.7C-14.5 586.5 -11.6 592.3 -9.6 600.5" stroke="black" stroke-opacity="0.2" stroke-linecap="round"/>
<path d="M20.6 -40.7C23 -31.8 33.3 -24.8 39.5 -18.9C60.5 0.999989 83.3 23.3 92.8 51.3C105.8 89.7 80.2 119.4 57.7 148.3C31.2 182.1 2.40001 214 -21.4 249.8" stroke="black" stroke-opacity="0.2" stroke-linecap="round"/>
<path d="M371.2 68.3C372.9 76.8 373 87.7 371.3 96.2C368 113.3 361.5 128.3 356.5 142.9C349.5 163.3 341.9 183.6 336.3 206.1C326.6 245.3 330 283.3 339.7 320.6C345.9 344.5 353.3 366.9 358.8 391.6C363 410.7 365 429.9 367.3 450.3" stroke="black" stroke-opacity="0.2" stroke-linecap="round"/>
<path d="M185.3 507.7C284.38 507.7 364.7 427.38 364.7 328.3C364.7 229.22 284.38 148.9 185.3 148.9C86.2201 148.9 5.89999 229.22 5.89999 328.3C5.89999 427.38 86.2201 507.7 185.3 507.7Z" fill="white" fill-opacity="0.1"/>
<path d="M75.5 447.9C-55 313.4 84.9 205.9 78.8 205.8C54.8 205.3 26.9 87.7 50.6 61.8C74.2 35.9 136 164.7 144.6 171.2C165.1 157.9 232.9 173.1 232.9 173.1C232.9 173.1 238.2 82.2 277.2 61.6C316.1 41 323 161.6 289.9 204.2C314.3 203.8 402.7 352.1 294.9 447.9C187.1 543.7 85.6 458.9 75.5 447.9Z" fill="#EAE8E9" stroke="white" stroke-width="5" stroke-miterlimit="10"/>
<path d="M100.3 195.2C71.4 195.2 50.8 105.9 60.7 97.6C79.8 86.9 121.7 162.4 121.7 183.8C121.7 183.8 106.4 195.2 100.3 195.2Z" fill="#F9ACBC"/>
<path d="M246.7 180.7L274.1 195.2C289 182.1 300 104.4 287 90.7C274.1 77 246.7 150.1 246.7 180.7Z" fill="#F9ACBC"/>
</svg>
