<svg width="393" height="852" viewBox="0 0 393 852" fill="none" xmlns="http://www.w3.org/2000/svg">
<mask id="mask0_1_4" style="mask-type:luminance" maskUnits="userSpaceOnUse" x="0" y="0" width="393" height="852">
<path d="M393 0H0V852H393V0Z" fill="white"/>
</mask>
<g mask="url(#mask0_1_4)">
<path d="M393 0H0V852H393V0Z" fill="white"/>
<path d="M-372.2 835.1C-466.7 993.7 -550.7 1298.1 -550.7 1298.1L-1478 1157L-1054.3 -1627.3L1529.3 -1234.2C1529.3 -1234.2 1567.2 -429.5 1349.4 -51.6C1137 316.8 826 -24 582.2 452C338.4 928 -114.1 402.1 -372.2 835.1Z" fill="#3D94A8" stroke="black" stroke-miterlimit="10"/>
<path d="M-372.2 835.1C-466.7 993.7 -550.7 1298.1 -550.7 1298.1L-1478 1157L-1054.3 -1627.3L1529.3 -1234.2C1529.3 -1234.2 1567.2 -429.5 1349.4 -51.6C1137 316.8 826 -24 582.2 452C338.4 928 -114.1 402.1 -372.2 835.1Z" stroke="black"/>
</g>
</svg>
