<svg width="391" height="852" viewBox="0 0 391 852" fill="none" xmlns="http://www.w3.org/2000/svg">
<g clip-path="url(#clip0_24_2)">
<path d="M391 0H-2V852H391V0Z" fill="white"/>
<path d="M424.7 354.9C470.4 325.3 532.4 255.9 532.4 255.9L759 414.3L283.3 1094.9L-348.2 653.5C-348.2 653.5 -253.1 435.9 -146.1 364.4C-41.8 294.8 -4.20001 425.5 122.4 331.5C249 237.5 299.9 435.7 424.7 354.9Z" fill="#3D94A8" stroke="black" stroke-miterlimit="10"/>
<path d="M424.7 354.9C470.4 325.3 532.4 255.9 532.4 255.9L759 414.3L283.3 1094.9L-348.2 653.5C-348.2 653.5 -253.1 435.9 -146.1 364.4C-41.8 294.8 -4.20001 425.5 122.4 331.5C249 237.5 299.9 435.7 424.7 354.9Z" fill="#3D94A8" stroke="black" stroke-miterlimit="10"/>
</g>
<defs>
<clipPath id="clip0_24_2">
<rect width="393" height="852" fill="white" transform="translate(-2)"/>
</clipPath>
</defs>
</svg>
