<svg width="175" height="67" viewBox="0 0 175 67" fill="none" xmlns="http://www.w3.org/2000/svg">
<path d="M51.2 7.29999L48.4 13.2L41.4 13L38.9 16.3L45.1 18.7L41.4 23.3L35.6 20.8L32.2 25.2L37.2 27.7L34.3 32.9L28.4 29.9L15 47.6L45.2 45.7L47.2 59.5L1.89999 58.4L35 12.9L7.89999 12L9.99999 0.700012L51.2 7.29999ZM16.1 19.2L15 28.2L6.99999 26.3L9.59999 20.7L16.1 19.2ZM20.7 52.6C20.7 51.8 20.5 51.2 20.1 50.8C19.7 50.4 19.2 50.2 18.4 50.2C17.6 50.2 17.1 50.4 16.7 50.8C16.3 51.2 16.1 51.8 16.1 52.6C16.1 53.4 16.3 54 16.7 54.4C17.1 54.8 17.6 55 18.4 55C19.2 55 19.7 54.8 20.1 54.4C20.5 54 20.7 53.4 20.7 52.6ZM31.1 52.6C31.1 51.8 30.8 51.1 30.2 50.5C29.6 49.9 28.9 49.6 28.1 49.6C27.3 49.6 26.6 49.9 26 50.5C25.4 51.1 25.1 51.8 25.1 52.6C25.1 53.4 25.4 54.1 26 54.7C26.6 55.3 27.3 55.6 28.1 55.6C28.9 55.6 29.6 55.3 30.2 54.7C30.8 54.1 31.1 53.4 31.1 52.6ZM40.7 52.8C40.7 52 40.5 51.5 40.2 51.1C39.8 50.7 39.3 50.5 38.5 50.5C37.7 50.5 37.2 50.7 36.8 51.1C36.4 51.5 36.2 52.1 36.2 52.8C36.2 53.6 36.4 54.1 36.8 54.5C37.2 54.9 37.8 55 38.5 55C39.3 55 39.8 54.8 40.2 54.5C40.5 54.1 40.7 53.6 40.7 52.8Z" fill="#FF8431" stroke="black" stroke-miterlimit="10"/>
<path d="M92.4 41.7L88.1 42.9C88.2 43.3 88.2 43.8 88.3 44.3C88.3 44.8 88.4 45.3 88.4 45.9C88.4 46.7 88.3 47.5 88.2 48.3C88.1 49.1 87.9 49.9 87.7 50.7L91.1 52.3L89.4 55.3L86.7 53.4C85.8 55.3 84.7 56.8 83.3 58.1C81.9 59.4 80.3 60.4 78.4 61.1L79.4 65.2L76.3 66L75.7 62C75 62.1 74.4 62.2 73.9 62.3C73.4 62.4 73 62.4 72.6 62.4C71.2 62.4 69.9 62.2 68.6 61.9C67.3 61.6 66 61 64.8 60.3L62.3 64.2L59.6 62.6L62.5 58.5C61.6 57.7 60.8 56.9 60.1 56C59.4 55.1 58.8 54 58.3 52.9L54 54.2L53.4 51.3L57.3 50.4C57.1 49.6 56.9 48.7 56.9 48C56.8 47.2 56.8 46.5 56.8 45.9C56.8 45.2 56.8 44.5 56.9 43.8C57 43.1 57.1 42.5 57.3 41.9L53.5 40.7L54.3 37.8L58.2 39.4C58.7 38 59.5 36.7 60.3 35.6C61.2 34.5 62.2 33.5 63.4 32.6L61.1 29L63.7 27.2L66 31C67 30.5 68.1 30.1 69.2 29.9C70.3 29.7 71.5 29.5 72.6 29.5C73.8 29.5 74.9 29.6 76 29.9C77.1 30.1 78.1 30.5 79.1 30.9L80.9 27.6L83.6 29.1L81.8 32.4C83.1 33.4 84.3 34.5 85.3 35.8C86.3 37.1 87.1 38.5 87.7 40.1L91.9 38.3L92.4 41.7ZM78.8 45.8C78.8 44.4 78.7 43 78.4 41.8C78.1 40.6 77.7 39.5 77.1 38.5C76.4 37.3 75.5 36.4 74.5 35.8C73.5 35.2 72.3 34.9 71 34.9C69.7 34.9 68.5 35.2 67.5 35.8C66.5 36.4 65.6 37.3 64.9 38.5C64.3 39.5 63.9 40.6 63.6 41.8C63.3 43 63.2 44.3 63.2 45.7C63.2 47.2 63.3 48.5 63.6 49.8C63.9 51.1 64.3 52.1 64.9 53.1C65.6 54.3 66.5 55.2 67.5 55.8C68.5 56.4 69.7 56.7 71 56.7C72.4 56.7 73.6 56.4 74.6 55.8C75.6 55.2 76.5 54.3 77.2 53.1C77.7 52.1 78.2 51 78.5 49.8C78.7 48.6 78.8 47.3 78.8 45.8Z" fill="#FF8431" stroke="black" stroke-miterlimit="10"/>
<path d="M134.3 58.7L121.1 61C121.3 54 121.4 49.3 121.5 46.7C121.6 44.1 121.6 42.6 121.6 41.9C121.6 39.8 121.3 38.2 120.6 37.1C119.9 36 118.9 35.5 117.5 35.5C116.2 35.5 114.8 36.1 113.4 37.3C112 38.5 110.5 40.2 108.9 42.6L107.9 60.3L101.7 61.1L98 29.8L109.7 27.3L109.2 37.1C110.9 34.8 112.7 33.1 114.6 32C116.5 30.9 118.5 30.3 120.5 30.3C123.2 30.3 125.5 31.3 127.2 33.4C128.9 35.5 130.2 38.5 131 42.7L134.3 58.7ZM128.6 45.3C128.6 44.6 128.4 44.1 128.1 43.7C127.8 43.3 127.2 43.1 126.5 43.1C125.8 43.1 125.2 43.3 124.8 43.7C124.4 44.1 124.2 44.6 124.2 45.3C124.2 46.1 124.4 46.6 124.8 47C125.2 47.4 125.7 47.6 126.5 47.6C127.3 47.6 127.8 47.4 128.1 47C128.4 46.6 128.6 46.1 128.6 45.3ZM129.9 53.6C129.9 52.8 129.6 52.2 129 51.6C128.4 51.1 127.8 50.8 127 50.8C126 50.8 125.3 51 124.9 51.5C124.4 52 124.2 52.7 124.2 53.6C124.2 54.5 124.4 55.2 124.9 55.7C125.4 56.2 126.1 56.4 127 56.4C127.8 56.4 128.4 56.1 129 55.6C129.6 55.1 129.9 54.4 129.9 53.6Z" fill="#FF8431" stroke="black" stroke-miterlimit="10"/>
<path d="M173.6 56.5V58.3C170.1 59.9 166.6 61.1 163.1 61.9C159.6 62.7 156.2 63.1 152.9 63.1C151 63.1 149.3 62.9 147.8 62.6C146.3 62.3 144.9 61.7 143.6 61C142.1 60.2 141 59.1 140.3 57.8C139.6 56.5 139.2 54.9 139.2 53.2C139.2 50.1 140.8 47.3 143.9 44.9C147 42.5 151.7 40.4 157.8 38.6C157.3 37.1 156.4 36 155.3 35.3C154.2 34.6 152.6 34.2 150.7 34.2C148.7 34.2 146.9 34.6 145.3 35.4C143.7 36.2 142.2 37.4 141 39L139.2 37.2C141.1 34.3 143.5 32.1 146.3 30.6C149.1 29.1 152.4 28.4 156.2 28.4C159.3 28.4 161.9 29.2 164.2 30.9C166.5 32.6 168.5 35.1 170.1 38.5C171.4 41.2 172.3 44 172.9 47C173.4 49.9 173.6 53.1 173.6 56.5ZM160.1 54C160.1 51.9 160 49.9 159.8 47.8C159.6 45.8 159.3 43.8 158.9 41.8C156.8 42.4 154.8 43.1 153.1 43.8C151.4 44.5 149.9 45.2 148.6 46L152.1 60.1C153.9 60.1 155.5 60 156.8 59.8C158.1 59.6 159.2 59.3 160 58.8C160 58 160.1 57.2 160.1 56.4C160.1 55.6 160.1 54.8 160.1 54ZM168.2 44.6C168.2 43.8 168 43.2 167.6 42.8C167.2 42.4 166.6 42.2 165.8 42.2C165 42.2 164.4 42.4 163.9 42.8C163.4 43.2 163.3 43.8 163.3 44.6C163.3 45.4 163.5 46 163.9 46.4C164.3 46.8 164.9 47 165.8 47C166.7 47 167.2 46.8 167.6 46.4C168 46.1 168.2 45.4 168.2 44.6ZM169.6 53.9C169.6 53 169.3 52.3 168.7 51.7C168.1 51.1 167.4 50.8 166.5 50.8C165.6 50.8 164.9 51.1 164.3 51.7C163.7 52.3 163.4 53 163.4 54C163.4 54.9 163.7 55.6 164.3 56.2C164.9 56.8 165.7 57.1 166.5 57.1C167.4 57.1 168.1 56.8 168.7 56.2C169.3 55.5 169.6 54.7 169.6 53.9Z" fill="#FF8431" stroke="black" stroke-miterlimit="10"/>
</svg>
